<?xml version="1.0" encoding="utf-8" ?><svg xmlns="http://www.w3.org/2000/svg" xmlns:xlink="http://www.w3.org/1999/xlink" width="38" height="64" viewBox="0 0 38 64"><path fill="#4B2326" transform="scale(0.0749414 0.0749414)" d="M171.279 178.866C171.232 162.339 170.039 149.852 178.46 134.845C194.186 106.82 216.189 102.259 246.951 102.244L274.408 102.232C313.7 102.315 340.446 130.91 337.473 170.092C337.285 172.575 337.458 176.317 337.45 178.866C370.673 191.94 370.744 234.405 337.997 245.831L337.997 333.808C379.354 379.508 384.031 406.594 384.032 464.196L384.015 529.444C389.792 535.341 398.198 542.215 403.127 547.938C386.05 580.285 388.322 576.581 365.642 558.231C337.66 583.657 345.926 576.493 324.878 547.938C330.04 541.337 340.566 533.833 346.491 526.946L346.5 468.749C346.509 446.174 348.168 424.517 337.997 403.583L337.998 443.944C338.021 472.62 341.17 482.982 318.007 504.288L318.007 643.817C334.492 644.866 329.775 664.975 329.864 677.385C346.194 681.979 354.278 694.365 361.547 708.487C374.71 711.045 383.885 724.639 377.611 737.373C370.974 750.845 354.544 747.859 342.166 747.854L283.762 747.851C272.413 747.842 264.77 748.647 254.235 743.463C244.862 749.303 235.827 747.838 225.171 747.848L165.809 747.859C160.528 747.856 154.005 748.102 148.841 747.481C126.51 744.792 127.927 710.325 150.727 708.487C156.775 692.589 165.438 683.839 181.154 677.385C181.101 665.296 177.199 647.57 191.283 643.817L191.283 504.288C171.855 479.837 172.465 481.787 172.474 448.623L172.496 407.368C164.42 424.091 165.724 450.219 165.726 468.591L165.738 528.377C169.074 531.071 184.646 545.102 185.733 548.295C185.399 552.888 171.532 574.411 167.179 576.163C163.168 575.85 151.455 562.121 148.381 558.522L148.133 558.231C145.182 561.015 129.425 573.204 126.371 572.822C121.777 572.248 111.603 551.751 111.497 547.378C111.448 545.362 125.885 530.629 128.093 528.377L128.077 471.527C128.08 420.996 130.441 377.725 169.6 338.542L172.496 335.701L172.496 245.831C139.888 235.299 138.525 193.506 171.279 178.866ZM234.248 643.817C241.832 644.183 248.414 647.807 248.47 656.244C249.501 667.911 249.288 696.814 248.47 708.487C252.384 708.492 258.037 708.686 261.801 708.487C262.13 691.655 261.42 674.653 261.812 657.803C262.026 648.642 266.299 644.559 275.161 643.817L275.161 524.456C260.716 525.981 248.825 526.55 234.248 524.456C233.881 537.181 234.233 551.821 234.235 564.648L234.248 643.817ZM312.754 286.241C360.807 237.063 188.729 224.042 190.31 271.458C190.6 280.176 196.957 284.825 203.289 289.456C221.341 302.358 299.525 305.79 312.754 286.241Z"/><path fill="#888787" transform="scale(0.0749414 0.0749414)" d="M248.47 656.244C249.501 667.911 249.288 696.814 248.47 708.487C252.384 708.492 258.037 708.686 261.801 708.487C260.083 734.274 272.657 732.852 292.206 732.766L322.398 732.742C344.094 732.755 368.055 739.81 361.547 708.487C374.71 711.045 383.885 724.639 377.611 737.373C370.974 750.845 354.544 747.859 342.166 747.854L283.762 747.851C272.413 747.842 264.77 748.647 254.235 743.463C244.862 749.303 235.827 747.838 225.171 747.848L165.809 747.859C160.528 747.856 154.005 748.102 148.841 747.481C126.51 744.792 127.927 710.325 150.727 708.487C147.605 718.574 148.303 732.668 161.636 732.649C187.25 732.613 213.039 733.311 238.614 732.374C255.725 731.749 247.978 670.736 248.47 656.244Z"/><path fill="#B97685" transform="scale(0.0749414 0.0749414)" d="M184.454 153.534C187.562 134.392 203.25 119.516 222.197 115.436C233.128 113.547 273.447 113.234 285.011 114.898C306.45 117.984 323.143 136.051 325.855 157.347C325.578 162.264 325.801 168.389 325.855 173.396C332.781 184.94 331.763 185.897 333.414 197.687C333.593 195.119 333.541 193.558 333.414 191.005C343.345 194.454 350.32 201.82 350.478 212.816C349.765 227.88 340.28 234.549 325.855 234.094L325.826 328.534C325.821 330.382 325.659 337.072 325.855 338.674C364.976 380.081 371.594 406.107 371.58 459.461L371.56 510.014C371.556 516.973 371.213 527.503 371.564 534.217C376.309 539.56 382.882 544.106 388.146 549.636C386.611 552.173 384.473 555.926 382.791 558.231C376.683 551.107 371.719 547.265 365.642 541.039C359.253 547.163 352.85 554 346.491 559.867C344.52 556.47 342.549 552.997 340.528 549.636C346.585 543.754 352.632 538.856 358.599 533.167L358.615 476.799C358.612 433.602 358.397 394.296 325.855 361.194L325.884 452.692C326.12 476.003 324.766 482.644 305.734 498.64C308.403 533.629 304.929 575.771 305.734 611.723L287.376 611.723C286.857 602.648 287.355 587.316 287.357 577.875L287.376 508.895C263.993 515.18 245.501 515.769 222.105 508.895L222.105 611.723L203.289 611.723C203.077 608.774 203.273 602.724 203.278 599.591L203.289 498.64C179.003 476.926 184.428 463.195 184.433 433.586L184.454 362.869L184.057 363.269C153.017 394.985 153.788 437.543 153.8 478.558L153.795 533.167C156.886 536.99 167.286 546.158 171.279 549.636C169.511 553.052 167.587 556.485 165.738 559.867C145.78 538.499 151.812 540.654 128.093 558.231C127.016 554.556 126.572 552.992 124.655 549.636C128.789 544.979 136.552 537.554 139.778 533.167C140.208 527.755 139.798 516.108 139.792 510.164L139.765 469.015C139.751 421.954 143.026 384.644 177.169 347.968C179.927 345.005 184.048 340.859 187.376 338.674C187.125 335.823 184.868 333.013 184.717 329.689C184.224 318.853 184.47 307.729 184.471 296.868L184.454 236.426C168.647 233.678 160.471 227.949 159.161 211.159C160.487 200.671 165.801 193.543 176.022 190.65C176.658 184.193 179.393 178.123 183.809 173.37C182.833 170.886 183.423 157.086 184.454 153.534ZM312.754 286.241C360.807 237.063 188.729 224.042 190.31 271.458C190.6 280.176 196.957 284.825 203.289 289.456C221.341 302.358 299.525 305.79 312.754 286.241Z"/><path fill="#E3A99F" transform="scale(0.0749414 0.0749414)" d="M139.778 533.167C140.208 527.755 139.798 516.108 139.792 510.164L139.765 469.015C139.751 421.954 143.026 384.644 177.169 347.968C179.927 345.005 184.048 340.859 187.376 338.674C192.706 352.869 197.688 367.848 201.844 382.449C208.882 374.554 219.489 358.13 224.757 348.254C229.458 362.739 232.757 377.146 237.283 391.543C244.426 378.938 254.01 357.159 259.644 343.276C268.542 361.275 275.135 382.373 284.234 400.636C288.928 388.762 316.408 352.429 325.855 338.674C364.976 380.081 371.594 406.107 371.58 459.461L371.56 510.014C371.556 516.973 371.213 527.503 371.564 534.217C376.309 539.56 382.882 544.106 388.146 549.636C386.611 552.173 384.473 555.926 382.791 558.231C376.683 551.107 371.719 547.265 365.642 541.039C359.253 547.163 352.85 554 346.491 559.867C344.52 556.47 342.549 552.997 340.528 549.636C346.585 543.754 352.632 538.856 358.599 533.167L358.615 476.799C358.612 433.602 358.397 394.296 325.855 361.194L325.884 452.692C326.12 476.003 324.766 482.644 305.734 498.64C308.403 533.629 304.929 575.771 305.734 611.723L287.376 611.723C286.857 602.648 287.355 587.316 287.357 577.875L287.376 508.895C263.993 515.18 245.501 515.769 222.105 508.895L222.105 611.723L203.289 611.723C203.077 608.774 203.273 602.724 203.278 599.591L203.289 498.64C179.003 476.926 184.428 463.195 184.433 433.586L184.454 362.869L184.057 363.269C153.017 394.985 153.788 437.543 153.8 478.558L153.795 533.167C156.886 536.99 167.286 546.158 171.279 549.636C169.511 553.052 167.587 556.485 165.738 559.867C145.78 538.499 151.812 540.654 128.093 558.231C127.016 554.556 126.572 552.992 124.655 549.636C128.789 544.979 136.552 537.554 139.778 533.167Z"/><path fill="#AF6353" transform="scale(0.0749414 0.0749414)" d="M294.47 439.41C309.943 439.245 322.497 436.39 322.159 456.461C321.993 466.327 323.406 474.992 312.754 480.305C304.543 481.15 287.442 481.998 284.935 471.094C282.493 460.469 281.753 443.474 294.47 439.41Z"/><path fill="#4B2326" transform="scale(0.0749414 0.0749414)" d="M292.304 448.223L312.754 448.223L312.754 468.959L292.304 468.959L292.304 448.223Z"/><path fill="#AF6353" transform="scale(0.0749414 0.0749414)" d="M201.844 391.543C209.967 391.406 224.226 389.625 225.92 401.388C227.404 411.684 228.694 428.052 215.598 431.076C206.738 431.478 191.119 432.728 190.07 420.153C189.081 408.309 186.909 394.324 201.844 391.543Z"/><path fill="#4B2326" transform="scale(0.0749414 0.0749414)" d="M198.035 400.636L217.302 400.636L217.302 420.287L198.035 420.287L198.035 400.636Z"/><path fill="#2F232A" transform="scale(0.0749414 0.0749414)" d="M183.809 173.37C192.561 163.949 206.385 161.241 218.043 166.664C229.701 172.087 236.538 184.405 234.973 197.169C233.409 209.932 223.799 220.234 211.177 222.679C198.554 225.125 185.793 219.158 179.576 207.902C176.672 202.644 175.433 196.628 176.022 190.65C176.658 184.193 179.393 178.123 183.809 173.37Z"/><path fill="#FEFEFE" transform="scale(0.0749414 0.0749414)" d="M204.748 175.665C235.552 171.741 223.549 224.122 197.921 209.995L198.035 209.495C211.008 201.237 193.172 190.059 191.283 204.638C181.985 191.184 188.763 176.816 204.748 175.665Z"/><path fill="#2F232A" transform="scale(0.0749414 0.0749414)" d="M331.571 205.949C322.896 223.245 302.864 228.194 286.946 217.191C257.303 196.701 285.477 142.975 325.855 173.396C332.781 184.94 331.763 185.897 333.414 197.687C333.27 200.342 332.499 203.452 331.571 205.949Z"/><path fill="#FEFEFE" transform="scale(0.0749414 0.0749414)" d="M300.885 175.665C328.148 173.701 330.948 214.147 298.856 211.159C291.698 208.838 307.964 205.898 299.103 198.728C294.948 195.367 290.98 199.047 288.648 202.292C283.396 189.907 287.412 179.172 300.885 175.665Z"/><path fill="#E3A99F" transform="scale(0.0749414 0.0749414)" d="M184.454 153.534C187.562 134.392 203.25 119.516 222.197 115.436C233.128 113.547 273.447 113.234 285.011 114.898C306.45 117.984 323.143 136.051 325.855 157.347C312.652 144.652 312.898 130.224 285.995 126.091C277.762 124.826 229.829 125.001 222.511 126.739C206.358 130.575 193.675 140.085 184.964 154.098L184.454 153.534Z"/><path fill="#E3A99F" transform="scale(0.0749414 0.0749414)" d="M159.161 211.159C160.487 200.671 165.801 193.543 176.022 190.65C175.433 196.628 176.672 202.644 179.576 207.902C172.582 208.158 166.055 209.802 159.161 211.159Z"/><path fill="#E3A99F" transform="scale(0.0749414 0.0749414)" d="M333.414 191.005C343.345 194.454 350.32 201.82 350.478 212.816C344.999 207.835 338.708 206.3 331.571 205.949C332.499 203.452 333.27 200.342 333.414 197.687C333.593 195.119 333.541 193.558 333.414 191.005Z"/><path fill="#2F232A" transform="scale(0.0749414 0.0749414)" d="M203.289 289.456C196.957 284.825 190.6 280.176 190.31 271.458C188.729 224.042 360.807 237.063 312.754 286.241C299.525 305.79 221.341 302.358 203.289 289.456ZM261.801 267.539L248.47 267.539L248.47 253.237L232.059 253.237L232.059 267.539L220.155 267.539L220.155 257.918C212.198 258.896 200.863 262.658 201.844 272.35L309.327 272.35C309.7 263.447 299.277 260.137 292.304 257.918C292.462 261.429 292.443 264.025 292.304 267.539L279.121 267.539L279.121 254.474C273.111 252.87 267.924 252.927 261.801 253.237C263.007 259.975 262.92 260.747 261.801 267.539Z"/><path fill="#834C5A" transform="scale(0.0749414 0.0749414)" d="M203.289 289.456L267.606 289.465C281.448 289.478 299.987 291.765 312.754 286.241C299.525 305.79 221.341 302.358 203.289 289.456Z"/><path fill="#B79C8E" transform="scale(0.0749414 0.0749414)" d="M201.844 272.35L309.327 272.35C307.742 276.067 305.227 278.692 301.079 278.995C291.826 279.672 211.587 279.953 208.253 278.894C204.861 277.816 203.379 275.379 201.844 272.35Z"/><path fill="#E2B5CA" transform="scale(0.0749414 0.0749414)" d="M275.161 656.244L318.007 656.244L318.007 686.245C334.724 688.786 349.31 702.927 350.478 720.124L275.161 720.124C274.731 718.053 275.135 705.775 275.141 702.667L275.161 656.244Z"/><path fill="#E2B5CA" transform="scale(0.0749414 0.0749414)" d="M193.131 656.244L235.979 656.244L235.979 720.124C227.408 721.33 212.532 720.119 203.289 720.124L176.547 720.148C172.858 720.176 164.607 720.493 161.498 720.016L161.017 719.131C160.059 702.932 179.307 690.168 193.131 686.245L193.131 656.244Z"/><path fill="#5F1E10" transform="scale(0.0749414 0.0749414)" d="M203.289 611.723L222.105 611.723L222.105 643.817L203.289 643.817C203.352 634.016 202.704 620.978 203.289 611.723Z"/><path fill="#5F1E10" transform="scale(0.0749414 0.0749414)" d="M287.376 611.723L305.734 611.723C306.028 614.567 305.805 620.024 305.784 623.093L305.734 643.817L287.376 643.817C288.108 633.394 287.693 622.154 287.376 611.723Z"/></svg>