<?xml version="1.0" encoding="utf-8" ?><svg xmlns="http://www.w3.org/2000/svg" xmlns:xlink="http://www.w3.org/1999/xlink" width="38" height="64" viewBox="0 0 38 64"><path fill="#4DABC9" transform="scale(0.0749414 0.0749414)" d="M204.265 127.213L307.906 127.213C307.9 134.726 307.749 142.729 307.906 150.199C316.771 150.21 328.759 150.558 337.393 150.199L358.153 150.199L358.153 189.463L358.153 348.186L328.516 348.186C321.93 347.798 314.326 348.137 307.623 348.158L212.856 348.184C203.17 348.178 193.141 347.931 183.517 348.186C176.263 347.654 161.915 348.165 154.182 348.186L154.182 189.463L154.182 150.199L173.074 150.199L204.265 150.199L204.265 127.213ZM267.31 333.855L287.541 333.855L287.541 313.811L267.31 313.811L267.31 333.855ZM224.711 333.855C230.355 333.841 239.55 333.518 244.9 333.855C245.393 330.682 244.855 318.108 244.9 313.811L224.711 313.811L224.711 333.855Z"/><path fill="#21457D" transform="scale(0.0749414 0.0749414)" d="M287.541 279.249C292.705 279.236 301.628 278.927 306.488 279.249C306.494 281.789 306.905 294.927 306.488 296.526L306.488 313.811L204.265 313.811L204.265 296.526L204.265 279.249C210.982 279.214 218.025 279.08 224.711 279.249L244.9 279.249C244.886 283.509 244.589 292.626 244.9 296.526C245.224 294.994 244.912 281.733 244.9 279.249L267.31 279.249C273.629 279.261 281.338 279.489 287.541 279.249C287.527 281.402 287.29 295.398 287.541 296.526L287.541 279.249Z"/><path fill="#FDFDFD" transform="scale(0.0749414 0.0749414)" d="M244.9 279.249L267.31 279.249L267.31 296.526L244.9 296.526C245.224 294.994 244.912 281.733 244.9 279.249Z"/><path fill="#FDFDFD" transform="scale(0.0749414 0.0749414)" d="M204.265 279.249C210.982 279.214 218.025 279.08 224.711 279.249L224.711 296.526L204.265 296.526L204.265 279.249Z"/><path fill="#FDFDFD" transform="scale(0.0749414 0.0749414)" d="M287.541 279.249C292.705 279.236 301.628 278.927 306.488 279.249C306.494 281.789 306.905 294.927 306.488 296.526L287.541 296.526L287.541 279.249Z"/><path fill="#FABD5C" transform="scale(0.0749414 0.0749414)" d="M182.664 206.793L244.9 206.793L244.9 261.453L182.664 261.453L182.664 206.793Z"/><path fill="#4D2C53" transform="scale(0.0749414 0.0749414)" d="M204.265 225.23L223.05 225.23L223.05 241.844L204.265 241.844L204.265 225.23Z"/><path fill="#FABD5C" transform="scale(0.0749414 0.0749414)" d="M267.31 206.793L307.874 206.787C314.296 206.778 322.307 206.391 328.516 206.793L328.535 243.676C328.559 249.105 329.206 256.372 328.516 261.453L267.31 261.453L267.31 206.793Z"/><path fill="#4D2C53" transform="scale(0.0749414 0.0749414)" d="M289.446 225.23L307.906 225.23L307.906 241.844L289.446 241.844L289.446 225.23Z"/><path fill="#847593" transform="scale(0.0749414 0.0749414)" d="M183.517 348.186C193.141 347.931 203.17 348.178 212.856 348.184L307.623 348.158C314.326 348.137 321.93 347.798 328.516 348.186C328.456 351.735 328.441 355.082 328.516 358.63L328.516 375.755C328.647 381.204 327.626 399.393 328.516 403.607C327.906 405.99 328.515 427.755 328.516 431.347L328.516 528.017C312.313 528.363 294.896 528.024 278.554 528.02L183.517 528.017C183.511 486.991 184.113 444.498 183.517 403.607L183.517 375.755C183.477 370.749 183.94 363.315 183.517 358.63L183.517 358.63C184.011 356.665 183.611 350.55 183.517 348.186Z"/><path fill="#71C5DE" transform="scale(0.0749414 0.0749414)" d="M183.517 348.186C193.141 347.931 203.17 348.178 212.856 348.184L307.623 348.158C314.326 348.137 321.93 347.798 328.516 348.186C328.456 351.735 328.441 355.082 328.516 358.63L328.516 375.755C319.824 375.871 311.01 375.777 302.308 375.755L302.308 403.607L278.152 403.607L278.152 430.325L233.202 430.325L233.202 403.607L208.556 403.607L208.556 375.755L183.517 375.755C183.477 370.749 183.94 363.315 183.517 358.63L183.517 358.63C184.011 356.665 183.611 350.55 183.517 348.186Z"/><path fill="#4DABC9" transform="scale(0.0749414 0.0749414)" d="M183.517 528.017L278.554 528.02C294.896 528.024 312.313 528.363 328.516 528.017L328.507 684.423C328.503 689.683 328.221 698.181 328.516 703.261C327.501 703.503 316.851 703.302 315.135 703.298L278.152 703.261L278.152 598.734L278.152 597.398L233.202 597.398L233.26 616.645C233.268 618.236 233.407 624.325 233.202 625.581L183.517 625.581C183.508 621.762 183.921 600.55 183.517 598.734L183.517 597.398L183.517 528.017Z"/><path fill="#196F92" transform="scale(0.0749414 0.0749414)" d="M278.152 597.398L328.516 597.398L328.516 625.581C311.812 625.565 294.834 625.389 278.152 625.581C278.203 621.616 278.838 601.326 278.152 598.734L278.152 597.398Z"/><path fill="#196F92" transform="scale(0.0749414 0.0749414)" d="M183.517 597.398L233.202 597.398L233.136 615.78C233.116 617.756 232.905 623.975 233.202 625.581L183.517 625.581C183.508 621.762 183.921 600.55 183.517 598.734L183.517 597.398Z"/><path fill="#847593" transform="scale(0.0749414 0.0749414)" d="M358.153 358.63L379.667 358.578C405.033 358.536 403.375 362.976 403.341 387.035L403.316 532.934C388.555 532.633 373.031 533.042 358.153 532.934L358.137 447.069C358.14 433.052 358.516 417.486 358.153 403.607L328.516 403.607C327.626 399.393 328.647 381.204 328.516 375.755L328.516 358.63L358.153 358.63Z"/><path fill="#6B5D78" transform="scale(0.0749414 0.0749414)" d="M328.516 358.63L358.153 358.63L358.153 403.607L328.516 403.607C327.626 399.393 328.647 381.204 328.516 375.755L328.516 358.63Z"/><path fill="#847593" transform="scale(0.0749414 0.0749414)" d="M109.301 532.934C109.831 520.991 109.311 504.536 109.306 492.217L109.258 385.037C109.181 354 114.157 358.596 141.261 358.599L183.517 358.63L183.517 358.63C183.94 363.315 183.477 370.749 183.517 375.755L183.517 403.607L153.279 403.607L153.279 532.934C138.797 532.706 123.82 532.915 109.301 532.934Z"/><path fill="#6B5D78" transform="scale(0.0749414 0.0749414)" d="M183.517 358.63C183.94 363.315 183.477 370.749 183.517 375.755L183.517 403.607L153.279 403.607C153.04 388.808 153.26 373.47 153.279 358.63C163.238 358.656 173.588 358.828 183.517 358.63Z"/><path fill="#945C3A" transform="scale(0.0749414 0.0749414)" d="M233.202 703.261C234.535 703.205 236.231 703.258 237.597 703.261L237.597 771.756L155.785 771.756C155.959 742.819 149.724 737.683 181.087 738.18C181.166 734.463 180.724 704.056 181.369 703.277L183.517 703.261L233.202 703.261Z"/><path fill="#945C3A" transform="scale(0.0749414 0.0749414)" d="M328.516 703.261C332.419 703.481 330.754 710.687 330.748 714.612L330.701 738.18C362.193 738.074 355.663 743.396 355.629 771.756L274.45 771.756C274.229 751.588 274.633 731.366 274.397 711.193C274.336 705.994 272.609 703.256 278.152 703.261L315.135 703.298C316.851 703.302 327.501 703.503 328.516 703.261Z"/><path fill="#4DABC9" transform="scale(0.0749414 0.0749414)" d="M183.517 598.734C183.921 600.55 183.508 621.762 183.517 625.581L233.202 625.581L233.202 703.261L183.517 703.261L183.517 598.734Z"/><path fill="#ECAEAD" transform="scale(0.0749414 0.0749414)" d="M344.823 78.6712C386.367 98.0254 396.498 173.073 359.413 189.156C358.997 189.335 358.593 189.415 358.153 189.463L358.153 150.199L337.393 150.199C350.061 137.864 344.812 96.8895 344.823 78.6712Z"/><path fill="#ECAEAD" transform="scale(0.0749414 0.0749414)" d="M154.182 189.463C118.256 178.143 128.393 91.3582 166.418 78.6712C166.407 95.7356 161.369 139.312 173.074 150.199L154.182 150.199L154.182 189.463Z"/><path fill="#4DABC9" transform="scale(0.0749414 0.0749414)" d="M358.153 532.934C373.031 533.042 388.555 532.633 403.316 532.934L408.673 532.934L408.673 575.866L390.698 575.866L390.698 550.393L372.925 550.393C372.734 558.688 373.034 567.458 372.925 575.866L354.385 575.866C354.39 563.416 353.783 545.464 354.399 533.428C355.337 532.798 356.825 532.984 358.153 532.934Z"/><path fill="#4DABC9" transform="scale(0.0749414 0.0749414)" d="M109.301 532.934C123.82 532.915 138.797 532.706 153.279 532.934C154.694 533.055 155.889 533.062 157.17 533.698C158.409 538.446 157.521 568.968 157.508 575.866L139.605 575.866L139.605 550.393C134.697 550.497 124.725 549.642 120.847 550.393L120.847 575.866C114.913 575.937 108.941 575.883 103.004 575.866L103.004 532.934C105.092 532.956 107.209 532.935 109.301 532.934Z"/></svg>