<?xml version="1.0" encoding="utf-8" ?><svg xmlns="http://www.w3.org/2000/svg" xmlns:xlink="http://www.w3.org/1999/xlink" width="38" height="64" viewBox="0 0 38 64"><path fill="#432D3C" transform="scale(0.0749414 0.0749414)" d="M231.444 250.143C198.649 233.589 202.14 212.887 197.582 183.559C197.037 180.053 196.016 176.522 195.439 173.013C190.681 144.382 213.044 117.379 242.243 117.642C271.669 117.91 303.215 113.84 315.095 150.598C320.124 166.159 313.264 198.315 309.42 215.066C306.543 227.601 294.401 244.001 281.615 247.662C281.451 255.175 281.556 262.55 281.615 270.061C329.486 277.099 350.477 336.781 361.601 376.311C365.096 388.731 393.557 495.248 393.088 497.498C392.775 499.002 391.023 500.124 389.845 500.96L397.935 525.072C399.611 530.108 402.138 536.549 402.75 541.806C404.499 556.815 388.758 568.482 374.946 561.837C364.723 556.918 364.543 548.315 360.648 539.223C357.52 545.796 356.134 551.474 347.686 547.218C330.858 538.739 339.456 526.717 346.471 512.256C337.46 510.766 339.534 505.106 338.223 496.495C333.659 466.508 330.712 411.801 321.23 384.803C320.86 424.396 329.776 478.316 335.44 517.53C336.229 522.994 330.007 524 325.96 526.019C327.331 546.844 330.878 567.065 330.945 588.161C331.029 614.677 328.376 637.096 327.154 662.651C337.712 663.234 332.912 681.801 332.964 691.651C345.575 697.44 352.601 709.805 354.046 723.219C403.422 730.045 399.662 738.96 352.933 743.999C295.752 750.164 237.398 750.119 180.078 746.044C171.102 745.406 129.017 741.837 125.275 734.643C125.399 727.061 152.724 724.675 158.426 724.711C158.226 722.315 158.223 721.34 158.426 718.945C160.481 707.278 167.276 696.329 178.53 691.651C178.49 683.03 174.498 662.939 183.796 662.651C177.346 611.775 184.263 574.229 186.899 526.019C185.584 525.515 175.942 522.163 176.259 520.267C182.329 484.018 193.654 417.08 190.601 380.724C183.554 421.888 179.027 463.906 173.265 505.287C172.392 511.562 171.267 511.236 165.987 512.256C167.66 516.471 174.533 535.775 174.177 539.432C172.387 542.355 161.717 549.7 158.342 549.13C155.8 547.124 152.976 540.675 151.854 537.558C146.885 547.288 147.294 559.689 135.049 563.603C117.244 569.293 105.215 549.131 110.61 533.843C114.386 523.142 118.531 512.526 122.727 501.978C119.028 500.461 117.618 498.603 118.859 494.405C124.768 474.408 129.753 454.175 135.193 434.048L149.967 379.583C160.87 339.531 181.22 273.846 231.444 270.061C231.782 263.34 231.701 256.866 231.444 250.143ZM238.566 662.651C241.073 662.598 242.856 662.266 244.692 664.012C246.336 666.957 245.388 712.823 245.389 718.945C251.8 719.156 259.904 719.013 266.359 718.945C266.354 712.629 265.751 665.733 267.15 663.479C268.707 662.294 271.157 662.575 273.102 662.651C273.14 632.187 270.682 566.597 256.188 539.223C244.297 564.967 235.919 634.901 238.566 662.651Z"/><path fill="#CECBD4" transform="scale(0.0749414 0.0749414)" d="M245.389 718.945C251.8 719.156 259.904 719.013 266.359 718.945C266.189 732.338 266.634 735.12 280.716 735.212L345.166 735.152C354.67 735.096 353.706 731.097 354.046 723.219C403.422 730.045 399.662 738.96 352.933 743.999C295.752 750.164 237.398 750.119 180.078 746.044C171.102 745.406 129.017 741.837 125.275 734.643C125.399 727.061 152.724 724.675 158.426 724.711C158.226 722.315 158.223 721.34 158.426 718.945C158.398 723.167 157.013 731.146 160.349 734.371C161.786 735.761 227.021 735.353 233.874 735.175C245.227 734.879 245.689 729.037 245.389 718.945Z"/><path fill="#C04C2B" transform="scale(0.0749414 0.0749414)" d="M282.877 277.752C288.086 278.782 292.451 280.583 297.081 283.088C305.181 287.36 307.679 290.675 314.07 294.611C310.534 344.6 312.576 400.908 318.958 450.193C320.056 458.678 321.565 473.668 323.597 481.697C324.375 492.299 326.537 507.091 328.918 517.275C280.819 536.348 231.894 537.486 183.796 517.275C185.441 505.467 187.209 493.39 189.456 481.697L192.847 455.82C195.314 429.802 198.117 402.722 198.768 376.585C199.439 349.619 198.245 321.607 198.816 294.611C205.204 287.081 219.332 280.067 228.855 277.752C234.291 287.409 241.705 296.657 247.044 306.477C249.604 311.187 256.363 317.356 260.937 311.227C268.881 300.579 275.545 288.864 282.877 277.752Z"/><path fill="#CD734C" transform="scale(0.0749414 0.0749414)" d="M282.877 277.752C288.086 278.782 292.451 280.583 297.081 283.088C296.809 291.361 297.119 300.435 297.105 308.795L297.089 369.15C297.073 395.304 301.272 396.381 280.994 415.505C255.43 439.614 226.85 449.957 192.847 455.82C195.314 429.802 198.117 402.722 198.768 376.585C199.439 349.619 198.245 321.607 198.816 294.611C205.204 287.081 219.332 280.067 228.855 277.752C234.291 287.409 241.705 296.657 247.044 306.477C249.604 311.187 256.363 317.356 260.937 311.227C268.881 300.579 275.545 288.864 282.877 277.752Z"/><path fill="#8A2922" transform="scale(0.0749414 0.0749414)" d="M183.796 517.275C185.441 505.467 187.209 493.39 189.456 481.697C241.676 499.061 273.451 494.762 323.597 481.697C324.375 492.299 326.537 507.091 328.918 517.275C280.819 536.348 231.894 537.486 183.796 517.275Z"/><path fill="#CD734C" transform="scale(0.0749414 0.0749414)" d="M297.081 416.941L297.081 455.82C280.233 462.381 256.554 462.104 238.566 462.07L238.244 461.921C238.549 461.136 240.085 460.275 240.882 459.843C265.87 446.297 276.798 432.905 297.081 416.941Z"/><path fill="#FBC587" transform="scale(0.0749414 0.0749414)" d="M226.938 128.16C240.726 122.361 272.093 123.62 286.586 128.16C302.016 136.692 313.64 153.557 309.753 171.833C309.278 174.967 309.007 176.388 307.818 179.445C302.674 184.427 289.651 191.79 287.591 195.929C287.624 200.941 287.949 210.033 287.591 214.727C289.276 222.596 290.064 224.907 293.217 232.389C289.659 234.511 286.166 237.48 282.73 239.925C264.262 253.07 233.552 249.552 218.8 232.389C223.285 226.936 224.151 221.503 224.333 214.727L224.333 204.355C224.304 201.549 224.324 198.736 224.333 195.929C217.223 184.386 204.274 184.929 202.424 170.039C199.851 152.95 210.632 134.163 226.938 128.16Z"/><path fill="#E59651" transform="scale(0.0749414 0.0749414)" d="M224.333 214.727C242.532 226.551 270.321 229.769 287.591 214.727C289.276 222.596 290.064 224.907 293.217 232.389C289.659 234.511 286.166 237.48 282.73 239.925C264.262 253.07 233.552 249.552 218.8 232.389C223.285 226.936 224.151 221.503 224.333 214.727Z"/><path fill="#FEDAB9" transform="scale(0.0749414 0.0749414)" d="M226.938 128.16C240.726 122.361 272.093 123.62 286.586 128.16C294.019 152.15 252.748 144.255 236.493 144.223C225.282 144.201 223.112 137.385 226.938 128.16Z"/><path fill="#E59651" transform="scale(0.0749414 0.0749414)" d="M287.591 195.929C285.69 185.986 303.02 174.61 309.753 171.833C309.278 174.967 309.007 176.388 307.818 179.445C302.674 184.427 289.651 191.79 287.591 195.929Z"/><path fill="#E59651" transform="scale(0.0749414 0.0749414)" d="M202.424 170.039C219.682 189.687 227.623 178.656 224.333 204.355C224.304 201.549 224.324 198.736 224.333 195.929C217.223 184.386 204.274 184.929 202.424 170.039Z"/><path fill="#3699D4" transform="scale(0.0749414 0.0749414)" d="M194.004 528.93C212.735 535.115 228.018 537.985 247.632 539.223C237.662 573.253 228.567 626.297 231.444 662.651L190.601 662.651C189.635 652.032 187.922 644.095 188.099 633.183C186.599 604.158 190.585 575.252 191.423 546.312C192.552 540.771 193.25 534.575 194.004 528.93Z"/><path fill="#2566B5" transform="scale(0.0749414 0.0749414)" d="M194.004 528.93C212.735 535.115 228.018 537.985 247.632 539.223C237.662 573.253 228.567 626.297 231.444 662.651L190.601 662.651C189.635 652.032 187.922 644.095 188.099 633.183C190.335 644.388 199.217 650.411 210.265 650.716C210.307 622.402 224.182 583.833 238.566 559.36C228.731 556.657 218.766 555.09 208.902 551.539C205.499 550.313 194.431 546.094 191.423 546.312C192.552 540.771 193.25 534.575 194.004 528.93Z"/><path fill="#71D2FA" transform="scale(0.0749414 0.0749414)" d="M195.904 566.56C197.098 569.105 197.195 585.955 197.379 589.886C198.188 607.244 200.07 621.657 203.396 638.616C202.584 638.434 201.949 637.426 201.277 636.673C188.109 618.152 191.95 587.09 195.904 566.56Z"/><path fill="#3699D4" transform="scale(0.0749414 0.0749414)" d="M264.32 539.223C286.097 537.693 298.657 534.277 318.788 528.93C319.499 534.272 320.243 539.304 320.192 544.722C324.217 562.683 324.867 620.547 322.015 638.458C322.11 645.911 320.954 655.148 320.192 662.651C307.69 662.354 292.293 663.435 280.347 662.651C280.367 618.91 278.22 581.343 264.32 539.223Z"/><path fill="#2566B5" transform="scale(0.0749414 0.0749414)" d="M264.32 539.223C286.097 537.693 298.657 534.277 318.788 528.93C319.499 534.272 320.243 539.304 320.192 544.722C303.367 553.039 290.656 554.143 274.403 559.36C287.962 586.137 296.282 613.911 299.623 643.782C301.654 661.94 315.881 642.851 322.015 638.458C322.11 645.911 320.954 655.148 320.192 662.651C307.69 662.354 292.293 663.435 280.347 662.651C280.367 618.91 278.22 581.343 264.32 539.223Z"/><path fill="#71D2FA" transform="scale(0.0749414 0.0749414)" d="M317.363 569.5C326.752 577.598 316.678 628.531 309.753 640.503C309.293 640.843 308.809 641.131 308.324 641.437L307.631 641.049C307.304 639.614 317.108 583.914 317.363 569.5Z"/><path fill="#C04C2B" transform="scale(0.0749414 0.0749414)" d="M321.23 302.514C347.275 334.781 356.266 384.714 367.055 424.266C373.215 446.853 381.128 472.928 385.576 495.816C380.324 496.496 378.273 496.819 373.154 498.629L359.348 501.978C354.494 503.024 351.213 503.368 346.471 504.208C345.969 503.132 345.551 500.194 345.325 498.901C337.799 455.931 336.776 410.896 322.947 369.285C320.134 360.821 319.923 359.321 320.192 350.235C319.957 342.201 320.1 332.665 320.192 324.623C320.392 317.496 320.438 309.518 321.23 302.514Z"/><path fill="#F05351" transform="scale(0.0749414 0.0749414)" d="M321.23 302.514C347.275 334.781 356.266 384.714 367.055 424.266C373.215 446.853 381.128 472.928 385.576 495.816C380.324 496.496 378.273 496.819 373.154 498.629C371.659 490.433 368.289 478.591 366.192 470.238L345.655 388.164C340.082 365.347 334.084 344.083 320.192 324.623C320.392 317.496 320.438 309.518 321.23 302.514Z"/><path fill="#8A2922" transform="scale(0.0749414 0.0749414)" d="M320.192 350.235C334.738 368.962 340.274 424.921 345.268 451.219C346.738 458.962 354.928 495.716 359.348 501.978C354.494 503.024 351.213 503.368 346.471 504.208C345.969 503.132 345.551 500.194 345.325 498.901C337.799 455.931 336.776 410.896 322.947 369.285C320.134 360.821 319.923 359.321 320.192 350.235Z"/><path fill="#C04C2B" transform="scale(0.0749414 0.0749414)" d="M126.143 495.816C128.079 490.103 129.443 484.215 131.007 478.387L155.368 386.617C162.763 358.57 171.223 323.983 191.423 302.514L191.423 324.623C191.425 325.358 191.485 327.873 191.423 328.479C191.569 331.56 192.009 353.111 191.438 354.618C175.684 396.242 172.561 459.439 165.987 504.208C161.744 503.412 156.1 502.209 151.854 501.978C147.416 500.706 142.993 499.688 138.504 498.629C134.387 497.775 130.243 496.771 126.143 495.816Z"/><path fill="#F05351" transform="scale(0.0749414 0.0749414)" d="M126.143 495.816C128.079 490.103 129.443 484.215 131.007 478.387L155.368 386.617C162.763 358.57 171.223 323.983 191.423 302.514L191.423 324.623C185.97 331.224 174.552 356.073 172.348 364.615C168.418 379.841 144.496 490.893 138.504 498.629C134.387 497.775 130.243 496.771 126.143 495.816Z"/><path fill="#8A2922" transform="scale(0.0749414 0.0749414)" d="M191.423 328.479C191.569 331.56 192.009 353.111 191.438 354.618C175.684 396.242 172.561 459.439 165.987 504.208C161.744 503.412 156.1 502.209 151.854 501.978C172.738 492.859 168.295 366.516 191.423 345.857C191.465 340.342 191.052 333.835 191.423 328.479Z"/><defs><linearGradient id="gradient_0" gradientUnits="userSpaceOnUse" x1="240.35106" y1="703.21191" x2="169.11554" y2="694.77484"><stop offset="0" stop-color="#525859"/><stop offset="1" stop-color="#697071"/></linearGradient></defs><path fill="url(#gradient_0)" transform="scale(0.0749414 0.0749414)" d="M226.938 669.647L238.566 669.647L238.589 705.162C238.6 709.937 239.205 723.574 238.059 727.305C235.268 729.769 172.969 728.117 165.987 728.362C164.436 680.032 224.57 689.84 224.336 722.9L224.333 723.219C236.129 723.109 231.363 715.603 226.938 706.743C216.038 691.644 204.362 686.327 185.582 689.338L185.582 669.647L226.938 669.647Z"/><path fill="#738180" transform="scale(0.0749414 0.0749414)" d="M185.582 669.647L226.938 669.647C226.954 679.894 227.562 696.939 226.938 706.743C216.038 691.644 204.362 686.327 185.582 689.338L185.582 669.647Z"/><path fill="#738180" transform="scale(0.0749414 0.0749414)" d="M188.099 701.478C198.279 699.96 209.143 704.015 215.639 712.013C210.461 712.183 206.498 712.23 201.277 712.013C197.391 711.961 176.41 712.472 174.342 711.436C173.742 705.491 183.558 702.302 188.099 701.478Z"/><path fill="#636B6D" transform="scale(0.0749414 0.0749414)" d="M273.102 669.647L287.591 669.647C287.588 675.064 286.812 698.155 287.591 701.478C283.184 709.529 279.909 713.831 280.347 723.219C283.492 723.477 285.704 724.66 286.586 721.284C291.029 687.831 339.454 685.519 346.471 718.945C346.656 719.838 346.489 726.981 346.471 728.362L300.853 728.366C270.109 728.371 273.067 734.481 273.071 705.141L273.102 669.647Z"/><path fill="#4F5456" transform="scale(0.0749414 0.0749414)" d="M273.102 669.647L287.591 669.647C287.588 675.064 286.812 698.155 287.591 701.478C283.184 709.529 279.909 713.831 280.347 723.219C283.492 723.477 285.704 724.66 286.586 721.284C287.509 722.247 340.191 721.099 345.782 720.697C346.304 720.66 346.364 719.54 346.471 718.945C346.656 719.838 346.489 726.981 346.471 728.362L300.853 728.366C270.109 728.371 273.067 734.481 273.071 705.141L273.102 669.647Z"/><path fill="#738180" transform="scale(0.0749414 0.0749414)" d="M315.886 701.478C325.001 698.356 335.801 704.665 340.787 712.013C334.367 712.127 327.671 712.025 321.23 712.013C312.755 712.038 304.23 712.11 295.76 712.013C301.407 704.877 307.038 702.175 315.886 701.478Z"/><path fill="#E59651" transform="scale(0.0749414 0.0749414)" d="M129.52 504.208C135.494 505.257 140.927 506.101 146.788 507.737C151.663 508.45 153.704 508.743 158.426 510.293C161.555 517.899 164.836 529.498 165.987 537.558C164.066 539.02 162.386 540.41 160.546 541.959C138.347 494.162 152.725 560.915 127.027 557.7C120.84 556.926 117.485 550.264 116.329 544.722C115.403 537.165 126.289 512.301 129.52 504.208Z"/><path fill="#FBC587" transform="scale(0.0749414 0.0749414)" d="M129.52 504.208C135.494 505.257 140.927 506.101 146.788 507.737C143.848 514.998 141.273 522.335 138.595 530.021C134.361 542.172 131.105 555.878 116.329 544.722C115.403 537.165 126.289 512.301 129.52 504.208Z"/><path fill="#FBC587" transform="scale(0.0749414 0.0749414)" d="M364.911 507.737L382.784 502.959L391.181 526.834C392.974 531.967 396.927 541.174 395.853 546.312C393.926 552.505 391.668 554.637 385.25 556.719C367.893 562.351 367.425 520.634 360.35 522.417C358.605 524.058 353.439 538.129 351.703 541.959C348.922 539.85 346.972 538.199 344.38 535.857C347.673 527.622 351.033 518.618 354.046 510.293C357.686 509.374 361.248 508.555 364.911 507.737Z"/><path fill="#E59651" transform="scale(0.0749414 0.0749414)" d="M354.046 510.293C357.686 509.374 361.248 508.555 364.911 507.737C372.201 525.972 372.326 555.32 395.853 546.312C393.926 552.505 391.668 554.637 385.25 556.719C367.893 562.351 367.425 520.634 360.35 522.417C358.605 524.058 353.439 538.129 351.703 541.959C348.922 539.85 346.972 538.199 344.38 535.857C347.673 527.622 351.033 518.618 354.046 510.293Z"/><path fill="#738180" transform="scale(0.0749414 0.0749414)" d="M287.591 669.647L325.96 669.647L325.96 689.338C311.088 685.801 297.938 690.283 287.591 701.478C286.812 698.155 287.588 675.064 287.591 669.647Z"/><path fill="#E59651" transform="scale(0.0749414 0.0749414)" d="M238.566 252.367C247.242 254.737 253.17 255.345 262.209 254.584C265.209 254.331 271.869 252.54 273.561 253.319C274.531 254.973 275.125 271.551 274.403 272.719C262.326 278.369 250.598 277.934 238.566 272.719L238.566 252.367Z"/><path fill="#3699D4" transform="scale(0.0749414 0.0749414)" d="M238.566 280.571C254.24 284.384 257.366 284.917 273.102 280.571C269.229 285.939 267.142 288.74 264.32 294.611C260.739 299.067 259.041 301.784 256.188 306.764C251.1 300.239 243.861 288.201 238.566 280.571Z"/></svg>