<?xml version="1.0" encoding="utf-8" ?><svg xmlns="http://www.w3.org/2000/svg" xmlns:xlink="http://www.w3.org/1999/xlink" width="38" height="64" viewBox="0 0 38 64"><path fill="#7C808C" transform="scale(0.0749414 0.0749414)" d="M202.005 303.162L313.971 303.162C313.96 309.141 313.905 315.191 313.971 321.163L343.968 321.163C344.048 317.254 344.088 313.679 343.968 309.775L368.978 309.775C376.609 321.629 400.236 342.937 410.695 354.151L410.695 387.508L389.852 387.508C390.3 389.886 389.803 411.766 389.852 415.992L389.852 437.865C408.069 463.92 401.418 472.841 401.429 505.785L401.429 530.936C392.055 531.224 381.866 530.924 372.421 530.936C362.969 531.044 353.427 530.957 343.968 530.936L343.968 569.961L343.98 607.397C343.99 612.579 344.232 620.156 343.968 625.177L343.968 633.145L343.968 689.317L305.691 689.317L277.339 689.317C277.789 679.281 277.362 667.122 277.339 656.825C276.044 656.908 274.402 656.841 273.077 656.825L234.284 656.825L234.284 633.145L215.035 633.145C200.255 632.696 183.02 633.142 168.036 633.145L168.036 620.557C167.769 616.057 168.024 608.629 168.026 603.884L168.036 569.961L168.036 530.936L168.036 505.785L168.036 500.394L168.036 471.94L196.826 471.94C196.479 465.953 196.817 456.245 196.826 449.967L196.826 437.865C196.949 435.445 196.982 433.976 196.826 431.568C197.017 423.053 197.2 412.707 196.826 404.312C196.529 376.766 196.868 348.752 196.826 321.163L196.826 321.163C197.204 319.236 196.841 306.157 196.826 303.162L202.005 303.162Z"/><path fill="#6A4841" transform="scale(0.0749414 0.0749414)" d="M196.826 471.94L313.971 471.94L343.968 471.94L343.968 500.394C343.95 501.786 343.699 504.672 344.377 505.668L344.653 505.785C343.459 507.265 343.962 527.199 343.968 530.936C353.125 530.934 363.347 530.713 372.421 530.936C362.969 531.044 353.427 530.957 343.968 530.936L343.968 569.961L343.98 607.397C343.99 612.579 344.232 620.156 343.968 625.177L343.968 633.145L343.968 689.317L305.691 689.317L277.339 689.317C277.789 679.281 277.362 667.122 277.339 656.825C276.044 656.908 274.402 656.841 273.077 656.825L234.284 656.825L234.284 633.145L215.035 633.145C200.255 632.696 183.02 633.142 168.036 633.145L168.036 620.557C167.769 616.057 168.024 608.629 168.026 603.884L168.036 569.961L168.036 530.936L168.036 505.785L168.036 500.394L168.036 471.94L196.826 471.94Z"/><path fill="#61646F" transform="scale(0.0749414 0.0749414)" d="M168.036 500.394L196.826 500.394C200.564 500.417 210.683 500.899 213.693 500.394L215.035 500.394C215.557 506.755 215.122 512.061 215.063 518.416L215.035 633.145C200.255 632.696 183.02 633.142 168.036 633.145L168.036 620.557C167.769 616.057 168.024 608.629 168.026 603.884L168.036 569.961L168.036 530.936L168.036 505.785L168.036 500.394Z"/><path fill="#413331" transform="scale(0.0749414 0.0749414)" d="M213.693 500.394L215.035 500.394C215.557 506.755 215.122 512.061 215.063 518.416L215.035 633.145C200.255 632.696 183.02 633.142 168.036 633.145L168.036 620.557C168.371 618.073 168.118 613.749 168.036 611.067L196.826 611.067L196.826 500.394C200.564 500.417 210.683 500.899 213.693 500.394Z"/><path fill="#784C2B" transform="scale(0.0749414 0.0749414)" d="M196.826 471.94L313.971 471.94L343.968 471.94L343.968 500.394L313.971 500.394L254.146 500.388C241.368 500.34 227.783 499.954 215.035 500.394L213.693 500.394C210.683 500.899 200.564 500.417 196.826 500.394L168.036 500.394L168.036 471.94L196.826 471.94Z"/><path fill="#6A4841" transform="scale(0.0749414 0.0749414)" d="M168.036 471.94L196.826 471.94L196.826 500.394C202.448 500.42 208.072 500.466 213.693 500.394C210.683 500.899 200.564 500.417 196.826 500.394L168.036 500.394L168.036 471.94Z"/><path fill="#413331" transform="scale(0.0749414 0.0749414)" d="M234.284 543.879L277.339 543.879L277.339 633.145L277.339 656.825L273.077 656.825L234.284 656.825L234.284 633.145L234.284 543.879Z"/><path fill="#ECA872" transform="scale(0.0749414 0.0749414)" d="M277.339 633.145L343.968 633.145L343.968 689.317L305.691 689.317L277.339 689.317C277.789 679.281 277.362 667.122 277.339 656.825C276.044 656.908 274.402 656.841 273.077 656.825L277.339 656.825L277.339 633.145Z"/><path fill="#7C808C" transform="scale(0.0749414 0.0749414)" d="M313.971 500.394L343.968 500.394C343.95 501.786 343.699 504.672 344.377 505.668L344.653 505.785C343.459 507.265 343.962 527.199 343.968 530.936C353.125 530.934 363.347 530.713 372.421 530.936C362.969 531.044 353.427 530.957 343.968 530.936L343.968 569.961L343.98 607.397C343.99 612.579 344.232 620.156 343.968 625.177C343.623 622.84 343.913 614.152 343.932 611.17L343.968 582.33C340.004 585.678 335.395 590.569 331.59 594.316C325.864 587.858 320.067 582.192 313.971 576.109C313.598 551.233 313.97 525.353 313.971 500.394Z"/><path fill="#EAC492" transform="scale(0.0749414 0.0749414)" d="M202.005 303.162L313.971 303.162C313.96 309.141 313.905 315.191 313.971 321.163L313.971 387.508L313.971 404.312L267.846 404.312C244.431 404.679 220.309 404.298 196.826 404.312C196.529 376.766 196.868 348.752 196.826 321.163L196.826 321.163C197.204 319.236 196.841 306.157 196.826 303.162L202.005 303.162Z"/><path fill="#D08A52" transform="scale(0.0749414 0.0749414)" d="M202.005 303.162L313.971 303.162C313.96 309.141 313.905 315.191 313.971 321.163L215.035 321.163L215.035 387.508L244.285 387.508L244.285 404.312C248.362 404.296 264.296 403.888 267.846 404.312C244.431 404.679 220.309 404.298 196.826 404.312C196.529 376.766 196.868 348.752 196.826 321.163L196.826 321.163C197.204 319.236 196.841 306.157 196.826 303.162L202.005 303.162Z"/><path fill="#D08A52" transform="scale(0.0749414 0.0749414)" d="M267.846 387.508L313.971 387.508L313.971 404.312L267.846 404.312L267.846 387.508Z"/><path fill="#ECA872" transform="scale(0.0749414 0.0749414)" d="M368.978 369.037C373.34 373.367 384.873 386.223 389.852 387.508C390.3 389.886 389.803 411.766 389.852 415.992L389.852 437.865C408.069 463.92 401.418 472.841 401.429 505.785L401.429 530.936C392.055 531.224 381.866 530.924 372.421 530.936C363.347 530.713 353.125 530.934 343.968 530.936C343.962 527.199 343.459 507.265 344.653 505.785L344.377 505.668C343.699 504.672 343.95 501.786 343.968 500.394L343.968 471.94C344.274 466.062 344.048 455.946 343.968 449.967L343.968 431.568L343.968 395.337C348.118 395.356 366.55 396.773 368.978 394.162L368.978 394.162L368.978 369.037Z"/><path fill="#6A4841" transform="scale(0.0749414 0.0749414)" d="M344.653 505.785C362.582 506.31 383.219 505.784 401.429 505.785L401.429 530.936C392.055 531.224 381.866 530.924 372.421 530.936C363.347 530.713 353.125 530.934 343.968 530.936C343.962 527.199 343.459 507.265 344.653 505.785Z"/><path fill="#C04642" transform="scale(0.0749414 0.0749414)" d="M368.978 369.037C373.34 373.367 384.873 386.223 389.852 387.508C390.3 389.886 389.803 411.766 389.852 415.992C384.859 411.797 373.211 399.109 368.978 394.162L368.978 394.162L368.978 369.037Z"/><path fill="#EAC492" transform="scale(0.0749414 0.0749414)" d="M267.846 404.312L313.971 404.312L313.971 419.632L267.846 419.632L267.846 428.501C267.844 431.588 267.797 434.79 267.846 437.865L313.971 437.865C313.986 441.67 314.122 446.221 313.971 449.967C313.992 455.081 314.388 467.189 313.971 471.94L313.971 471.94L196.826 471.94C196.479 465.953 196.817 456.245 196.826 449.967L196.826 437.865C196.949 435.445 196.982 433.976 196.826 431.568C197.017 423.053 197.2 412.707 196.826 404.312C220.309 404.298 244.431 404.679 267.846 404.312Z"/><path fill="#61646F" transform="scale(0.0749414 0.0749414)" d="M267.846 404.312L313.971 404.312L313.971 419.632L267.846 419.632L267.846 428.501L264.51 428.501C257.868 428.709 250.955 428.488 244.285 428.501L244.285 437.865C235.086 437.862 224.111 437.599 215.035 437.865L215.035 437.865L196.826 437.865C196.949 435.445 196.982 433.976 196.826 431.568C197.017 423.053 197.2 412.707 196.826 404.312C220.309 404.298 244.431 404.679 267.846 404.312Z"/><path fill="#7C808C" transform="scale(0.0749414 0.0749414)" d="M215.035 419.632L244.285 419.632C244.328 422.551 244.286 425.572 244.285 428.501C247.619 428.18 261.089 428.3 264.51 428.501C257.868 428.709 250.955 428.488 244.285 428.501L244.285 437.865C235.086 437.862 224.111 437.599 215.035 437.865L215.035 437.865C215.318 432.959 215.037 424.797 215.035 419.632Z"/><path fill="#D08A52" transform="scale(0.0749414 0.0749414)" d="M215.035 437.865L215.035 437.865C214.704 440.621 214.927 447.281 214.955 450.392L215.035 471.94L304.588 471.874C306.662 471.861 312.297 471.694 313.971 471.94L313.971 471.94L196.826 471.94C196.479 465.953 196.817 456.245 196.826 449.967L196.826 437.865L215.035 437.865Z"/><path fill="#EB6850" transform="scale(0.0749414 0.0749414)" d="M343.968 343.38C351.993 350.787 361.69 360.96 368.978 369.037L368.978 394.162L368.978 394.162C366.55 396.773 348.118 395.356 343.968 395.337L343.968 370.357L343.968 343.38Z"/><path fill="#EAC492" transform="scale(0.0749414 0.0749414)" d="M343.968 370.357C348.92 373.304 363.467 388.958 368.978 394.162L368.978 394.162C366.55 396.773 348.118 395.356 343.968 395.337L343.968 370.357Z"/><path fill="#7C808C" transform="scale(0.0749414 0.0749414)" d="M313.971 449.967C315.799 451.016 339.773 449.961 343.968 449.967C344.048 455.946 344.274 466.062 343.968 471.94L313.971 471.94L313.971 471.94C314.388 467.189 313.992 455.081 313.971 449.967Z"/><path fill="#42464F" transform="scale(0.0749414 0.0749414)" d="M313.971 431.568L343.968 431.568L343.968 449.967C339.773 449.961 315.799 451.016 313.971 449.967C314.122 446.221 313.986 441.67 313.971 437.865L313.971 431.568Z"/><path fill="#ECA872" transform="scale(0.0749414 0.0749414)" d="M215.035 69.655L274.999 69.655L295.883 69.655C296.575 76.0267 296.557 77.6687 295.883 83.9841C305.453 85.7819 313.896 89.0645 322.735 90.8906L322.735 112.137L335.856 112.137L355.242 112.137L355.242 136.444C350.939 136.422 346.581 136.361 342.284 136.444L342.284 154.723C348.737 154.726 355.37 154.811 361.806 154.723L361.806 193.861L343.968 193.861L343.968 211.314L343.968 303.162L313.971 303.162L202.005 303.162L196.826 303.162L167.551 303.162C167.301 295.931 167.542 286.912 167.544 279.54L167.551 232.066C166.164 223.393 167.555 203.781 167.551 193.861L148.622 193.861L148.622 154.723L167.551 154.723L167.551 112.137C174.589 111.021 181.652 108.419 188.616 106.444L188.616 90.8906C195.937 88.2583 207.156 85.8624 215.035 83.9841C215.26 79.5241 215.079 74.1806 215.035 69.655Z"/><path fill="#7C808C" transform="scale(0.0749414 0.0749414)" d="M215.035 69.655L274.999 69.655L295.883 69.655C296.575 76.0267 296.557 77.6687 295.883 83.9841C305.453 85.7819 313.896 89.0645 322.735 90.8906L322.735 112.137L335.856 112.137L355.242 112.137L355.242 136.444C350.939 136.422 346.581 136.361 342.284 136.444L342.284 154.723L274.999 154.723L215.035 154.723L167.551 154.723L167.551 112.137C174.589 111.021 181.652 108.419 188.616 106.444L188.616 90.8906C195.937 88.2583 207.156 85.8624 215.035 83.9841C215.26 79.5241 215.079 74.1806 215.035 69.655Z"/><path fill="#9AA0B5" transform="scale(0.0749414 0.0749414)" d="M274.999 69.655L295.883 69.655C296.575 76.0267 296.557 77.6687 295.883 83.9841C305.453 85.7819 313.896 89.0645 322.735 90.8906L322.735 112.137L335.856 112.137L355.242 112.137L355.242 136.444C350.939 136.422 346.581 136.361 342.284 136.444L342.284 154.723L274.999 154.723L274.999 69.655Z"/><path fill="#F9CB61" transform="scale(0.0749414 0.0749414)" d="M313.971 112.137L322.735 112.137L335.856 112.137L355.242 112.137L355.242 136.444C350.939 136.422 346.581 136.361 342.284 136.444L335.856 136.444L313.971 136.444L313.971 112.137Z"/><path fill="#D08A52" transform="scale(0.0749414 0.0749414)" d="M335.856 112.137L355.242 112.137L355.242 136.444C350.939 136.422 346.581 136.361 342.284 136.444L335.856 136.444C336.016 128.502 335.781 120.154 335.856 112.137Z"/><path fill="#61646F" transform="scale(0.0749414 0.0749414)" d="M188.616 90.8906C195.937 88.2583 207.156 85.8624 215.035 83.9841C215.368 85.3197 215.046 99.6886 215.043 102.238L215.035 154.723L167.551 154.723L167.551 112.137C174.589 111.021 181.652 108.419 188.616 106.444L188.616 90.8906Z"/><path fill="#EAC492" transform="scale(0.0749414 0.0749414)" d="M167.551 154.723L215.035 154.723L274.999 154.723L342.284 154.723C348.737 154.726 355.37 154.811 361.806 154.723L361.806 193.861L343.968 193.861L343.968 211.314C336.333 211.559 327.409 211.322 319.672 211.314L319.672 205.787L319.672 211.314L295.883 211.314L295.883 193.861L288.413 193.861L274.999 193.861L236.428 193.861L215.035 193.861L192.961 193.861L192.961 207.735C192.765 210.134 192.883 212.391 192.961 214.788L167.551 214.788C167.564 219.777 167.815 227.268 167.551 232.066C166.164 223.393 167.555 203.781 167.551 193.861L148.622 193.861L148.622 154.723L167.551 154.723Z"/><path fill="#42464F" transform="scale(0.0749414 0.0749414)" d="M167.551 193.861L192.961 193.861L192.961 207.735C192.765 210.134 192.883 212.391 192.961 214.788L167.551 214.788L167.551 193.861Z"/><path fill="#42464F" transform="scale(0.0749414 0.0749414)" d="M319.672 193.861C327.139 193.853 336.681 193.553 343.968 193.861L343.968 211.314C336.333 211.559 327.409 211.322 319.672 211.314L319.672 205.787C319.507 201.917 319.627 197.758 319.672 193.861Z"/><path fill="#EB6850" transform="scale(0.0749414 0.0749414)" d="M288.413 193.861C296.143 193.209 311.197 193.902 319.672 193.861C319.627 197.758 319.507 201.917 319.672 205.787L319.672 211.314L295.883 211.314L295.883 193.861L288.413 193.861Z"/><path fill="#7C808C" transform="scale(0.0749414 0.0749414)" d="M319.672 205.787L319.672 211.314C327.409 211.322 336.333 211.559 343.968 211.314L343.968 303.162L313.971 303.162L202.005 303.162C206.21 302.752 210.79 303.006 215.035 303.162C215.049 293.199 214.527 279.592 215.035 270.144L319.672 270.144L319.672 211.314L319.672 205.787Z"/><path fill="#61646F" transform="scale(0.0749414 0.0749414)" d="M192.961 214.788C192.883 212.391 192.765 210.134 192.961 207.735L192.961 211.314L192.961 270.144L215.035 270.144C214.527 279.592 215.049 293.199 215.035 303.162C210.79 303.006 206.21 302.752 202.005 303.162L196.826 303.162L167.551 303.162C167.301 295.931 167.542 286.912 167.544 279.54L167.551 232.066C167.815 227.268 167.564 219.777 167.551 214.788L192.961 214.788Z"/><path fill="#D08A52" transform="scale(0.0749414 0.0749414)" d="M192.961 193.861L215.035 193.861L236.428 193.861L236.428 211.314C236.428 214.624 236.901 239.247 236.428 239.856C229.447 240.04 222.05 239.893 215.035 239.856L215.035 270.144L192.961 270.144L192.961 211.314L192.961 207.735L192.961 193.861Z"/><path fill="#413331" transform="scale(0.0749414 0.0749414)" d="M215.035 193.861L236.428 193.861L236.428 211.314C236.428 214.624 236.901 239.247 236.428 239.856C234.445 239.528 217.973 239.844 215.035 239.856L215.035 211.314L215.035 193.861Z"/><path fill="#EB6850" transform="scale(0.0749414 0.0749414)" d="M192.961 193.861L215.035 193.861L215.035 211.314C208.578 211.106 199.374 211.104 192.961 211.314L192.961 207.735L192.961 193.861Z"/><path fill="#413331" transform="scale(0.0749414 0.0749414)" d="M288.413 193.861L295.883 193.861L295.883 211.314L295.883 239.856L274.999 239.856L274.999 211.314L274.999 193.861L288.413 193.861Z"/><path fill="#EB6850" transform="scale(0.0749414 0.0749414)" d="M236.428 193.861L274.999 193.861L274.999 211.314C264.098 210.757 247.761 211.306 236.428 211.314L236.428 193.861Z"/><path fill="#ECA872" transform="scale(0.0749414 0.0749414)" d="M144.614 309.775C152.041 309.838 160.897 309.305 168.036 309.775L168.036 315.906L168.036 321.163C177.588 321.169 187.288 321.265 196.826 321.163L196.826 321.163C196.868 348.752 196.529 376.766 196.826 404.312C197.2 412.707 197.017 423.053 196.826 431.568C196.982 433.976 196.949 435.445 196.826 437.865L196.826 449.967C196.817 456.245 196.479 465.953 196.826 471.94L168.036 471.94L168.036 500.394L168.036 505.785L168.036 530.936L168.036 569.961L148.622 569.961C148.348 563.572 148.653 556.871 148.622 550.442L132.556 550.442C132.563 559.247 132.892 570.823 132.556 579.422C132.773 582.592 132.567 588.378 132.556 591.747L110.306 591.747C110.039 586.354 110.29 578.735 110.306 573.179C110 548.288 110.267 522.782 110.312 497.856L110.259 473.67C110.202 447.429 117.244 454.031 120.833 437.921C121.819 433.492 121.33 421.062 121.3 415.992L121.3 394.162L121.3 387.508C117.999 387.117 103.888 387.489 100.044 387.508L100.044 354.151C105.439 348.42 139.633 312.603 144.614 309.775Z"/><path fill="#61646F" transform="scale(0.0749414 0.0749414)" d="M144.614 309.775C152.041 309.838 160.897 309.305 168.036 309.775L168.036 315.906L168.036 321.163C177.588 321.169 187.288 321.265 196.826 321.163L196.826 321.163C196.868 348.752 196.529 376.766 196.826 404.312C197.2 412.707 197.017 423.053 196.826 431.568C196.982 433.976 196.949 435.445 196.826 437.865L196.826 449.967C196.817 456.245 196.479 465.953 196.826 471.94L168.036 471.94L168.036 449.967L168.036 431.568L168.036 391.236C161.392 391.097 153.746 391.61 147.249 391.236C139.535 397.793 128.989 410.563 121.3 415.992L121.3 394.162L121.3 387.508C117.999 387.117 103.888 387.489 100.044 387.508L100.044 354.151C105.439 348.42 139.633 312.603 144.614 309.775Z"/><path fill="#61646F" transform="scale(0.0749414 0.0749414)" d="M168.036 321.163C173.575 321.894 191.372 321.626 196.826 321.163C196.868 348.752 196.529 376.766 196.826 404.312C197.2 412.707 197.017 423.053 196.826 431.568C196.982 433.976 196.949 435.445 196.826 437.865L196.826 449.967C196.817 456.245 196.479 465.953 196.826 471.94L168.036 471.94L168.036 449.967L168.036 431.568L168.036 391.236L168.036 370.357L168.036 347.414C168.445 340.331 168.052 328.636 168.036 321.163Z"/><path fill="#61646F" transform="scale(0.0749414 0.0749414)" d="M168.036 449.967L196.826 449.967C196.817 456.245 196.479 465.953 196.826 471.94L168.036 471.94L168.036 449.967Z"/><path fill="#42464F" transform="scale(0.0749414 0.0749414)" d="M196.826 431.568C196.982 433.976 196.949 435.445 196.826 437.865L196.826 449.967L168.036 449.967L168.036 431.568L196.826 431.568Z"/><path fill="#EB6850" transform="scale(0.0749414 0.0749414)" d="M128.877 385.885C134.511 381.008 165.518 348.163 168.036 347.414L168.036 370.357L168.036 391.236C161.392 391.097 153.746 391.61 147.249 391.236C139.535 397.793 128.989 410.563 121.3 415.992L121.3 394.162L121.3 387.508L126.981 387.508L128.877 385.885Z"/><path fill="#EAC492" transform="scale(0.0749414 0.0749414)" d="M147.249 391.236C153.055 384.602 161.68 376.558 168.036 370.357L168.036 391.236C161.392 391.097 153.746 391.61 147.249 391.236Z"/><path fill="#C04642" transform="scale(0.0749414 0.0749414)" d="M121.3 387.508L126.981 387.508C125.062 390.337 123.847 391.789 121.3 394.162L121.3 387.508Z"/><path fill="#7C808C" transform="scale(0.0749414 0.0749414)" d="M168.036 315.906L168.036 321.163C177.588 321.169 187.288 321.265 196.826 321.163L196.826 321.163C191.372 321.626 173.575 321.894 168.036 321.163C168.052 328.636 168.445 340.331 168.036 347.414C165.518 348.163 134.511 381.008 128.877 385.885C128.605 383.573 128.799 378.162 128.814 375.577L128.877 355.745C137.988 349.213 159.799 325.007 168.036 315.906Z"/><path fill="#6A4841" transform="scale(0.0749414 0.0749414)" d="M110.306 505.785L168.036 505.785L168.036 530.936L110.306 530.936L110.306 505.785Z"/><path fill="#D08A52" transform="scale(0.0749414 0.0749414)" d="M110.306 573.179L110.833 570.407C112.349 569.664 129.445 569.95 132.556 569.961C132.407 573.024 132.084 576.426 132.556 579.422C132.773 582.592 132.567 588.378 132.556 591.747L110.306 591.747C110.039 586.354 110.29 578.735 110.306 573.179Z"/><path fill="#784C2B" transform="scale(0.0749414 0.0749414)" d="M168.036 633.145C183.02 633.142 200.255 632.696 215.035 633.145L234.284 633.145L234.284 656.825L234.284 689.317L238.86 689.317L238.86 715.775L238.86 737.778L238.895 768.525C238.905 771.113 239.179 780.274 238.86 782.307L168.873 782.307L137.219 782.307C137.249 779.193 136.828 760.705 137.219 758.934C144.913 753.29 153.876 742.714 160.97 737.778L160.97 715.775L160.97 689.317L168.036 689.317L168.036 633.145Z"/><path fill="#784C2B" transform="scale(0.0749414 0.0749414)" d="M192.961 737.778L238.86 737.778L238.895 768.525C238.905 771.113 239.179 780.274 238.86 782.307L168.873 782.307L137.219 782.307C137.249 779.193 136.828 760.705 137.219 758.934C144.913 753.29 153.876 742.714 160.97 737.778C166.289 738.147 172.116 738.03 177.458 737.778C182.823 738.384 187.571 738.281 192.961 737.778Z"/><path fill="#9F633D" transform="scale(0.0749414 0.0749414)" d="M192.961 737.778L238.86 737.778L238.895 768.525C238.905 771.113 239.179 780.274 238.86 782.307C238.522 780.759 238.855 761.813 238.86 758.934L168.873 758.934C175.878 751.38 186.282 746.339 192.961 737.778Z"/><path fill="#413331" transform="scale(0.0749414 0.0749414)" d="M137.219 758.934L168.873 758.934L168.873 782.307L137.219 782.307C137.249 779.193 136.828 760.705 137.219 758.934Z"/><path fill="#ECA872" transform="scale(0.0749414 0.0749414)" d="M168.036 633.145C183.02 633.142 200.255 632.696 215.035 633.145L234.284 633.145L234.284 656.825L234.284 689.317L192.961 689.317L168.036 689.317L168.036 633.145Z"/><path fill="#7C808C" transform="scale(0.0749414 0.0749414)" d="M234.284 689.317L238.86 689.317L238.86 715.775C226.147 715.372 211.157 715.77 198.258 715.775C196.922 715.656 194.396 715.757 192.961 715.775L192.961 689.317L234.284 689.317Z"/><path fill="#61646F" transform="scale(0.0749414 0.0749414)" d="M168.036 689.317L192.961 689.317L192.961 715.775C194.396 715.757 196.922 715.656 198.258 715.775C196.575 715.87 194.665 715.8 192.961 715.775C185.831 714.982 168.223 715.414 160.97 715.775L160.97 689.317L168.036 689.317Z"/><path fill="#6A4841" transform="scale(0.0749414 0.0749414)" d="M160.97 715.775C168.223 715.414 185.831 714.982 192.961 715.775L192.961 737.778C189.889 737.753 180.008 737.487 177.458 737.778C172.116 738.03 166.289 738.147 160.97 737.778L160.97 715.775Z"/><path fill="#784C2B" transform="scale(0.0749414 0.0749414)" d="M343.968 689.317L351.068 689.317L351.068 715.775L351.068 737.778C358.452 743.084 366.739 752.504 374.002 758.934L374.002 782.307L305.691 782.307L273.077 782.307L273.077 758.934L273.077 737.778L273.077 715.775C273.093 709.443 272.593 695.391 273.144 689.722C274.339 689.071 275.901 689.289 277.339 689.317L305.691 689.317L343.968 689.317Z"/><path fill="#9F633D" transform="scale(0.0749414 0.0749414)" d="M343.968 689.317L351.068 689.317L351.068 715.775L351.068 737.778C358.452 743.084 366.739 752.504 374.002 758.934L305.691 758.934C305.702 754.895 305.255 741.062 305.691 737.778L305.691 737.778L305.691 715.775L305.691 715.775C305.146 714.144 305.685 692.894 305.691 689.317L343.968 689.317Z"/><path fill="#7C808C" transform="scale(0.0749414 0.0749414)" d="M343.968 689.317L351.068 689.317L351.068 715.775C336.098 715.555 320.694 715.755 305.691 715.775C305.146 714.144 305.685 692.894 305.691 689.317L343.968 689.317Z"/><path fill="#784C2B" transform="scale(0.0749414 0.0749414)" d="M305.691 715.775C320.694 715.755 336.098 715.555 351.068 715.775L351.068 737.778C349.601 738.014 339.227 737.833 337.239 737.825L305.691 737.778L305.691 737.778L305.691 715.775L305.691 715.775Z"/><path fill="#61646F" transform="scale(0.0749414 0.0749414)" d="M277.339 689.317L305.691 689.317C305.685 692.894 305.146 714.144 305.691 715.775L305.691 715.775C294.973 715.25 283.786 715.39 273.077 715.775C273.093 709.443 272.593 695.391 273.144 689.722C274.339 689.071 275.901 689.289 277.339 689.317Z"/><path fill="#413331" transform="scale(0.0749414 0.0749414)" d="M273.077 758.934L305.691 758.934L305.691 782.307L273.077 782.307L273.077 758.934Z"/><path fill="#413331" transform="scale(0.0749414 0.0749414)" d="M273.077 715.775C283.786 715.39 294.973 715.25 305.691 715.775L305.691 737.778C295.297 738.248 283.718 737.385 273.077 737.778L273.077 715.775Z"/><path fill="#ECA872" transform="scale(0.0749414 0.0749414)" d="M372.421 530.936C381.866 530.924 392.055 531.224 401.429 530.936L401.447 573.327C401.45 575.526 401.673 587.702 401.429 588.936C394.05 588.794 386.304 588.913 378.908 588.936L378.908 569.961L378.908 550.442C376.087 550.428 365.511 550.001 363.663 550.442L363.663 569.961C357.687 569.906 349.683 569.596 343.968 569.961L343.968 530.936C353.427 530.957 362.969 531.044 372.421 530.936Z"/><path fill="#D08A52" transform="scale(0.0749414 0.0749414)" d="M378.908 569.961L401.429 569.961C401.415 572.537 401.104 587.572 401.429 588.936C394.05 588.794 386.304 588.913 378.908 588.936L378.908 569.961Z"/><path fill="#D08A52" transform="scale(0.0749414 0.0749414)" d="M355.242 89.2384L374.002 89.2384C374.316 90.9869 374.01 109.324 374.002 112.137L355.242 112.137C355.689 107.706 355.259 94.2015 355.242 89.2384Z"/></svg>