<?xml version="1.0" encoding="UTF-8"?>
<svg width="600px" height="300px" viewBox="0 0 600 300" xmlns="http://www.w3.org/2000/svg" xmlns:xlink="http://www.w3.org/1999/xlink" version="1.1">
 <!-- Generated by Pixelmator Pro 2.0.1 -->
 <path id="Путь" d="M0 -1 L600 -1 600 300 0 300 Z" fill="#37374e" fill-opacity="1" stroke="none"/>
 <path id="Путь-копия-14" d="M285.331 152.737 C285.897 152.337 286.682 152.473 287.079 153.041 287.478 153.61 287.338 154.393 286.768 154.789 286.201 155.182 285.424 155.043 285.028 154.478 284.633 153.913 284.768 153.135 285.331 152.737 Z" fill="#faf7e5" fill-opacity="1" stroke="none"/>
 <path id="Путь-копия-13" d="M120.291 79.243 C120.722 79.092 121.201 79.198 121.528 79.516 121.856 79.833 121.976 80.309 121.838 80.743 121.701 81.178 121.329 81.499 120.879 81.57 120.263 81.669 119.673 81.28 119.521 80.675 119.368 80.07 119.702 79.449 120.291 79.243 Z" fill="#faf7e5" fill-opacity="1" stroke="none"/>
 <path id="Путь-копия-11" d="M252.331 168.737 C252.897 168.337 253.682 168.473 254.079 169.041 254.478 169.61 254.338 170.393 253.768 170.789 253.201 171.182 252.424 171.043 252.028 170.478 251.633 169.913 251.768 169.135 252.331 168.737 Z" fill="#faf7e5" fill-opacity="1" stroke="none"/>
 <path id="Путь-копия-9" d="M305.229 125.931 C305.897 125.881 306.492 126.349 306.597 127.008 306.705 127.668 306.292 128.301 305.648 128.468 305.173 128.589 304.672 128.433 304.353 128.065 304.031 127.696 303.946 127.178 304.13 126.727 304.318 126.275 304.742 125.967 305.229 125.931 Z" fill="#faf7e5" fill-opacity="1" stroke="none"/>
 <path id="Путь-копия-4" d="M325.229 143.931 C325.897 143.881 326.492 144.349 326.597 145.008 326.705 145.668 326.292 146.301 325.648 146.468 325.173 146.589 324.672 146.433 324.353 146.065 324.031 145.696 323.946 145.178 324.13 144.727 324.318 144.275 324.742 143.967 325.229 143.931 Z" fill="#faf7e5" fill-opacity="1" stroke="none"/>
 <path id="Путь-копия-7" d="M325.229 143.931 C325.897 143.881 326.492 144.349 326.597 145.008 326.705 145.668 326.292 146.301 325.648 146.468 325.173 146.589 324.672 146.433 324.353 146.065 324.031 145.696 323.946 145.178 324.13 144.727 324.318 144.275 324.742 143.967 325.229 143.931 Z" fill="#faf7e5" fill-opacity="1" stroke="none"/>
 <path id="Путь-копия-6" d="M299.229 170.931 C299.897 170.881 300.492 171.349 300.597 172.008 300.705 172.668 300.292 173.301 299.648 173.468 299.173 173.589 298.672 173.433 298.353 173.065 298.031 172.696 297.946 172.178 298.13 171.727 298.318 171.275 298.742 170.967 299.229 170.931 Z" fill="#faf7e5" fill-opacity="1" stroke="none"/>
 <path id="Путь-копия-5" d="M193.229 198.931 C193.897 198.881 194.492 199.349 194.597 200.008 194.705 200.668 194.292 201.301 193.648 201.468 193.173 201.589 192.672 201.433 192.353 201.065 192.031 200.696 191.946 200.178 192.13 199.727 192.318 199.275 192.742 198.967 193.229 198.931 Z" fill="#faf7e5" fill-opacity="1" stroke="none"/>
 <path id="Путь-копия-3" d="M343.229 136.931 C343.897 136.881 344.492 137.349 344.597 138.008 344.705 138.668 344.292 139.301 343.648 139.468 343.173 139.589 342.672 139.433 342.353 139.065 342.031 138.696 341.946 138.178 342.13 137.727 342.318 137.275 342.742 136.967 343.229 136.931 Z" fill="#faf7e5" fill-opacity="1" stroke="none"/>
 <path id="Путь-копия-8" d="M286.229 125.931 C286.897 125.881 287.492 126.349 287.597 127.008 287.705 127.668 287.292 128.301 286.648 128.468 286.173 128.589 285.672 128.433 285.353 128.065 285.031 127.696 284.946 127.178 285.13 126.727 285.318 126.275 285.742 125.967 286.229 125.931 Z" fill="#faf7e5" fill-opacity="1" stroke="none"/>
 <path id="Путь-копия-2" d="M354.229 170.931 C354.897 170.881 355.492 171.349 355.597 172.008 355.705 172.668 355.292 173.301 354.648 173.468 354.173 173.589 353.672 173.433 353.353 173.065 353.031 172.696 352.946 172.178 353.13 171.727 353.318 171.275 353.742 170.967 354.229 170.931 Z" fill="#faf7e5" fill-opacity="1" stroke="none"/>
 <path id="Путь-копия-1" d="M423.709 152.064 C424.36 151.858 425.069 152.166 425.321 152.764 425.573 153.362 425.283 154.04 424.656 154.307 424.222 154.492 423.715 154.438 423.337 154.166 422.959 153.895 422.772 153.451 422.851 153.01 422.927 152.57 423.258 152.206 423.709 152.064 Z" fill="#faf7e5" fill-opacity="1" stroke="none"/>
 <path id="Путь-копия" d="M423.709 151.904 C424.36 151.684 425.069 152.013 425.321 152.651 425.573 153.29 425.283 154.015 424.656 154.299 424.222 154.497 423.715 154.439 423.337 154.149 422.959 153.859 422.772 153.385 422.851 152.915 422.927 152.445 423.258 152.056 423.709 151.904 Z" fill="#faf7e5" fill-opacity="1" stroke="none"/>
 <path id="Путь-1" d="M145.598 184.968 C145.943 185.171 146.349 185.317 146.382 185.757 146.513 187.528 146.716 193.499 146.079 194.884 144.51 192.577 144.949 187.632 145.598 184.968 Z" fill="#faf7e5" fill-opacity="1" stroke="none"/>
 <path id="Путь-2" d="M114.493 221.379 C115.171 221.338 115.764 221.829 115.851 222.503 115.938 223.177 115.488 223.802 114.822 223.934 114.349 224.028 113.863 223.85 113.562 223.474 113.262 223.097 113.196 222.585 113.391 222.144 113.587 221.704 114.012 221.409 114.493 221.379 Z" fill="#faf7e5" fill-opacity="1" stroke="none"/>
 <path id="Путь-3" d="M209.331 144.737 C209.897 144.337 210.682 144.473 211.079 145.041 211.478 145.61 211.338 146.393 210.768 146.789 210.201 147.182 209.424 147.043 209.028 146.478 208.633 145.913 208.768 145.135 209.331 144.737 Z" fill="#faf7e5" fill-opacity="1" stroke="none"/>
 <path id="Путь-копия-10" d="M222.331 178.737 C222.897 178.337 223.682 178.473 224.079 179.041 224.478 179.61 224.338 180.393 223.768 180.789 223.201 181.182 222.424 181.043 222.028 180.478 221.633 179.913 221.768 179.135 222.331 178.737 Z" fill="#faf7e5" fill-opacity="1" stroke="none"/>
 <path id="Путь-копия-12" d="M250.331 140.737 C250.897 140.337 251.682 140.473 252.079 141.041 252.478 141.61 252.338 142.393 251.768 142.789 251.201 143.182 250.424 143.043 250.028 142.478 249.633 141.913 249.768 141.135 250.331 140.737 Z" fill="#faf7e5" fill-opacity="1" stroke="none"/>
 <path id="Путь-4" d="M197.019 235.342 C198.357 235.186 200.689 234.909 201.928 235.411 L201.917 235.975 C200.203 236.295 197.829 237.158 197.019 235.342 Z" fill="#faf7e5" fill-opacity="1" stroke="none"/>
 <path id="Путь-5" d="M137.598 201.52 C137.788 201.803 138.58 204.679 138.731 205.207 140.038 209.77 141.682 213.445 144.203 217.455 138.764 218.864 132.825 220.147 127.221 220.446 125.271 220.693 120.203 220.374 121.272 217.549 123.521 211.6 132.62 205.062 137.598 201.52 Z" fill="#37374e" fill-opacity="1" stroke="none"/>
 <path id="Путь-6" d="M252.925 153.922 C255.004 153.58 258.881 153.218 260.251 155.115 261.66 159.719 249.661 168.677 246.325 170.845 243.467 164.923 241.994 161.981 237.76 156.955 242.48 155.693 248.106 154.478 252.925 153.922 Z" fill="#37374e" fill-opacity="1" stroke="none"/>
 <path id="Путь-7" d="M301.802 121.415 C303.364 121.116 305.25 120.614 306.824 120.234 307.222 120.829 307.342 120.788 307.33 121.364 Z" fill="#282743" fill-opacity="1" stroke="none"/>
 <path id="Путь-14" d="M253.152 201.025 L254.06 201.465 C250.506 203.332 235.881 209.392 232 210 236.589 207.639 247.921 203.234 253.152 201.025 Z" fill="#faf7e5" fill-opacity="1" stroke="none"/>
 <path id="Путь-15" d="M187.208 35.866 L187.813 37.555 C188.093 47.317 191.73 52.706 202.409 52.132 L204.644 52.74 C195.029 53.226 187.319 55.278 187.786 67.022 L187.209 69.128 C187.213 69.012 187.216 68.895 187.216 68.779 187.265 55.575 180.557 52.593 168.732 52.736 L170.666 52.134 C183.882 52.733 186.471 47.83 187.208 35.866 Z" fill="#faf7e5" fill-opacity="1" stroke="none"/>
 <path id="Путь-16" d="M449.259 99.297 C450.27 102.351 449.537 110.202 452.763 113.961 455.953 117.682 462.361 117.683 466.913 118.22 462.806 118.574 457.175 118.551 453.885 121.037 449.306 124.498 449.965 131.579 449.25 136.796 449.028 132.386 449.104 126.464 446.382 122.945 442.773 118.279 436.615 118.906 431.268 118.216 446.924 117.073 448.503 115.138 449.259 99.297 Z" fill="#faf7e5" fill-opacity="1" stroke="none"/>
 <path id="Путь-17" d="M453.223 225.446 C453.575 237.218 456.692 240.408 468.578 240.545 469.354 240.554 470.995 240.536 471.686 240.824 470.713 241.19 468.498 241.148 467.379 241.223 456.803 241.937 453.317 245.838 453.238 256.54 L452.628 254.776 C453.021 245.382 445.949 241.214 437.406 241.41 L437.028 240.815 C440.702 241.082 446.411 239.842 449.11 237.283 451.928 234.611 452.546 231.141 452.652 227.458 Z" fill="#faf7e5" fill-opacity="1" stroke="none"/>
 <path id="Путь-18" d="M235.283 219.798 C236.024 226.389 235.471 228.678 242.549 230.169 L245.262 230.365 243.238 230.905 241.397 231 C235.225 232.516 236.117 236.059 235.292 241.335 234.651 235.489 234.956 231.264 227.809 230.93 L226.577 230.337 C234.951 229.235 234.584 227.386 235.283 219.798 Z" fill="#faf7e5" fill-opacity="1" stroke="none"/>
 <path id="Путь-19" d="M19.319 27.351 C21.131 26.5 26.856 27.049 28.926 25.259 31.231 23.266 30.928 18.648 31.213 15.624 32.14 26.433 31.631 25.805 42.317 27.097 35.868 27.877 32.232 27.007 31.621 34.728 L31.04 36.831 C31.019 27.357 27.233 27.72 19.319 27.351 Z" fill="#faf7e5" fill-opacity="1" stroke="none"/>
 <path id="Путь-20" d="M124.959 270.018 C125.089 270.426 125.273 271.586 125.313 272.037 125.81 277.606 129.498 277.2 134.024 277.718 125.846 278.384 126.303 278.162 124.949 286.024 124.385 278.71 123.842 278.796 116.8 277.654 123.334 276.689 124.244 276.721 124.959 270.018 Z" fill="#faf7e5" fill-opacity="1" stroke="none"/>
 <path id="Путь-21" d="M73.08 167.817 C74.29 169.44 73.609 172.982 73.85 173.285 75.385 175.217 80.355 175.509 82.391 175.864 75.9 176.185 74.038 175.857 73.407 182.751 L73.098 183.348 C72.311 176.288 71.45 176.383 64.526 175.764 71.651 175.222 72.629 175.249 73.08 167.817 Z" fill="#faf7e5" fill-opacity="1" stroke="none"/>
 <path id="Путь-22" d="M460.122 14.819 C460.389 16.919 460.462 19.458 461.781 21.083 463.764 22.25 466.158 22.244 468.431 22.4 468.203 23.187 463.635 22.575 461.661 24.204 460.521 25.922 460.55 28.359 460.439 30.411 459.516 28.934 460.313 24.909 457.916 23.669 456.452 22.911 453.531 23.148 452.321 22.524 459.654 21.54 459.038 21.915 460.122 14.819 Z" fill="#faf7e5" fill-opacity="1" stroke="none"/>
 <path id="Путь-23" d="M551.502 115.686 C552.519 116.915 551.819 120.263 552.138 121.362 552.847 123.791 558.891 123.97 561.015 124.161 553.688 125.066 552.431 123.549 551.713 132.065 L551.576 132.471 C551.098 130.893 551.775 128.074 550.316 126.207 548.974 124.488 546.238 124.386 544.143 124.062 551.063 123.614 551.195 122.028 551.502 115.686 Z" fill="#faf7e5" fill-opacity="1" stroke="none"/>
 <path id="Путь-24" d="M322.615 62.826 C328.213 61.789 328.415 60.646 328.843 55.002 329.241 58.412 329.174 62.343 333.533 62.365 L334.978 62.925 C329.165 63.689 329.499 65.633 328.866 70.961 328.199 65.315 328.371 63.968 322.615 62.826 Z" fill="#faf7e5" fill-opacity="1" stroke="none"/>
 <path id="Путь-25" d="M413.819 196.985 C414.328 204.269 414.159 204.767 421.494 205.503 415.667 206.312 414.727 205.464 413.986 211.749 L413.83 213.257 C411.563 212.735 417.267 206.53 406.7 205.426 414.454 204.669 412.336 203.24 413.819 196.985 Z" fill="#faf7e5" fill-opacity="1" stroke="none"/>
 <path id="Путь-26" d="M564.651 29.743 C566.277 29.5 569.356 29.328 570.173 27.991 571.363 26.051 571.764 24.553 571.67 22.358 572.397 29.128 573.173 29.053 579.832 29.737 575.385 30.381 572.321 30.073 571.925 35.392 L571.269 34.049 C570.616 30.262 567.95 30.27 564.651 29.743 Z" fill="#faf7e5" fill-opacity="1" stroke="none"/>
 <path id="Путь-27" d="M255.058 12.42 C256.12 17.897 255.799 18.324 261.482 19.471 255.741 20.564 255.959 20.556 255.208 26.281 L255.052 26.323 C254.717 22.545 254.423 20.216 249.956 19.816 249.952 19.593 250.058 19.459 250.166 19.221 254.651 18.177 254.519 16.633 255.058 12.42 Z" fill="#faf7e5" fill-opacity="1" stroke="none"/>
 <path id="Путь-28" d="M465.226 168.244 C466.799 167.648 468.557 168.43 469.169 169.997 469.779 171.564 469.014 173.33 467.453 173.955 465.87 174.588 464.078 173.81 463.456 172.223 462.838 170.636 463.632 168.849 465.226 168.244 Z" fill="#faf7e5" fill-opacity="1" stroke="none"/>
 <path id="Путь-29" d="M502.445 121.671 C504.027 121.056 505.808 121.846 506.414 123.431 507.024 125.017 506.227 126.794 504.636 127.395 503.06 127.991 501.296 127.2 500.693 125.625 500.089 124.049 500.871 122.282 502.445 121.671 Z" fill="#faf7e5" fill-opacity="1" stroke="none"/>
 <path id="Путь-30" d="M274.439 64.295 C276.076 64.111 277.561 65.27 277.78 66.903 277.999 68.536 276.874 70.045 275.246 70.3 274.161 70.469 273.069 70.039 272.392 69.174 271.715 68.31 271.559 67.147 271.983 66.134 272.408 65.121 273.348 64.418 274.439 64.295 Z" fill="#faf7e5" fill-opacity="1" stroke="none"/>
 <path id="Путь-31" d="M504.267 167.387 C505.776 166.776 507.496 167.472 508.158 168.959 508.817 170.446 508.178 172.188 506.713 172.897 505.723 173.377 504.548 173.278 503.652 172.64 502.755 172.002 502.275 170.925 502.404 169.831 502.533 168.737 503.247 167.8 504.267 167.387 Z" fill="#faf7e5" fill-opacity="1" stroke="none"/>
 <path id="Путь-32" d="M259.964 96.212 C260.969 95.813 262.111 95.986 262.953 96.664 263.795 97.342 264.208 98.42 264.033 99.487 263.858 100.554 263.124 101.445 262.109 101.819 260.567 102.388 258.854 101.61 258.267 100.075 257.679 98.54 258.436 96.817 259.964 96.212 Z" fill="#faf7e5" fill-opacity="1" stroke="none"/>
 <path id="Путь-33" d="M522.132 196.39 C523.747 196.158 525.249 197.258 525.516 198.866 525.786 200.474 524.719 202.002 523.12 202.306 522.05 202.509 520.955 202.118 520.257 201.283 519.56 200.449 519.367 199.302 519.756 198.286 520.146 197.27 521.054 196.544 522.132 196.39 Z" fill="#faf7e5" fill-opacity="1" stroke="none"/>
 <path id="Путь-34" d="M297.252 31.394 C298.289 31.054 299.429 31.304 300.229 32.048 301.029 32.791 301.36 33.911 301.096 34.971 300.832 36.03 300.012 36.862 298.957 37.143 297.387 37.56 295.773 36.653 295.31 35.097 294.85 33.541 295.708 31.9 297.252 31.394 Z" fill="#faf7e5" fill-opacity="1" stroke="none"/>
 <path id="Путь-35" d="M55.151 215.274 C56.707 214.736 58.406 215.554 58.955 217.106 59.505 218.658 58.7 220.362 57.152 220.924 55.588 221.491 53.861 220.675 53.305 219.107 52.75 217.539 53.578 215.818 55.151 215.274 Z" fill="#faf7e5" fill-opacity="1" stroke="none"/>
 <path id="Путь-36" d="M108.121 166.543 C109.642 166.013 111.308 166.786 111.885 168.289 112.461 169.792 111.74 171.481 110.255 172.104 109.253 172.525 108.102 172.367 107.251 171.691 106.399 171.016 105.983 169.931 106.164 168.859 106.345 167.788 107.095 166.9 108.121 166.543 Z" fill="#faf7e5" fill-opacity="1" stroke="none"/>
 <path id="Путь-37" d="M418.805 43.199 C419.763 42.645 420.947 42.666 421.881 43.253 422.816 43.841 423.349 44.898 423.267 45.999 423.182 47.101 422.496 48.065 421.483 48.505 420.035 49.133 418.351 48.524 417.642 47.115 416.93 45.707 417.443 43.989 418.805 43.199 Z" fill="#faf7e5" fill-opacity="1" stroke="none"/>
 <path id="Путь-38" d="M324.721 284.281 C326.28 284.14 327.68 285.231 327.926 286.776 328.172 288.32 327.179 289.791 325.653 290.141 324.572 290.389 323.441 290.013 322.723 289.166 322.002 288.32 321.818 287.143 322.237 286.116 322.658 285.088 323.616 284.38 324.721 284.281 Z" fill="#faf7e5" fill-opacity="1" stroke="none"/>
 <path id="Путь-39" d="M542.201 276.985 C543.217 276.544 544.392 276.704 545.253 277.4 546.115 278.097 546.519 279.215 546.299 280.301 546.08 281.387 545.274 282.26 544.21 282.567 542.705 283.002 541.12 282.193 540.589 280.718 540.056 279.243 540.762 277.61 542.201 276.985 Z" fill="#faf7e5" fill-opacity="1" stroke="none"/>
 <path id="Путь-40" d="M138.569 30.593 C140.092 29.976 141.826 30.714 142.439 32.239 143.051 33.763 142.309 35.496 140.782 36.104 139.262 36.71 137.538 35.971 136.927 34.452 136.317 32.933 137.051 31.206 138.569 30.593 Z" fill="#faf7e5" fill-opacity="1" stroke="none"/>
 <path id="Путь-41" d="M405 94.389 C406.052 94.018 407.221 94.27 408.03 95.039 408.835 95.808 409.143 96.966 408.824 98.034 408.501 99.102 407.611 99.9 406.512 100.099 404.992 100.374 403.515 99.436 403.119 97.942 402.724 96.449 403.541 94.902 405 94.389 Z" fill="#faf7e5" fill-opacity="1" stroke="none"/>
 <path id="Путь-42" d="M181.624 111.164 C183.183 110.75 184.786 111.66 185.23 113.21 185.673 114.761 184.794 116.381 183.252 116.854 182.229 117.169 181.115 116.905 180.341 116.166 179.566 115.426 179.251 114.326 179.517 113.289 179.784 112.252 180.589 111.439 181.624 111.164 Z" fill="#faf7e5" fill-opacity="1" stroke="none"/>
 <path id="Путь-43" d="M113.194 108.806 C114.684 108.172 116.406 108.854 117.058 110.336 117.711 111.817 117.05 113.548 115.576 114.218 114.606 114.659 113.475 114.544 112.613 113.918 111.752 113.292 111.294 112.251 111.414 111.193 111.534 110.135 112.214 109.224 113.194 108.806 Z" fill="#faf7e5" fill-opacity="1" stroke="none"/>
 <path id="Путь-44" d="M36.066 154.155 C37.556 153.631 39.193 154.374 39.781 155.84 40.368 157.306 39.697 158.974 38.258 159.624 37.27 160.071 36.117 159.939 35.255 159.282 34.393 158.625 33.962 157.547 34.131 156.477 34.3 155.406 35.043 154.514 36.066 154.155 Z" fill="#faf7e5" fill-opacity="1" stroke="none"/>
 <path id="Путь-45" d="M372.467 106.758 C373.929 106.067 375.675 106.692 376.367 108.154 377.058 109.616 376.434 111.362 374.972 112.055 373.51 112.748 371.761 112.124 371.07 110.66 370.378 109.197 371.002 107.449 372.467 106.758 Z" fill="#faf7e5" fill-opacity="1" stroke="none"/>
 <path id="Путь-46" d="M144.597 85.671 C145.56 85.2 146.703 85.294 147.576 85.916 148.449 86.539 148.911 87.59 148.779 88.653 148.647 89.717 147.942 90.624 146.944 91.014 145.485 91.584 143.837 90.902 143.207 89.469 142.577 88.035 143.19 86.36 144.597 85.671 Z" fill="#faf7e5" fill-opacity="1" stroke="none"/>
 <path id="Путь-47" d="M300.059 259.334 C301.644 259.15 303.082 260.279 303.281 261.864 303.478 263.449 302.362 264.897 300.78 265.109 299.177 265.323 297.706 264.19 297.507 262.585 297.305 260.981 298.45 259.52 300.059 259.334 Z" fill="#faf7e5" fill-opacity="1" stroke="none"/>
 <path id="Путь-48" d="M581.294 59.833 C582.777 59.418 584.327 60.232 584.825 61.688 585.323 63.145 584.599 64.737 583.172 65.317 582.176 65.721 581.037 65.542 580.213 64.85 579.387 64.158 579.015 63.067 579.244 62.015 579.469 60.963 580.26 60.124 581.294 59.833 Z" fill="#faf7e5" fill-opacity="1" stroke="none"/>
 <path id="Путь-49" d="M519.355 224.554 C520.911 224.156 522.496 225.102 522.882 226.662 523.269 228.222 522.311 229.798 520.749 230.175 519.203 230.548 517.644 229.602 517.26 228.058 516.876 226.512 517.811 224.948 519.355 224.554 Z" fill="#faf7e5" fill-opacity="1" stroke="none"/>
 <path id="Путь-50" d="M150.236 230.836 C150.898 229.842 152.103 229.357 153.269 229.614 154.435 229.871 155.323 230.819 155.506 231.999 155.688 233.179 155.127 234.35 154.093 234.948 153.059 235.545 151.764 235.446 150.832 234.698 149.664 233.759 149.405 232.084 150.236 230.836 Z" fill="#faf7e5" fill-opacity="1" stroke="none"/>
 <path id="Путь-51" d="M80.236 73.836 C80.875 74.811 81.104 76 81.437 77.146 L80.832 77.698 C79.664 76.759 79.405 75.084 80.236 73.836 Z" fill="#faf7e5" fill-opacity="1" stroke="none"/>
 <path id="Путь-52" d="M547.257 10.647 C548.748 10.065 550.427 10.81 550.998 12.307 551.567 13.803 550.805 15.477 549.305 16.032 547.823 16.58 546.173 15.831 545.614 14.354 545.051 12.876 545.784 11.222 547.257 10.647 Z" fill="#faf7e5" fill-opacity="1" stroke="none"/>
 <path id="Путь-53" d="M580.108 281.925 C581.075 281.549 582.17 281.724 582.973 282.383 583.776 283.041 584.16 284.081 583.981 285.104 583.802 286.126 583.084 286.972 582.106 287.318 580.624 287.841 578.997 287.078 578.453 285.605 577.905 284.132 578.643 282.493 580.108 281.925 Z" fill="#faf7e5" fill-opacity="1" stroke="none"/>
 <path id="Путь-54" d="M210.576 25.916 C212.069 25.362 213.729 26.128 214.275 27.625 214.821 29.122 214.045 30.777 212.546 31.315 211.057 31.85 209.417 31.081 208.875 29.595 208.333 28.11 209.093 26.466 210.576 25.916 Z" fill="#faf7e5" fill-opacity="1" stroke="none"/>
 <path id="Путь-55" d="M49.909 102.839 C51.401 102.519 52.883 103.418 53.288 104.889 53.692 106.36 52.877 107.89 51.432 108.377 50.421 108.717 49.306 108.47 48.533 107.735 47.76 107 47.457 105.899 47.746 104.872 48.035 103.846 48.867 103.064 49.909 102.839 Z" fill="#faf7e5" fill-opacity="1" stroke="none"/>
 <path id="Путь-56" d="M579.78 233.886 C580.817 233.712 581.863 234.118 582.513 234.945 583.161 235.771 583.304 236.886 582.888 237.851 582.472 238.815 581.564 239.476 580.518 239.572 578.98 239.714 577.609 238.614 577.41 237.084 577.21 235.554 578.259 234.141 579.78 233.886 Z" fill="#faf7e5" fill-opacity="1" stroke="none"/>
 <path id="Путь-57" d="M17.048 70.133 C18.005 69.686 19.131 69.803 19.977 70.437 20.822 71.071 21.25 72.119 21.09 73.163 20.93 74.207 20.208 75.079 19.212 75.43 17.771 75.939 16.185 75.227 15.607 73.812 15.029 72.398 15.663 70.779 17.048 70.133 Z" fill="#faf7e5" fill-opacity="1" stroke="none"/>
 <path id="Путь-58" d="M177.112 267.894 C178.131 267.639 179.207 267.962 179.917 268.735 180.627 269.509 180.856 270.609 180.514 271.602 180.172 272.595 179.314 273.32 178.278 273.493 176.763 273.745 175.319 272.757 175.006 271.253 174.693 269.75 175.623 268.267 177.112 267.894 Z" fill="#faf7e5" fill-opacity="1" stroke="none"/>
 <path id="Путь-59" d="M247.389 255.586 C248.329 255.192 249.409 255.334 250.214 255.96 251.019 256.585 251.425 257.596 251.275 258.605 251.125 259.613 250.443 260.463 249.491 260.827 248.051 261.378 246.435 260.672 245.861 259.241 245.287 257.81 245.967 256.183 247.389 255.586 Z" fill="#faf7e5" fill-opacity="1" stroke="none"/>
 <path id="Путь-60" d="M354.035 80.647 C355.002 80.273 356.095 80.46 356.883 81.133 357.671 81.806 358.026 82.857 357.806 83.869 357.589 84.882 356.833 85.694 355.837 85.984 354.39 86.406 352.864 85.61 352.38 84.18 351.897 82.749 352.626 81.191 354.035 80.647 Z" fill="#faf7e5" fill-opacity="1" stroke="none"/>
 <path id="Путь-61" d="M343.228 209.265 C344.23 209.137 345.223 209.562 345.821 210.375 346.421 211.189 346.533 212.263 346.114 213.182 345.695 214.102 344.81 214.722 343.805 214.803 342.296 214.925 340.966 213.821 340.811 212.316 340.653 210.812 341.728 209.457 343.228 209.265 Z" fill="#faf7e5" fill-opacity="1" stroke="none"/>
 <path id="Путь-62" d="M449.526 50.831 C450.372 50.477 451.345 50.612 452.063 51.182 452.781 51.752 453.132 52.669 452.98 53.573 452.828 54.478 452.195 55.228 451.328 55.531 450.044 55.98 448.632 55.327 448.146 54.056 447.66 52.785 448.269 51.356 449.526 50.831 Z" fill="#faf7e5" fill-opacity="1" stroke="none"/>
 <path id="Путь-63" d="M479.086 271.424 C480.135 270.805 481.486 271.143 482.119 272.182 482.754 273.221 482.435 274.577 481.404 275.226 480.724 275.654 479.869 275.683 479.16 275.302 478.454 274.92 478.008 274.188 477.991 273.385 477.976 272.582 478.395 271.833 479.086 271.424 Z" fill="#faf7e5" fill-opacity="1" stroke="none"/>
 <path id="Путь-64" d="M344.473 28.803 C345.12 28.443 345.914 28.459 346.547 28.845 347.183 29.231 347.558 29.929 347.537 30.671 347.514 31.413 347.092 32.085 346.436 32.432 345.437 32.959 344.198 32.583 343.658 31.589 343.122 30.595 343.483 29.353 344.473 28.803 Z" fill="#faf7e5" fill-opacity="1" stroke="none"/>
 <path id="Путь-65" d="M82.394 108.499 C83.439 108.246 84.501 108.846 84.825 109.871 85.149 110.896 84.624 111.997 83.624 112.391 82.913 112.671 82.104 112.531 81.529 112.028 80.953 111.525 80.706 110.743 80.888 110 81.07 109.258 81.651 108.679 82.394 108.499 Z" fill="#faf7e5" fill-opacity="1" stroke="none"/>
 <path id="Путь-66" d="M93.209 20.92 C94.285 20.59 95.423 21.196 95.751 22.272 96.079 23.347 95.472 24.485 94.396 24.812 93.322 25.138 92.187 24.532 91.859 23.458 91.532 22.385 92.136 21.248 93.209 20.92 Z" fill="#faf7e5" fill-opacity="1" stroke="none"/>
 <path id="Путь-67" d="M364.292 279.884 C364.995 279.607 365.795 279.747 366.364 280.245 366.932 280.744 367.175 281.518 366.991 282.252 366.809 282.985 366.235 283.556 365.496 283.73 364.465 283.976 363.419 283.381 363.103 282.369 362.786 281.357 363.305 280.271 364.292 279.884 Z" fill="#faf7e5" fill-opacity="1" stroke="none"/>
 <path id="Путь-68" d="M405.065 9.751 C405.788 9.591 406.544 9.844 407.028 10.409 407.511 10.974 407.64 11.76 407.37 12.452 407.098 13.143 406.465 13.629 405.727 13.714 404.663 13.836 403.691 13.104 403.515 12.048 403.336 10.992 404.019 9.982 405.065 9.751 Z" fill="#faf7e5" fill-opacity="1" stroke="none"/>
 <path id="Путь-69" d="M376.679 208.657 C377.283 208.24 378.065 208.185 378.724 208.512 379.38 208.84 379.805 209.498 379.834 210.231 379.867 210.964 379.494 211.655 378.867 212.035 377.936 212.6 376.726 212.322 376.134 211.408 375.542 210.494 375.785 209.276 376.679 208.657 Z" fill="#faf7e5" fill-opacity="1" stroke="none"/>
 <path id="Путь-70" d="M129.851 59.035 C130.774 58.5 131.956 58.787 132.531 59.687 133.105 60.586 132.869 61.779 131.995 62.392 131.395 62.813 130.613 62.871 129.958 62.543 129.302 62.215 128.88 61.553 128.858 60.821 128.835 60.089 129.217 59.403 129.851 59.035 Z" fill="#faf7e5" fill-opacity="1" stroke="none"/>
 <path id="Путь-71" d="M316.573 199.303 C317.215 198.957 317.994 198.988 318.604 199.384 319.216 199.78 319.562 200.477 319.509 201.204 319.453 201.93 319.008 202.569 318.346 202.87 317.367 203.316 316.213 202.906 315.736 201.944 315.258 200.981 315.627 199.813 316.573 199.303 Z" fill="#faf7e5" fill-opacity="1" stroke="none"/>
 <path id="Путь-72" d="M48.058 59.566 C49.061 59.295 50.103 59.842 50.449 60.822 50.796 61.801 50.329 62.881 49.378 63.301 48.696 63.602 47.903 63.495 47.324 63.025 46.746 62.555 46.479 61.801 46.634 61.071 46.789 60.342 47.339 59.761 48.058 59.566 Z" fill="#faf7e5" fill-opacity="1" stroke="none"/>
 <path id="Путь-73" d="M26.608 130.477 C27.6 130.185 28.65 130.71 29.013 131.679 29.375 132.648 28.928 133.732 27.988 134.164 27.316 134.473 26.528 134.38 25.946 133.924 25.364 133.468 25.086 132.725 25.226 131.999 25.365 131.273 25.898 130.686 26.608 130.477 Z" fill="#faf7e5" fill-opacity="1" stroke="none"/>
 <path id="Путь-74" d="M291.637 14.804 C292.656 14.512 293.722 15.081 294.05 16.09 294.375 17.099 293.839 18.185 292.843 18.543 292.167 18.786 291.413 18.641 290.875 18.166 290.338 17.69 290.102 16.959 290.26 16.259 290.419 15.559 290.947 15.001 291.637 14.804 Z" fill="#faf7e5" fill-opacity="1" stroke="none"/>
 <path id="Путь-75" d="M441.686 278.464 C442.316 278.086 443.101 278.094 443.722 278.483 444.343 278.872 444.692 279.578 444.627 280.308 444.56 281.038 444.088 281.668 443.409 281.939 442.465 282.313 441.396 281.902 440.945 280.995 440.496 280.087 440.819 278.986 441.686 278.464 Z" fill="#faf7e5" fill-opacity="1" stroke="none"/>
 <path id="Путь-76" d="M393.068 149.2 C393.993 148.661 395.18 148.974 395.719 149.899 396.258 150.824 395.948 152.011 395.022 152.551 394.096 153.092 392.91 152.78 392.368 151.854 391.828 150.928 392.142 149.74 393.068 149.2 Z" fill="#faf7e5" fill-opacity="1" stroke="none"/>
 <path id="Путь-77" d="M523.993 257.953 C525.015 257.628 526.105 258.194 526.427 259.217 526.749 260.24 526.178 261.328 525.153 261.645 524.136 261.96 523.055 261.392 522.736 260.376 522.416 259.36 522.979 258.277 523.993 257.953 Z" fill="#faf7e5" fill-opacity="1" stroke="none"/>
 <path id="Путь-78" d="M399.009 279.891 C400.02 279.652 401.036 280.251 401.318 281.249 401.599 282.247 401.042 283.289 400.055 283.61 399.381 283.83 398.64 283.662 398.124 283.174 397.612 282.685 397.407 281.954 397.591 281.269 397.776 280.584 398.321 280.055 399.009 279.891 Z" fill="#faf7e5" fill-opacity="1" stroke="none"/>
 <path id="Путь-79" d="M582.522 213.395 C583.503 213.007 584.611 213.475 585.018 214.447 585.422 215.42 584.974 216.538 584.01 216.961 583.369 217.242 582.627 217.155 582.071 216.734 581.514 216.313 581.224 215.625 581.318 214.932 581.412 214.24 581.872 213.652 582.522 213.395 Z" fill="#faf7e5" fill-opacity="1" stroke="none"/>
 <path id="Путь-80" d="M376.196 176.115 C377.118 175.687 378.214 176.054 378.692 176.952 379.169 177.849 378.865 178.963 377.994 179.491 377.388 179.86 376.626 179.862 376.017 179.498 375.408 179.133 375.05 178.462 375.088 177.753 375.126 177.044 375.551 176.413 376.196 176.115 Z" fill="#faf7e5" fill-opacity="1" stroke="none"/>
 <path id="Путь-81" d="M385.468 259.967 C386.104 259.669 386.851 259.745 387.413 260.166 387.973 260.587 388.254 261.284 388.146 261.976 388.037 262.668 387.554 263.244 386.889 263.471 385.94 263.797 384.9 263.323 384.522 262.392 384.144 261.46 384.56 260.396 385.468 259.967 Z" fill="#faf7e5" fill-opacity="1" stroke="none"/>
 <path id="Путь-82" d="M354.806 151.583 C355.702 151.052 356.86 151.344 357.396 152.236 357.932 153.128 357.648 154.286 356.757 154.828 355.861 155.374 354.692 155.086 354.15 154.187 353.611 153.287 353.904 152.119 354.806 151.583 Z" fill="#faf7e5" fill-opacity="1" stroke="none"/>
 <path id="Путь-83" d="M228.927 109.134 C229.562 108.871 230.29 108.977 230.825 109.408 231.36 109.84 231.617 110.529 231.494 111.206 231.372 111.882 230.89 112.438 230.238 112.654 229.277 112.974 228.237 112.475 227.884 111.527 227.531 110.578 227.992 109.521 228.927 109.134 Z" fill="#faf7e5" fill-opacity="1" stroke="none"/>
 <path id="Путь-84" d="M482.933 151.856 C483.906 151.53 484.96 152.049 485.291 153.02 485.625 153.99 485.113 155.048 484.146 155.387 483.167 155.729 482.098 155.211 481.761 154.231 481.427 153.252 481.952 152.186 482.933 151.856 Z" fill="#faf7e5" fill-opacity="1" stroke="none"/>
 <path id="Путь-85" d="M346.037 263.505 C346.919 262.992 348.05 263.286 348.572 264.165 349.093 265.043 348.812 266.178 347.939 266.708 347.051 267.245 345.9 266.957 345.369 266.066 344.842 265.176 345.141 264.025 346.037 263.505 Z" fill="#faf7e5" fill-opacity="1" stroke="none"/>
 <path id="Путь-86" d="M83.524 249.395 C84.402 248.865 85.543 249.15 86.069 250.03 86.595 250.91 86.304 252.05 85.422 252.571 84.545 253.089 83.415 252.801 82.893 251.927 82.371 251.053 82.653 249.922 83.524 249.395 Z" fill="#faf7e5" fill-opacity="1" stroke="none"/>
 <path id="Путь-87" d="M416.054 264.085 C417.033 263.93 417.955 264.578 418.143 265.549 418.33 266.521 417.712 267.466 416.748 267.686 416.095 267.834 415.412 267.615 414.97 267.114 414.525 266.612 414.39 265.909 414.616 265.278 414.841 264.647 415.392 264.19 416.054 264.085 Z" fill="#faf7e5" fill-opacity="1" stroke="none"/>
 <path id="Путь-88" d="M567.293 95.916 C568.202 95.564 569.227 95.985 569.625 96.875 570.027 97.765 569.658 98.811 568.79 99.256 568.187 99.566 567.463 99.517 566.907 99.13 566.35 98.743 566.054 98.08 566.133 97.407 566.215 96.735 566.661 96.161 567.293 95.916 Z" fill="#faf7e5" fill-opacity="1" stroke="none"/>
 <path id="Путь-89" d="M360.229 250.871 C360.829 250.542 361.565 250.58 362.13 250.97 362.696 251.359 362.992 252.033 362.898 252.712 362.804 253.391 362.338 253.96 361.688 254.182 360.797 254.489 359.819 254.061 359.438 253.197 359.057 252.334 359.4 251.323 360.229 250.871 Z" fill="#faf7e5" fill-opacity="1" stroke="none"/>
 <path id="Путь-90" d="M573.417 186.41 C574.249 185.987 575.265 186.277 575.749 187.074 576.232 187.872 576.018 188.907 575.259 189.45 574.717 189.839 574 189.89 573.405 189.583 572.81 189.276 572.438 188.662 572.441 187.994 572.444 187.324 572.819 186.713 573.417 186.41 Z" fill="#faf7e5" fill-opacity="1" stroke="none"/>
 <path id="Путь-91" d="M152.135 11.818 C153.032 11.556 153.978 12.033 154.301 12.91 154.625 13.786 154.216 14.763 153.364 15.148 152.758 15.421 152.049 15.334 151.527 14.92 151.006 14.507 150.759 13.837 150.886 13.184 151.014 12.531 151.496 12.004 152.135 11.818 Z" fill="#faf7e5" fill-opacity="1" stroke="none"/>
 <path id="Путь-92" d="M489.97 207.838 C490.84 207.47 491.845 207.853 492.249 208.706 492.651 209.559 492.311 210.578 491.476 211.017 490.905 211.319 490.213 211.282 489.677 210.922 489.138 210.561 488.842 209.935 488.904 209.291 488.965 208.648 489.375 208.089 489.97 207.838 Z" fill="#faf7e5" fill-opacity="1" stroke="none"/>
 <path id="Путь-93" d="M469.826 91.549 C470.371 91.232 471.047 91.235 471.589 91.556 472.134 91.877 472.462 92.467 472.451 93.098 472.436 93.73 472.081 94.305 471.525 94.602 470.684 95.052 469.638 94.744 469.175 93.911 468.712 93.078 468.999 92.027 469.826 91.549 Z" fill="#faf7e5" fill-opacity="1" stroke="none"/>
 <path id="Путь-94" d="M553.527 211.966 C554.095 211.632 554.801 211.645 555.355 212.001 555.909 212.357 556.216 212.993 556.149 213.648 556.081 214.303 555.651 214.864 555.036 215.099 554.189 215.423 553.234 215.043 552.841 214.226 552.446 213.409 552.745 212.426 553.527 211.966 Z" fill="#faf7e5" fill-opacity="1" stroke="none"/>
 <path id="Путь-95" d="M249.337 43.508 C249.893 43.18 250.585 43.187 251.134 43.526 251.683 43.865 252 44.479 251.957 45.123 251.915 45.767 251.52 46.335 250.931 46.598 250.087 46.975 249.096 46.627 248.673 45.807 248.249 44.985 248.541 43.976 249.337 43.508 Z" fill="#faf7e5" fill-opacity="1" stroke="none"/>
 <path id="Путь-96" d="M585.882 126.634 C586.477 126.412 587.145 126.532 587.628 126.948 588.109 127.363 588.326 128.008 588.191 128.63 588.056 129.251 587.596 129.751 586.987 129.932 586.087 130.2 585.138 129.707 584.839 128.818 584.541 127.928 585.003 126.962 585.882 126.634 Z" fill="#faf7e5" fill-opacity="1" stroke="none"/>
 <path id="Путь-97" d="M145.069 115.79 C145.938 115.457 146.914 115.882 147.261 116.746 147.609 117.609 147.201 118.591 146.344 118.954 145.776 119.194 145.123 119.109 144.635 118.732 144.147 118.355 143.901 117.744 143.992 117.134 144.082 116.524 144.493 116.01 145.069 115.79 Z" fill="#faf7e5" fill-opacity="1" stroke="none"/>
 <path id="Путь-98" d="M532.899 214.909 C533.702 214.464 534.712 214.735 535.184 215.521 535.659 216.308 535.421 217.327 534.654 217.827 534.129 218.166 533.464 218.193 532.916 217.897 532.369 217.602 532.026 217.031 532.023 216.408 532.017 215.786 532.354 215.211 532.899 214.909 Z" fill="#faf7e5" fill-opacity="1" stroke="none"/>
 <path id="Путь-99" d="M173.971 161.852 C174.766 161.342 175.825 161.579 176.328 162.378 176.831 163.178 176.586 164.234 175.782 164.731 174.988 165.221 173.946 164.98 173.449 164.189 172.952 163.399 173.185 162.356 173.971 161.852 Z" fill="#faf7e5" fill-opacity="1" stroke="none"/>
 <path id="Путь-100" d="M155.547 72.229 C156.421 71.974 157.341 72.461 157.621 73.328 157.901 74.195 157.44 75.128 156.581 75.432 156.003 75.636 155.36 75.511 154.902 75.104 154.443 74.698 154.242 74.074 154.376 73.477 154.51 72.879 154.959 72.401 155.547 72.229 Z" fill="#faf7e5" fill-opacity="1" stroke="none"/>
 <path id="Путь-101" d="M365.643 46.618 C366.51 46.307 367.462 46.756 367.773 47.622 368.083 48.487 367.632 49.44 366.768 49.75 365.904 50.059 364.951 49.609 364.641 48.745 364.33 47.881 364.779 46.929 365.643 46.618 Z" fill="#faf7e5" fill-opacity="1" stroke="none"/>
 <path id="Путь-102" d="M542.795 156.559 C543.619 156.196 544.582 156.562 544.957 157.38 545.332 158.198 544.984 159.167 544.172 159.556 543.636 159.813 543 159.761 542.514 159.419 542.025 159.077 541.761 158.499 541.817 157.907 541.875 157.314 542.25 156.799 542.795 156.559 Z" fill="#faf7e5" fill-opacity="1" stroke="none"/>
 <path id="Путь-103" d="M515.836 154.783 C516.668 154.538 517.544 154.981 517.843 155.795 518.139 156.609 517.749 157.514 516.955 157.86 516.396 158.105 515.748 158.018 515.271 157.636 514.796 157.253 514.571 156.637 514.691 156.038 514.808 155.439 515.25 154.955 515.836 154.783 Z" fill="#faf7e5" fill-opacity="1" stroke="none"/>
 <path id="Путь-104" d="M463.562 197.271 C464.309 196.803 465.29 197.012 465.783 197.744 466.275 198.475 466.099 199.466 465.384 199.981 464.901 200.33 464.265 200.387 463.726 200.131 463.187 199.875 462.832 199.345 462.797 198.75 462.762 198.155 463.055 197.588 463.562 197.271 Z" fill="#faf7e5" fill-opacity="1" stroke="none"/>
 <path id="Путь-105" d="M51.447 78.898 C52.01 78.667 52.655 78.778 53.108 79.184 53.561 79.59 53.742 80.22 53.575 80.804 53.407 81.389 52.92 81.827 52.32 81.931 51.522 82.07 50.748 81.585 50.523 80.806 50.299 80.028 50.697 79.205 51.447 78.898 Z" fill="#faf7e5" fill-opacity="1" stroke="none"/>
 <path id="Путь-106" d="M73.34 51.4 C74.052 50.973 74.973 51.167 75.452 51.846 75.93 52.526 75.803 53.459 75.161 53.985 74.702 54.362 74.07 54.45 73.525 54.214 72.98 53.978 72.613 53.457 72.574 52.864 72.535 52.271 72.83 51.706 73.34 51.4 Z" fill="#faf7e5" fill-opacity="1" stroke="none"/>
 <path id="Путь-107" d="M327.721 174.996 C328.248 174.741 328.875 174.803 329.344 175.155 329.813 175.508 330.044 176.092 329.945 176.67 329.845 177.248 329.432 177.722 328.875 177.899 328.093 178.146 327.249 177.747 326.948 176.984 326.643 176.221 326.983 175.353 327.721 174.996 Z" fill="#faf7e5" fill-opacity="1" stroke="none"/>
 <path id="Путь-108" d="M330.519 227.151 C331.049 226.953 331.647 227.059 332.075 227.428 332.505 227.798 332.699 228.372 332.581 228.926 332.461 229.479 332.051 229.925 331.509 230.088 330.709 230.328 329.863 229.89 329.596 229.098 329.326 228.305 329.737 227.444 330.519 227.151 Z" fill="#faf7e5" fill-opacity="1" stroke="none"/>
 <path id="Путь-109" d="M500.163 190.27 C500.895 189.976 501.73 190.308 502.061 191.025 502.389 191.742 502.099 192.593 501.399 192.958 500.915 193.211 500.329 193.177 499.878 192.869 499.427 192.56 499.181 192.028 499.243 191.485 499.301 190.941 499.653 190.474 500.163 190.27 Z" fill="#faf7e5" fill-opacity="1" stroke="none"/>
 <path id="Путь-110" d="M277.556 200.249 C278.006 199.969 278.572 199.954 279.037 200.21 279.502 200.466 279.792 200.953 279.797 201.483 279.801 202.014 279.519 202.505 279.059 202.769 278.364 203.166 277.479 202.934 277.069 202.247 276.659 201.56 276.876 200.671 277.556 200.249 Z" fill="#faf7e5" fill-opacity="1" stroke="none"/>
 <path id="Путь-111" d="M508.723 14.769 C509.444 14.531 510.226 14.898 510.504 15.606 510.783 16.314 510.46 17.116 509.769 17.433 509.286 17.655 508.72 17.591 508.298 17.268 507.876 16.945 507.668 16.415 507.756 15.891 507.844 15.367 508.216 14.935 508.723 14.769 Z" fill="#faf7e5" fill-opacity="1" stroke="none"/>
 <path id="Путь-112" d="M329.403 257.384 C330.071 257.003 330.917 257.217 331.322 257.869 331.729 258.522 331.544 259.377 330.906 259.805 330.472 260.095 329.915 260.126 329.452 259.885 328.992 259.645 328.697 259.171 328.688 258.65 328.676 258.129 328.951 257.644 329.403 257.384 Z" fill="#faf7e5" fill-opacity="1" stroke="none"/>
 <path id="Путь-113" d="M538.175 177.687 C538.817 177.287 539.661 177.466 540.088 178.092 540.513 178.719 540.367 179.569 539.757 180.019 539.341 180.327 538.79 180.381 538.322 180.162 537.853 179.943 537.542 179.485 537.513 178.969 537.481 178.452 537.736 177.96 538.175 177.687 Z" fill="#faf7e5" fill-opacity="1" stroke="none"/>
 <path id="Путь-114" d="M170.168 88.333 C170.589 88.052 171.13 88.023 171.579 88.257 172.028 88.491 172.314 88.951 172.325 89.457 172.335 89.964 172.07 90.436 171.631 90.689 170.983 91.063 170.154 90.856 169.759 90.219 169.364 89.583 169.545 88.748 170.168 88.333 Z" fill="#faf7e5" fill-opacity="1" stroke="none"/>
 <path id="Путь-115" d="M60.152 134.015 C60.788 133.615 61.628 133.796 62.043 134.423 62.458 135.05 62.298 135.893 61.681 136.324 61.269 136.611 60.733 136.653 60.281 136.432 59.829 136.212 59.532 135.764 59.506 135.262 59.479 134.76 59.726 134.283 60.152 134.015 Z" fill="#faf7e5" fill-opacity="1" stroke="none"/>
 <path id="Путь-116" d="M230.697 70.734 C231.11 70.439 231.652 70.394 232.108 70.617 232.564 70.84 232.862 71.294 232.884 71.802 232.906 72.309 232.648 72.787 232.213 73.049 231.575 73.431 230.749 73.242 230.342 72.62 229.935 71.998 230.092 71.165 230.697 70.734 Z" fill="#faf7e5" fill-opacity="1" stroke="none"/>
 <path id="Путь-117" d="M262.513 261.473 C262.977 261.257 263.522 261.315 263.93 261.625 264.337 261.935 264.54 262.445 264.456 262.95 264.371 263.455 264.015 263.872 263.529 264.033 262.835 264.262 262.082 263.911 261.813 263.232 261.543 262.553 261.85 261.781 262.513 261.473 Z" fill="#faf7e5" fill-opacity="1" stroke="none"/>
 <path id="Путь-118" d="M562.773 44.629 C563.497 44.423 564.252 44.839 564.463 45.56 564.677 46.283 564.267 47.041 563.546 47.259 562.817 47.481 562.046 47.065 561.833 46.334 561.619 45.603 562.041 44.837 562.773 44.629 Z" fill="#faf7e5" fill-opacity="1" stroke="none"/>
 <path id="Путь-119" d="M30.22 188.345 C30.851 188.046 31.604 188.275 31.964 188.872 32.324 189.47 32.172 190.243 31.614 190.66 31.199 190.97 30.644 191.017 30.183 190.782 29.722 190.547 29.435 190.069 29.442 189.552 29.45 189.034 29.752 188.566 30.22 188.345 Z" fill="#faf7e5" fill-opacity="1" stroke="none"/>
 <path id="Путь-120" d="M97.489 208.847 C98.221 208.726 98.912 209.219 99.035 209.95 99.159 210.681 98.669 211.374 97.938 211.501 97.204 211.628 96.506 211.134 96.381 210.399 96.257 209.664 96.754 208.968 97.489 208.847 Z" fill="#faf7e5" fill-opacity="1" stroke="none"/>
 <path id="Путь-121" d="M574.172 260.014 C574.585 259.728 575.125 259.695 575.567 259.93 576.012 260.164 576.288 260.626 576.285 261.128 576.282 261.63 575.997 262.089 575.552 262.317 574.919 262.639 574.149 262.418 573.786 261.81 573.422 261.203 573.592 260.417 574.172 260.014 Z" fill="#faf7e5" fill-opacity="1" stroke="none"/>
 <path id="Путь-122" d="M505.436 251.781 C505.829 251.488 506.347 251.431 506.792 251.633 507.238 251.834 507.539 252.261 507.578 252.748 507.616 253.236 507.387 253.705 506.977 253.974 506.373 254.374 505.559 254.219 505.143 253.626 504.727 253.033 504.856 252.216 505.436 251.781 Z" fill="#faf7e5" fill-opacity="1" stroke="none"/>
 <path id="Путь-123" d="M17.725 284.334 C18.342 283.928 19.171 284.098 19.578 284.714 19.986 285.33 19.817 286.16 19.202 286.568 18.585 286.977 17.753 286.808 17.345 286.191 16.937 285.573 17.107 284.742 17.725 284.334 Z" fill="#faf7e5" fill-opacity="1" stroke="none"/>
 <path id="Путь-124" d="M352.574 196.415 C353.227 196.086 354.021 196.346 354.355 196.998 354.689 197.649 354.431 198.447 353.783 198.784 353.127 199.123 352.322 198.865 351.988 198.208 351.651 197.551 351.914 196.747 352.574 196.415 Z" fill="#faf7e5" fill-opacity="1" stroke="none"/>
 <path id="Путь-125" d="M243.26 87.447 C243.896 87.17 244.636 87.428 244.963 88.038 245.29 88.649 245.093 89.409 244.511 89.784 244.09 90.055 243.553 90.067 243.12 89.814 242.688 89.561 242.434 89.087 242.464 88.587 242.493 88.087 242.801 87.647 243.26 87.447 Z" fill="#faf7e5" fill-opacity="1" stroke="none"/>
 <path id="Путь-126" d="M538.331 250.651 C538.937 250.244 539.757 250.406 540.164 251.013 540.572 251.62 540.408 252.441 539.801 252.847 539.195 253.253 538.374 253.09 537.967 252.484 537.563 251.878 537.724 251.058 538.331 250.651 Z" fill="#faf7e5" fill-opacity="1" stroke="none"/>
 <path id="Путь-127" d="M495.44 222.516 C496.076 222.343 496.741 222.672 496.99 223.282 497.236 223.893 496.987 224.591 496.41 224.909 495.97 225.152 495.431 225.119 495.024 224.827 494.617 224.534 494.414 224.033 494.502 223.54 494.593 223.046 494.956 222.647 495.44 222.516 Z" fill="#faf7e5" fill-opacity="1" stroke="none"/>
 <path id="Путь-128" d="M341.229 121.931 C341.897 121.881 342.492 122.349 342.597 123.008 342.705 123.668 342.292 124.301 341.648 124.468 341.173 124.589 340.672 124.433 340.353 124.065 340.031 123.696 339.946 123.178 340.13 122.727 340.318 122.275 340.742 121.967 341.229 121.931 Z" fill="#faf7e5" fill-opacity="1" stroke="none"/>
 <path id="Путь-129" d="M397.709 126.904 C398.36 126.684 399.069 127.013 399.321 127.651 399.573 128.29 399.283 129.015 398.656 129.299 398.222 129.497 397.715 129.439 397.337 129.149 396.959 128.859 396.772 128.385 396.851 127.915 396.927 127.445 397.258 127.056 397.709 126.904 Z" fill="#faf7e5" fill-opacity="1" stroke="none"/>
 <path id="Путь-130" d="M423.252 175.889 C423.701 175.675 424.234 175.737 424.62 176.049 425.004 176.361 425.18 176.867 425.066 177.35 424.952 177.833 424.568 178.208 424.084 178.314 423.443 178.454 422.801 178.091 422.587 177.472 422.376 176.852 422.663 176.171 423.252 175.889 Z" fill="#faf7e5" fill-opacity="1" stroke="none"/>
 <path id="Путь-131" d="M299.344 93.603 C299.713 93.324 300.202 93.267 300.624 93.453 301.049 93.638 301.336 94.038 301.383 94.498 301.427 94.958 301.219 95.405 300.841 95.669 300.27 96.065 299.488 95.932 299.08 95.369 298.673 94.807 298.79 94.022 299.344 93.603 Z" fill="#faf7e5" fill-opacity="1" stroke="none"/>
 <path id="Путь-132" d="M196.11 286.385 C196.762 286.155 197.479 286.488 197.724 287.135 197.969 287.783 197.651 288.507 197.009 288.765 196.581 288.937 196.094 288.865 195.735 288.575 195.376 288.286 195.202 287.825 195.28 287.37 195.357 286.916 195.675 286.539 196.11 286.385 Z" fill="#faf7e5" fill-opacity="1" stroke="none"/>
 <path id="Путь-133" d="M207.602 89.195 C208.009 88.947 208.522 88.947 208.929 89.196 209.336 89.445 209.57 89.902 209.533 90.378 209.497 90.854 209.197 91.269 208.757 91.454 208.143 91.711 207.435 91.452 207.133 90.86 206.83 90.267 207.034 89.542 207.602 89.195 Z" fill="#faf7e5" fill-opacity="1" stroke="none"/>
 <path id="Путь-134" d="M486.967 283.152 C487.533 282.775 488.291 282.907 488.696 283.451 489.1 283.996 489.006 284.761 488.482 285.192 488.121 285.49 487.623 285.564 487.19 285.385 486.756 285.206 486.454 284.802 486.411 284.335 486.364 283.868 486.578 283.414 486.967 283.152 Z" fill="#faf7e5" fill-opacity="1" stroke="none"/>
 <path id="Путь-135" d="M85.796 11.872 C86.358 11.485 87.126 11.614 87.531 12.164 87.935 12.714 87.829 13.485 87.291 13.906 86.929 14.189 86.441 14.253 86.018 14.073 85.595 13.892 85.303 13.496 85.257 13.038 85.211 12.58 85.417 12.133 85.796 11.872 Z" fill="#faf7e5" fill-opacity="1" stroke="none"/>
 <path id="Путь-136" d="M337.825 93.026 C338.458 92.814 339.147 93.133 339.393 93.751 339.642 94.37 339.364 95.074 338.76 95.358 338.338 95.556 337.84 95.504 337.468 95.223 337.096 94.942 336.908 94.477 336.985 94.016 337.058 93.555 337.383 93.174 337.825 93.026 Z" fill="#faf7e5" fill-opacity="1" stroke="none"/>
 <path id="Путь-60-копия" d="M528.035 86.647 C529.002 86.273 530.095 86.46 530.883 87.133 531.671 87.806 532.026 88.857 531.806 89.869 531.589 90.882 530.833 91.694 529.837 91.984 528.39 92.406 526.864 91.61 526.38 90.18 525.897 88.749 526.626 87.191 528.035 86.647 Z" fill="#faf7e5" fill-opacity="1" stroke="none"/>
 <path id="Путь-131-копия" d="M500.344 66.603 C500.713 66.324 501.202 66.267 501.624 66.453 502.049 66.638 502.336 67.038 502.383 67.498 502.427 67.958 502.219 68.405 501.841 68.669 501.27 69.065 500.488 68.932 500.08 68.369 499.673 67.807 499.79 67.022 500.344 66.603 Z" fill="#faf7e5" fill-opacity="1" stroke="none"/>
 <path id="Путь-136-копия" d="M529.825 52.026 C530.458 51.814 531.147 52.133 531.393 52.751 531.642 53.37 531.364 54.074 530.76 54.358 530.338 54.556 529.84 54.504 529.468 54.223 529.096 53.942 528.908 53.477 528.985 53.016 529.058 52.555 529.383 52.174 529.825 52.026 Z" fill="#faf7e5" fill-opacity="1" stroke="none"/>
 <path id="Путь-137" d="M7.633 104.734 C8.048 104.496 8.562 104.516 8.957 104.784 9.353 105.052 9.561 105.522 9.493 105.996 9.425 106.469 9.094 106.862 8.639 107.008 8.03 107.205 7.371 106.909 7.112 106.324 6.853 105.739 7.078 105.053 7.633 104.734 Z" fill="#faf7e5" fill-opacity="1" stroke="none"/>
 <path id="Путь-138" d="M17.076 242.138 C17.616 241.721 18.391 241.816 18.814 242.351 19.237 242.886 19.151 243.661 18.62 244.09 18.272 244.372 17.799 244.445 17.382 244.281 16.966 244.117 16.669 243.742 16.606 243.299 16.542 242.855 16.722 242.412 17.076 242.138 Z" fill="#faf7e5" fill-opacity="1" stroke="none"/>
 <path id="Путь-139" d="M548.646 239.785 C549.217 239.406 549.985 239.558 550.366 240.126 550.749 240.694 550.6 241.463 550.032 241.847 549.463 242.233 548.687 242.083 548.306 241.512 547.922 240.941 548.075 240.167 548.646 239.785 Z" fill="#faf7e5" fill-opacity="1" stroke="none"/>
 <path id="Путь-140" d="M426.135 75.72 C426.504 75.426 427.014 75.369 427.442 75.575 427.87 75.781 428.139 76.213 428.142 76.687 428.142 77.162 427.872 77.595 427.445 77.803 426.879 78.08 426.194 77.885 425.857 77.35 425.52 76.816 425.64 76.113 426.135 75.72 Z" fill="#faf7e5" fill-opacity="1" stroke="none"/>
 <path id="Путь-141" d="M394.263 71.024 C394.626 70.733 395.118 70.668 395.543 70.856 395.968 71.045 396.249 71.455 396.276 71.918 396.302 72.382 396.065 72.82 395.666 73.054 395.107 73.381 394.392 73.221 394.023 72.689 393.657 72.156 393.762 71.431 394.263 71.024 Z" fill="#faf7e5" fill-opacity="1" stroke="none"/>
 <path id="Путь-142" d="M321.402 247.093 C322.052 246.888 322.746 247.253 322.946 247.906 323.145 248.559 322.773 249.249 322.116 249.442 321.472 249.632 320.792 249.266 320.596 248.622 320.4 247.978 320.757 247.296 321.402 247.093 Z" fill="#faf7e5" fill-opacity="1" stroke="none"/>
 <path id="Путь-143" d="M44.4 252.011 C44.922 251.599 45.678 251.68 46.1 252.194 46.522 252.708 46.456 253.466 45.951 253.898 45.615 254.186 45.149 254.269 44.735 254.116 44.319 253.964 44.019 253.599 43.95 253.162 43.88 252.725 44.052 252.285 44.4 252.011 Z" fill="#faf7e5" fill-opacity="1" stroke="none"/>
 <path id="Путь-144" d="M578.154 168.955 C578.772 168.736 579.449 169.044 579.689 169.652 579.929 170.26 579.645 170.949 579.047 171.211 578.64 171.388 578.168 171.329 577.817 171.058 577.468 170.786 577.292 170.345 577.363 169.907 577.433 169.469 577.738 169.104 578.154 168.955 Z" fill="#faf7e5" fill-opacity="1" stroke="none"/>
 <path id="Путь-145" d="M586.591 143.988 C587.233 143.815 587.895 144.192 588.074 144.833 588.252 145.473 587.88 146.138 587.242 146.322 586.594 146.508 585.92 146.131 585.739 145.483 585.56 144.835 585.941 144.164 586.591 143.988 Z" fill="#faf7e5" fill-opacity="1" stroke="none"/>
 <path id="Путь-146" d="M146.291 145.243 C146.722 145.092 147.201 145.198 147.528 145.516 147.856 145.833 147.976 146.309 147.838 146.743 147.701 147.178 147.329 147.499 146.879 147.57 146.263 147.669 145.673 147.28 145.521 146.675 145.368 146.07 145.702 145.449 146.291 145.243 Z" fill="#faf7e5" fill-opacity="1" stroke="none"/>
 <path id="Путь-147" d="M101.165 139.008 C101.732 138.707 102.435 138.907 102.76 139.46 103.084 140.013 102.915 140.724 102.377 141.072 102.007 141.311 101.536 141.328 101.15 141.116 100.764 140.904 100.526 140.497 100.529 140.057 100.532 139.617 100.777 139.214 101.165 139.008 Z" fill="#faf7e5" fill-opacity="1" stroke="none"/>
 <path id="Путь-148" d="M246.09 284.609 C246.578 284.202 247.302 284.269 247.709 284.757 248.115 285.245 248.049 285.97 247.561 286.376 247.073 286.783 246.348 286.716 245.941 286.228 245.535 285.74 245.601 285.015 246.09 284.609 Z" fill="#faf7e5" fill-opacity="1" stroke="none"/>
 <path id="Путь-149" d="M187.269 32.478 L187.278 31.823 C187.835 32.331 187.757 34.738 187.753 35.593 L187.813 37.555 187.208 35.866 Z" fill="#9b9c9d" fill-opacity="1" stroke="none"/>
 <path id="Путь-150" d="M187.269 32.478 L187.278 31.823 C187.835 32.331 187.757 34.738 187.753 35.593 Z" fill="#545561" fill-opacity="1" stroke="none"/>
 <path id="Путь-151" d="M187.786 67.022 C187.794 68.275 187.907 71.341 187.27 72.345 187.039 71.601 187.084 69.889 187.209 69.128 Z" fill="#9b9c9d" fill-opacity="1" stroke="none"/>
 <path id="Путь-152" d="M452.628 254.776 L453.238 256.54 C453.238 257.381 453.326 259.945 453.091 260.589 452.666 258.695 452.687 256.721 452.628 254.776 Z" fill="#9b9c9d" fill-opacity="1" stroke="none"/>
 <path id="Путь-153" d="M452.652 227.458 C452.611 225.722 452.699 223.499 453.085 221.823 453.349 222.608 453.235 224.524 453.223 225.446 Z" fill="#9b9c9d" fill-opacity="1" stroke="none"/>
 <path id="Путь-154" d="M437.406 241.41 C436.492 241.489 435.077 241.578 434.294 241.117 435.059 240.679 436.093 240.81 437.028 240.815 Z" fill="#777880" fill-opacity="1" stroke="none"/>
 <path id="Путь-155" d="M202.409 52.132 C204.491 52.189 206.447 52.343 208.523 52.508 207.065 52.693 206.13 52.85 204.644 52.74 Z" fill="#9b9c9d" fill-opacity="1" stroke="none"/>
 <path id="Путь-156" d="M292.262 232.365 C293.01 232.332 293.52 232.24 294.211 232.516 292.835 233.006 291.685 232.912 290.238 232.905 Z" fill="#777880" fill-opacity="1" stroke="none"/>
 <path id="Путь-157" d="M168.732 52.736 C167.953 52.78 167.615 52.848 166.876 52.536 168.139 52.065 169.324 52.143 170.666 52.134 Z" fill="#777880" fill-opacity="1" stroke="none"/>
 <path id="Путь-158" d="M31.04 36.831 L31.621 34.728 C31.605 36.662 31.61 37.433 31.219 39.343 31.049 38.27 30.986 37.915 31.04 36.831 Z" fill="#9b9c9d" fill-opacity="1" stroke="none"/>
 <path id="Путь-159" d="M274.809 232.93 C273.571 232.912 272.415 232.972 271.251 232.54 272.066 232.243 272.707 232.323 273.577 232.337 Z" fill="#9b9c9d" fill-opacity="1" stroke="none"/>
 <path id="Путь-160" d="M246.379 19.462 C247.641 19.374 248.903 19.293 250.166 19.221 250.058 19.459 249.952 19.593 249.956 19.816 249.345 19.894 247.112 19.555 246.379 19.462 Z" fill="#9b9c9d" fill-opacity="1" stroke="none"/>
 <path id="Путь-161" d="M333.533 62.365 C334.872 62.408 335.898 62.366 337.163 62.852 L336.097 62.929 336.232 62.989 334.978 62.925 Z" fill="#777880" fill-opacity="1" stroke="none"/>
 <path id="Путь-162" d="M571.269 34.049 L571.925 35.392 571.755 38.803 C571.562 37.222 571.398 35.637 571.269 34.049 Z" fill="#9b9c9d" fill-opacity="1" stroke="none"/>
</svg>
