<?xml version="1.0" encoding="utf-8" ?><svg xmlns="http://www.w3.org/2000/svg" xmlns:xlink="http://www.w3.org/1999/xlink" width="1024" height="300" viewBox="0 0 1024 300"><path fill="#E1EFD6" transform="scale(1 0.714286)" d="M0 0L1024 0L1024 249.187C1003.27 248.223 979.44 257.483 968.779 276.166C957.989 272.576 938.569 272.749 928.795 278.832C916.198 268.4 902.823 247.817 893.253 234.355C887.829 226.726 883.061 220.384 877.294 212.929C872.3 216.139 870.853 217.133 864.97 216.91C863.657 214.977 856.994 204.812 855.577 204.186L854.113 205.698L853.413 205.697C847.815 200.322 840.9 191.083 835.264 184.899C830.096 192.259 820.156 203.23 814.156 210.306C814.056 211.361 813.971 212.26 813.9 213.003C811.558 212.362 809.833 214.245 808.875 216.334C803.658 218.683 801.571 219.871 797.034 223.324C795.304 221.988 793.333 220.378 791.503 219.235C776.332 238.093 761.015 256.834 745.553 275.454C739.666 282.653 734.055 290.597 727.824 297.329C723.037 302.5 707.765 301.307 702.611 305.865C684.744 321.661 668.582 339.61 650.757 355.54C643.353 353.565 632.584 349.329 625.275 346.596C617.065 343.526 606.37 339.668 598.542 335.949C593.801 339.285 589.427 342.211 584.328 345.01C571.957 339.624 558.925 333.581 546.622 328.397C545.705 328.785 540.839 330.782 540.338 331.175C535.949 329.213 531.994 326.632 527.509 324.957C525.478 324.198 525.045 324.736 523.254 325.585C519.022 328.39 502.927 338.485 498.783 339.208C497.708 338.948 496.689 338.729 495.648 338.347C492.87 336.905 483.945 334.513 480.677 333.608C474.825 332.028 468.961 330.495 463.085 329.007C451.68 334.239 433.875 341.692 422.028 345.612C410.437 341.325 399.693 337.127 388.794 331.225C388.062 330.829 377.693 329.214 375.954 328.884C366.876 327.189 358.038 324.398 349.633 320.572C337.888 315.09 330.653 306.55 320.034 300.759C315.888 298.498 301.728 300.772 296.117 299.454C289.63 297.93 284.77 294.904 278.658 292.339C273.951 290.507 268.375 289.227 263.811 287.285C248.372 280.718 233.938 266.59 218.485 261.237C210.588 258.502 197.061 261.305 187.736 260.976C185.601 259.749 182.425 256.769 180.822 256.288C180.154 256.565 177.871 257.471 177.269 257.076C172.433 253.9 167.807 250.182 163.037 246.869L159.173 249.816C158.664 250.199 158.072 250.534 157.835 251.091C148.417 257.623 140.257 265.577 130.78 271.802C127.696 273.828 127.596 268.6 122.602 274.71C116.735 276.713 113.764 276.009 107.729 274.916C102.127 278.776 90.9843 287.557 85.9806 292.238C82.7698 282.786 76.253 276.424 66.4754 274.005C64.037 273.402 59.1562 273.528 57.0318 274.882L56.4837 274.956C53.6666 272.478 48.3117 263.772 44.1662 262.661C42.5234 262.227 39.1478 259.544 37.8453 258.411C37.0243 257.264 35.8366 256.761 34.6138 256.071C23.8061 249.966 12.0893 249.048 0 249.024L0 0Z"/><path fill="#050301" transform="scale(1 0.714286)" d="M903.69 287.786C886.292 273.243 889.057 271.052 880.866 251.147C878.199 244.666 860.916 213.92 856.757 209.948C856.11 210.686 855.866 210.903 855.09 211.506C852.402 210.789 838.21 190.583 834.77 187.835L833.868 189.058C807.63 228.798 777.803 266.048 744.762 300.34C745.498 296.499 785.178 253.002 789.379 246.618C790.962 244.211 794.739 239.511 796.424 236.77C801.084 230.682 811.707 219.847 813.9 213.003C813.971 212.26 814.056 211.361 814.156 210.306C820.156 203.23 830.096 192.259 835.264 184.899C840.9 191.083 847.815 200.322 853.413 205.697L854.113 205.698L855.577 204.186C856.994 204.812 863.657 214.977 864.97 216.91C870.853 217.133 872.3 216.139 877.294 212.929C883.061 220.384 887.829 226.726 893.253 234.355C902.823 247.817 916.198 268.4 928.795 278.832L928.916 279.298L926.708 279.906C922.799 276.326 918.346 273.368 914.718 269.227C908.437 262.059 903.064 253.577 897.581 245.752C890.574 235.752 882.886 225.329 876.969 214.674C873.107 217.7 870.868 218.593 866.274 220.326C869.014 225.598 880.531 243.411 884.549 247.526L885.957 248.159C885.692 248.877 884.729 250.192 884.659 250.739C884.309 253.49 887.379 262.878 889.244 264.418L890.528 264.056C890.443 264.997 890.39 265.08 890.024 265.961L890.593 266.497C891.972 265.536 892.781 264.859 894.043 263.743L894.429 264.03C893.878 265.161 893.718 265.365 892.893 266.319L892.956 267.017L893.738 267.169C895.192 265.908 895.913 264.275 896.791 263.975C899.223 272.978 899.992 273.94 902.977 282.149L902.822 282.476C901.038 280.234 898.613 276.434 896.006 276.052L895.844 276.729C898.437 280.43 901.052 284.116 903.69 287.786Z"/><path fill="#89654F" transform="scale(1 0.714286)" d="M833.868 189.058L834.77 187.835C838.21 190.583 852.402 210.789 855.09 211.506C855.866 210.903 856.11 210.686 856.757 209.948C860.916 213.92 878.199 244.666 880.866 251.147C889.057 271.052 886.292 273.243 903.69 287.786C901.052 284.116 898.437 280.43 895.844 276.729L896.006 276.052C898.613 276.434 901.038 280.234 902.822 282.476L902.977 282.149C899.992 273.94 899.223 272.978 896.791 263.975C896.06 257.837 888.133 238.144 885.473 231.583L884.718 231.997L884.157 231.747L883.207 228.248C882.962 229.158 882.905 229.28 882.373 230.058C880.866 229.093 881.433 228.094 881.703 226.634L880.883 226.619C879.831 229.516 884.828 242.296 884.549 247.526C880.531 243.411 869.014 225.598 866.274 220.326C870.868 218.593 873.107 217.7 876.969 214.674C882.886 225.329 890.574 235.752 897.581 245.752C903.064 253.577 908.437 262.059 914.718 269.227C918.346 273.368 922.799 276.326 926.708 279.906C921.877 283.431 918.877 287.409 917.942 293.448C917.818 294.281 917.729 295.118 917.675 295.959C913.5 293.334 911.035 291.835 905.991 291.421C893.284 290.379 879.804 296.414 872.926 307.294C871.31 309.845 870.078 312.62 869.268 315.53C867.301 316.015 864.321 314.813 862.083 314.212C855.333 312.749 839.246 314.006 832.862 316.471C833.237 308.952 836.93 303.261 839.477 296.282C841.924 289.578 840.585 283.735 841.494 276.917C842.161 271.911 846.316 265.427 844.89 260.183C843.46 254.924 839.608 251.622 837.172 246.551C837.326 243.939 838.003 237.16 836.844 234.951L836.224 235.06C836.585 232.231 836.767 228.428 834.429 226.355C830.205 218.579 835.143 191.424 833.868 189.058ZM857.237 219.44L855.199 217.666C853.98 217.777 853.038 217.901 851.803 217.768L850.613 216.136C849.222 217.746 854.462 229.618 848.476 234.77L846.834 235.844L846.715 236.703C847.903 237.922 852.596 242.09 853.012 242.773C857.028 249.369 858.248 254.76 863.465 260.819C863.046 258.93 861.357 253.298 863.072 252.054C865.435 253.432 868.738 261.738 870.784 265.035C870.557 262.064 869.951 259.55 870.183 256.519C871.652 255.075 872.863 255.161 875.068 254.459C874.853 253.064 871.105 246.579 870.263 244.798C866.016 235.821 862.944 227.624 857.237 219.44ZM839.968 210.77C839.603 214.206 839.882 216.179 841.858 219.133L842.451 219.168C842.962 216.231 842.808 212.564 839.968 210.77ZM839.646 217.377C839.567 219.907 839.445 222.486 839.517 225.012C841.298 226.225 843.44 227.855 845.653 227.873C845.533 226.605 840.42 218.12 839.646 217.377ZM854.107 254.394C854.946 266.974 858.358 279.209 865.402 289.766C868.741 285.411 869.267 283.164 867.864 277.67C866.873 273.945 866.113 272.288 864.414 268.799C864.959 272.697 865.578 276.707 865.903 280.619C860.842 273.519 857.866 265.684 855.377 257.388C855.071 256.367 854.934 255.052 854.107 254.394Z"/><path fill="#DF854D" transform="scale(1 0.714286)" d="M833.868 189.058C835.143 191.424 830.205 218.579 834.429 226.355C835.216 233.978 830.867 235.054 832.083 239.374L832.761 239.847C834.637 239.381 834.113 239.753 835.477 238.48C835.911 237.051 836.058 236.548 836.224 235.06L836.844 234.951C838.003 237.16 837.326 243.939 837.172 246.551C839.608 251.622 843.46 254.924 844.89 260.183C846.316 265.427 842.161 271.911 841.494 276.917C840.585 283.735 841.924 289.578 839.477 296.282C836.93 303.261 833.237 308.952 832.862 316.471C825.701 318.26 818.368 322.837 811.886 321.155L812.6 320.915C813.709 320.79 813.334 320.868 814.315 319.967C815.618 316.616 810.945 313.422 808.699 311.731C809.64 308.356 817.041 293.564 813.777 292.308C811.456 294.569 810.035 295.623 807.395 297.534L806.279 297.613L806.355 297.503L806.095 296.457L806.89 297.524L806.319 296.101L805.966 296.214L805.822 297.009L805.886 296.678L805.399 297.38L805.264 297.294C804.996 298.12 804.834 298.916 804.269 299.547C803.209 290.108 813.457 281.768 813.985 272.153C814.131 269.493 813.143 266.392 811.363 264.383L810.638 264.634C809.576 267.451 808.897 267.106 808.17 269.858C807.417 271.229 806.431 272.658 806.517 274.184C804.013 281.37 804.148 289.092 800.381 295.84C799.793 296.895 797.431 299.637 797.685 300.167L800.881 297.368C800.885 299.169 785.972 317.386 787.978 323.79C783.851 324.96 779.548 326.253 775.404 327.298C777.613 324.438 784.736 312.763 786.771 309.298C784.116 307.807 783.487 309.504 781.562 308.123C786.681 296.849 796.406 287.184 800.831 275.062C804.726 264.389 811.996 253.905 815.683 243.142C816.598 240.912 817.256 239.47 816.344 237.26C815.114 237.001 814.339 237.019 813.245 237.858C804.37 244.663 799.391 256.23 793.589 265.538C788.368 273.914 783.12 281.834 777.628 289.945C775.937 292.354 774.077 294.905 772.499 297.367C775.208 295.295 778.902 293.45 780.734 291.924C781.617 291.003 783.405 288.801 784.401 288.62C783.762 289.948 783.112 290.726 782.227 291.891C783.455 291.545 789.177 285.119 790.46 283.738C786.28 290.908 783.022 296.622 778.191 303.386C776.352 305.96 767.229 317.963 766.364 319.669C763.167 323.764 760.585 326.969 757.882 331.424C759.937 329.574 762.095 327.792 763.754 325.59L763.736 327.777L764.41 327.695C765.374 326.434 767.14 323.791 768.414 323.179C768.1 324.237 767.755 325.314 767.523 326.39C768.932 325.555 770.204 323.965 771.322 322.72L771.732 322.849L770.854 325.038L771.209 325.459L772.794 323.517C772.911 324.263 773.157 326.146 773.383 326.766L772.573 328.922C767.122 331.521 758 335.712 761.835 343.447C762.197 344.172 762.583 344.885 762.993 345.585C754.922 347.102 748.755 348.35 742.052 353.613C725.779 340.748 682.91 344.831 673.974 366.705C669.151 366.41 662.258 366.09 657.421 366.598C655.362 368.446 644.418 365.831 640.833 365.628C655.733 353.384 664.945 344.658 678.828 331.399L680.597 332.089C676.909 337.657 673.145 343.174 669.306 348.638C667.943 350.609 664.479 355.362 663.536 357.321L664.824 356.64C664.583 357.969 663.34 360.091 662.672 361.366C667.555 358.215 683.287 340.171 687.007 334.761L675.63 342.364C682.083 333.498 695.67 310.983 704.938 305.8C706.827 304.743 719.937 302.955 724.218 301.784C718.965 308.394 713.785 314.812 708.917 321.729L708.944 322.127L708.517 322.446L708.966 322.301L709.071 321.803L709.559 321.768L709.366 321.417L709.805 321.531C716.31 315.089 723.381 305.887 729.908 298.812C727.134 303.757 724.696 308.25 722.181 313.326L722.545 314.038L721.786 314.649L722.384 314.235L721.918 313.98L722.62 313.969C728.999 306.129 732.638 296.597 738.475 288.738C745.524 279.246 753.383 270.033 760.795 260.826L788.769 225.444L790.337 226.243C790.892 229.027 787.885 232.825 786.312 235.475C785.334 236.391 782.613 239.963 781.792 241.177C776.894 248.417 764.483 258.928 762.62 267.076C761.111 269.214 759.863 271.137 758.479 273.358C771.127 260.438 783.268 244.869 796.366 231.186C798.292 229.841 800.233 225.761 801.123 223.57C803.089 221.598 807.884 218.276 808.875 216.334C809.833 214.245 811.558 212.362 813.9 213.003C811.707 219.847 801.084 230.682 796.424 236.77C794.739 239.511 790.962 244.211 789.379 246.618C785.178 253.002 745.498 296.499 744.762 300.34C777.803 266.048 807.63 228.798 833.868 189.058Z"/><path fill="#050301" transform="scale(1 0.714286)" d="M842.451 219.168L841.858 219.133C839.882 216.179 839.603 214.206 839.968 210.77C842.808 212.564 842.962 216.231 842.451 219.168Z"/><path fill="#470806" transform="scale(1 0.714286)" d="M857.237 219.44C857.105 220.029 856.877 220.883 856.866 221.451C856.08 221.468 854.64 221.367 854.088 221.793L855.311 222.666C855.456 223.853 850.263 234.398 849.114 235.282L848.476 234.77C854.462 229.618 849.222 217.746 850.613 216.136L851.803 217.768C853.038 217.901 853.98 217.777 855.199 217.666L857.237 219.44Z"/><path fill="#050301" transform="scale(1 0.714286)" d="M797.034 223.324C801.571 219.871 803.658 218.683 808.875 216.334C807.884 218.276 803.089 221.598 801.123 223.57C798.873 224.598 797.727 225.095 795.308 225.812C794.177 224.324 792.827 222.439 791.582 221.093L788.769 225.444L760.795 260.826C753.383 270.033 745.524 279.246 738.475 288.738C732.638 296.597 728.999 306.129 722.62 313.969L721.918 313.98L722.384 314.235L721.786 314.649L722.545 314.038L722.181 313.326C724.696 308.25 727.134 303.757 729.908 298.812C723.381 305.887 716.31 315.089 709.805 321.531L709.366 321.417L709.559 321.768L709.071 321.803L708.966 322.301L708.517 322.446L708.944 322.127L708.917 321.729C713.785 314.812 718.965 308.394 724.218 301.784C719.937 302.955 706.827 304.743 704.938 305.8C695.67 310.983 682.083 333.498 675.63 342.364L687.007 334.761C683.287 340.171 667.555 358.215 662.672 361.366C663.34 360.091 664.583 357.969 664.824 356.64L663.536 357.321C664.479 355.362 667.943 350.609 669.306 348.638C673.145 343.174 676.909 337.657 680.597 332.089C681.563 330.778 684.252 327.533 684.42 326.242L685.055 325.844L684.51 326.515L684.043 326.435L678.828 331.399C664.945 344.658 655.733 353.384 640.833 365.628L639.427 365.496L639.452 364.646C642.074 363.755 645.776 360.362 648.01 358.459C634.364 353.526 611.548 344.517 599.286 337.524C595.578 340.409 590.365 343.386 586.276 345.877C592.357 348.108 598.861 350.238 605.027 352.256C606.616 352.884 607.416 353.578 608.943 352.807C610.883 351.827 611.309 351.122 613.71 352.021C620.603 354.601 622.538 358.652 630.421 359.199L630.028 359.903C627.887 359.985 611.82 355.599 607.592 354.866C606.647 354.371 603.586 354.41 602.342 354.363C600.601 353.384 595.929 351.739 593.924 350.986C577.719 344.899 562.39 337.172 546.916 329.486C546.336 329.198 543.719 330.557 543.06 330.874L540.971 331.408L540.338 331.175C540.839 330.782 545.705 328.785 546.622 328.397C558.925 333.581 571.957 339.624 584.328 345.01C589.427 342.211 593.801 339.285 598.542 335.949C606.37 339.668 617.065 343.526 625.275 346.596C632.584 349.329 643.353 353.565 650.757 355.54C668.582 339.61 684.744 321.661 702.611 305.865C707.765 301.307 723.037 302.5 727.824 297.329C734.055 290.597 739.666 282.653 745.553 275.454C761.015 256.834 776.332 238.093 791.503 219.235C793.333 220.378 795.304 221.988 797.034 223.324Z"/><path fill="#050301" transform="scale(1 0.714286)" d="M839.517 225.012C839.445 222.486 839.567 219.907 839.646 217.377C840.42 218.12 845.533 226.605 845.653 227.873C843.44 227.855 841.298 226.225 839.517 225.012Z"/><path fill="#050301" transform="scale(1 0.714286)" d="M856.866 221.451C856.877 220.883 857.105 220.029 857.237 219.44C862.944 227.624 866.016 235.821 870.263 244.798C871.105 246.579 874.853 253.064 875.068 254.459C872.863 255.161 871.652 255.075 870.183 256.519C869.951 259.55 870.557 262.064 870.784 265.035C868.738 261.738 865.435 253.432 863.072 252.054C861.357 253.298 863.046 258.93 863.465 260.819C858.248 254.76 857.028 249.369 853.012 242.773C852.596 242.09 847.903 237.922 846.715 236.703L846.834 235.844L848.476 234.77L849.114 235.282C851.283 237.785 853.788 237.854 856.475 241.391C857.596 243.644 859.818 250.662 861.033 251.747C862.092 250.407 859.905 249.839 860.264 247.496L861.697 248.039C862.013 247.423 862.334 246.896 862.692 246.303C862.993 247.566 862.755 247.336 863.536 248.177L864.219 247.259C865.544 248.19 863.895 247.343 864.455 249.434C865.179 249.154 865.795 248.939 866.536 248.706C866.191 250.565 866.089 251.349 867.039 252.782L867.875 252.904L868.034 251.58C869.106 251.235 868.646 251.246 869.787 251.606L869.727 251.37L869.283 252.787L869.239 252.727L869.856 251.845L869.519 251.731C869.742 251.251 869.831 251.276 870.284 250.904L871.36 252.684L871.971 252.826C872.766 250.324 860.762 227.277 859.034 223.682C858.804 223.204 857.628 222.424 857.089 222.126L856.866 221.451Z"/><path fill="#963F34" transform="scale(1 0.714286)" d="M849.114 235.282C850.263 234.398 855.456 223.853 855.311 222.666L854.088 221.793C854.64 221.367 856.08 221.468 856.866 221.451L857.089 222.126C856.832 225.281 853.381 228.056 853.104 231.535C852.844 234.798 857.184 238.634 856.475 241.391C853.788 237.854 851.283 237.785 849.114 235.282Z"/><path fill="#89654F" transform="scale(1 0.714286)" d="M795.308 225.812C797.727 225.095 798.873 224.598 801.123 223.57C800.233 225.761 798.292 229.841 796.366 231.186C792.864 231.908 784.888 242.386 781.755 245.486C782.994 239.666 785.152 240.225 786.312 235.475C787.885 232.825 790.892 229.027 790.337 226.243L788.769 225.444L791.582 221.093C792.827 222.439 794.177 224.324 795.308 225.812Z"/><path fill="#470806" transform="scale(1 0.714286)" d="M857.089 222.126C857.628 222.424 858.804 223.204 859.034 223.682C860.762 227.277 872.766 250.324 871.971 252.826L871.36 252.684L870.284 250.904C869.831 251.276 869.742 251.251 869.519 251.731L869.856 251.845L869.239 252.727L869.283 252.787L869.727 251.37L869.787 251.606C868.646 251.246 869.106 251.235 868.034 251.58L867.875 252.904L867.039 252.782C866.089 251.349 866.191 250.565 866.536 248.706C865.795 248.939 865.179 249.154 864.455 249.434C863.895 247.343 865.544 248.19 864.219 247.259L863.536 248.177C862.755 247.336 862.993 247.566 862.692 246.303C862.334 246.896 862.013 247.423 861.697 248.039L860.264 247.496C859.905 249.839 862.092 250.407 861.033 251.747C859.818 250.662 857.596 243.644 856.475 241.391C857.184 238.634 852.844 234.798 853.104 231.535C853.381 228.056 856.832 225.281 857.089 222.126Z"/><path fill="#050301" transform="scale(1 0.714286)" d="M834.429 226.355C836.767 228.428 836.585 232.231 836.224 235.06C836.058 236.548 835.911 237.051 835.477 238.48C834.113 239.753 834.637 239.381 832.761 239.847L832.083 239.374C830.867 235.054 835.216 233.978 834.429 226.355Z"/><path fill="#5C0201" transform="scale(1 0.714286)" d="M884.549 247.526C884.828 242.296 879.831 229.516 880.883 226.619L881.703 226.634C881.433 228.094 880.866 229.093 882.373 230.058C882.905 229.28 882.962 229.158 883.207 228.248L884.157 231.747L884.718 231.997L885.473 231.583C888.133 238.144 896.06 257.837 896.791 263.975C895.913 264.275 895.192 265.908 893.738 267.169L892.956 267.017L892.893 266.319C893.718 265.365 893.878 265.161 894.429 264.03L894.043 263.743C892.781 264.859 891.972 265.536 890.593 266.497L890.024 265.961C890.39 265.08 890.443 264.997 890.528 264.056L889.244 264.418C887.379 262.878 884.309 253.49 884.659 250.739C884.729 250.192 885.692 248.877 885.957 248.159L884.549 247.526Z"/><path fill="#251410" transform="scale(1 0.714286)" d="M781.755 245.486C784.888 242.386 792.864 231.908 796.366 231.186C783.268 244.869 771.127 260.438 758.479 273.358C759.863 271.137 761.111 269.214 762.62 267.076C765.635 264.887 778.135 249.493 781.755 245.486Z"/><path fill="#AC6442" transform="scale(1 0.714286)" d="M762.62 267.076C764.483 258.928 776.894 248.417 781.792 241.177C782.613 239.963 785.334 236.391 786.312 235.475C785.152 240.225 782.994 239.666 781.755 245.486C778.135 249.493 765.635 264.887 762.62 267.076Z"/><path fill="#740603" transform="scale(1 0.714286)" d="M815.683 243.142C814.571 243.985 809.446 253.264 807.383 256C805.126 261.404 801.349 267.68 798.682 273.049C795.434 280.399 792.574 286.526 788.809 293.601C786.66 297.638 781.599 305.208 780.411 308.834C778.619 314.077 775.31 319.074 774.88 324.715C774.846 325.16 773.71 326.406 773.383 326.766C773.157 326.146 772.911 324.263 772.794 323.517L771.209 325.459L770.854 325.038L771.732 322.849L771.322 322.72C770.204 323.965 768.932 325.555 767.523 326.39C767.755 325.314 768.1 324.237 768.414 323.179C767.14 323.791 765.374 326.434 764.41 327.695L763.736 327.777L763.754 325.59C764.332 323.405 765.909 322.398 766.364 319.669C767.229 317.963 776.352 305.96 778.191 303.386C783.022 296.622 786.28 290.908 790.46 283.738C789.177 285.119 783.455 291.545 782.227 291.891C783.112 290.726 783.762 289.948 784.401 288.62C783.405 288.801 781.617 291.003 780.734 291.924C779.201 288.646 780.944 290.058 780.826 287.844L777.628 289.945C783.12 281.834 788.368 273.914 793.589 265.538C799.391 256.23 804.37 244.663 813.245 237.858C814.339 237.019 815.114 237.001 816.344 237.26C817.256 239.47 816.598 240.912 815.683 243.142Z"/><path fill="#050301" transform="scale(1 0.714286)" d="M807.383 256C809.446 253.264 814.571 243.985 815.683 243.142C811.996 253.905 804.726 264.389 800.831 275.062C796.406 287.184 786.681 296.849 781.562 308.123L781.05 308.776L780.411 308.834C781.599 305.208 786.66 297.638 788.809 293.601C792.574 286.526 795.434 280.399 798.682 273.049C801.349 267.68 805.126 261.404 807.383 256Z"/><path fill="#050301" transform="scale(1 0.714286)" d="M159.173 249.816L163.037 246.869C167.807 250.182 172.433 253.9 177.269 257.076C177.871 257.471 180.154 256.565 180.822 256.288C182.425 256.769 185.601 259.749 187.736 260.976C197.061 261.305 210.588 258.502 218.485 261.237C233.938 266.59 248.372 280.718 263.811 287.285C268.375 289.227 273.951 290.507 278.658 292.339C284.77 294.904 289.63 297.93 296.117 299.454C301.728 300.772 315.888 298.498 320.034 300.759C330.653 306.55 337.888 315.09 349.633 320.572C358.038 324.398 366.876 327.189 375.954 328.884C377.693 329.214 388.062 330.829 388.794 331.225C399.693 337.127 410.437 341.325 422.028 345.612C433.875 341.692 451.68 334.239 463.085 329.007C468.961 330.495 474.825 332.028 480.677 333.608L479.637 334.191C475.866 332.978 471.929 332.011 468.089 331.014C469.691 333.381 470.546 334.633 471.763 337.224L471.098 337.657C467.962 335.031 465.439 332.92 462.546 329.985C452.418 334.799 430.028 343.947 419.175 347.366L418.585 346.329C413.579 344.237 407.976 343.506 403.18 341.491C394.896 338.01 389.991 333.824 380.769 332.494C361.262 329.681 342.78 322.537 327.701 309.623C325.072 307.371 321.35 304.434 318.069 303.203C311.551 301.326 302.668 301.956 295.908 302.022C302.324 306.258 315.873 317.544 320.815 323.277C308.843 315.131 297.572 305.474 285.737 297.742C280.098 294.059 268.534 292.129 260.28 287.865C245.971 280.473 232.555 268.187 217.977 263.004C212.188 260.946 197.167 262.278 190.361 262.592C201.785 270.36 218.804 277.57 230.388 286.841L230.268 287.1C224.463 284.786 216.078 279.099 210.358 275.911C200.518 270.428 189.816 266.328 181.442 258.882C180.316 257.881 177.247 259.027 175.442 258.116C173.068 256.919 171.32 255.298 169.27 253.608C167.754 252.13 164.455 248.171 161.835 249.028C160.7 249.399 160.48 249.615 159.173 249.816Z"/><path fill="#DF854D" transform="scale(1 0.714286)" d="M157.835 251.091C158.072 250.534 158.664 250.199 159.173 249.816C160.48 249.615 160.7 249.399 161.835 249.028C164.455 248.171 167.754 252.13 169.27 253.608L169.055 255.936L167.591 257.666L167.15 257.606C167.287 260.878 169.148 263.617 170.828 266.362C169.101 266.23 167.883 264.953 166.529 263.829C166.29 267.043 169.279 271.345 171.04 273.973C167.776 271.306 164.61 268.792 160.857 266.833C160.091 266.434 158.65 266.007 158.081 265.472C158.004 264.218 158.164 262.574 157.422 261.888L156.367 263.785C152.764 268.998 158.232 271.3 152.129 274.641C149.575 278.483 152.643 279.399 151.756 282.705C149.4 283.893 149.058 282.241 146.726 283.648C146.721 284.301 146.655 284.848 146.89 285.451C148.592 288.397 152.313 286.392 150.7 292.236C150.395 293.343 150.045 294.871 150.603 295.922C150.344 296.173 149.762 296.879 149.487 296.822C146.457 296.197 143.181 290.822 141.841 288.48C141.399 290.286 140.366 294.929 139.721 296.422C139.148 295.607 138.928 295.213 138.485 294.32C136.501 295.776 137.866 298.703 136.014 300.324C134.407 299.627 132.502 299.274 130.747 298.662C132.756 292.946 133.434 288.239 135.142 282.558C135.753 280.525 138.508 278.502 139.295 276.108C137.815 276.145 136.605 278.733 135.519 279.019C133.317 279.598 131.731 278.826 130.657 281.068C130.924 281.985 130.964 282.059 130.926 283.002L128.653 284.73C126.469 286.151 122.235 288.739 120.504 290.414C118.794 292.112 117.81 293.082 116.343 295.035C114.62 295.895 112.096 294.619 110.198 294.002C115.717 289.627 120.073 283.862 125.356 279.259C134.171 271.577 143.156 264.072 152.067 256.501C154.124 254.753 156.152 253.226 157.835 251.091Z"/><path fill="#A6B8A6" transform="scale(1 0.714286)" d="M0 249.024C12.0893 249.048 23.8061 249.966 34.6138 256.071C35.8366 256.761 37.0243 257.264 37.8453 258.411C36.899 258.174 33.4913 256.451 32.3355 255.884C21.1163 250.383 12.2171 249.897 0 250.06L0 249.024Z"/><path fill="#A6B8A6" transform="scale(1 0.714286)" d="M968.779 276.166C979.44 257.483 1003.27 248.223 1024 249.187L1024 249.975C999.7 250.08 983.354 256.674 968.919 277.155C956.711 272.761 944.678 274.009 932.678 278.013C931.603 278.372 929.952 279.079 928.916 279.298L928.795 278.832C938.569 272.749 957.989 272.576 968.779 276.166Z"/><path fill="#E1EFD6" transform="scale(1 0.714286)" d="M0 250.06C12.2171 249.897 21.1163 250.383 32.3355 255.884C33.4913 256.451 36.899 258.174 37.8453 258.411C39.1478 259.544 42.5234 262.227 44.1662 262.661C44.558 263.184 45.724 264.607 46.1888 264.883C48.5323 266.273 54.3406 275.098 56.2604 275.529L56.4837 274.956L57.0318 274.882C73.1103 275.776 78.4988 276.38 85.4087 292.658L85.5566 293.801C85.1781 294.789 85.1461 295.791 85.5615 296.765L86.1759 296.478C85.6395 293.108 92.4007 295.498 95.2704 293.209C99.5709 293.12 103.896 293.199 108.114 294.186L108.59 294.035L110.198 294.002C112.096 294.619 114.62 295.895 116.343 295.035C117.474 295.105 119.397 295.058 120.193 295.677C120.989 295.819 123.281 296.158 123.824 296.589C126.793 297.223 127.959 297.474 130.747 298.662C132.502 299.274 134.407 299.627 136.014 300.324C136.784 301.847 139.909 302.691 141.466 303.351C145.735 305.163 149.405 303.269 152.188 303.469C159.818 303.345 160.958 303.638 168.217 306.877C169.2 307.315 172.253 308.688 173.121 308.895C174.695 309.819 179.879 312.733 181.033 313.693C186.666 318.174 189.963 311.657 196.005 310.444C208.418 307.95 226.19 309.989 237.449 315.947C238.871 316.808 244.551 323.299 246.539 324.289C249.097 325.564 250.929 323.514 253.619 325.587C256.86 328.085 261.137 335.708 263.664 337.605C278.104 333.012 296.821 335.518 311.16 340.163C316.517 341.898 324.387 344.007 329.252 347.294C329.635 347.552 332.811 351.216 332.892 351.526L332.753 351.405C344.047 351.394 352.835 353.01 358.321 363.718C371.121 362.96 376.239 366.015 388.484 365.395C392.363 366.067 397.385 366.769 401.002 368.071C402.909 369.23 402.596 369.365 404.885 368.72C415.769 365.652 427.433 366.067 432.536 377.905L433.51 378.186C436.648 380.49 436.929 382.473 440.594 381.834C448.521 380.452 457.257 381.412 462.569 388.299C471.038 388.415 478.823 389.849 484.321 396.976C491.951 397.296 496.633 397.79 500.839 405.05C497.032 405.013 493.341 404.82 489.622 405.678C492.264 405.963 498.669 406.3 501.133 405.531C508.601 405.058 516.621 405.14 524.144 405.088C525.288 402.437 526.352 401.363 528.445 399.561C534.229 397.206 535.655 397.15 542.009 396.948C545.597 392.952 548.767 391.691 553.649 389.732C558.993 388.814 559.872 388.477 565.483 388.451C568.549 385.911 571.325 384.4 574.946 382.855C581.543 380.868 586.456 381.068 593.355 381.479C591.81 377.286 593.11 373.373 595.95 370.197C596.518 369.844 598.045 369.184 598.724 368.867C605.912 364.285 615.973 366.049 622.968 370.032L622.967 370.024C626.455 365.68 634.389 365.451 639.427 365.496L640.833 365.628C644.418 365.831 655.362 368.446 657.421 366.598C662.258 366.09 669.151 366.41 673.974 366.705C682.91 344.831 725.779 340.748 742.052 353.613C748.755 348.35 754.922 347.102 762.993 345.585C762.583 344.885 762.197 344.172 761.835 343.447C758 335.712 767.122 331.521 772.573 328.922L775.404 327.298C779.548 326.253 783.851 324.96 787.978 323.79L789 323.361C790.12 323.267 795.069 322.108 796.06 321.647C800.205 321.284 807.864 320.948 811.886 321.155C818.368 322.837 825.701 318.26 832.862 316.471C839.246 314.006 855.333 312.749 862.083 314.212C859.952 315.417 856.143 316.199 853.625 316.873C846.959 318.657 843.13 321.573 837.885 325.799C830.867 326.306 824.186 327.227 818.474 331.627C805.963 341.265 793.857 337.92 782.47 350.97C770.258 350.964 759.996 351.368 749.599 358.59C740.011 354.18 729.052 353.815 719.192 357.576C712.571 360.044 707.298 363.733 702.986 369.313C689.987 368.288 679.447 370.47 667.508 375.835C662.68 378.005 657.28 380.809 652.361 382.424C650.797 381.604 648.789 380.827 648.044 379.304C648.626 375.363 656.641 377.195 659.15 375.274C656.494 372.521 643.142 372.874 639.219 373.18C637.558 374.327 636.88 374.637 636.2 376.489C636.442 379.813 639.124 379.853 638.051 381.819C634.836 382.076 631.441 382.939 629.489 385.77L629.026 386.377C621.899 386.096 619.098 388.484 612.487 390.281C610.261 390.886 601.105 392.39 598.834 392.417C596.825 391.994 591.433 393.514 589.527 394.361C585.639 396.089 574.182 395.543 571.772 398.49C565.191 397.886 553.885 396.699 549.395 402.922L548.129 403.151C544.674 403.649 540.595 403.813 537.067 404.039C534.245 404.008 531.654 403.86 528.895 404.489C529.636 405.147 533.248 405.104 534.413 405.138C538.425 404.813 551.759 404.38 554.693 403.635L555.035 403.618C558.171 403.481 562.273 404.036 565.495 404.227C576.371 404.868 585.234 405.999 593.631 413.658C596.009 411.827 599.539 408.966 601.785 407.357C607.025 403.601 622.626 402.507 628.772 403.885L629.001 403.939C630.337 402.797 631.687 401.671 633.05 400.562C636.37 397.88 641.851 394.941 646.162 395.395C651.657 394.235 658.008 395.3 663.448 395.143C663.531 394.258 663.638 393.655 663.812 392.784C669.341 386.09 694.235 386.452 703.015 387.424C710.711 388.276 724.109 390.686 730.92 394.195C734.256 389.812 736.649 387.824 739.796 384.034C765.446 365.869 802.123 365.148 831.644 372.555C834.992 373.395 841.313 376.928 843.404 376.216C844.911 373.332 848.368 371.228 850.836 369.044C865.037 356.476 882.064 350.422 899.918 345.425C903.17 344.514 910.356 344.954 912.927 343.439C918.403 343.707 923.094 343.504 928.381 344.953C932.792 325.051 945.752 318.41 963.768 311.733C966.856 310.589 973.922 308.117 976.463 306.366C977.887 306.315 981.315 305.335 982.593 304.519C983.873 305.377 984.614 304.496 985.499 303.771C999.437 300.089 1009.37 297.836 1024 298.537L1024 306.962C1011.37 312.863 1003.91 317.014 993.356 326.522C994.576 322.894 995.923 319.129 997.868 315.807C972.975 317.755 952.166 333.191 949.713 359.047C939.576 362.55 929.462 366.482 921.104 373.394C918.06 375.912 910.655 382.896 913.429 387.136C912.324 393.292 901.481 397.33 896.293 399.113C901.001 395.971 907.292 391.76 910.897 387.423C903.151 392.215 900.391 394.345 891.767 397.048C894.602 393.705 897.059 392.068 900.421 389.408C900.741 389.155 899.83 385.313 902.467 382.43C905.562 379.047 907.9 377.294 911.525 374.625C900.515 368.946 889.549 374.23 882.754 383.963C882.214 384.736 881.387 385.636 880.667 386.229C883.834 385.195 887.472 383.408 890.278 384.604L890.479 385.269C886.828 388.29 878.396 392.1 873.785 393.23L874.716 392.732C869.195 393.967 866.966 394.916 861.768 396.942L861.094 396.491C862.739 389.337 873.736 389.237 877.646 387.452C875.555 385.231 874.364 384.497 871.443 383.705C859.65 382.011 848.256 387.627 838.74 393.309C838.705 393.329 832.78 391.36 831.785 391.361C812.283 391.383 791.543 399.626 776.258 411.599C789.106 388.896 815.57 381.531 840.056 386.244C851.533 381.316 858.678 377.591 870.76 382.251C873.137 379.107 876.082 377.335 879.302 375.039C860.217 374.71 857.248 375.51 839.22 381.777C837.283 380.789 834.917 380.624 832.793 380.134C816.029 376.264 797.758 375.586 781.041 380.01C775.279 381.535 773.241 386.166 768.881 389.578C758.608 395.624 752.809 397.29 743.998 406.208C730.215 394.381 706.276 392.166 691.353 403.375C689.012 405.133 686.805 407.811 684.34 409.362C682.845 409.473 681.989 409.528 680.529 409.869C671.861 411.359 664.902 413.812 656.523 416.562C659.406 414.183 660.683 413.307 663.915 411.425C659.241 412.649 654.899 413.803 650.146 414.669C642.599 416.045 632.525 415.912 625.864 420L396.028 420C384.748 414.022 370.209 413.768 358.077 412.604C351.671 411.053 345.392 409.283 339.039 407.427C333.108 405.184 328.39 400.621 322.909 397.329C318.193 394.496 318.041 396.496 314.591 395.454C311.469 394.511 308.345 392.275 304.58 391.314L304.381 391.265L304.221 390.727C304.775 390.024 311.511 387.867 312.728 387.557C328.557 383.53 342.243 383.845 357.566 390.047C359.665 390.121 364.277 395.404 365.377 395.478C375.121 396.136 381.787 396.497 390.556 401.184C391.424 402.076 392.956 403.55 393.58 404.524C406.6 405.018 420.008 404.024 431.704 412.349C438.131 406.759 449.525 404.321 457.793 404.575C461.348 405.466 476.974 405.107 481.539 405.067C476.557 402.122 465.288 395.655 459.757 396.981C450.018 399.317 447.139 395.958 437.948 394.472C434.28 393.879 428.485 394.658 424.588 393.612C418.524 391.984 412.932 388.965 407.099 386.721C403.788 385.514 398.571 385.906 395.611 384.076C387.354 378.972 378.141 367.345 366.886 373.885L366.803 374.695C369.531 376.807 376.459 376.855 377.552 379.656C375.035 384.04 368.623 381.295 365.483 379.734C363.488 378.777 362.439 378.168 360.209 377.859C357.053 371.394 353.218 373.107 348.284 370.512C344.177 368.351 340.567 364.097 335.741 362.57C331.205 361.135 326.603 360.461 322.182 358.738C320.33 357.895 316.836 354.085 314.025 352.519C306.258 348.191 288.865 346.059 280.218 347.672C276.591 348.348 268.014 351.371 264.126 352.424C251.235 356.419 244.994 355.244 233.514 348.549C224.223 343.131 217.88 344.225 214.485 331.684C204.674 322.078 193.364 322.626 181.012 320.606C177.88 320.094 172.941 316.377 169.39 316.043C166.788 315.799 165.365 317.388 162.952 317.248C155.805 315.493 150.219 311.857 142.953 310.259C148.108 313.178 152.642 315.524 158.028 317.952C162.879 320.139 172.195 322.116 174.628 326.589L170.984 326.494C159.412 323.792 151.363 318.105 142.306 310.975C134.145 310.165 121.136 308.553 114.601 304.388C102.195 296.48 98.9038 297.901 85.0038 298.556C82.955 298.652 71.1248 292.333 67.6833 290.728C76.8926 305.256 88.9246 302.188 103.286 303.748C106.169 304.061 110.891 307.164 113.411 308.763C100.833 305.088 94.8252 311.394 83.3999 308.469C78.2878 306.514 69.3315 301.479 65.7093 297.54C54.5965 285.457 49.1007 285.86 32.9377 284.406C24.9708 271.64 15.0062 267.075 0 266.975L0 250.06ZM358.864 401.057C356.848 401.522 355.964 401.605 354.362 402.866L354.042 404.003C357.002 408.29 365.014 405.42 367.988 408.932L367.799 410.501C371.069 410.487 376.087 409.351 379.615 408.833L386.841 407.711C380.786 403.176 365.941 400.421 358.864 401.057ZM658.384 401.698C653.128 402.081 647.168 403.29 642.808 406.421L642.247 407.425C644.177 409.641 650.092 408.272 652.75 407.858C659.382 406.745 666.041 405.795 671.848 402.187C667.917 401.925 662.163 401.369 658.384 401.698Z"/><path fill="#E1EFD6" transform="scale(1 0.714286)" d="M968.919 277.155C983.354 256.674 999.7 250.08 1024 249.975L1024 267.769C1016.46 266.336 1006.81 268.696 1000.4 272.853C995.876 275.785 994.263 279.105 992.704 284.033C977.882 283.822 968.686 285.341 960.589 298.841C953.185 300.345 945.547 301.703 938.587 304.651C944.468 298.43 948.685 295.222 957.601 294.865C959.242 291.402 959.951 290.048 962.156 286.937C954.598 286.85 957.118 287.165 950.776 290.016C949.891 290.414 944.099 287.893 940.31 288.506C935.179 289.335 931.299 290.917 927.872 295.332C924.453 299.735 924.004 303.304 923.841 308.576C921.823 307.93 912.219 306.304 912.329 306.369C900.27 299.287 882.481 303.431 877.307 317.694C882.979 319.739 883.862 320.065 888.095 324.259C870.6 320.352 857.092 322.552 843.118 334.761C846.822 326.622 852.559 323.066 860.776 319.73C862.941 318.851 867.842 317.975 869.017 316.746L869.268 315.53C870.078 312.62 871.31 309.845 872.926 307.294C879.804 296.414 893.284 290.379 905.991 291.421C911.035 291.835 913.5 293.334 917.675 295.959C917.729 295.118 917.818 294.281 917.942 293.448C918.877 287.409 921.877 283.431 926.708 279.906L928.916 279.298C929.952 279.079 931.603 278.372 932.678 278.013C944.678 274.009 956.711 272.761 968.919 277.155Z"/><path fill="#050301" transform="scale(1 0.714286)" d="M122.602 274.71C127.596 268.6 127.696 273.828 130.78 271.802C140.257 265.577 148.417 257.623 157.835 251.091C156.152 253.226 154.124 254.753 152.067 256.501C143.156 264.072 134.171 271.577 125.356 279.259C120.073 283.862 115.717 289.627 110.198 294.002L108.59 294.035C108.648 293.855 121.685 281.077 123.183 279.478C125.172 277.149 125.628 275.843 126.828 273.056L118.924 278.275C116.951 279.358 113.249 278.521 111.36 277.42C108.976 276.629 108.466 276.294 106.345 277.327C101.121 279.871 89.9427 291.845 85.5566 293.801L85.4087 292.658L85.9806 292.238C90.9843 287.557 102.127 278.776 107.729 274.916C113.764 276.009 116.735 276.713 122.602 274.71Z"/><path fill="#89654F" transform="scale(1 0.714286)" d="M169.27 253.608C171.32 255.298 173.068 256.919 175.442 258.116C177.247 259.027 180.316 257.881 181.442 258.882C189.816 266.328 200.518 270.428 210.358 275.911C216.078 279.099 224.463 284.786 230.268 287.1L230.388 286.841C218.804 277.57 201.785 270.36 190.361 262.592C197.167 262.278 212.188 260.946 217.977 263.004C232.555 268.187 245.971 280.473 260.28 287.865C268.534 292.129 280.098 294.059 285.737 297.742C297.572 305.474 308.843 315.131 320.815 323.277C315.873 317.544 302.324 306.258 295.908 302.022C302.668 301.956 311.551 301.326 318.069 303.203C321.35 304.434 325.072 307.371 327.701 309.623C342.78 322.537 361.262 329.681 380.769 332.494C389.991 333.824 394.896 338.01 403.18 341.491C407.976 343.506 413.579 344.237 418.585 346.329L419.175 347.366C414.555 349.533 379.015 362.958 378.16 363.95C378.711 364.174 379.254 364.443 379.838 364.51C381.719 364.659 387.354 364.727 388.484 365.395C376.239 366.015 371.121 362.96 358.321 363.718C352.835 353.01 344.047 351.394 332.753 351.405L332.892 351.526C332.811 351.216 329.635 347.552 329.252 347.294C324.387 344.007 316.517 341.898 311.16 340.163C296.821 335.518 278.104 333.012 263.664 337.605C261.137 335.708 256.86 328.085 253.619 325.587C250.929 323.514 249.097 325.564 246.539 324.289C244.551 323.299 238.871 316.808 237.449 315.947C226.19 309.989 208.418 307.95 196.005 310.444C189.963 311.657 186.666 318.174 181.033 313.693C182.39 311.109 183.465 309.657 185.178 307.295C184.674 301.693 183.955 294.175 183.073 288.749C184.528 287.999 184.709 290.001 187.104 289.875C187.285 289.275 187.484 288.679 187.701 288.09C189.545 287.86 192.214 290.153 193.765 291.298L188.598 285.661L188.757 285.156L191.999 285.659C192.942 284.482 188.849 282.708 188.609 280.3C189.818 280.248 191.14 280.58 192.339 280.821C191.736 278.757 191.554 279.255 192.133 277.481C201.102 286.412 218.251 300.342 229.095 307.082C232.364 309.114 243.144 312.943 247.313 314.483C245.316 313.255 243.643 312.183 241.844 310.78C238.834 308.435 229.397 298.823 226.287 298.205C226.293 298.846 226.233 299.134 226.571 299.682C224.823 299.434 219.531 293.717 216.48 292.288L215.908 292.568C216.08 293.73 216.301 294.769 215.867 295.903C209.859 290.667 199.482 283.297 194.478 277.713C199.733 279.358 204.632 282.699 210.836 284.645L205.759 280.731L206.044 280.607L206.177 280.754C207.506 280.861 212.393 282.226 213.961 282.634C211.391 281.044 209.774 280.301 207.004 279.065C203.16 277.466 186.507 267.003 183.223 264.278C182.296 267.108 179.384 271.664 179.737 273.781L180.542 274.149L179.693 275.191C177.815 277.534 162.371 301.836 162.382 303.291L162.547 303.693C165.13 304.656 171.236 307.042 173.121 308.895C172.253 308.688 169.2 307.315 168.217 306.877C160.958 303.638 159.818 303.345 152.188 303.469L153.008 302.931C154.211 301.079 154.445 297.562 155.302 295.844C156.397 293.65 158.714 290.65 160.108 288.5C163.076 283.998 163.535 278.291 161.324 273.373C160.059 270.546 158.643 268.561 158.081 265.472C158.65 266.007 160.091 266.434 160.857 266.833C164.61 268.792 167.776 271.306 171.04 273.973C169.279 271.345 166.29 267.043 166.529 263.829C167.883 264.953 169.101 266.23 170.828 266.362C169.148 263.617 167.287 260.878 167.15 257.606L167.591 257.666C168.247 258.932 170.705 260.605 172.305 263.287L172.398 263.446C171.866 261.048 170.217 258.192 169.055 255.936L169.27 253.608ZM218.729 268.593L218.115 268.173C218.102 271.118 225.535 279.896 227.794 281.984C246.264 299.061 267.087 307.69 289.258 318.584C286.653 316.514 277.935 309.164 275.674 307.748L275.275 308.391L276.004 310.131C272.844 310.238 264.003 301.619 262.45 301.66C263.627 303.505 264.018 303.894 265.625 305.406C252.262 298.318 248.423 295.753 236.507 286.377C237.417 286.636 244.458 289.686 245.842 290.229C240.111 282.357 228.033 272.329 218.729 268.593ZM334.082 327.028C331.108 323.593 326.282 317.839 323.129 314.832C326.277 321.54 330.921 327.478 335.219 333.476C339.382 339.285 342.194 344.536 349.429 346.793C357.401 349.278 364.763 351.864 372.223 355.673C369.003 352.527 361.735 345.876 358.13 343.362L358.596 342.329L359.629 342.632L359.837 342.157C358.523 338.941 339.41 326.887 335.415 324.211C336.801 327.245 339.333 331.19 341.105 334.068C339.029 331.776 336.53 328.794 334.082 327.028Z"/><path fill="#050301" transform="scale(1 0.714286)" d="M865.402 289.766C858.358 279.209 854.946 266.974 854.107 254.394C854.934 255.052 855.071 256.367 855.377 257.388C857.866 265.684 860.842 273.519 865.903 280.619C865.578 276.707 864.959 272.697 864.414 268.799C866.113 272.288 866.873 273.945 867.864 277.67C869.267 283.164 868.741 285.411 865.402 289.766Z"/><path fill="#D37C3B" transform="scale(1 0.714286)" d="M167.591 257.666L169.055 255.936C170.217 258.192 171.866 261.048 172.398 263.446L172.305 263.287C170.705 260.605 168.247 258.932 167.591 257.666Z"/><path fill="#050301" transform="scale(1 0.714286)" d="M156.367 263.785L157.422 261.888C158.164 262.574 158.004 264.218 158.081 265.472C158.643 268.561 160.059 270.546 161.324 273.373C163.535 278.291 163.076 283.998 160.108 288.5C158.714 290.65 156.397 293.65 155.302 295.844C154.445 297.562 154.211 301.079 153.008 302.931C152.169 300.82 153.899 298.272 153.089 295.97L151.859 296.729L151.104 296.122C151.523 295.788 153.521 292.824 154.552 291.803C164.109 282.26 160.682 274.815 156.367 263.785Z"/><path fill="#A6B8A6" transform="scale(1 0.714286)" d="M44.1662 262.661C48.3117 263.772 53.6666 272.478 56.4837 274.956L56.2604 275.529C54.3406 275.098 48.5323 266.273 46.1888 264.883C45.724 264.607 44.558 263.184 44.1662 262.661Z"/><path fill="#5C0201" transform="scale(1 0.714286)" d="M146.89 285.451C146.655 284.848 146.721 284.301 146.726 283.648C149.058 282.241 149.4 283.893 151.756 282.705C152.643 279.399 149.575 278.483 152.129 274.641C158.232 271.3 152.764 268.998 156.367 263.785C160.682 274.815 164.109 282.26 154.552 291.803C153.825 288.426 150.251 285.311 146.89 285.451Z"/><path fill="#470806" transform="scale(1 0.714286)" d="M808.17 269.858C808.897 267.106 809.576 267.451 810.638 264.634L811.363 264.383C813.143 266.392 814.131 269.493 813.985 272.153C813.457 281.768 803.209 290.108 804.269 299.547L803.577 300.341C800.85 294.129 803.425 296.969 804.833 292.224C806.984 284.974 808.568 277.447 808.17 269.858ZM812.09 270.318C810.795 271.931 810.619 274.571 810.766 276.576L811.26 277.112C811.922 275.495 812.835 271.993 812.09 270.318Z"/><path fill="#DF854D" transform="scale(1 0.714286)" d="M179.693 275.191L180.542 274.149L179.737 273.781C179.384 271.664 182.296 267.108 183.223 264.278C186.507 267.003 203.16 277.466 207.004 279.065C209.774 280.301 211.391 281.044 213.961 282.634C212.393 282.226 207.506 280.861 206.177 280.754L206.044 280.607L205.759 280.731L210.836 284.645C204.632 282.699 199.733 279.358 194.478 277.713C193.308 276.712 192.211 275.871 190.983 274.942C190.816 275.846 191.509 276.484 192.133 277.481C191.554 279.255 191.736 278.757 192.339 280.821C191.14 280.58 189.818 280.248 188.609 280.3C188.849 282.708 192.942 284.482 191.999 285.659L188.757 285.156L188.598 285.661L193.765 291.298C192.214 290.153 189.545 287.86 187.701 288.09C187.484 288.679 187.285 289.275 187.104 289.875C184.709 290.001 184.528 287.999 183.073 288.749C183.955 294.175 184.674 301.693 185.178 307.295C183.465 309.657 182.39 311.109 181.033 313.693C179.879 312.733 174.695 309.819 173.121 308.895C171.236 307.042 165.13 304.656 162.547 303.693C166.039 301.225 177.611 279.6 179.693 275.191Z"/><path fill="#B3C8A1" transform="scale(1 0.714286)" d="M0 266.975C15.0062 267.075 24.9708 271.64 32.9377 284.406C49.1007 285.86 54.5965 285.457 65.7093 297.54C69.3315 301.479 78.2878 306.514 83.3999 308.469C94.8252 311.394 100.833 305.088 113.411 308.763C110.891 307.164 106.169 304.061 103.286 303.748C88.9246 302.188 76.8926 305.256 67.6833 290.728C71.1248 292.333 82.955 298.652 85.0038 298.556C98.9038 297.901 102.195 296.48 114.601 304.388C121.136 308.553 134.145 310.165 142.306 310.975C151.363 318.105 159.412 323.792 170.984 326.494C168.901 327.865 152.665 331.037 147.384 332.875C147.213 332.479 147.033 332.085 146.846 331.696C142.581 322.842 136.081 324.973 128.674 322.157L129.166 321.68C127.457 321.558 126.27 321.639 124.904 320.644C128.577 319.735 135.462 319.991 139.466 320.008C128.311 314.414 120.137 318.07 107.954 321.192C85.6429 311.861 77.042 312.203 55.5236 322.52C72.0982 319.032 84.3754 319.643 100.642 324.286C104.582 325.411 111.366 328.005 115.092 328.632C126.179 330.497 131.89 328.803 140.769 336.863C144.047 335.704 148.398 334.999 151.85 334.268C167.068 331.049 177.652 330.722 192.246 336.095C187.651 330.408 186.363 329.018 178.903 327.347C178.019 327.15 175.207 326.877 174.628 326.589C172.195 322.116 162.879 320.139 158.028 317.952C152.642 315.524 148.108 313.178 142.953 310.259C150.219 311.857 155.805 315.493 162.952 317.248C165.365 317.388 166.788 315.799 169.39 316.043C172.941 316.377 177.88 320.094 181.012 320.606C193.364 322.626 204.674 322.078 214.485 331.684C217.88 344.225 224.223 343.131 233.514 348.549C244.994 355.244 251.235 356.419 264.126 352.424C268.014 351.371 276.591 348.348 280.218 347.672C288.865 346.059 306.258 348.191 314.025 352.519C316.836 354.085 320.33 357.895 322.182 358.738C326.603 360.461 331.205 361.135 335.741 362.57C340.567 364.097 344.177 368.351 348.284 370.512C353.218 373.107 357.053 371.394 360.209 377.859C353.633 376.941 348.502 376.265 341.703 376.542C335.95 376.775 329.27 378.276 323.647 377.533C320.392 377.103 315.292 374.366 311.958 372.917C304.53 369.69 293.14 365.4 284.904 367.158C280.805 368.033 279.157 370.804 277.287 374.032C265.529 366.751 242.753 362.655 229.223 364.174C224.86 364.664 221.186 365.366 217.016 365.997C215.179 366.274 208.922 364.364 206.457 365.203C205.399 365.563 199.614 367.196 199.139 367.928C203.782 368.707 208.855 367.884 212.533 369.428L212.703 369.501C198.501 369.667 183.946 366.813 169.693 370.291C168.077 370.685 165.812 370.63 164.552 370.932L164.803 369.83C163.479 368.731 162.049 368.6 160.473 367.518C156.436 364.745 154.133 362.276 149.71 359.987C144.616 359.943 141.116 359.758 136.918 363.162C134.96 362.535 131.713 359.563 130.017 359.139C118.334 356.432 114.76 354.11 105.51 346.727C94.9991 338.338 79.0104 333.795 65.8439 333.884C62.3001 328.985 53.2788 321.765 52.5069 319.68C53.4461 320.311 53.6671 320.572 54.7772 320.593C57.4631 313.876 51.7313 303.255 46.4646 299.109C40.0784 294.081 28.7584 290.481 20.8206 291.269C21.0025 288.758 18.8074 284.835 17.0657 283.119C12.0409 278.167 6.81302 277.064 0 276.922L0 266.975ZM162.775 335.152C146.88 337.399 136.022 348.539 117.455 351.405C120.276 352.362 123.212 353.415 126.078 354.174C147.453 351.612 151.62 342.466 170.072 335.162C167.818 335.068 164.959 334.843 162.775 335.152ZM233.442 353.799C234.274 365.154 256.353 361.374 263.92 362.43C266.291 362.761 272.741 365.59 274.143 364.217C271.977 361.188 269.101 359.838 265.509 359.029C260.573 357.917 254.45 360.182 249.947 359.792C244.857 359.351 238.693 354.969 233.442 353.799Z"/><path fill="#B3C8A1" transform="scale(1 0.714286)" d="M992.704 284.033C994.263 279.105 995.876 275.785 1000.4 272.853C1006.81 268.696 1016.46 266.336 1024 267.769L1024 277.427C1015.85 275.759 1010.96 278.715 1005.4 284.193C1003.51 286.564 1001.45 289.405 1002.33 292.597C995.903 295.022 990.596 296.963 985.841 302.092C985.692 302.632 985.478 303.225 985.499 303.771C984.614 304.496 983.873 305.377 982.593 304.519C980.928 302.458 976.755 302.221 974.242 301.758C956.953 298.576 931.156 303.622 923.107 321.221C937.364 310.897 947.31 305.889 965.735 305.932C968.334 305.938 974.097 306.008 976.463 306.366C973.922 308.117 966.856 310.589 963.768 311.733C945.752 318.41 932.792 325.051 928.381 344.953C923.094 343.504 918.403 343.707 912.927 343.439L912.431 342.339C900.512 337.828 895.303 332.844 882.719 338.608C877.171 341.15 874.858 343.48 870.677 347.983L870.119 346.245C864.285 344.119 851.898 344.399 849.508 351.155C849.161 352.152 848.836 353.158 848.534 354.17C845.563 355.12 841.907 354.328 839.724 355.025C835.21 356.469 830.473 358.582 825.924 360.211C835.363 352.068 838.575 353.802 849.097 350.163C836.973 349.76 824.887 351.727 813.516 355.952C810.707 357.01 808.307 358.381 805.65 359.5C813.125 353.109 816.423 351.555 826.133 349.403C809.58 343.953 796.883 347.792 785.923 360.995C773.061 358.591 759.987 357.538 750.059 367.589C739.877 364.052 723.997 365.117 717.21 374.524C706.88 372.164 704.681 371.367 694.345 373.338C695.611 375.215 696.913 377.108 698.157 378.996C685.598 375.215 675.332 375.47 663.202 381.407C670.837 381.496 678.27 380.98 685.777 381.218C691.15 381.389 697.362 383.195 702.607 384.357C703.976 384.66 710.025 386.257 710.48 385.437C711.677 383.282 710.697 380.168 715.424 380.062C722.08 379.911 728.974 384.965 734.872 387.73C736.544 386.09 737.572 384.86 739.796 384.034C736.649 387.824 734.256 389.812 730.92 394.195C724.109 390.686 710.711 388.276 703.015 387.424C694.235 386.452 669.341 386.09 663.812 392.784C663.638 393.655 663.531 394.258 663.448 395.143C658.008 395.3 651.657 394.235 646.162 395.395C644.658 394.187 644.261 393.914 642.34 394.398C635.281 396.176 595.393 405.517 590.709 399.792C594.208 394.725 608.52 397.415 612.329 396.097C622.762 392.486 631.806 390.324 642.766 389.023C646.421 388.588 664.176 389.984 665.3 389.236L665.564 387.448C666.445 387.269 666.849 387.336 667.753 387.386C663.658 382.177 636.208 384.541 629.489 385.77C631.441 382.939 634.836 382.076 638.051 381.819C639.124 379.853 636.442 379.813 636.2 376.489C636.88 374.637 637.558 374.327 639.219 373.18C643.142 372.874 656.494 372.521 659.15 375.274C656.641 377.195 648.626 375.363 648.044 379.304C648.789 380.827 650.797 381.604 652.361 382.424C657.28 380.809 662.68 378.005 667.508 375.835C679.447 370.47 689.987 368.288 702.986 369.313C707.298 363.733 712.571 360.044 719.192 357.576C729.052 353.815 740.011 354.18 749.599 358.59C759.996 351.368 770.258 350.964 782.47 350.97C793.857 337.92 805.963 341.265 818.474 331.627C824.186 327.227 830.867 326.306 837.885 325.799C843.13 321.573 846.959 318.657 853.625 316.873C856.143 316.199 859.952 315.417 862.083 314.212C864.321 314.813 867.301 316.015 869.268 315.53L869.017 316.746C867.842 317.975 862.941 318.851 860.776 319.73C852.559 323.066 846.822 326.622 843.118 334.761C857.092 322.552 870.6 320.352 888.095 324.259C883.862 320.065 882.979 319.739 877.307 317.694C882.481 303.431 900.27 299.287 912.329 306.369C912.219 306.304 921.823 307.93 923.841 308.576C924.004 303.304 924.453 299.735 927.872 295.332C931.299 290.917 935.179 289.335 940.31 288.506C944.099 287.893 949.891 290.414 950.776 290.016C957.118 287.165 954.598 286.85 962.156 286.937C959.951 290.048 959.242 291.402 957.601 294.865C948.685 295.222 944.468 298.43 938.587 304.651C945.547 301.703 953.185 300.345 960.589 298.841C968.686 285.341 977.882 283.822 992.704 284.033ZM909.276 312.049C905.616 313.345 898.095 317.343 897.727 321.654L898.146 322.062L899.501 321.302C901.563 320.016 902.562 320.108 904.32 318.369C906.449 316.263 909.195 313.93 911.719 312.306L909.276 312.049ZM899.4 326.193C887.264 327.497 873.112 332 869.429 344.957C871.448 342.912 873.949 340.208 876.235 338.604C886.29 330.926 899.211 328.764 911.368 326.238C907.916 326.133 902.692 325.823 899.4 326.193Z"/><path fill="#050301" transform="scale(1 0.714286)" d="M289.258 318.584C267.087 307.69 246.264 299.061 227.794 281.984C225.535 279.896 218.102 271.118 218.115 268.173L218.729 268.593C222.18 273.82 230.003 285.072 236.507 286.377C248.423 295.753 252.262 298.318 265.625 305.406C264.018 303.894 263.627 303.505 262.45 301.66C264.003 301.619 272.844 310.238 276.004 310.131L275.275 308.391L275.674 307.748C277.935 309.164 286.653 316.514 289.258 318.584Z"/><path fill="#5C0201" transform="scale(1 0.714286)" d="M218.729 268.593C228.033 272.329 240.111 282.357 245.842 290.229C244.458 289.686 237.417 286.636 236.507 286.377C230.003 285.072 222.18 273.82 218.729 268.593Z"/><path fill="#AC6442" transform="scale(1 0.714286)" d="M806.517 274.184C806.431 272.658 807.417 271.229 808.17 269.858C808.568 277.447 806.984 284.974 804.833 292.224C803.425 296.969 800.85 294.129 803.577 300.341C802.205 303.744 798.225 304.819 797.655 312.426C797.58 313.429 797.01 314.359 796.5 315.242C792.452 313.213 798.133 308.937 797.907 306.16C795.65 307.627 793.557 315.2 792.183 317.745C791.308 319.367 789.97 321.111 788.817 322.565L789 323.361L787.978 323.79C785.972 317.386 800.885 299.169 800.881 297.368C800.99 295.915 803.391 292.6 803.901 290.722C805.365 285.327 806.167 279.726 806.517 274.184Z"/><path fill="#963F34" transform="scale(1 0.714286)" d="M811.26 277.112L810.766 276.576C810.619 274.571 810.795 271.931 812.09 270.318C812.835 271.993 811.922 275.495 811.26 277.112Z"/><path fill="#DF854D" transform="scale(1 0.714286)" d="M118.924 278.275L126.828 273.056C125.628 275.843 125.172 277.149 123.183 279.478C121.342 279.202 120.543 279.169 118.924 278.275Z"/><path fill="#A6B8A6" transform="scale(1 0.714286)" d="M57.0318 274.882C59.1562 273.528 64.037 273.402 66.4754 274.005C76.253 276.424 82.7698 282.786 85.9806 292.238L85.4087 292.658C78.4988 276.38 73.1103 275.776 57.0318 274.882Z"/><path fill="#050301" transform="scale(1 0.714286)" d="M192.133 277.481C191.509 276.484 190.816 275.846 190.983 274.942C192.211 275.871 193.308 276.712 194.478 277.713C199.482 283.297 209.859 290.667 215.867 295.903C223.5 302.62 229.16 306.422 238.666 310.196C235.33 306.613 230.671 302.404 226.571 299.682C226.233 299.134 226.293 298.846 226.287 298.205C229.397 298.823 238.834 308.435 241.844 310.78C243.643 312.183 245.316 313.255 247.313 314.483C243.144 312.943 232.364 309.114 229.095 307.082C218.251 300.342 201.102 286.412 192.133 277.481Z"/><path fill="#4D351F" transform="scale(1 0.714286)" d="M800.881 297.368L797.685 300.167C797.431 299.637 799.793 296.895 800.381 295.84C804.148 289.092 804.013 281.37 806.517 274.184C806.167 279.726 805.365 285.327 803.901 290.722C803.391 292.6 800.99 295.915 800.881 297.368Z"/><path fill="#251410" transform="scale(1 0.714286)" d="M162.547 303.693L162.382 303.291C162.371 301.836 177.815 277.534 179.693 275.191C177.611 279.6 166.039 301.225 162.547 303.693Z"/><path fill="#251410" transform="scale(1 0.714286)" d="M128.653 284.73L130.926 283.002C130.964 282.059 130.924 281.985 130.657 281.068C131.731 278.826 133.317 279.598 135.519 279.019C136.605 278.733 137.815 276.145 139.295 276.108C138.508 278.502 135.753 280.525 135.142 282.558C133.434 288.239 132.756 292.946 130.747 298.662C127.959 297.474 126.793 297.223 123.824 296.589C124.62 295.448 130.413 291.059 132.091 289.615C132.684 287.744 133.205 285.381 133.689 283.442C132.045 284.036 130.386 284.78 128.653 284.73Z"/><path fill="#DF854D" transform="scale(1 0.714286)" d="M85.5566 293.801C89.9427 291.845 101.121 279.871 106.345 277.327C108.466 276.294 108.976 276.629 111.36 277.42C110.158 279.986 99.0308 288.651 95.2704 293.209C92.4007 295.498 85.6395 293.108 86.1759 296.478L85.5615 296.765C85.1461 295.791 85.1781 294.789 85.5566 293.801Z"/><path fill="#E1EFD6" transform="scale(1 0.714286)" d="M0 276.922C6.81302 277.064 12.0409 278.167 17.0657 283.119C18.8074 284.835 21.0025 288.758 20.8206 291.269C19.9461 290.66 19.9341 290.142 19.432 289.042C16.5984 280.952 7.69424 278.462 0 278.398L0 276.922Z"/><path fill="#E1EFD6" transform="scale(1 0.714286)" d="M1005.4 284.193C1010.96 278.715 1015.85 275.759 1024 277.427L1024 278.676C1017.2 278.116 1011.38 280.267 1006.38 284.954L1005.4 284.193Z"/><path fill="#89654F" transform="scale(1 0.714286)" d="M111.36 277.42C113.249 278.521 116.951 279.358 118.924 278.275C120.543 279.169 121.342 279.202 123.183 279.478C121.685 281.077 108.648 293.855 108.59 294.035L108.114 294.186C103.896 293.199 99.5709 293.12 95.2704 293.209C99.0308 288.651 110.158 279.986 111.36 277.42Z"/><path fill="#B3C8A1" transform="scale(1 0.714286)" d="M0 278.398C7.69424 278.462 16.5984 280.952 19.432 289.042C10.9995 283.371 11.856 282.546 0 282.511L0 278.398Z"/><path fill="#B3C8A1" transform="scale(1 0.714286)" d="M1006.38 284.954C1011.38 280.267 1017.2 278.116 1024 278.676L1024 282.894C1013.5 283.254 1010.7 286.003 1002.88 292.221C1003.05 288.783 1004.24 287.502 1006.38 284.954Z"/><path fill="#7D906E" transform="scale(1 0.714286)" d="M0 282.511C11.856 282.546 10.9995 283.371 19.432 289.042C19.9341 290.142 19.9461 290.66 20.8206 291.269C28.7584 290.481 40.0784 294.081 46.4646 299.109C51.7313 303.255 57.4631 313.876 54.7772 320.593C53.6671 320.572 53.4461 320.311 52.5069 319.68C52.0593 319.127 50.5599 317.983 49.9595 317.51C34.2372 305.113 20.1478 301.29 0 301.426L0 282.511Z"/><path fill="#7D906E" transform="scale(1 0.714286)" d="M1002.88 292.221C1010.7 286.003 1013.5 283.254 1024 282.894L1024 298.537C1009.37 297.836 999.437 300.089 985.499 303.771C985.478 303.225 985.692 302.632 985.841 302.092C990.596 296.963 995.903 295.022 1002.33 292.597L1002.88 292.221Z"/><path fill="#740603" transform="scale(1 0.714286)" d="M120.504 290.414C122.235 288.739 126.469 286.151 128.653 284.73C130.386 284.78 132.045 284.036 133.689 283.442C133.205 285.381 132.684 287.744 132.091 289.615C130.413 291.059 124.62 295.448 123.824 296.589C123.281 296.158 120.989 295.819 120.193 295.677C123.578 290.921 125.373 292.372 129.214 287.379L129.073 286.767C125.36 286.771 123.084 290.495 120.504 290.414Z"/><path fill="#E1EFD6" transform="scale(1 0.714286)" d="M1002.33 292.597C1001.45 289.405 1003.51 286.564 1005.4 284.193L1006.38 284.954C1004.24 287.502 1003.05 288.783 1002.88 292.221L1002.33 292.597Z"/><path fill="#470806" transform="scale(1 0.714286)" d="M146.89 285.451C150.251 285.311 153.825 288.426 154.552 291.803C153.521 292.824 151.523 295.788 151.104 296.122L150.603 295.922C150.045 294.871 150.395 293.343 150.7 292.236C152.313 286.392 148.592 288.397 146.89 285.451Z"/><path fill="#963F34" transform="scale(1 0.714286)" d="M116.343 295.035C117.81 293.082 118.794 292.112 120.504 290.414C123.084 290.495 125.36 286.771 129.073 286.767L129.214 287.379C125.373 292.372 123.578 290.921 120.193 295.677C119.397 295.058 117.474 295.105 116.343 295.035Z"/><path fill="#470806" transform="scale(1 0.714286)" d="M777.628 289.945L780.826 287.844C780.944 290.058 779.201 288.646 780.734 291.924C778.902 293.45 775.208 295.295 772.499 297.367C774.077 294.905 775.937 292.354 777.628 289.945Z"/><path fill="#89654F" transform="scale(1 0.714286)" d="M150.603 295.922L151.104 296.122L151.859 296.729L153.089 295.97C153.899 298.272 152.169 300.82 153.008 302.931L152.188 303.469C149.405 303.269 145.735 305.163 141.466 303.351C139.909 302.691 136.784 301.847 136.014 300.324C137.866 298.703 136.501 295.776 138.485 294.32C138.928 295.213 139.148 295.607 139.721 296.422C140.366 294.929 141.399 290.286 141.841 288.48C143.181 290.822 146.457 296.197 149.487 296.822C149.762 296.879 150.344 296.173 150.603 295.922Z"/><path fill="#5C0201" transform="scale(1 0.714286)" d="M215.867 295.903C216.301 294.769 216.08 293.73 215.908 292.568L216.48 292.288C219.531 293.717 224.823 299.434 226.571 299.682C230.671 302.404 235.33 306.613 238.666 310.196C229.16 306.422 223.5 302.62 215.867 295.903Z"/><path fill="#470806" transform="scale(1 0.714286)" d="M807.395 297.534C810.035 295.623 811.456 294.569 813.777 292.308C817.041 293.564 809.64 308.356 808.699 311.731C810.945 313.422 815.618 316.616 814.315 319.967C813.334 320.868 813.709 320.79 812.6 320.915C811.936 317.279 808.489 315.095 807.406 313.47C805.992 311.348 808.662 299.499 807.395 297.534Z"/><path fill="#740603" transform="scale(1 0.714286)" d="M804.269 299.547C804.834 298.916 804.996 298.12 805.264 297.294L805.399 297.38L805.886 296.678L805.822 297.009L805.966 296.214L806.319 296.101L806.89 297.524L806.095 296.457L806.355 297.503L806.279 297.613L807.395 297.534C808.662 299.499 805.992 311.348 807.406 313.47C808.489 315.095 811.936 317.279 812.6 320.915L811.886 321.155C807.864 320.948 800.205 321.284 796.06 321.647C794.981 320.274 797.707 317.604 796.5 315.242C797.01 314.359 797.58 313.429 797.655 312.426C798.225 304.819 802.205 303.744 803.577 300.341L804.269 299.547Z"/><path fill="#7D906E" transform="scale(1 0.714286)" d="M923.107 321.221C931.156 303.622 956.953 298.576 974.242 301.758C976.755 302.221 980.928 302.458 982.593 304.519C981.315 305.335 977.887 306.315 976.463 306.366C974.097 306.008 968.334 305.938 965.735 305.932C947.31 305.889 937.364 310.897 923.107 321.221Z"/><path fill="#E1EFD6" transform="scale(1 0.714286)" d="M0 301.426C20.1478 301.29 34.2372 305.113 49.9595 317.51C50.5599 317.983 52.0593 319.127 52.5069 319.68C53.2788 321.765 62.3001 328.985 65.8439 333.884C79.0104 333.795 94.9991 338.338 105.51 346.727C114.76 354.11 118.334 356.432 130.017 359.139C131.713 359.563 134.96 362.535 136.918 363.162L139.021 365.218C139.797 366.05 141.243 367.773 142.168 368.191C143.854 371.197 146.397 374.744 149.869 375.739C151.033 376.073 154.06 373.668 155.964 373.199C158.341 372.614 161.692 371.68 164.098 371.434L164.552 370.932C165.812 370.63 168.077 370.685 169.693 370.291C183.946 366.813 198.501 369.667 212.703 369.501C215.657 369.571 216.971 369.495 219.771 370.512C233.304 373.771 243.923 377.197 254.571 387.14C256.344 388.795 260.633 394.828 261.978 395.484C264.08 396.508 268.799 397.603 271.553 398.904C282.508 392.407 308.137 385.743 315.049 400.942C315.626 402.211 316.187 403.664 316.669 404.979C314.771 402.191 313.56 399.632 310.326 398.19C298.914 393.102 285.781 398.638 274.451 401.256C272.922 401.609 269.59 398.781 266.087 402.71L265.189 404.243C259.086 403.79 252.424 403.918 246.259 403.926C242.85 402.037 239.356 399.472 236.025 397.339C228.29 392.387 222.082 390.819 217.551 382.502C202.108 373.184 170.025 377.613 152.925 381.509C146.635 378.13 139.286 377.448 132.254 377.184C129.303 375.173 123.276 372.075 119.87 374.426C115.619 379.885 122.5 380.57 126.229 380.308C134.317 379.737 143.564 381.446 149.701 387.117C158.931 383.749 164.042 383.567 173.721 385.244C193.942 388.746 206.869 396.213 218.754 412.642C202.716 402.173 171.772 385.81 152.62 392.734C141.262 385.153 133.41 385.241 120.703 382.093L116.407 385.358C124.152 388.329 128.3 391.607 132.469 398.652C126.505 395.85 115.71 389.217 110.787 384.897C113.401 389.171 121.806 396.353 125.86 399.84C120.812 397.707 109.539 391.085 107.421 385.042C107.121 384.184 109.021 384.823 110.336 383.417C110.105 374.949 88.0893 363.565 81.46 360.489C78.5103 359.121 74.4424 354.595 71.4 352.495C59.2386 344.103 47.2037 341.81 32.9469 339.844C26.5585 320.491 14.8529 324.008 0 317.958L0 301.426Z"/><path fill="#4D351F" transform="scale(1 0.714286)" d="M789 323.361L788.817 322.565C789.97 321.111 791.308 319.367 792.183 317.745C793.557 315.2 795.65 307.627 797.907 306.16C798.133 308.937 792.452 313.213 796.5 315.242C797.707 317.604 794.981 320.274 796.06 321.647C795.069 322.108 790.12 323.267 789 323.361Z"/><path fill="#5C0201" transform="scale(1 0.714286)" d="M780.411 308.834L781.05 308.776L781.562 308.123C783.487 309.504 784.116 307.807 786.771 309.298C784.736 312.763 777.613 324.438 775.404 327.298L772.573 328.922L773.383 326.766C773.71 326.406 774.846 325.16 774.88 324.715C775.31 319.074 778.619 314.077 780.411 308.834Z"/><path fill="#B3C8A1" transform="scale(1 0.714286)" d="M993.356 326.522C1003.91 317.014 1011.37 312.863 1024 306.962L1024 315.476C1012.25 321.31 1001.91 330.384 997.593 343.104C996.189 347.238 993.279 358.565 997.307 361.792C998.199 360.924 998.393 359 998.633 357.726C1000.8 346.183 1012.6 332.792 1024 329.404L1024 388.738C1002.05 393.304 974.478 404.463 958.04 420L952.692 420C965.339 407.227 987.597 398.11 1004.18 391.306C990.622 390.69 982.884 392.763 974.428 403.629C962.869 406.243 955.237 411.626 947.359 420L625.864 420C632.525 415.912 642.599 416.045 650.146 414.669C654.899 413.803 659.241 412.649 663.915 411.425C660.683 413.307 659.406 414.183 656.523 416.562C664.902 413.812 671.861 411.359 680.529 409.869L680.685 411.084C678.449 412.441 674.787 414.28 673.93 416.731L674.456 417.42C678.991 418.36 688.247 415.017 692.731 413.341C689.764 413.702 687.473 414.265 684.53 413.742C685.403 413.023 685.721 412.684 686.464 411.829C686.037 410.494 685.974 410.83 684.322 409.952L684.34 409.362C686.805 407.811 689.012 405.133 691.353 403.375C706.276 392.166 730.215 394.381 743.998 406.208C752.809 397.29 758.608 395.624 768.881 389.578C773.241 386.166 775.279 381.535 781.041 380.01C797.758 375.586 816.029 376.264 832.793 380.134C834.917 380.624 837.283 380.789 839.22 381.777C857.248 375.51 860.217 374.71 879.302 375.039C876.082 377.335 873.137 379.107 870.76 382.251C858.678 377.591 851.533 381.316 840.056 386.244C815.57 381.531 789.106 388.896 776.258 411.599C791.543 399.626 812.283 391.383 831.785 391.361C832.78 391.36 838.705 393.329 838.74 393.309C848.256 387.627 859.65 382.011 871.443 383.705C874.364 384.497 875.555 385.231 877.646 387.452C873.736 389.237 862.739 389.337 861.094 396.491L861.768 396.942C866.966 394.916 869.195 393.967 874.716 392.732L873.785 393.23C878.396 392.1 886.828 388.29 890.479 385.269L890.278 384.604C887.472 383.408 883.834 385.195 880.667 386.229C881.387 385.636 882.214 384.736 882.754 383.963C889.549 374.23 900.515 368.946 911.525 374.625C907.9 377.294 905.562 379.047 902.467 382.43C899.83 385.313 900.741 389.155 900.421 389.408C897.059 392.068 894.602 393.705 891.767 397.048C900.391 394.345 903.151 392.215 910.897 387.423C907.292 391.76 901.001 395.971 896.293 399.113C901.481 397.33 912.324 393.292 913.429 387.136C910.655 382.896 918.06 375.912 921.104 373.394C929.462 366.482 939.576 362.55 949.713 359.047C952.166 333.191 972.975 317.755 997.868 315.807C995.923 319.129 994.576 322.894 993.356 326.522ZM714.476 416.435C722.63 415.218 736.199 411.112 742.253 410.741L742.666 411.785L739.997 412.603C738.52 412.936 736.776 413.129 735.806 414.227L735.99 415.014C737.385 415.434 737.566 415.392 738.944 415.001L739.872 413.367L742.18 414.752C744.686 415.339 748.845 415.13 751.23 413.936L751.104 413.461C749.177 412.982 747.11 413.25 745.116 413.383L747.239 411.854C749.83 411.001 756.441 409.607 756.162 406.422C752.443 403.235 745.103 406.865 741.549 408.753C728.208 404.765 723.345 405.978 714.476 416.435ZM879.995 392.721C875.576 395.258 876.558 393.914 871.681 394.863C871.012 394.993 867.786 397.064 866.969 397.583C869.767 398.307 879.112 395.558 879.995 392.721Z"/><path fill="#E1EFD6" transform="scale(1 0.714286)" d="M899.501 321.302L898.146 322.062L897.727 321.654C898.095 317.343 905.616 313.345 909.276 312.049L911.719 312.306C909.195 313.93 906.449 316.263 904.32 318.369C902.562 320.108 901.563 320.016 899.501 321.302Z"/><path fill="#7D906E" transform="scale(1 0.714286)" d="M124.904 320.644C122.492 321.009 120.205 321.283 117.871 322.01C121.185 322.016 125.441 321.905 128.674 322.157C136.081 324.973 142.581 322.842 146.846 331.696C147.033 332.085 147.213 332.479 147.384 332.875C152.665 331.037 168.901 327.865 170.984 326.494L174.628 326.589C175.207 326.877 178.019 327.15 178.903 327.347C186.363 329.018 187.651 330.408 192.246 336.095C177.652 330.722 167.068 331.049 151.85 334.268C148.398 334.999 144.047 335.704 140.769 336.863C131.89 328.803 126.179 330.497 115.092 328.632C111.366 328.005 104.582 325.411 100.642 324.286C84.3754 319.643 72.0982 319.032 55.5236 322.52C77.042 312.203 85.6429 311.861 107.954 321.192C120.137 318.07 128.311 314.414 139.466 320.008C135.462 319.991 128.577 319.735 124.904 320.644Z"/><path fill="#E1EFD6" transform="scale(1 0.714286)" d="M1024 329.404C1012.6 332.792 1000.8 346.183 998.633 357.726C998.393 359 998.199 360.924 997.307 361.792C993.279 358.565 996.189 347.238 997.593 343.104C1001.91 330.384 1012.25 321.31 1024 315.476L1024 329.404Z"/><path fill="#050301" transform="scale(1 0.714286)" d="M323.129 314.832C326.282 317.839 331.108 323.593 334.082 327.028C335.262 330.166 338.019 333.594 339.981 336.365C345.073 343.556 352.155 344.576 359.749 347.682C355.546 344.283 350.833 340.662 347.021 336.88C348.71 337.913 356.598 343.386 357.496 343.725L358.13 343.362C361.735 345.876 369.003 352.527 372.223 355.673C364.763 351.864 357.401 349.278 349.429 346.793C342.194 344.536 339.382 339.285 335.219 333.476C330.921 327.478 326.277 321.54 323.129 314.832Z"/><path fill="#B3C8A1" transform="scale(1 0.714286)" d="M0 317.958C14.8529 324.008 26.5585 320.491 32.9469 339.844C47.2037 341.81 59.2386 344.103 71.4 352.495C74.4424 354.595 78.5103 359.121 81.46 360.489C88.0893 363.565 110.105 374.949 110.336 383.417C109.021 384.823 107.121 384.184 107.421 385.042C109.539 391.085 120.812 397.707 125.86 399.84C121.806 396.353 113.401 389.171 110.787 384.897C115.71 389.217 126.505 395.85 132.469 398.652C128.3 391.607 124.152 388.329 116.407 385.358L120.703 382.093C133.41 385.241 141.262 385.153 152.62 392.734C171.772 385.81 202.716 402.173 218.754 412.642C206.869 396.213 193.942 388.746 173.721 385.244C164.042 383.567 158.931 383.749 149.701 387.117C143.564 381.446 134.317 379.737 126.229 380.308C122.5 380.57 115.619 379.885 119.87 374.426C123.276 372.075 129.303 375.173 132.254 377.184C139.286 377.448 146.635 378.13 152.925 381.509C170.025 377.613 202.108 373.184 217.551 382.502C222.082 390.819 228.29 392.387 236.025 397.339C239.356 399.472 242.85 402.037 246.259 403.926C252.424 403.918 259.086 403.79 265.189 404.243C277.105 406.193 286.393 409.414 297.418 414.099C299.747 415.089 303.267 416.686 305.487 415.152C305.638 405.572 282.67 404.944 276.289 405.234C274.532 405.314 268.61 403.185 266.087 402.71C269.59 398.781 272.922 401.609 274.451 401.256C285.781 398.638 298.914 393.102 310.326 398.19C313.56 399.632 314.771 402.191 316.669 404.979C316.187 403.664 315.626 402.211 315.049 400.942C308.137 385.743 282.508 392.407 271.553 398.904C268.799 397.603 264.08 396.508 261.978 395.484C260.633 394.828 256.344 388.795 254.571 387.14C243.923 377.197 233.304 373.771 219.771 370.512C226.563 368.866 240.841 375.44 246.669 378.98C253.322 383.021 257.592 387.751 262.278 393.874C263.75 392.446 263.39 389.822 267.298 388.111C272.501 385.646 280.047 387.776 285.353 386.601C295.032 384.456 304.979 383.99 314.621 382.373C330.296 379.744 350.545 374.947 365.496 382.545C366.088 381.51 365.745 381.188 365.483 379.734C368.623 381.295 375.035 384.04 377.552 379.656C376.459 376.855 369.531 376.807 366.803 374.695L366.886 373.885C378.141 367.345 387.354 378.972 395.611 384.076C398.571 385.906 403.788 385.514 407.099 386.721C412.932 388.965 418.524 391.984 424.588 393.612C428.485 394.658 434.28 393.879 437.948 394.472C447.139 395.958 450.018 399.317 459.757 396.981C465.288 395.655 476.557 402.122 481.539 405.067C476.974 405.107 461.348 405.466 457.793 404.575C458.83 404.505 459.867 404.429 460.904 404.345L461.517 403.575C458.8 397.8 435.935 398.779 430.161 399.959C421.9 393.537 403.935 388.952 393.628 388.94C383.985 380.626 370.68 382.735 359.766 386.768C358.113 387.379 357.538 387.754 356.874 389.284C359.086 388.997 361.632 391.183 363.102 390.95C368.621 390.075 371.981 389.001 377.685 388.882C382.983 387.701 387.839 392.118 391.948 392.533C399.419 393.287 406.6 393.878 413.978 395.906C418.739 397.215 424.137 397.779 427.341 402.203C428.155 403.328 428.266 403.59 428.028 404.84C426.152 405.771 414.607 402.16 410.83 401.653C404.108 400.768 397.311 400.611 390.556 401.184C381.787 396.497 375.121 396.136 365.377 395.478C364.277 395.404 359.665 390.121 357.566 390.047C342.243 383.845 328.557 383.53 312.728 387.557C311.511 387.867 304.775 390.024 304.221 390.727L304.381 391.265L304.58 391.314C308.345 392.275 311.469 394.511 314.591 395.454C318.041 396.496 318.193 394.496 322.909 397.329C328.39 400.621 333.108 405.184 339.039 407.427C345.392 409.283 351.671 411.053 358.077 412.604C370.209 413.768 384.748 414.022 396.028 420L352.927 420C350.285 418.164 339.943 411.3 337.186 412.484L337.067 413.525C338.295 416.713 339.751 417.92 342.304 420L77.5451 420C72.6991 415.423 67.4338 411.215 61.5622 408.18C54.008 404.277 50.167 405.082 44.4081 398.7C38.3533 391.991 26.4619 391.103 17.7219 390.892C28.9581 394.427 39.5856 400.184 50.2138 405.164C58.3508 408.976 64.7246 413.953 71.231 420L65.8023 420C49.8903 404.621 21.455 393.604 0 388.778L0 339.24C18.2303 343.877 20.5776 346.048 34.5321 357.599L35.1651 357.368C35.181 355.927 33.7818 353.472 32.8598 352.347C23.999 341.539 13.2652 336.651 0 334.595L0 317.958ZM237.337 404.152C238.948 406.855 246.625 410.011 249.841 410.676C262.55 413.303 269.157 411.136 282.151 415.548C276.943 408.943 261.52 408.704 253.611 406.844C249.974 405.988 241.788 404.064 238.262 404.12L237.922 404.123C237.727 404.133 237.532 404.142 237.337 404.152ZM235.736 406.979C239.231 410.89 245.961 413.682 250.944 415.068C246.398 411.462 241.726 407.631 235.736 406.979Z"/><path fill="#050301" transform="scale(1 0.714286)" d="M766.364 319.669C765.909 322.398 764.332 323.405 763.754 325.59C762.095 327.792 759.937 329.574 757.882 331.424C760.585 326.969 763.167 323.764 766.364 319.669Z"/><path fill="#A6B8A6" transform="scale(1 0.714286)" d="M117.871 322.01C120.205 321.283 122.492 321.009 124.904 320.644C126.27 321.639 127.457 321.558 129.166 321.68L128.674 322.157C125.441 321.905 121.185 322.016 117.871 322.01Z"/><path fill="#4D351F" transform="scale(1 0.714286)" d="M523.254 325.585C525.045 324.736 525.478 324.198 527.509 324.957C531.994 326.632 535.949 329.213 540.338 331.175L540.971 331.408L541.106 331.512C544.47 334.076 555.05 338.897 559.741 341.836C556.265 341.114 549.404 337.086 547.523 336.715C542.02 333.942 531.858 327.905 525.735 325.657C525.085 325.815 524.537 325.949 524.092 326.057L523.254 325.585Z"/><path fill="#5C0201" transform="scale(1 0.714286)" d="M334.082 327.028C336.53 328.794 339.029 331.776 341.105 334.068C339.333 331.19 336.801 327.245 335.415 324.211C339.41 326.887 358.523 338.941 359.837 342.157L359.629 342.632L358.596 342.329L358.13 343.362L357.496 343.725C356.598 343.386 348.71 337.913 347.021 336.88C350.833 340.662 355.546 344.283 359.749 347.682C352.155 344.576 345.073 343.556 339.981 336.365C338.019 333.594 335.262 330.166 334.082 327.028Z"/><path fill="#D37C3B" transform="scale(1 0.714286)" d="M678.828 331.399L684.043 326.435L684.51 326.515L685.055 325.844L684.42 326.242C684.252 327.533 681.563 330.778 680.597 332.089L678.828 331.399Z"/><path fill="#050301" transform="scale(1 0.714286)" d="M495.648 338.347C496.689 338.729 497.708 338.948 498.783 339.208C502.927 338.485 519.022 328.39 523.254 325.585L524.092 326.057C519.844 329.092 511.59 333.546 506.663 336.352C497.766 341.417 488.525 346.95 479.544 351.775L479.007 351.039L483.004 348.658C485.567 346.981 496.48 341.549 497.365 339.932L495.648 338.347Z"/><path fill="#F7AF05" transform="scale(1 0.714286)" d="M524.092 326.057C524.537 325.949 525.085 325.815 525.735 325.657C531.858 327.905 542.02 333.942 547.523 336.715C543.235 337.396 535.719 332.477 530.486 332.241L528.628 331.594L528.634 332.068C548.008 348.638 574.107 357.77 597.374 366.835L598.724 368.867C598.045 369.184 596.518 369.844 595.95 370.197C593.874 369 584.628 366.326 581.799 365.453L581.284 365.802L582.059 367.4L581.828 367.816C572.241 364.577 556.796 353.694 549.09 351.611C547.487 350.131 545.95 348.4 543.87 347.884L542.928 348.254C541.794 351.409 547.984 358.811 550.251 360.914C552.417 363.289 555.775 365.779 558.359 367.822C553.266 365.421 550.584 363.286 546.152 360.144C541.252 356.669 527.235 336.644 521.162 343.62C519.233 350.14 527.034 354.252 531.204 357.69C544.674 368.795 559.773 374.773 574.946 382.855C571.325 384.4 568.549 385.911 565.483 388.451C559.872 388.477 558.993 388.814 553.649 389.732C549.157 389.497 545.342 384.94 543.522 385.122L543.634 387.64L543.003 387.919C538.864 385.916 534.865 381.977 530.19 379.585C528.486 379.734 528.858 379.88 527.331 381.429C522.44 381.869 506.212 363.147 503.018 361.147C497.226 361.094 489.075 369.3 483.055 372.674C482.177 367.98 481.478 365.399 479.842 360.922C474.039 363.534 468.438 367.458 463.087 370.971C462.487 370.145 461.261 368.304 460.317 368.126C452.771 366.707 443.563 371.079 437.508 374.548C435.337 375.804 434.514 376.342 432.536 377.905C427.433 366.067 415.769 365.652 404.885 368.72C402.596 369.365 402.909 369.23 401.002 368.071C407.116 365.854 412.899 362.811 418.188 359.026C413.803 359.198 384 363.045 379.838 364.51C379.254 364.443 378.711 364.174 378.16 363.95C379.015 362.958 414.555 349.533 419.175 347.366C430.028 343.947 452.418 334.799 462.546 329.985C465.439 332.92 467.962 335.031 471.098 337.657C459.146 341.227 450.604 344.782 439.425 350.098C437.401 351.06 429.681 353.996 428.467 355.05C425.886 357.292 427.214 357.94 422.957 361.046C432.706 357.753 441.397 354.788 451.931 354.931L450.808 360.149C457.694 355.93 475.098 348.125 483.004 348.658L479.007 351.039C476.645 352.31 464.658 358.331 463.505 359.528C467.311 358.446 475.921 353.898 479.544 351.775C488.525 346.95 497.766 341.417 506.663 336.352C511.59 333.546 519.844 329.092 524.092 326.057Z"/><path fill="#7D906E" transform="scale(1 0.714286)" d="M869.429 344.957C873.112 332 887.264 327.497 899.4 326.193C902.692 325.823 907.916 326.133 911.368 326.238C899.211 328.764 886.29 330.926 876.235 338.604C873.949 340.208 871.448 342.912 869.429 344.957Z"/><path fill="#F7AF05" transform="scale(1 0.714286)" d="M543.06 330.874C543.719 330.557 546.336 329.198 546.916 329.486C562.39 337.172 577.719 344.899 593.924 350.986C595.929 351.739 600.601 353.384 602.342 354.363C604.463 357.002 612.535 360.001 615.831 361.259C599.731 360.251 595.685 357.029 581.917 349.981C572.778 345.318 563.601 340.73 554.386 336.217C553.116 335.594 543.344 331.195 543.06 330.874Z"/><path fill="#B38C02" transform="scale(1 0.714286)" d="M540.971 331.408L543.06 330.874C543.344 331.195 553.116 335.594 554.386 336.217C563.601 340.73 572.778 345.318 581.917 349.981C595.685 357.029 599.731 360.251 615.831 361.259C612.535 360.001 604.463 357.002 602.342 354.363C603.586 354.41 606.647 354.371 607.592 354.866C609.14 358.163 625.828 359.954 629.765 361.747C631.273 362.433 637.857 364.49 639.452 364.646L639.427 365.496C634.389 365.451 626.455 365.68 622.967 370.024L622.968 370.032C615.973 366.049 605.912 364.285 598.724 368.867L597.374 366.835C597.135 365.966 595.258 364.433 594.517 363.681C585.092 354.099 571.626 353.484 561.038 348.925C553.186 345.545 537.549 337.059 530.486 332.241C535.719 332.477 543.235 337.396 547.523 336.715C549.404 337.086 556.265 341.114 559.741 341.836C555.05 338.897 544.47 334.076 541.106 331.512L540.971 331.408Z"/><path fill="#F7AF05" transform="scale(1 0.714286)" d="M468.089 331.014C471.929 332.011 475.866 332.978 479.637 334.191C484.477 335.633 490.818 337.345 495.45 339.036C493.321 340.042 491.44 340.961 489.214 341.758C485.857 340.912 472.982 338.7 471.763 337.224C470.546 334.633 469.691 333.381 468.089 331.014Z"/><path fill="#050301" transform="scale(1 0.714286)" d="M597.374 366.835C574.107 357.77 548.008 348.638 528.634 332.068L528.628 331.594L530.486 332.241C537.549 337.059 553.186 345.545 561.038 348.925C571.626 353.484 585.092 354.099 594.517 363.681C595.258 364.433 597.135 365.966 597.374 366.835Z"/><path fill="#B38C02" transform="scale(1 0.714286)" d="M480.677 333.608C483.945 334.513 492.87 336.905 495.648 338.347L497.365 339.932C496.48 341.549 485.567 346.981 483.004 348.658C475.098 348.125 457.694 355.93 450.808 360.149L451.931 354.931C441.397 354.788 432.706 357.753 422.957 361.046C427.214 357.94 425.886 357.292 428.467 355.05C429.681 353.996 437.401 351.06 439.425 350.098C450.604 344.782 459.146 341.227 471.098 337.657L471.763 337.224C472.982 338.7 485.857 340.912 489.214 341.758C491.44 340.961 493.321 340.042 495.45 339.036C490.818 337.345 484.477 335.633 479.637 334.191L480.677 333.608Z"/><path fill="#E1EFD6" transform="scale(1 0.714286)" d="M0 334.595C13.2652 336.651 23.999 341.539 32.8598 352.347C33.7818 353.472 35.181 355.927 35.1651 357.368L34.5321 357.599C20.5776 346.048 18.2303 343.877 0 339.24L0 334.595Z"/><path fill="#7D906E" transform="scale(1 0.714286)" d="M117.455 351.405C136.022 348.539 146.88 337.399 162.775 335.152C164.959 334.843 167.818 335.068 170.072 335.162C151.62 342.466 147.453 351.612 126.078 354.174C123.212 353.415 120.276 352.362 117.455 351.405Z"/><path fill="#7D906E" transform="scale(1 0.714286)" d="M912.927 343.439C910.356 344.954 903.17 344.514 899.918 345.425C882.064 350.422 865.037 356.476 850.836 369.044C848.368 371.228 844.911 373.332 843.404 376.216C841.313 376.928 834.992 373.395 831.644 372.555C802.123 365.148 765.446 365.869 739.796 384.034C737.572 384.86 736.544 386.09 734.872 387.73C728.974 384.965 722.08 379.911 715.424 380.062C710.697 380.168 711.677 383.282 710.48 385.437C710.025 386.257 703.976 384.66 702.607 384.357C697.362 383.195 691.15 381.389 685.777 381.218C678.27 380.98 670.837 381.496 663.202 381.407C675.332 375.47 685.598 375.215 698.157 378.996C696.913 377.108 695.611 375.215 694.345 373.338C704.681 371.367 706.88 372.164 717.21 374.524C723.997 365.117 739.877 364.052 750.059 367.589C759.987 357.538 773.061 358.591 785.923 360.995C796.883 347.792 809.58 343.953 826.133 349.403C816.423 351.555 813.125 353.109 805.65 359.5C808.307 358.381 810.707 357.01 813.516 355.952C824.887 351.727 836.973 349.76 849.097 350.163C838.575 353.802 835.363 352.068 825.924 360.211C830.473 358.582 835.21 356.469 839.724 355.025C841.907 354.328 845.563 355.12 848.534 354.17C848.836 353.158 849.161 352.152 849.508 351.155C851.898 344.399 864.285 344.119 870.119 346.245L870.677 347.983C874.858 343.48 877.171 341.15 882.719 338.608C895.303 332.844 900.512 337.828 912.431 342.339L912.927 343.439Z"/><path fill="#F7AF05" transform="scale(1 0.714286)" d="M605.027 352.256C598.861 350.238 592.357 348.108 586.276 345.877C590.365 343.386 595.578 340.409 599.286 337.524C611.548 344.517 634.364 353.526 648.01 358.459C645.776 360.362 642.074 363.755 639.452 364.646C637.857 364.49 631.273 362.433 629.765 361.747C625.828 359.954 609.14 358.163 607.592 354.866C611.82 355.599 627.887 359.985 630.028 359.903L630.421 359.199C627.604 352.341 610.89 347.963 603.892 342.343L603.676 342.168L602.75 343.097C601.589 346.362 603.829 348.522 604.932 351.955L605.027 352.256Z"/><path fill="#B38C02" transform="scale(1 0.714286)" d="M549.09 351.611C556.796 353.694 572.241 364.577 581.828 367.816L582.059 367.4L581.284 365.802L581.799 365.453C584.628 366.326 593.874 369 595.95 370.197C593.11 373.373 591.81 377.286 593.355 381.479C586.456 381.068 581.543 380.868 574.946 382.855C559.773 374.773 544.674 368.795 531.204 357.69C527.034 354.252 519.233 350.14 521.162 343.62C527.235 336.644 541.252 356.669 546.152 360.144C550.584 363.286 553.266 365.421 558.359 367.822C555.775 365.779 552.417 363.289 550.251 360.914C549.446 358.518 547.466 356.202 545.92 354.14C551.658 359.612 555.297 361.665 561.995 365.707C557.666 360.632 552.971 357.65 549.09 351.611Z"/><path fill="#B38C02" transform="scale(1 0.714286)" d="M605.027 352.256L604.932 351.955C603.829 348.522 601.589 346.362 602.75 343.097L603.676 342.168L603.892 342.343C610.89 347.963 627.604 352.341 630.421 359.199C622.538 358.652 620.603 354.601 613.71 352.021C611.309 351.122 610.883 351.827 608.943 352.807C607.416 353.578 606.616 352.884 605.027 352.256Z"/><path fill="#050301" transform="scale(1 0.714286)" d="M550.251 360.914C547.984 358.811 541.794 351.409 542.928 348.254L543.87 347.884C545.95 348.4 547.487 350.131 549.09 351.611C552.971 357.65 557.666 360.632 561.995 365.707C555.297 361.665 551.658 359.612 545.92 354.14C547.466 356.202 549.446 358.518 550.251 360.914Z"/><path fill="#4D351F" transform="scale(1 0.714286)" d="M479.544 351.775C475.921 353.898 467.311 358.446 463.505 359.528C464.658 358.331 476.645 352.31 479.007 351.039L479.544 351.775Z"/><path fill="#E1EFD6" transform="scale(1 0.714286)" d="M274.143 364.217C272.741 365.59 266.291 362.761 263.92 362.43C256.353 361.374 234.274 365.154 233.442 353.799C238.693 354.969 244.857 359.351 249.947 359.792C254.45 360.182 260.573 357.917 265.509 359.029C269.101 359.838 271.977 361.188 274.143 364.217Z"/><path fill="#B38C02" transform="scale(1 0.714286)" d="M379.838 364.51C384 363.045 413.803 359.198 418.188 359.026C412.899 362.811 407.116 365.854 401.002 368.071C397.385 366.769 392.363 366.067 388.484 365.395C387.354 364.727 381.719 364.659 379.838 364.51Z"/><path fill="#7D906E" transform="scale(1 0.714286)" d="M136.918 363.162C141.116 359.758 144.616 359.943 149.71 359.987C154.133 362.276 156.436 364.745 160.473 367.518C162.049 368.6 163.479 368.731 164.803 369.83L164.552 370.932L164.098 371.434C161.692 371.68 158.341 372.614 155.964 373.199C154.06 373.668 151.033 376.073 149.869 375.739C146.397 374.744 143.854 371.197 142.168 368.191C143.861 368.169 148.148 370.39 149.931 371.215L154.957 369.467C147.75 365.263 145.955 367.073 139.021 365.218L136.918 363.162Z"/><path fill="#B38C02" transform="scale(1 0.714286)" d="M437.508 374.548C443.563 371.079 452.771 366.707 460.317 368.126C461.261 368.304 462.487 370.145 463.087 370.971C468.438 367.458 474.039 363.534 479.842 360.922C481.478 365.399 482.177 367.98 483.055 372.674C489.075 369.3 497.226 361.094 503.018 361.147C506.212 363.147 522.44 381.869 527.331 381.429C528.858 379.88 528.486 379.734 530.19 379.585C534.865 381.977 538.864 385.916 543.003 387.919L543.634 387.64L543.522 385.122C545.342 384.94 549.157 389.497 553.649 389.732C548.767 391.691 545.597 392.952 542.009 396.948C535.655 397.15 534.229 397.206 528.445 399.561C522.606 393.844 514.141 389.149 505.793 390.532C503.481 386.95 497.904 373.76 492.272 380.065C488.416 384.382 486.64 387.069 480.304 386.701C477.453 385.352 477.065 376.849 475.23 374.701C472.126 371.066 459.313 378.723 453.393 377.785C452.24 376.857 452.062 375.158 451.723 373.67C447.149 374.763 442.463 374.938 437.788 375.145L437.508 374.548Z"/><path fill="#7D906E" transform="scale(1 0.714286)" d="M212.703 369.501L212.533 369.428C208.855 367.884 203.782 368.707 199.139 367.928C199.614 367.196 205.399 365.563 206.457 365.203C208.922 364.364 215.179 366.274 217.016 365.997C221.186 365.366 224.86 364.664 229.223 364.174C242.753 362.655 265.529 366.751 277.287 374.032C279.157 370.804 280.805 368.033 284.904 367.158C293.14 365.4 304.53 369.69 311.958 372.917C315.292 374.366 320.392 377.103 323.647 377.533C329.27 378.276 335.95 376.775 341.703 376.542C348.502 376.265 353.633 376.941 360.209 377.859C362.439 378.168 363.488 378.777 365.483 379.734C365.745 381.188 366.088 381.51 365.496 382.545C350.545 374.947 330.296 379.744 314.621 382.373C304.979 383.99 295.032 384.456 285.353 386.601C280.047 387.776 272.501 385.646 267.298 388.111C263.39 389.822 263.75 392.446 262.278 393.874C257.592 387.751 253.322 383.021 246.669 378.98C240.841 375.44 226.563 368.866 219.771 370.512C216.971 369.495 215.657 369.571 212.703 369.501ZM230.649 367.207C228.284 367.465 225.316 367.696 223.049 368.243C230.201 370.05 235.059 369.509 242.258 369.888C250.595 370.328 260.917 373.265 268.641 376.719C270.081 377.226 271.284 377.921 272.616 377.661C272.579 370.344 238.352 365.963 230.649 367.207Z"/><path fill="#B3C8A1" transform="scale(1 0.714286)" d="M139.021 365.218C145.955 367.073 147.75 365.263 154.957 369.467L149.931 371.215C148.148 370.39 143.861 368.169 142.168 368.191C141.243 367.773 139.797 366.05 139.021 365.218Z"/><path fill="#B3C8A1" transform="scale(1 0.714286)" d="M223.049 368.243C225.316 367.696 228.284 367.465 230.649 367.207C238.352 365.963 272.579 370.344 272.616 377.661C271.284 377.921 270.081 377.226 268.641 376.719C260.917 373.265 250.595 370.328 242.258 369.888C235.059 369.509 230.201 370.05 223.049 368.243Z"/><path fill="#F7AF05" transform="scale(1 0.714286)" d="M437.788 375.145C442.463 374.938 447.149 374.763 451.723 373.67C452.062 375.158 452.24 376.857 453.393 377.785C459.313 378.723 472.126 371.066 475.23 374.701C477.065 376.849 477.453 385.352 480.304 386.701C486.64 387.069 488.416 384.382 492.272 380.065C497.904 373.76 503.481 386.95 505.793 390.532C514.141 389.149 522.606 393.844 528.445 399.561C526.352 401.363 525.288 402.437 524.144 405.088C516.621 405.14 508.601 405.058 501.133 405.531L500.839 405.05C496.633 397.79 491.951 397.296 484.321 396.976C478.823 389.849 471.038 388.415 462.569 388.299C457.257 381.412 448.521 380.452 440.594 381.834C436.929 382.473 436.648 380.49 433.51 378.186C434.711 377.062 435.986 377.053 437.788 375.145Z"/><path fill="#E19C08" transform="scale(1 0.714286)" d="M432.536 377.905C434.514 376.342 435.337 375.804 437.508 374.548L437.788 375.145C435.986 377.053 434.711 377.062 433.51 378.186L432.536 377.905Z"/><path fill="#7D906E" transform="scale(1 0.714286)" d="M390.556 401.184C397.311 400.611 404.108 400.768 410.83 401.653C414.607 402.16 426.152 405.771 428.028 404.84C428.266 403.59 428.155 403.328 427.341 402.203C424.137 397.779 418.739 397.215 413.978 395.906C406.6 393.878 399.419 393.287 391.948 392.533C387.839 392.118 382.983 387.701 377.685 388.882C371.981 389.001 368.621 390.075 363.102 390.95C361.632 391.183 359.086 388.997 356.874 389.284C357.538 387.754 358.113 387.379 359.766 386.768C370.68 382.735 383.985 380.626 393.628 388.94C403.935 388.952 421.9 393.537 430.161 399.959C435.935 398.779 458.8 397.8 461.517 403.575L460.904 404.345C459.867 404.429 458.83 404.505 457.793 404.575C449.525 404.321 438.131 406.759 431.704 412.349C420.008 404.024 406.6 405.018 393.58 404.524C392.956 403.55 391.424 402.076 390.556 401.184Z"/><path fill="#7D906E" transform="scale(1 0.714286)" d="M629.489 385.77C636.208 384.541 663.658 382.177 667.753 387.386C666.849 387.336 666.445 387.269 665.564 387.448L665.3 389.236C664.176 389.984 646.421 388.588 642.766 389.023C631.806 390.324 622.762 392.486 612.329 396.097C608.52 397.415 594.208 394.725 590.709 399.792C595.393 405.517 635.281 396.176 642.34 394.398C644.261 393.914 644.658 394.187 646.162 395.395C641.851 394.941 636.37 397.88 633.05 400.562C631.687 401.671 630.337 402.797 629.001 403.939L628.772 403.885C622.626 402.507 607.025 403.601 601.785 407.357C599.539 408.966 596.009 411.827 593.631 413.658C585.234 405.999 576.371 404.868 565.495 404.227C562.273 404.036 558.171 403.481 555.035 403.618L554.693 403.635C552.537 403.703 550.084 403.968 548.129 403.151L549.395 402.922C553.842 402.839 558.871 402.003 563.391 401.671C572.186 401.025 580.732 401.199 588.985 397.626C590.648 397.071 592.563 395.358 594.092 394.765C596.378 393.879 596.801 393.816 598.834 392.417C601.105 392.39 610.261 390.886 612.487 390.281C619.098 388.484 621.899 386.096 629.026 386.377L629.489 385.77Z"/><path fill="#7D906E" transform="scale(1 0.714286)" d="M0 388.778C21.455 393.604 49.8903 404.621 65.8023 420L0 420L0 396.112C9.15819 397.703 14.9762 398.95 23.4584 403.076C27.7595 405.169 36.9449 412.855 40.5277 412.973L40.9298 412.3C36.4011 401.653 10.1601 395.536 0 393.799L0 388.778Z"/><path fill="#7D906E" transform="scale(1 0.714286)" d="M958.04 420C974.478 404.463 1002.05 393.304 1024 388.738L1024 393.839C1010.49 395.871 991.495 400.871 982.936 412.394C982.307 413.246 981.699 414.114 981.113 414.996C986.739 412.389 990.807 409.19 996.024 405.919C1005.23 400.144 1013.43 397.661 1024 396.352L1024 420L958.04 420Z"/><path fill="#7D906E" transform="scale(1 0.714286)" d="M71.231 420C64.7246 413.953 58.3508 408.976 50.2138 405.164C39.5856 400.184 28.9581 394.427 17.7219 390.892C26.4619 391.103 38.3533 391.991 44.4081 398.7C50.167 405.082 54.008 404.277 61.5622 408.18C67.4338 411.215 72.6991 415.423 77.5451 420L71.231 420Z"/><path fill="#7D906E" transform="scale(1 0.714286)" d="M947.359 420C955.237 411.626 962.869 406.243 974.428 403.629C982.884 392.763 990.622 390.69 1004.18 391.306C987.597 398.11 965.339 407.227 952.692 420L947.359 420Z"/><path fill="#B3C8A1" transform="scale(1 0.714286)" d="M598.834 392.417C596.801 393.816 596.378 393.879 594.092 394.765C592.563 395.358 590.648 397.071 588.985 397.626C580.732 401.199 572.186 401.025 563.391 401.671C558.871 402.003 553.842 402.839 549.395 402.922C553.885 396.699 565.191 397.886 571.772 398.49C574.182 395.543 585.639 396.089 589.527 394.361C591.433 393.514 596.825 391.994 598.834 392.417Z"/><path fill="#E1EFD6" transform="scale(1 0.714286)" d="M866.969 397.583C867.786 397.064 871.012 394.993 871.681 394.863C876.558 393.914 875.576 395.258 879.995 392.721C879.112 395.558 869.767 398.307 866.969 397.583Z"/><path fill="#B3C8A1" transform="scale(1 0.714286)" d="M0 393.799C10.1601 395.536 36.4011 401.653 40.9298 412.3L40.5277 412.973C36.9449 412.855 27.7595 405.169 23.4584 403.076C14.9762 398.95 9.15819 397.703 0 396.112L0 393.799Z"/><path fill="#B3C8A1" transform="scale(1 0.714286)" d="M981.113 414.996C981.699 414.114 982.307 413.246 982.936 412.394C991.495 400.871 1010.49 395.871 1024 393.839L1024 396.352C1013.43 397.661 1005.23 400.144 996.024 405.919C990.807 409.19 986.739 412.389 981.113 414.996Z"/><path fill="#B3C8A1" transform="scale(1 0.714286)" d="M379.615 408.833C376.087 409.351 371.069 410.487 367.799 410.501L367.988 408.932C365.014 405.42 357.002 408.29 354.042 404.003L354.362 402.866C355.964 401.605 356.848 401.522 358.864 401.057C365.941 400.421 380.786 403.176 386.841 407.711L379.615 408.833Z"/><path fill="#B3C8A1" transform="scale(1 0.714286)" d="M652.75 407.858C650.092 408.272 644.177 409.641 642.247 407.425L642.808 406.421C647.168 403.29 653.128 402.081 658.384 401.698C662.163 401.369 667.917 401.925 671.848 402.187C666.041 405.795 659.382 406.745 652.75 407.858Z"/><path fill="#E1EFD6" transform="scale(1 0.714286)" d="M266.087 402.71C268.61 403.185 274.532 405.314 276.289 405.234C282.67 404.944 305.638 405.572 305.487 415.152C303.267 416.686 299.747 415.089 297.418 414.099C286.393 409.414 277.105 406.193 265.189 404.243L266.087 402.71Z"/><path fill="#9CAE88" transform="scale(1 0.714286)" d="M537.067 404.039C540.595 403.813 544.674 403.649 548.129 403.151C550.084 403.968 552.537 403.703 554.693 403.635C551.759 404.38 538.425 404.813 534.413 405.138L537.067 404.039Z"/><path fill="#E1EFD6" transform="scale(1 0.714286)" d="M282.151 415.548C269.157 411.136 262.55 413.303 249.841 410.676C246.625 410.011 238.948 406.855 237.337 404.152C237.532 404.142 237.727 404.133 237.922 404.123L238.262 404.12C241.788 404.064 249.974 405.988 253.611 406.844C261.52 408.704 276.943 408.943 282.151 415.548Z"/><path fill="#857870" transform="scale(1 0.714286)" d="M534.413 405.138C533.248 405.104 529.636 405.147 528.895 404.489C531.654 403.86 534.245 404.008 537.067 404.039L534.413 405.138Z"/><path fill="#9CAE88" transform="scale(1 0.714286)" d="M501.133 405.531C498.669 406.3 492.264 405.963 489.622 405.678C493.341 404.82 497.032 405.013 500.839 405.05L501.133 405.531Z"/><path fill="#E1EFD6" transform="scale(1 0.714286)" d="M742.253 410.741C736.199 411.112 722.63 415.218 714.476 416.435C723.345 405.978 728.208 404.765 741.549 408.753C745.103 406.865 752.443 403.235 756.162 406.422C756.441 409.607 749.83 411.001 747.239 411.854L746.142 411.204L746.188 410.364C744.979 409.955 743.649 410.459 742.253 410.741Z"/><path fill="#E1EFD6" transform="scale(1 0.714286)" d="M250.944 415.068C245.961 413.682 239.231 410.89 235.736 406.979C241.726 407.631 246.398 411.462 250.944 415.068Z"/><path fill="#A6B8A6" transform="scale(1 0.714286)" d="M680.529 409.869C681.989 409.528 682.845 409.473 684.34 409.362L684.322 409.952C683.509 410.2 681.36 410.795 680.685 411.084L680.529 409.869Z"/><path fill="#E1EFD6" transform="scale(1 0.714286)" d="M680.685 411.084C681.36 410.795 683.509 410.2 684.322 409.952C685.974 410.83 686.037 410.494 686.464 411.829C685.721 412.684 685.403 413.023 684.53 413.742C687.473 414.265 689.764 413.702 692.731 413.341C688.247 415.017 678.991 418.36 674.456 417.42L673.93 416.731C674.787 414.28 678.449 412.441 680.685 411.084Z"/><path fill="#A6B8A6" transform="scale(1 0.714286)" d="M742.253 410.741C743.649 410.459 744.979 409.955 746.188 410.364L746.142 411.204C745.154 410.908 743.748 411.48 742.666 411.785L742.253 410.741Z"/><path fill="#E1EFD6" transform="scale(1 0.714286)" d="M742.666 411.785C743.748 411.48 745.154 410.908 746.142 411.204L747.239 411.854L745.116 413.383C747.11 413.25 749.177 412.982 751.104 413.461L751.23 413.936C748.845 415.13 744.686 415.339 742.18 414.752L739.872 413.367L739.997 412.603L742.666 411.785Z"/><path fill="#E1EFD6" transform="scale(1 0.714286)" d="M342.304 420C339.751 417.92 338.295 416.713 337.067 413.525L337.186 412.484C339.943 411.3 350.285 418.164 352.927 420L342.304 420Z"/><path fill="#E1EFD6" transform="scale(1 0.714286)" d="M739.872 413.367L738.944 415.001C737.566 415.392 737.385 415.434 735.99 415.014L735.806 414.227C736.776 413.129 738.52 412.936 739.997 412.603L739.872 413.367Z"/></svg>