<svg width="1024" height="300" xmlns="http://www.w3.org/2000/svg">
 <defs>
  <linearGradient y2="0.76766" x2="0.24632" y1="0.23651" x1="0.74294" id="gradient_0">
   <stop stop-color="#5C8FA2" offset="0"/>
   <stop stop-color="#80AFC5" offset="1"/>
  </linearGradient>
 </defs>
 <g>
  <title>Layer 1</title>
  <path id="svg_52" d="m1907.93,304.592c3.18,-1.809 4.01,-2.499 7.69,-2.629l0,0.9c-2.23,24.033 -4.64,47.462 7.15,70.099c0.44,-12.367 2.23,-24.298 4.42,-36.465c2.09,8.47 6.56,26.9 10.19,34.411l1,0.343c1.22,-2.336 1.57,-3.747 2.3,-6.221c4.74,0.949 14.66,27.449 16.86,33.235c14.38,37.813 29.9,74.372 49.16,109.983c3.86,7.128 6.13,18.724 10.41,25.192l-0.72,4.421c-11.64,-15.203 -23.7,-30.525 -34.72,-46.176c-4.97,-7.067 -8.7,-15.717 -13.07,-23.344c2.52,14.402 3.52,21.899 2.49,36.394c-1.95,20.451 -4.38,40.852 -7.3,61.186c-2.68,-12.727 -14.7,-43.849 -19.44,-57.466c-1.27,20.087 2.7,49.667 3.02,71.5c-14.28,-27.724 -29.53,-75.979 -61.52,-88.188c-10.3,2.056 -20.42,4.942 -30.52,7.809c-0.6,-26.582 0.83,-56.548 1.56,-83.478c-3.21,1.418 -25.6,23.153 -30.58,27.407c-29.83,25.436 -63.64,47.415 -94,71.563c3.28,-7.478 11.16,-15.085 15.79,-22.139c-27.97,11.667 -63.69,25.323 -89.42,40.386c20.76,-22.446 43.06,-42.093 63.76,-63.689c-63.57,24.626 -136.89,53.074 -201.31,74.506c43.65,-25.723 90.46,-47.087 134.36,-72.264c3.92,-2.247 9.4,-11.308 14.87,-15.434l-12.61,4.691c2.38,-20.922 6.26,-27.438 19.3,-43.332c3.63,-3.97 6.74,-6.422 10.85,-9.796c18.14,-14.005 65.77,-29.685 88.27,-38.831c28.75,-11.685 53.63,-21.872 81.11,-36.618c16.81,-9.925 34.16,-17.327 50.65,-27.956zm-9.78,36.464c1.08,-10.121 4.88,-18.815 5.52,-29.197c-33.52,18.74 -62.22,30.984 -91.32,56.612c13.24,-3.994 28.77,-8.565 41.44,-14.057c-2.84,6.508 -12.86,25.911 -12.6,31.707c1.88,-0.708 2.46,-1.233 4.1,-2.409l1.27,0.879c-2.6,6.985 -22.77,22.784 -29.19,27.662c5.62,-12.927 14.92,-30.172 22.52,-41.778c-17.04,4.049 -34.59,6.59 -51.27,10.523c2.66,-3.502 5.36,-6.895 7.64,-10.662c-11.96,2.816 -43.25,10.874 -52.16,17.055c-3.03,0.889 -6.44,1.981 -9.46,2.736l2.04,4.748c-1.54,0.08 -1.39,0.191 -2.87,0.814l1.59,2.417c-0.28,1.189 -13.4,19.795 -15.59,23.386c21.14,-5.613 49.8,-14.58 69.95,-22.664c-10.02,6.883 -26.73,14.519 -38.01,21.31c-26.87,16.176 -54.35,32.118 -80.66,49.193c26.2,-8.016 63.91,-21.887 88.45,-33.597c-6.63,13.424 -11.76,26.697 -17.45,40.524c46.72,-26.287 97.68,-66.854 143.92,-96.353l4.72,6.774l8.9,10.454c4.11,-10.928 14.91,-40.932 6.11,-50.585c-2.52,1.667 -2.79,3.501 -4.32,6.576c0.99,-6.911 0.83,-6.139 -3.27,-12.068zm-2.79,82.893c-1.67,-3.641 -7.63,-18.89 -9.63,-19.949l-4.09,1.479c-0.6,-2.852 3.42,-9.131 4.9,-11.56l0.29,-2.651l-1.23,-0.921c-5.75,2.534 -16.12,17.26 -19.28,18.627c-2.76,9.718 -2.4,12.014 -0.73,21.639c6.35,-2.256 11.31,-4.598 17.42,-7.447c-0.22,10.59 -3.38,19.29 -6.38,29.412c5.01,13.932 7.73,17.099 16.9,29.147c13.77,-16.315 26.1,-21.712 25.83,-48.232c-0.05,-5.126 -4.14,-27.977 -7.15,-30.806c-2.35,1.524 -11.64,15.927 -16.85,21.262zm53.53,29.072c2.72,-0.43 2.81,0.099 4.95,1.424c2.61,-4.123 -3.83,-31.787 -8.25,-35.428c-1.37,2.389 -0.59,12.271 -0.5,15.697c-0.91,4.52 -0.36,5.468 -2.98,8.503c-2.21,-2.566 -1.72,-6.209 -1.63,-9.746c-1.88,3.067 -3.65,6.211 -5.54,9.266c-3,4.848 -1.78,7.136 -8.16,7.47c-7.52,7.855 4.18,37.549 7.97,46.051c9.54,-15.467 14.68,-24.079 14.14,-43.237zm-261.29,-33.424c-3.42,0.89 -7.54,1.526 -10.28,3.857l0.11,1.399l1.24,0.523c3.46,-1.436 7.08,-2.729 10.1,-4.989l-0.44,-1.06l-0.73,0.27z" transform="scale(0.29299 0.292969)" fill="#B7DCEF"/>
  <path id="svg_53" d="m1922.77,372.962c-11.79,-22.637 -9.38,-46.066 -7.15,-70.099c16.31,10.733 39.39,24.87 56.57,34.37c14.24,8.735 28.57,17.336 42.98,25.802c2.95,1.744 16.92,10.173 19.75,11.367c8.83,5.561 17.67,10.319 26.81,15.319c15.88,9.621 31.98,18.887 48.27,27.792c4.94,2.76 25.76,14.033 28.88,16.921l-34.92,-7.496c11.18,12.515 27.45,30.03 36.32,43.644c33.53,7.913 70.03,19.736 103.11,29.455c11.21,3.294 36.76,13.159 45.88,14.522c1.96,0.908 4.09,1.803 5.91,2.945c-9.04,1.925 -125.94,-33.737 -145.21,-39.015c6.16,12.093 14.14,23.524 19.72,35.524c-29.58,-17.312 -65.2,-40.258 -90.83,-63.149c4.56,8.492 7.97,17.141 11.75,25.971c12.33,28.807 24.32,58.328 38.81,86.135c-18.92,-9.171 -37.26,-15.879 -55.41,-26.8c-16.04,-9.657 -30.77,-22.748 -46.52,-32.048c7.84,15.941 11.65,39.282 14.8,56.841c-4.69,8.368 0.52,7.719 -2.25,16.476c-1.5,-3.037 -4.21,-14.708 -5.51,-18.732c-8.24,-25.354 -12.51,-50.425 -18.56,-76.128c10.44,8.836 80.85,62.649 90.27,61.286c1.29,-10.255 -35.96,-93.541 -41.8,-108.788c-0.67,-1.737 -4.14,-6.532 -5.46,-8.25c16.97,11.329 34.25,23.015 50.42,35.448c8.82,6.784 17.16,14.183 26.24,20.635c3.43,2.896 7.72,5.982 11.34,8.731c-2.35,-4.281 -4.06,-7.352 -5.93,-11.913c-2.16,-7.561 -22.02,-22.772 -28.58,-28.519c-26.52,-23.227 -59.06,-39.692 -89.75,-56.815c1.7,3.362 3.57,6.694 5.61,9.859c14.97,23.273 27.37,47.737 40.88,71.835c-15.48,-8.796 -30.28,-21.84 -45.11,-32.215c6.79,9.603 12.55,18.853 18.77,28.818l-2.98,1.472c-17.2,-19.038 -35.52,-37.408 -53.4,-55.802c6.32,28.659 16.34,58.602 23.11,87.408c1.47,6.276 7.37,22.306 7.51,27.671c-4.28,-6.468 -6.55,-18.064 -10.41,-25.192c-19.26,-35.611 -34.78,-72.17 -49.16,-109.983c-2.2,-5.786 -12.12,-32.286 -16.86,-33.235c-0.73,2.474 -1.08,3.885 -2.3,6.221l-1,-0.343c-3.63,-7.511 -8.1,-25.941 -10.19,-34.411c-2.19,12.167 -3.98,24.098 -4.42,36.465zm13.34,-44.769l-2.87,-1.774l-1.01,0.724c5.47,19.064 30.01,46.78 44.86,59.937c-6.02,-10.202 -9.75,-16.453 -13.55,-27.595c15.23,10.955 20.12,17.915 32.92,29.01c-2.78,-7.112 -9.49,-16.495 -14.03,-22.959c28.09,11.828 55.81,24.533 83.11,38.097c1.61,1.464 14.09,8.507 16.79,10.052l2.42,-1.482l0.77,0.592l-1.11,1.849l0.42,0.172l1.59,-1.294l-0.92,1.559l1.65,-0.901l0.38,0.493c-5.54,-4.543 -14.76,-9.416 -21.23,-13.091c-39.73,-22.293 -80.45,-50.626 -120.36,-71.811l-3.4,1.247c-2.57,-1.497 -3.71,-1.871 -6.43,-2.825z" transform="scale(0.29299 0.292969)" fill="#6899B0"/>
  <path id="svg_54" d="m1903.67,311.859c-0.64,10.382 -4.44,19.076 -5.52,29.197c-2.28,7.771 -3.47,12.337 -2.68,20.617l1.09,1.072c2.19,-2.073 3.66,-6.629 4.86,-9.621c1.53,-3.075 1.8,-4.909 4.32,-6.576c8.8,9.653 -2,39.657 -6.11,50.585l-8.9,-10.454l-4.72,-6.774c-46.24,29.499 -97.2,70.066 -143.92,96.353c5.69,-13.827 10.82,-27.1 17.45,-40.524c-24.54,11.71 -62.25,25.581 -88.45,33.597c26.31,-17.075 53.79,-33.017 80.66,-49.193c11.28,-6.791 27.99,-14.427 38.01,-21.31c-20.15,8.084 -48.81,17.051 -69.95,22.664c2.19,-3.591 15.31,-22.197 15.59,-23.386l-1.59,-2.417c1.48,-0.623 1.33,-0.734 2.87,-0.814c5.22,-0.595 7.17,-2.496 7.42,-7.484c8.91,-6.181 40.2,-14.239 52.16,-17.055c-2.28,3.767 -4.98,7.16 -7.64,10.662c16.68,-3.933 34.23,-6.474 51.27,-10.523c-7.6,11.606 -16.9,28.851 -22.52,41.778c6.42,-4.878 26.59,-20.677 29.19,-27.662l-1.27,-0.879c-1.64,1.176 -2.22,1.701 -4.1,2.409c-0.26,-5.796 9.76,-25.199 12.6,-31.707c-12.67,5.492 -28.2,10.063 -41.44,14.057c29.1,-25.628 57.8,-37.872 91.32,-56.612z" transform="scale(0.29299 0.292969)" fill="#ECEAE5"/>
  <path id="svg_55" d="m1977.09,387.08c-14.85,-13.157 -39.39,-40.873 -44.86,-59.937l1.01,-0.724l2.87,1.774c5.84,6.444 10.17,10.801 16.57,16.69c-1.91,-3.902 -5.78,-11.191 -6.74,-15.112c39.91,21.185 80.63,49.518 120.36,71.811l-0.76,2.051c-27.3,-13.564 -55.02,-26.269 -83.11,-38.097c4.54,6.464 11.25,15.847 14.03,22.959c-12.8,-11.095 -17.69,-18.055 -32.92,-29.01c3.8,11.142 7.53,17.393 13.55,27.595z" transform="scale(0.29299 0.292969)" fill="#B7DCEF"/>
  <path id="svg_56" d="m1936.11,328.193c2.72,0.954 3.86,1.328 6.43,2.825l3.4,-1.247c0.96,3.921 4.83,11.21 6.74,15.112c-6.4,-5.889 -10.73,-10.246 -16.57,-16.69z" transform="scale(0.29299 0.292969)" fill="#5C8FA4"/>
  <path id="svg_58" d="m1898.15,341.056c4.1,5.929 4.26,5.157 3.27,12.068c-1.2,2.992 -2.67,7.548 -4.86,9.621l-1.09,-1.072c-0.79,-8.28 0.4,-12.846 2.68,-20.617z" transform="scale(0.29299 0.292969)" fill="#A9D1E3"/>
  <path id="svg_70" d="m1734.64,390.127c3.02,-0.755 6.43,-1.847 9.46,-2.736c-0.25,4.988 -2.2,6.889 -7.42,7.484l-2.04,-4.748z" transform="scale(0.29299 0.292969)" fill="#CED8E6"/>
  <path id="svg_73" d="m1886.54,393.919c-1.48,2.429 -5.5,8.708 -4.9,11.56l4.09,-1.479c2,1.059 7.96,16.308 9.63,19.949c5.21,-5.335 14.5,-19.738 16.85,-21.262c3.01,2.829 7.1,25.68 7.15,30.806c0.27,26.52 -12.06,31.917 -25.83,48.232c-9.17,-12.048 -11.89,-15.215 -16.9,-29.147c3,-10.122 6.16,-18.822 6.38,-29.412c-6.11,2.849 -11.07,5.191 -17.42,7.447c-1.67,-9.625 -2.03,-11.921 0.73,-21.639c3.16,-1.367 13.53,-16.093 19.28,-18.627l1.23,0.921l-0.29,2.651z" transform="scale(0.29299 0.292969)" fill="#ECEAE5"/>
  <path id="svg_74" d="m2042.87,472.691c-6.22,-9.965 -11.98,-19.215 -18.77,-28.818c14.83,10.375 29.63,23.419 45.11,32.215c-13.51,-24.098 -25.91,-48.562 -40.88,-71.835c-2.04,-3.165 -3.91,-6.497 -5.61,-9.859c30.69,17.123 63.23,33.588 89.75,56.815c6.56,5.747 26.42,20.958 28.58,28.519c-1.57,0.965 -3.8,2.44 -5.41,3.182c-9.08,-6.452 -17.42,-13.851 -26.24,-20.635c-16.17,-12.433 -33.45,-24.119 -50.42,-35.448c1.32,1.718 4.79,6.513 5.46,8.25c5.84,15.247 43.09,98.533 41.8,108.788c-9.42,1.363 -79.83,-52.45 -90.27,-61.286c6.05,25.703 10.32,50.774 18.56,76.128c1.3,4.024 4.01,15.695 5.51,18.732l-0.89,0.575c-2.66,-1.028 -17.72,-33.449 -20.26,-38.606l-0.67,0.142l-1.83,-1.689l0.72,-4.421c-0.14,-5.365 -6.04,-21.395 -7.51,-27.671c-6.77,-28.806 -16.79,-58.749 -23.11,-87.408c17.88,18.394 36.2,36.764 53.4,55.802c3.38,3.751 7.94,7.803 11.69,11.305c-2.76,-5.026 -5.29,-8.23 -8.71,-12.777z" transform="scale(0.29299 0.292969)" fill="#C9EAFE"/>
  <path id="svg_75" d="m2066.3,401.582c6.47,3.675 15.69,8.548 21.23,13.091l-0.38,-0.493l-1.65,0.901l0.92,-1.559l-1.59,1.294l-0.42,-0.172l1.11,-1.849l-0.77,-0.592l-2.42,1.482c-2.7,-1.545 -15.18,-8.588 -16.79,-10.052l0.76,-2.051z" transform="scale(0.29299 0.292969)" fill="#88BAD6"/>
  <path id="svg_76" d="m848.456,412.715l1.295,-3.377c5.814,-0.978 15.715,7.263 22.845,10.385c7.954,4.785 45.258,24.511 49.225,28.992l-1.246,1.432c-21.658,-11.12 -43.552,-22.673 -65.307,-33.522c-6.158,26.52 -8.125,43.325 -8.186,70.605l-0.132,0.935c-0.358,5.225 -0.651,10.455 -0.878,15.687l-2.955,-13.599c0.133,-3.632 -0.677,-6.561 -0.389,-10.742c1.537,-22.285 4.267,-44.51 5.728,-66.796z" transform="scale(0.29299 0.292969)" fill="#3980A0"/>
  <path id="svg_77" d="m1687.9,407.997c-4.11,3.374 -7.22,5.826 -10.85,9.796c-13.04,15.894 -16.92,22.41 -19.3,43.332l12.61,-4.691c-5.47,4.126 -10.95,13.187 -14.87,15.434c-43.9,25.177 -90.71,46.541 -134.36,72.264c64.42,-21.432 137.74,-49.88 201.31,-74.506c-20.7,21.596 -43,41.243 -63.76,63.689c25.73,-15.063 61.45,-28.719 89.42,-40.386c-4.63,7.054 -12.51,14.661 -15.79,22.139c30.36,-24.148 64.17,-46.127 94,-71.563c4.98,-4.254 27.37,-25.989 30.58,-27.407c-0.73,26.93 -2.16,56.896 -1.56,83.478c10.1,-2.867 20.22,-5.753 30.52,-7.809c31.99,12.209 47.24,60.464 61.52,88.188c-0.32,-21.833 -4.29,-51.413 -3.02,-71.5c4.74,13.617 16.76,44.739 19.44,57.466c2.92,-20.334 5.35,-40.735 7.3,-61.186l1.77,0.992c4.96,24.791 17.98,33.313 32.9,53.219c2.23,2.974 8.2,10.048 9.45,13.225l-1.83,2.453c-3.56,4.931 0.22,53.622 0.84,63.036l-0.53,2.064l-0.19,-0.763c-0.95,-3.835 -1.05,-7.69 -1.2,-11.615c-4.71,11.463 3.78,50.251 -1.12,58.374c-0.44,0.725 -0.46,1.425 -0.53,2.245c-5.47,-22.897 -9.17,-47.837 -11.07,-71.287c-5.44,17.157 -9.06,35.223 -13.31,52.728c-5.25,21.451 -10.84,42.816 -16.77,64.087c-3.79,13.879 -6.82,29.575 -13.5,42.353c-6.45,12.348 -16.77,23.685 -25.26,34.678c-5.3,6.863 -11.06,17.372 -17.66,22.797l-0.58,-0.71c7.26,-21.586 12.01,-44.617 17.61,-66.716c5.59,-22.003 12.12,-43.881 18.54,-65.657c-21.37,24.401 -41.44,51.555 -65.14,73.699c5.4,-14.064 11.67,-28.206 16.14,-42.568c-44.39,23.683 -88.11,48.581 -132.69,71.891c-16.29,8.515 -32.73,18.664 -49.81,25.411c63.4,-58.347 125.77,-117.797 187.09,-178.323c-4.59,-11.761 -7.19,-24.632 -10.44,-36.834c-4.61,-17.321 -9.63,-34.655 -13.61,-52.128c-3.7,21.112 -11.44,41.9 -17.39,62.481c-9.2,-26.174 -15.21,-53.882 -22.01,-80.773c-4.47,-17.624 -10.12,-35.651 -13.5,-53.473c-15.02,21.53 -29.71,42.264 -47.14,61.928c5.23,-15.367 11.13,-29.789 19.72,-43.66c-18.75,12.675 -36.73,26.447 -55.6,38.949c-25.73,17.056 -52.19,33.095 -78.24,49.657l-125.98,80.317l-89.72,56.341c-14.63,9.179 -30.26,17.884 -44.22,27.964c32.72,-5.229 66.56,-9.042 98.85,-16.152c-74.32,36.91 -151.53,69.984 -228.24,101.596c14.98,-16.037 30.44,-32.063 44.55,-48.87c-19.43,5.714 -38.43,13.546 -57.33,20.798l-88.67,33.884l-60.87,22.29c-9.22,3.358 -20.29,6.272 -28.84,10.937c-17.99,-7.136 -37.58,-24.411 -50.57,-38.516c1.7,12.914 3.85,25.583 6.92,38.249c1.74,7.172 5,15.441 5.81,22.609c-1.12,-0.461 -1.29,-0.859 -2.46,-0.373c-8.55,3.574 -17.99,10.007 -25.32,15.665c-16.7,-10.381 -30.856,-28.68 -43.303,-43.732c-3.346,11.742 -5.248,24.298 -7.773,36.273c-24.079,-10.519 -48.748,-15.883 -74.07,-22.171c-4.995,-6.899 -9.956,-13.824 -14.882,-20.773c5.998,-4.754 11.106,-12.299 16.364,-18.031c12,-13.016 24.194,-25.852 36.576,-38.505c21.804,-22.287 45.916,-42.378 68.348,-64.055c-73.494,34.403 -147.268,68.203 -221.316,101.398c-16.046,7.129 -31.934,14.875 -48.063,21.764c-4.491,-4.357 -8.568,-9.328 -12.732,-14.005c6.788,-3.145 26.932,-11.003 30.45,-16.068l0.964,1.139c47.195,-25.31 93.506,-52.413 141.241,-76.727c16.039,-9.562 32.294,-18.791 48.448,-28.16l65.208,-38.973l14.79,-9.371c18.33,-11.395 37.02,-22.447 54.98,-34.415c10.69,-6.541 21.32,-13.19 31.88,-19.945c20.82,-12.994 41.17,-25.701 63.12,-36.749c7.27,-3.163 15.07,-5.523 21.99,-9.414c5.29,0.496 309.11,-103.715 335.93,-114.062c11.43,-2.482 33.21,-8.637 43.49,-12.865c15.39,-6.331 106.02,-56.92 116.32,-57.79zm-233.35,126.047c-74.57,31.841 -149.57,62.19 -221.58,99.621c-35.53,18.468 -70.35,38.921 -105.18,58.691c-16.52,9.372 -32.97,19.386 -50.04,27.695c17.89,-17.916 35.8,-35.687 51.92,-55.249c-88.5,47.591 -153.252,135.128 -223.951,204.512c28.263,-14.255 57.786,-26.281 86.655,-39.276c53.226,-23.96 106.646,-48.438 158.656,-74.915c-23.57,19.985 -47.03,40.11 -70.36,60.375c10.08,-3.55 20.06,-7.367 29.93,-11.445c96.06,-40.299 191.43,-82.247 286.05,-125.825c32.74,-14.727 65.34,-29.771 97.79,-45.131c21.87,-10.251 44.06,-20.276 65.29,-31.794c-28.3,8.11 -56.65,16.028 -85.05,23.753c33.69,-20.037 67.34,-40.482 102.37,-58.126c-60.92,15.921 -120.84,37.535 -180.94,56.33c-24.52,7.66 -49.1,15.144 -73.73,22.452c-14.86,4.429 -30.39,8.285 -44.77,13.993c18.49,-13.256 175.78,-119.286 177.97,-125.494l-1.03,-0.167z" transform="scale(0.29299 0.292969)" fill="#857B8A"/>
  <path id="svg_78" d="m836.075,417.834c5.042,-1.9 5.059,-3.435 12.381,-5.119c-1.461,22.286 -4.191,44.511 -5.728,66.796c-0.288,4.181 0.522,7.11 0.389,10.742c-2.644,-7.841 -6.938,-46.861 -7.113,-55.612c-2.578,3.022 -5.509,5.772 -8.359,8.545l-1.191,-0.507c-2.366,0.893 -4.242,0.86 -5.814,-1.11l-1.662,0.294c0.561,-2.451 0.878,-3.296 2.493,-5.229l-0.294,-1.548c-4.353,0.328 -17.14,7.8 -23.126,9.629c1.661,-5.824 30.494,-22.184 38.024,-26.881z" transform="scale(0.29299 0.292969)" fill="#B7DCEF"/>
  <path id="svg_82" d="m855.268,416.625c21.755,10.849 43.649,22.402 65.307,33.522c29.201,15.156 56.057,30.541 82.045,50.74c1.78,1.378 10.72,8.323 11.56,9.324c11.27,10.6 69.1,30.104 87.47,38.417c3.92,1.819 10.77,5.713 14.64,5.123c1.6,0.958 2.96,1.394 3.65,2.843c3.47,2.722 5.59,4.193 9.36,6.475c-22.91,-6.31 -53.67,-13.644 -75.39,-20.773c5.35,18.046 9.05,42.411 15.05,59.246c-41.51,-19.679 -91.564,-44.992 -129.996,-70.072c3.997,32.931 6.353,66.282 10.502,99.223c0.691,5.488 1.261,11.19 1.616,16.705c-21.765,-22.223 -51.243,-53.496 -68.522,-79.153c2.14,30.107 3.43,60.269 3.868,90.449c0.558,22.826 1.5,45.691 0.367,68.518c-13.071,-18.136 -20.288,-32.172 -30.22,-52.081c-2.145,-4.769 -4.284,-9.445 -6.917,-13.973c-0.636,-6.161 -18.798,-39.058 -22.82,-49.18l-3.563,9.009c-19.781,30.682 -37.97,71.085 -54.623,104.393c-5.717,11.434 -12.239,28.081 -19.902,38.006c-0.379,-0.699 -1.167,-1.763 -1.352,-2.496c-0.695,-2.75 10.925,-68.971 12.577,-74.65c1.73,-5.953 6.681,-9.791 7.748,-16.323c5.676,-11.625 16.215,-26.629 22.814,-39.196c10.672,-20.326 21.954,-45.681 34.32,-64.631c8.269,18.675 17.804,54.458 25.633,75.35c0.464,-14.072 -5.445,-37.958 -5.782,-54.101c-0.374,-17.938 -5.78,-41.518 -9.067,-59.681l12.036,-13.412c1.48,17.759 5.832,52.95 5.392,69.017c7.573,-19.236 16.307,-37.994 26.154,-56.171c9.649,15.919 28.631,42.759 40.743,57.066c-0.92,-23.822 -4.209,-73.518 -9.126,-96.355c33.04,25.613 64.825,48.362 97.89,73.113c-7,-12.175 -11.566,-23.296 -17.27,-36.07c12.71,8.698 33.88,25.742 44.92,36.689c-4.27,-10.069 -8.07,-19.977 -11.8,-30.259c-3.55,-9.773 -4.44,-14.679 -14.64,-17.941c-14.566,-3.214 -56.165,-20.817 -70.201,-26.944c-21.195,-9.252 -50.08,-21.204 -70.315,-32.016c9.745,16.288 25.378,45.485 33.138,63.109c-18.555,-15.935 -31.185,-24.153 -50.588,-42.446c-0.03,6.793 0.008,11.344 -0.958,18.091c-0.016,-8.064 -0.17,-14.281 -0.839,-22.302c-0.818,5.327 -1.542,11.295 -3.095,16.403c0.061,-27.28 2.028,-44.085 8.186,-70.605z" transform="scale(0.29299 0.292969)" fill="#A9D1E3"/>
  <path id="svg_83" d="m1945.09,434.714c-0.09,-3.426 -0.87,-13.308 0.5,-15.697c4.42,3.641 10.86,31.305 8.25,35.428c-2.14,-1.325 -2.23,-1.854 -4.95,-1.424c-1.57,-4.906 -1.42,-12.657 -2.63,-18.58l-1.17,0.273z" transform="scale(0.29299 0.292969)" fill="#C9EAFE"/>
  <path id="svg_85" d="m1678.67,425.376l-1.24,-0.523l-0.11,-1.399c2.74,-2.331 6.86,-2.967 10.28,-3.857l0.73,-0.27l0.44,1.06c-3.02,2.26 -6.64,3.553 -10.1,4.989z" transform="scale(0.29299 0.292969)" fill="#C9EAFE"/>
  <path id="svg_88" d="m2103.96,426.938l34.92,7.496c17.09,8.313 39.09,22.807 54.14,29.216c7.24,4.987 74.4,42.454 80.69,41.889c4.78,2.257 11.98,5.282 15.56,9.02c-9.12,-1.363 -34.67,-11.228 -45.88,-14.522c-33.08,-9.719 -69.58,-21.542 -103.11,-29.455c-8.87,-13.614 -25.14,-31.129 -36.32,-43.644z" transform="scale(0.29299 0.292969)" fill="#C9EAFE"/>
  <path id="svg_89" d="m1945.09,434.714l1.17,-0.273c1.21,5.923 1.06,13.674 2.63,18.58c0.54,19.158 -4.6,27.77 -14.14,43.237c-3.79,-8.502 -15.49,-38.196 -7.97,-46.051c6.38,-0.334 5.16,-2.622 8.16,-7.47c1.89,-3.055 3.66,-6.199 5.54,-9.266c-0.09,3.537 -0.58,7.18 1.63,9.746c2.62,-3.035 2.07,-3.983 2.98,-8.503z" transform="scale(0.29299 0.292969)" fill="#ECEAE5"/>
  <path id="svg_90" d="m818.978,441.863c-1.59,4.56 -3.092,9.15 -4.506,13.768l13.173,-12.445c2.85,-2.773 5.781,-5.523 8.359,-8.545c0.175,8.751 4.469,47.771 7.113,55.612l2.955,13.599c0.227,-5.232 0.52,-10.462 0.878,-15.687c4.198,9.485 0.688,16.333 2.149,24.594l-1.422,1.487l-12.036,13.412c3.287,18.163 8.693,41.743 9.067,59.681c0.337,16.143 6.246,40.029 5.782,54.101c-7.829,-20.892 -17.364,-56.675 -25.633,-75.35c-12.366,18.95 -23.648,44.305 -34.32,64.631c-6.599,12.567 -17.138,27.571 -22.814,39.196c-1.742,2.349 -5.078,8.95 -7.438,9.688c-0.219,-1.506 -0.487,-3.024 -0.634,-4.538l5.645,-17.911c1.279,-0.612 3.889,-10.731 4.655,-12.638c1.811,-5.416 4.147,-10.732 6.265,-16.039c-4.256,4.157 -8.806,7.966 -13.333,11.82c-10.128,7.608 -65.12,55.195 -68.231,62.592c-6.049,6.675 -11.922,13.959 -18.387,20.201c-0.151,-0.776 -0.237,-0.985 -0.239,-1.721c-0.019,-5.045 4.982,-13.384 7.121,-18.226c5.286,-11.968 10.217,-24.573 16.968,-35.787c9.681,-16.083 26.011,-32.162 39.506,-45.298c-3.783,13.108 -11.178,26.662 -17.27,38.923c33.032,-28.111 52.878,-42.557 74.321,-81.531c7.436,-13.515 12.874,-28.392 21.33,-41.287c-19.185,13.221 -36.6,29.132 -55.91,42.46c20.508,-29.586 31.623,-64.902 52.998,-93.794c-12.77,8.231 -27.053,13.612 -39.957,21.642c1.781,-6.215 4.18,-12.346 6.32,-18.452c-21.947,20.788 -27.708,25.105 -42.621,51.853c13.08,-9.016 26.067,-17.852 40.261,-25.072c-13.661,20.775 -34.551,36.47 -47.567,57.335c-6.2,9.94 -10.674,21.076 -15.564,31.696c-9.553,20.747 -19.002,42.432 -30.636,62.08c4.195,-18.881 5.296,-38.914 7.783,-58.11c2.257,-17.413 5.879,-34.782 9.199,-52.023c0.878,-4.561 5.428,-18.067 3.66,-21.602c-12.004,9.835 -23.824,20.625 -37.372,28.289c-7.663,-0.405 -83.785,38.292 -96.501,44.842c8.377,-9.693 30.762,-42.329 33.456,-54.283l1.681,-4.442c6.779,-6.72 44.722,-18.174 56.116,-21.959c-5.639,7.558 -10.647,16.53 -15.464,24.709c11.961,-7.237 37.616,-28.093 45.999,-38.916c-12.488,5.627 -23.347,8.766 -36.395,12.657c32.158,-19.304 44.848,-27.79 80.124,-43.293c-5.52,7.754 -7.746,17.884 -10.315,27.098c26.435,-16.259 34.384,-29.89 50.533,-53.66c3.577,-3.674 8.418,-6.145 12.881,-8.741c2.969,-1.267 4.574,-2.169 7.34,-3.764c5.986,-1.829 18.773,-9.301 23.126,-9.629l0.294,1.548c-1.615,1.933 -1.932,2.778 -2.493,5.229z" transform="scale(0.29299 0.292969)" fill="#ECEAE5"/>
  <path id="svg_91" d="m814.472,455.631c1.414,-4.618 2.916,-9.208 4.506,-13.768l1.662,-0.294c1.572,1.97 3.448,2.003 5.814,1.11l1.191,0.507l-13.173,12.445z" transform="scale(0.29299 0.292969)" fill="#A9D1E3"/>
  <path id="svg_92" d="m920.575,450.147l1.246,-1.432l0.961,0.169c6.83,4.663 19.57,11.431 27.153,15.388c27.231,14.819 55.785,30.897 83.235,45.017c22.67,12.128 46.56,25.537 69.3,37.216l-0.82,2.123c-18.37,-8.313 -76.2,-27.817 -87.47,-38.417c-0.84,-1.001 -9.78,-7.946 -11.56,-9.324c-25.988,-20.199 -52.844,-35.584 -82.045,-50.74z" transform="scale(0.29299 0.292969)" fill="#5C8FA4"/>
  <path id="svg_94" d="m2295.18,517.504c4.91,1.759 17.91,10.95 22.81,14.042c17.77,11.216 36.48,25.404 54.33,36.12c20.41,14.122 42.65,27.707 61.48,43.854c30.46,4.894 60.82,10.357 91.08,16.384c23.88,5.68 48.04,18.535 69.04,30.971c4.42,3.286 9.12,6.643 14.02,9.174l4.14,2.772c6.04,3.634 12.07,7.55 18.33,10.783c20.62,12.483 41.6,25.118 61.45,38.768c28.64,20.698 44.27,25.82 76.69,38.228c-0.28,-9.99 -0.96,-20.162 -0.35,-30.139c2.61,16.933 -0.95,35.002 2.72,51.672c-33.9,-17.469 -68.43,-33.692 -102.04,-51.769c-40.88,-21.987 -94.01,-56.446 -137.14,-68.375c16.73,25.006 32.14,50.192 46.64,76.57c-13.73,-10.385 -26.17,-22.928 -39.08,-34.335c-12.52,-11.061 -27.52,-21.348 -37.85,-34.532c-5.93,-1.479 -11.9,-2.816 -17.85,-4.22c13.72,15.343 25.69,32.34 39.47,47.793c-13.35,-7.808 -27.36,-14.577 -40.83,-22.22c-46.65,-26.7 -93.52,-53.025 -140.59,-78.975c-38.95,-21.312 -78.25,-42.04 -115.89,-65.641c14.35,25.336 30.21,51.097 47.53,74.512c8.97,12.138 18.95,23.448 28.19,35.367c-16.14,-7.854 -31.02,-18.212 -46.93,-26.57c-24.41,-12.836 -50.34,-21.851 -76.54,-30.242c2.92,12.998 5.4,26.891 10.75,39.119c-26.01,-24.712 -58.53,-42.793 -83.88,-68.138c6.2,14.246 11.02,34.199 20.85,46.031c13.75,16.544 32.01,31.582 47.69,46.423c37.25,35.263 73.2,71.996 116.3,100.257c2.66,1.742 7.22,5.613 10.33,5.877l1.17,-2.723c1.87,6.981 0.87,14.453 2.62,21.592c-8.26,6.079 -44.56,38.085 -50.51,39.663c-0.52,0.139 -1.76,-0.114 -2.35,-0.152l-1.32,-0.91c-0.15,-5.627 -23.61,-24.191 -28.44,-28.339c-22.64,-19.449 -43.93,-39.559 -63.35,-62.229c-17.87,-20.847 -34.26,-43.388 -52.94,-63.465c12.86,25.327 26.84,50.069 41.91,74.151c12.14,19.155 25.58,37.602 36.61,57.433c-7.13,-2.66 -14.15,-5.363 -21.03,-8.604c-13.38,-23.843 -31.89,-44.886 -47.98,-66.894c4.64,16.071 12.12,31.957 18.01,47.684c-35.96,-31.068 -67.22,-67.473 -97.69,-103.788c-1.24,-2.374 -1.79,-4.595 -2.34,-7.183c-3.62,-18.654 -9.15,-55.318 -15.37,-71.336c0.17,-4.612 -1.43,-13.311 -3.67,-17.341l1.83,-2.453c14.31,19.269 26.39,39.705 39.72,59.61c-0.39,-29.148 -8.16,-43.28 -12.64,-70.818c-3.15,-17.559 -6.96,-40.9 -14.8,-56.841c15.75,9.3 30.48,22.391 46.52,32.048c18.15,10.921 36.49,17.629 55.41,26.8c-14.49,-27.807 -26.48,-57.328 -38.81,-86.135c-3.78,-8.83 -7.19,-17.479 -11.75,-25.971c25.63,22.891 61.25,45.837 90.83,63.149c-5.58,-12 -13.56,-23.431 -19.72,-35.524c19.27,5.278 136.17,40.94 145.21,39.015zm-239.48,32.155c9.6,17.432 33.23,51.819 33.08,70.776c18.48,19.159 38.09,36.991 57.69,54.973c10.21,9.363 20.32,19.695 31.3,28.113c-9.51,-19.217 -23.28,-37.329 -35.16,-55.137c-9.83,-14.714 -18.94,-30.672 -30.42,-44.132c-11.71,-13.739 -25.58,-26.08 -38.6,-38.587c-4.73,-4.547 -12.05,-13.504 -17.89,-16.006z" transform="scale(0.29299 0.292969)" fill="#39555F"/>
  <path id="svg_95" d="m851.016,493.129c0.966,-6.747 0.928,-11.298 0.958,-18.091c19.403,18.293 32.033,26.511 50.588,42.446c-7.76,-17.624 -23.393,-46.821 -33.138,-63.109c20.235,10.812 49.12,22.764 70.315,32.016c14.036,6.127 55.635,23.73 70.201,26.944c10.2,3.262 11.09,8.168 14.64,17.941c3.73,10.282 7.53,20.19 11.8,30.259c-11.04,-10.947 -32.21,-27.991 -44.92,-36.689c5.704,12.774 10.27,23.895 17.27,36.07c-33.065,-24.751 -64.85,-47.5 -97.89,-73.113c4.917,22.837 8.206,72.533 9.126,96.355c-12.112,-14.307 -31.094,-41.147 -40.743,-57.066c-9.847,18.177 -18.581,36.935 -26.154,56.171c0.44,-16.067 -3.912,-51.258 -5.392,-69.017l1.422,-1.487c0.719,-1.919 1.69,-16.723 1.917,-19.63z" transform="scale(0.29299 0.292969)" fill="#5C8FA4"/>
  <path id="svg_96" d="m698.033,497.682c25.013,-14.781 51.922,-25.877 78.806,-42.059l0.991,1.597c-16.149,23.77 -24.098,37.401 -50.533,53.66c2.569,-9.214 4.795,-19.344 10.315,-27.098c-35.276,15.503 -47.966,23.989 -80.124,43.293c13.048,-3.891 23.907,-7.03 36.395,-12.657c-8.383,10.823 -34.038,31.679 -45.999,38.916c4.817,-8.179 9.825,-17.151 15.464,-24.709c-11.394,3.785 -49.337,15.239 -56.116,21.959l-1.681,4.442c-1.757,-0.46 -0.963,-0.004 -2.185,-1.785c-3.313,-1.423 -7.128,-0.81 -10.783,-0.554l0.635,-0.671c6.963,-1.742 103.384,-51.95 104.815,-54.334z" transform="scale(0.29299 0.292969)" fill="#A9D1E3"/>
  <path id="svg_99" d="m2193.02,463.65c4.15,1.242 5.95,1.797 9.8,3.725c19.09,9.566 37.92,19.645 56.47,30.224c4.1,2.284 10.36,6.003 14.42,7.94c-6.29,0.565 -73.45,-36.902 -80.69,-41.889z" transform="scale(0.29299 0.292969)" fill="#3980A0"/>
  <path id="svg_100" d="m2791.5,474.807c0.2,-3.81 -0.5,-6.657 2.79,-8.681c2.8,-0.402 13.8,5.593 17.7,7.324c29.28,15.146 64.39,35.806 92.82,49.463c47.15,26.46 100.17,57.2 147.89,81.578c20.05,10.244 40.24,20.207 60.57,29.885c7.76,3.747 27.33,12.695 33.68,16.908c-6.11,0.486 -12.88,-1.483 -18.39,-3.978c-2.95,-4.815 -103.91,-45.21 -117.64,-50.785c-4.79,3.762 -9.3,8.031 -13.88,12.045c-17.65,-9.297 -36.62,-21.132 -52.01,-33.864c8.65,15.628 18.54,30.29 30.83,43.303c-12.02,-5.32 -24.34,-10.462 -35.92,-16.688c-24.87,-13.369 -48.75,-29.773 -73,-44.356c-13.56,-8.157 -27.62,-15.572 -41.41,-23.336l-0.27,1.172c2.81,3.248 6.71,5.54 9.97,8.33c8.62,7.369 20.53,17.428 26.6,26.899c0.15,0.234 0.29,0.471 0.44,0.706c-4.38,-2.952 -12.81,-7.293 -17.7,-9.99c5.92,6.319 12.24,11.497 18.82,17.083c-20.53,-9.872 -37.92,-24.06 -54.73,-39.19c2.27,-3.832 -5.68,-20.945 -5.1,-31.054c70.15,27.534 137.47,58.61 209.02,84.105c-28.54,-15.887 -57.17,-31.605 -85.9,-47.152c-13.53,-7.481 -33.09,-19.421 -46.45,-25.601c-12.81,-5.93 -37.94,-11.143 -52.05,-16.247c-5.58,-2.02 -19.24,-6.959 -24.55,-7.41l-1.64,1.608c-1.29,0.472 -1.4,0.3 -2.79,0.064l-2.55,-5.721c-1.32,2.122 -1.17,2.488 -1.19,5.099c-1.62,-6.216 -2.86,-14.985 -3.96,-21.519z" transform="scale(0.29299 0.292969)" fill="#3980A0"/>
  <path id="svg_103" d="m2764.76,483.107c6.51,-4.445 18.62,-13.664 24.82,-16.475l1.14,0.765c0.17,2.78 0.32,4.604 0.78,7.41c1.1,6.534 2.34,15.303 3.96,21.519c2.46,9.952 7.88,34.448 13.2,42.309c16.81,15.13 34.2,29.318 54.73,39.19c-6.58,-5.586 -12.9,-10.764 -18.82,-17.083c4.89,2.697 13.32,7.038 17.7,9.99c1.28,4.024 7.74,7.322 10.75,10.431c4.66,16.41 9.88,36.004 10.67,53.044c0.45,9.912 -5.61,26.897 -3,35.447c6.73,12.089 12.14,24.941 19.75,36.51c6.64,11.395 13.55,22.634 20.03,34.113c5.57,9.847 10.67,20.17 17.03,29.523l-4.05,0.811c-18.75,-21.146 -39.89,-40.912 -59.76,-61.061c-8.68,-8.804 -18.55,-17.685 -25.79,-27.726c2.22,-2.914 3.2,-7.923 6.22,-9.885c0.26,2.169 0.59,4.114 1.31,6.179l1.67,0.414l1.07,-1.127c0.41,-2.956 1.12,-5.645 2,-8.493c-2.69,-3.415 -4.32,-8.54 -5.97,-12.539c0.39,4.977 1.54,10.04 2.37,14.969c-3.62,-3.132 -6.77,-6.916 -9.96,-10.484c-9.17,-13.015 -25.78,-30.367 -32.24,-42.481l13.18,9.932c-2.64,-10.364 -6.61,-20.314 -9.5,-30.608c13.33,11.167 26.62,21.122 41.78,29.719c-6.01,-15.221 -17.21,-35.253 -26.95,-48.441l-1.29,0.431c0.47,1.874 0.71,3.692 0.92,5.609c-1.31,-0.531 -2.05,-0.615 -3.46,-0.492c-2.08,3.125 -1.24,9.115 -1.22,12.844c-6.26,-4.45 -12.11,-8.521 -17.64,-13.906c3.67,9.96 4.57,17.582 3.92,28.127c-9.94,-9.219 -17.72,-19.869 -25.71,-30.749c-0.05,8.661 0.29,18.866 3.05,27.098c0.11,0.313 0.22,0.624 0.33,0.935l-0.56,0.901c-6.25,-7.622 -11.56,-15.751 -19.01,-22.269c2.85,16.733 12.88,31.259 20.36,46.245c1.65,3.306 2.55,7.003 4.09,10.406c-1.88,1.113 -3.03,2.19 -4.36,3.922l-0.44,-0.553c-6.13,-7.793 -11.24,-16.746 -16.76,-25.028c-6.34,-9.542 -13.16,-18.755 -19.61,-28.222c-3.09,-4.52 -5.7,-10.626 -9.3,-14.547c-5.93,8.118 -9.38,17.731 -13.59,26.769c-7.13,15.291 -43.25,95.97 -49.82,102.713l-1.38,-0.082c-5,-22.469 -8.72,-46.016 -19.64,-66.608c-10.39,12.985 -20.45,26.54 -31.35,39.081c-6.26,-3.233 -12.29,-7.149 -18.33,-10.783c9.32,-5.485 35.41,-36.734 38.65,-47.099c0.58,-0.754 1.12,-1.528 1.69,-2.285c2.93,-3.869 3.48,-8.357 5.57,-12.667c-0.49,3.052 -0.56,4.616 -0.64,7.664l1.27,0.201c6.17,-5.978 33.8,-25.811 41.48,-30.737c0.23,11.286 -0.46,25.118 -0.78,36.577c17.31,-16.802 33.85,-40.279 48.16,-59.554c6.34,-8.54 15.12,-18.19 22.2,-26.322c0.38,9.143 3.76,23.669 5.69,33.055c17.96,-34.33 17.18,-23.98 10.41,-60.424c-0.39,4.606 -0.21,11.962 -2.14,15.507l-1.93,0.565l-1.97,-1.993c5.04,-4.286 6.1,-15.655 2.62,-20.199c-2.29,2.567 -1.72,3.732 -2.29,7.838c-0.16,-4.682 0.45,-7.846 -1.85,-11.457c-4.11,-1.799 -8.65,0.978 -13.44,0.108c-0.99,-4.989 2.28,-6.401 1.64,-10.522c-4.44,0.884 -4.97,4.873 -8.81,6.544c-10.03,4.374 -19.23,8.674 -28.97,13.711c3.47,-5.746 28,-19.604 36.12,-26.225zm32.11,57.394c-2.33,7.108 -11.6,15.953 -7.49,23.588c3.13,5.803 8.57,11.224 13.2,15.873c1.29,-3.708 2.41,-8.793 4.9,-11.811c3.84,3.502 7.61,7.153 11.71,10.339c-4.16,-12.62 -11.29,-29.789 -22.32,-37.989z" transform="scale(0.29299 0.292969)" fill="#B7DCEF"/>
  <path id="svg_105" d="m1971.09,504.735c1.03,-14.495 0.03,-21.992 -2.49,-36.394c4.37,7.627 8.1,16.277 13.07,23.344c11.02,15.651 23.08,30.973 34.72,46.176l1.83,1.689l0.67,-0.142c2.54,5.157 17.6,37.578 20.26,38.606l0.89,-0.575c2.77,-8.757 -2.44,-8.108 2.25,-16.476c4.48,27.538 12.25,41.67 12.64,70.818c-13.33,-19.905 -25.41,-40.341 -39.72,-59.61c-1.25,-3.177 -7.22,-10.251 -9.45,-13.225c-14.92,-19.906 -27.94,-28.428 -32.9,-53.219l-1.77,-0.992z" transform="scale(0.29299 0.292969)" fill="url(#gradient_0)"/>
  <path id="svg_106" d="m2042.87,472.691c3.42,4.547 5.95,7.751 8.71,12.777c-3.75,-3.502 -8.31,-7.554 -11.69,-11.305l2.98,-1.472z" transform="scale(0.29299 0.292969)" fill="#88BAD6"/>
  <path id="svg_108" d="m847.082,487.23c1.553,-5.108 2.277,-11.076 3.095,-16.403c0.669,8.021 0.823,14.238 0.839,22.302c-0.227,2.907 -1.198,17.711 -1.917,19.63c-1.461,-8.261 2.049,-15.109 -2.149,-24.594l0.132,-0.935z" transform="scale(0.29299 0.292969)" fill="#C9EAFE"/>
  <path id="svg_110" d="m2135.64,482.91c1.61,-0.742 3.84,-2.217 5.41,-3.182c1.87,4.561 3.58,7.632 5.93,11.913c-3.62,-2.749 -7.91,-5.835 -11.34,-8.731z" transform="scale(0.29299 0.292969)" fill="#B7DCEF"/>
  <path id="svg_111" d="m482.46,657.333c20.953,-18.187 48.047,-30.726 69.022,-48.194c13.054,-10.872 27.991,-46.407 41.101,-56.452c3.655,-0.256 7.47,-0.869 10.783,0.554c1.222,1.781 0.428,1.325 2.185,1.785c-2.694,11.954 -25.079,44.59 -33.456,54.283c12.716,-6.55 88.838,-45.247 96.501,-44.842c13.548,-7.664 25.368,-18.454 37.372,-28.289c1.768,3.535 -2.782,17.041 -3.66,21.602c-3.32,17.241 -6.942,34.61 -9.199,52.023c-2.487,19.196 -3.588,39.229 -7.783,58.11c11.634,-19.648 21.083,-41.333 30.636,-62.08c4.89,-10.62 9.364,-21.756 15.564,-31.696c13.016,-20.865 33.906,-36.56 47.567,-57.335c-14.194,7.22 -27.181,16.056 -40.261,25.072c14.913,-26.748 20.674,-31.065 42.621,-51.853c-2.14,6.106 -4.539,12.237 -6.32,18.452c12.904,-8.03 27.187,-13.411 39.957,-21.642c-21.375,28.892 -32.49,64.208 -52.998,93.794c19.31,-13.328 36.725,-29.239 55.91,-42.46c-8.456,12.895 -13.894,27.772 -21.33,41.287c-21.443,38.974 -41.289,53.42 -74.321,81.531c6.092,-12.261 13.487,-25.815 17.27,-38.923c-13.495,13.136 -29.825,29.215 -39.506,45.298c-6.751,11.214 -11.682,23.819 -16.968,35.787c-2.139,4.842 -7.14,13.181 -7.121,18.226c0.002,0.736 0.088,0.945 0.239,1.721c-6.5,7.167 -13.508,13.894 -20.365,20.717c10.908,-43.398 17.71,-87.818 25.895,-131.786c3.742,-20.101 7.068,-40.312 12.531,-60.033c-5.394,4.381 -11.376,9.046 -17.455,12.403c-12.953,10.513 -31.949,22.944 -45.93,33.275c-12.072,8.922 -31.822,23.581 -44.411,30.253c-4.781,2.533 -30.402,9.2 -36.752,10.946l-67.318,18.466z" transform="scale(0.29299 0.292969)" fill="#B7DCEF"/>
  <path id="svg_112" d="m2728.64,509.332c9.74,-5.037 18.94,-9.337 28.97,-13.711c3.84,-1.671 4.37,-5.66 8.81,-6.544c0.64,4.121 -2.63,5.533 -1.64,10.522c4.79,0.87 9.33,-1.907 13.44,-0.108c2.3,3.611 1.69,6.775 1.85,11.457c-1.05,5.958 -1.68,8.662 -1.08,14.828l1.07,-0.133l-0.32,-2.334l1.97,1.993l1.93,-0.565c1.93,-3.545 1.75,-10.901 2.14,-15.507c6.77,36.444 7.55,26.094 -10.41,60.424c-1.93,-9.386 -5.31,-23.912 -5.69,-33.055c-7.08,8.132 -15.86,17.782 -22.2,26.322c-14.31,19.275 -30.85,42.752 -48.16,59.554c0.32,-11.459 1.01,-25.291 0.78,-36.577c-7.68,4.926 -35.31,24.759 -41.48,30.737l-1.27,-0.201c0.08,-3.048 0.15,-4.612 0.64,-7.664c0.81,-4.735 2.05,-9.365 2.83,-14.114c-1.55,0.193 -2.82,0.259 -4.37,0.034c-0.27,-5.409 7.86,-13.017 11.25,-17.029c-10.84,5.7 -21.28,11.967 -31.71,18.381c-5.92,3.641 -12.52,9.167 -19.05,11.296c-0.77,-2.984 9.46,-24.477 11.35,-28.919c-8.56,3.04 -16.02,4.586 -25.12,4.709c13.13,-9.597 41.74,-23.215 56.99,-32.393c2.48,-0.573 10.19,-4.257 12.61,-5.455c2.62,-0.521 4.23,-0.743 6.89,-0.968l1.41,1.196c0.48,3.568 -5.78,13.259 -7.98,17.393c11.27,-11.377 21.24,-18.503 33.11,-28.717c5.48,-4.721 17.58,-18.63 22.27,-24.338l0.17,-0.514zm12.51,9.749c-8.11,3.264 -21.45,7.083 -27.45,13.299c0.51,1.074 0.41,1.286 1.49,1.897c2.49,1.417 4.49,2.774 5.26,5.744c0.59,2.266 0.04,4.532 -1.24,6.424c-0.48,0.713 -0.99,1.41 -1.52,2.093c-1.95,2.142 -3.8,3.276 -3.98,6.248c2.14,0.807 2.79,0.535 4.82,-0.355c6.7,-2.948 19.82,-26.779 23.26,-34.1l-0.64,-1.25z" transform="scale(0.29299 0.292969)" fill="#ECEAE5"/>
  <path id="svg_113" d="m1600.18,825.195c63.93,-61.679 126.91,-124.339 188.91,-187.957c-43.24,14.385 -86.59,28.476 -130.03,42.272c6.14,-14.815 13.05,-29.898 21,-43.832c-40.33,29.615 -83.09,56.772 -122.48,87.543c25.6,-0.828 52.25,-1.384 77.64,-4.433c-28.21,21.543 -57.85,41.586 -86.93,61.954c-25.72,18.165 -51.32,36.493 -76.81,54.983c-22.95,16.465 -46.71,32.619 -68.29,50.877c-22.87,-12.733 -40.03,-35.336 -54.89,-56.362c-1.07,13.616 -0.54,48.583 -10.19,58.579c-1.5,1.55 -3.09,2.36 -5.32,2.213c-18.2,-1.199 -43.43,-25.518 -54.05,-38.891c-1.64,13.306 -5.49,26.305 -6.79,39.708c-1.25,12.886 0.45,25.748 1.13,38.619c-18.34,-11.156 -36.85,-22.016 -55.53,-32.576c-15.5,-8.897 -31.22,-17.363 -45.41,-28.3l0.13,32.066c-28.28,-8.135 -58.66,-5.503 -86.71,-16.058c8.55,-4.665 19.62,-7.579 28.84,-10.937l60.87,-22.29l88.67,-33.884c18.9,-7.252 37.9,-15.084 57.33,-20.798c-14.11,16.807 -29.57,32.833 -44.55,48.87c76.71,-31.612 153.92,-64.686 228.24,-101.596c-32.29,7.11 -66.13,10.923 -98.85,16.152c13.96,-10.08 29.59,-18.785 44.22,-27.964l89.72,-56.341l125.98,-80.317c26.05,-16.562 52.51,-32.601 78.24,-49.657c18.87,-12.502 36.85,-26.274 55.6,-38.949c-8.59,13.871 -14.49,28.293 -19.72,43.66c17.43,-19.664 32.12,-40.398 47.14,-61.928c3.38,17.822 9.03,35.849 13.5,53.473c6.8,26.891 12.81,54.599 22.01,80.773c5.95,-20.581 13.69,-41.369 17.39,-62.481c3.98,17.473 9,34.807 13.61,52.128c3.25,12.202 5.85,25.073 10.44,36.834c-61.32,60.526 -123.69,119.976 -187.09,178.323c17.08,-6.747 33.52,-16.896 49.81,-25.411c44.58,-23.31 88.3,-48.208 132.69,-71.891c-4.47,14.362 -10.74,28.504 -16.14,42.568c23.7,-22.144 43.77,-49.298 65.14,-73.699c-6.42,21.776 -12.95,43.654 -18.54,65.657c-5.6,22.099 -10.35,45.13 -17.61,66.716c-24.46,-15.115 -48.56,-30.79 -72.3,-47.013c-10.1,11.902 -22.64,22.589 -33.88,33.447l-55.33,54.215c-16.36,-16.164 -33.3,-31.003 -51.01,-45.666c0.08,12.725 0.06,25.451 -0.06,38.176c-21.51,-3.795 -43.03,-7.784 -64.72,-10.443l-35.02,-30.132z" transform="scale(0.29299 0.292969)" fill="#88BAD6"/>
  <path id="svg_114" d="m2795.46,496.326c0.02,-2.611 -0.13,-2.977 1.19,-5.099l2.55,5.721c1.39,0.236 1.5,0.408 2.79,-0.064c0.68,3.257 1.78,7.495 1.57,10.697c-0.58,10.109 7.37,27.222 5.1,31.054c-5.32,-7.861 -10.74,-32.357 -13.2,-42.309z" transform="scale(0.29299 0.292969)" fill="#39555F"/>
  <path id="svg_115" d="m2801.99,496.884l1.64,-1.608c5.31,0.451 18.97,5.39 24.55,7.41c14.11,5.104 39.24,10.317 52.05,16.247c13.36,6.18 32.92,18.12 46.45,25.601c28.73,15.547 57.36,31.265 85.9,47.152c-71.55,-25.495 -138.87,-56.571 -209.02,-84.105c0.21,-3.202 -0.89,-7.44 -1.57,-10.697z" transform="scale(0.29299 0.292969)" fill="#C9EAFE"/>
  <path id="svg_116" d="m2780.07,510.948c0.57,-4.106 0,-5.271 2.29,-7.838c3.48,4.544 2.42,15.913 -2.62,20.199l0.32,2.334l-1.07,0.133c-0.6,-6.166 0.03,-8.87 1.08,-14.828z" transform="scale(0.29299 0.292969)" fill="#A9D1E3"/>
  <path id="svg_117" d="m2714.12,519.711c3.8,-3.562 9.5,-9.691 14.35,-9.865c-4.69,5.708 -16.79,19.617 -22.27,24.338c-11.87,10.214 -21.84,17.34 -33.11,28.717c2.2,-4.134 8.46,-13.825 7.98,-17.393l-1.41,-1.196c-2.66,0.225 -4.27,0.447 -6.89,0.968c12.24,-8.764 28.65,-15.17 41.35,-25.569z" transform="scale(0.29299 0.292969)" fill="#B7DCEF"/>
  <path id="svg_118" d="m2717.69,548.538c0.53,-0.683 1.04,-1.38 1.52,-2.093c1.28,-1.892 1.83,-4.158 1.24,-6.424c-0.77,-2.97 -2.77,-4.327 -5.26,-5.744c-1.08,-0.611 -0.98,-0.823 -1.49,-1.897c6,-6.216 19.34,-10.035 27.45,-13.299l0.64,1.25c-3.44,7.321 -16.56,31.152 -23.26,34.1c-2.03,0.89 -2.68,1.162 -4.82,0.355c0.18,-2.972 2.03,-4.106 3.98,-6.248z" transform="scale(0.29299 0.292969)" fill="#A9D1E3"/>
  <path id="svg_120" d="m1119.94,556.594c18.12,7.207 52.94,26.527 72.22,36.12c-6.92,3.891 -14.72,6.251 -21.99,9.414c-28.49,-9.413 -56.53,-21.081 -84.42,-32.15c5.74,18.131 12.94,53.985 21.3,68.899c-10.56,6.755 -21.19,13.404 -31.88,19.945c-7.23,-8.647 -15.89,-16.283 -24.06,-24.025c-18.6,-17.611 -37.93,-34.461 -56.415,-52.167c5.615,15.173 8.575,31.742 12.165,47.499c4.76,20.959 9.82,41.891 13.33,63.108l-14.79,9.371c-5.979,-14.896 -16.334,-68.873 -18.025,-85.871c-12.674,33.486 -26.534,66.502 -38.728,100.172c-2.658,7.341 -7.534,17.011 -8.455,24.672c-16.154,9.369 -32.409,18.598 -48.448,28.16c-4.795,-6.51 -7.697,-17.563 -10.81,-25.207c-9.095,-21.893 -17.882,-43.913 -26.358,-66.053l1.999,-3.35c9.932,19.909 17.149,33.945 30.22,52.081c1.133,-22.827 0.191,-45.692 -0.367,-68.518c-0.438,-30.18 -1.728,-60.342 -3.868,-90.449c17.279,25.657 46.757,56.93 68.522,79.153c-0.355,-5.515 -0.925,-11.217 -1.616,-16.705c-4.149,-32.941 -6.505,-66.292 -10.502,-99.223c38.432,25.08 88.486,50.393 129.996,70.072c-6,-16.835 -9.7,-41.2 -15.05,-59.246c21.72,7.129 52.48,14.463 75.39,20.773c-3.77,-2.282 -5.89,-3.753 -9.36,-6.475z" transform="scale(0.29299 0.292969)" fill="#413E4B"/>
  <path id="svg_121" d="m2862.27,570.732c-0.15,-0.235 -0.29,-0.472 -0.44,-0.706c-6.07,-9.471 -17.98,-19.53 -26.6,-26.899c-3.26,-2.79 -7.16,-5.082 -9.97,-8.33l0.27,-1.172c13.79,7.764 27.85,15.179 41.41,23.336c24.25,14.583 48.13,30.987 73,44.356c11.58,6.226 23.9,11.368 35.92,16.688c-12.29,-13.013 -22.18,-27.675 -30.83,-43.303c15.39,12.732 34.36,24.567 52.01,33.864c4.58,-4.014 9.09,-8.283 13.88,-12.045c13.73,5.575 114.69,45.97 117.64,50.785l-75.02,-22.446c-13.11,-3.938 -27.13,-7.211 -39.78,-12.394c15.49,26.019 28.79,51.146 49.23,73.797l-1.27,4.148c-24.29,-17.722 -48.49,-35.21 -70.99,-55.195c6.43,10.942 13.3,21.496 20.38,32.026c-1.38,2.481 -0.67,4.871 -0.25,7.541c-11.38,-7.053 -22.27,-15.876 -33.21,-23.667l-68.3,-48.555c-9.15,-6.508 -25.29,-20.349 -35.65,-23.569l-0.68,2.171c-3.01,-3.109 -9.47,-6.407 -10.75,-10.431z" transform="scale(0.29299 0.292969)" fill="#C9EAFE"/>
  <path id="svg_122" d="m1077.75,720.051c17.07,-8.309 33.52,-18.323 50.04,-27.695c34.83,-19.77 69.65,-40.223 105.18,-58.691c72.01,-37.431 147.01,-67.78 221.58,-99.621l1.03,0.167c-2.19,6.208 -159.48,112.238 -177.97,125.494c14.38,-5.708 29.91,-9.564 44.77,-13.993c24.63,-7.308 49.21,-14.792 73.73,-22.452c60.1,-18.795 120.02,-40.409 180.94,-56.33c-35.03,17.644 -68.68,38.089 -102.37,58.126c28.4,-7.725 56.75,-15.643 85.05,-23.753c-21.23,11.518 -43.42,21.543 -65.29,31.794c-32.45,15.36 -65.05,30.404 -97.79,45.131c-94.62,43.578 -189.99,85.526 -286.05,125.825c-9.87,4.078 -19.85,7.895 -29.93,11.445c23.33,-20.265 46.79,-40.39 70.36,-60.375c-52.01,26.477 -105.43,50.955 -158.656,74.915c-28.869,12.995 -58.392,25.021 -86.655,39.276c70.699,-69.384 135.451,-156.921 223.951,-204.512c-16.12,19.562 -34.03,37.333 -51.92,55.249z" transform="scale(0.29299 0.292969)" fill="#88BAD6"/>
  <path id="svg_123" d="m2802.58,579.962c-4.63,-4.649 -10.07,-10.07 -13.2,-15.873c-4.11,-7.635 5.16,-16.48 7.49,-23.588c11.03,8.2 18.16,25.369 22.32,37.989c-4.1,-3.186 -7.87,-6.837 -11.71,-10.339c-2.49,3.018 -3.61,8.103 -4.9,11.811z" transform="scale(0.29299 0.292969)" fill="#ECEAE5"/>
  <path id="svg_124" d="m1102.47,546.505l13.82,7.246c-3.87,0.59 -10.72,-3.304 -14.64,-5.123l0.82,-2.123z" transform="scale(0.29299 0.292969)" fill="#6899B0"/>
  <path id="svg_125" d="m2575.02,750.967c-12.91,-6.078 -25.16,-13.553 -38.17,-19.454c-70.32,-31.898 -140.73,-61.513 -207.83,-100.132c-17.84,-10.268 -36.86,-20.166 -52,-34.257c11.86,26.445 29.44,51.468 46.34,74.865c-34.73,-10.931 -69.36,-22.19 -103.87,-33.776c13.81,20.793 84.12,82.004 106.01,98.401c12.86,9.633 27.76,17.431 39.94,27.757c-0.34,0.75 -0.58,1.428 -1.15,2.039c-3.83,-0.372 -7.98,-0.385 -11.67,-1.545c-17.72,-5.572 -38.26,-21.768 -54.07,-32.194c2.07,10.337 2.13,21.163 2.67,31.671l-1.17,2.723c-3.11,-0.264 -7.67,-4.135 -10.33,-5.877c-43.1,-28.261 -79.05,-64.994 -116.3,-100.257c-15.68,-14.841 -33.94,-29.879 -47.69,-46.423c-9.83,-11.832 -14.65,-31.785 -20.85,-46.031c25.35,25.345 57.87,43.426 83.88,68.138c-5.35,-12.228 -7.83,-26.121 -10.75,-39.119c26.2,8.391 52.13,17.406 76.54,30.242c15.91,8.358 30.79,18.716 46.93,26.57c-9.24,-11.919 -19.22,-23.229 -28.19,-35.367c-17.32,-23.415 -33.18,-49.176 -47.53,-74.512c37.64,23.601 76.94,44.329 115.89,65.641c47.07,25.95 93.94,52.275 140.59,78.975c13.47,7.643 27.48,14.412 40.83,22.22c-13.78,-15.453 -25.75,-32.45 -39.47,-47.793c5.95,1.404 11.92,2.741 17.85,4.22c10.33,13.184 25.33,23.471 37.85,34.532c12.91,11.407 25.35,23.95 39.08,34.335c-14.5,-26.378 -29.91,-51.564 -46.64,-76.57c43.13,11.929 96.26,46.388 137.14,68.375c33.61,18.077 68.14,34.3 102.04,51.769c0.35,5.147 1.33,9.944 2.47,14.957c-13.49,2.665 -26.96,6.849 -40.17,10.679c-13.59,-15.019 -26.73,-31.082 -38.97,-47.216c0.66,20.224 -0.77,39.97 -1.64,60.14c-21.44,-9.911 -59.96,-29.397 -75.9,-45.925c-13.06,-13.534 -23.84,-30.933 -34.98,-46.131c-2.07,8.167 -4.11,16.313 -6.71,24.33z" transform="scale(0.29299 0.292969)" fill="#3980A0"/>
  <path id="svg_126" d="m2088.78,620.435c0.15,-18.957 -23.48,-53.344 -33.08,-70.776c5.84,2.502 13.16,11.459 17.89,16.006c13.02,12.507 26.89,24.848 38.6,38.587c11.48,13.46 20.59,29.418 30.42,44.132c11.88,17.808 25.65,35.92 35.16,55.137c-10.98,-8.418 -21.09,-18.75 -31.3,-28.113c-19.6,-17.982 -39.21,-35.814 -57.69,-54.973z" transform="scale(0.29299 0.292969)" fill="#3980A0"/>
  <path id="svg_127" d="m593.218,552.016l-0.635,0.671c-13.11,10.045 -28.047,45.58 -41.101,56.452c-20.975,17.468 -48.069,30.007 -69.022,48.194l67.318,-18.466c6.35,-1.746 31.971,-8.413 36.752,-10.946c12.589,-6.672 32.339,-21.331 44.411,-30.253c13.981,-10.331 32.977,-22.762 45.93,-33.275c6.079,-3.357 12.061,-8.022 17.455,-12.403c-5.463,19.721 -8.789,39.932 -12.531,60.033c-8.185,43.968 -14.987,88.388 -25.895,131.786c6.857,-6.823 13.865,-13.55 20.365,-20.717c6.465,-6.242 12.338,-13.526 18.387,-20.201c0.241,3.228 -41.69,83.524 -46.945,93.729c11.828,-10.769 22.428,-24.624 32.903,-36.773c23.13,-26.828 45.767,-53.826 67.348,-81.922c4.104,-5.343 11.918,-18.475 17.338,-20.769l-5.645,17.911c-6.494,32.645 -13.465,66.329 -16.24,99.524c1.837,-3.628 4.056,-7.35 5.339,-11.205c7.663,-9.925 14.185,-26.572 19.902,-38.006c16.653,-33.308 34.842,-73.711 54.623,-104.393c2.064,6.015 -3.755,18.54 -5.848,24.396l-0.941,0.86l-2.634,0.431c-4.469,7.048 -7.098,15.872 -10.459,23.53c-5.381,12.258 -11.321,24.313 -17.021,36.427c-17.083,35.813 -35.887,70.779 -56.347,104.776c-4.903,-14.925 -11.692,-29.09 -17.166,-43.792c-35.71,30.983 -72.097,61.273 -106.726,93.47c0.832,-22.018 -2.919,-45.334 -0.205,-67.036c2.292,-18.326 10.75,-39.004 14.912,-57.518c-14.645,12.124 -29.356,24.146 -43.262,37.125c19.889,-49.425 45.701,-96.943 68.85,-144.939c-21.05,17.346 -40.648,36.539 -60.858,54.854l-86.61,77.515c-12.152,10.933 -24.376,21.786 -36.671,32.558c-5.506,4.897 -10.957,10.783 -16.918,15.063c3.545,-11.623 8.553,-23.894 13.963,-34.774c-25.999,19.289 -53.084,37.377 -79.72,55.786c-10.693,7.389 -22.391,14.415 -32.5,22.542l-12.242,-9.523c10.647,-12.058 47.079,-36.651 61.475,-47.449l171.945,-127.409c-35.016,10.994 -71.51,27.396 -106.035,40.7l-77.38,29.774c-31.99,12.313 -62.366,23.557 -91.404,42.178c20.091,-20.269 40.001,-42.493 57.584,-64.936c-22.533,10.159 -45.975,19.361 -69.131,28.022c41.04,-27.77 81.129,-57.019 122.016,-85.034c-16.084,2.839 -32.081,7.425 -47.946,11.314c-26.625,6.373 -53.197,12.962 -79.715,19.767c-14.572,3.731 -42.755,8.956 -54.94,15.263c-14.306,7.404 -28.28,20.143 -41.279,29.884l-87.6724,66.114l-1.81,-0.006c-1.4972,2.088 -2.8523,4.203 -4.1735,6.404c-5.0284,0.457 -28.1474,20.478 -33.8739,24.491c-0.5955,0.417 -0.4388,0.362 -0.9916,1.121c-3.1819,-1.443 -5.9467,0.906 -8.3073,-0.231c-7.9068,-3.809 -6.4366,-17.939 -23.0834,-24.832c7.4996,-6.935 17.2996,-12.797 25.6316,-18.774l54.8815,-39.144c18.035,-12.856 35.996,-25.818 53.881,-38.883c9.767,-7.118 19.534,-15.104 29.797,-21.433c4.614,-2.845 11.655,-4.106 16.918,-5.599c19.709,-5.289 39.378,-10.726 59.005,-16.31c62.209,-17.497 127.524,-33.27 190.14,-51.078c17.417,-4.954 137.4,-65.857 142.814,-64.636z" transform="scale(0.29299 0.292969)" fill="#857B8A"/>
  <path id="svg_129" d="m1085.75,569.978c27.89,11.069 55.93,22.737 84.42,32.15c-21.95,11.048 -42.3,23.755 -63.12,36.749c-8.36,-14.914 -15.56,-50.768 -21.3,-68.899z" transform="scale(0.29299 0.292969)" fill="#585363"/>
  <path id="svg_130" d="m2014.22,637.66c-0.62,-9.414 -4.4,-58.105 -0.84,-63.036c2.24,4.03 3.84,12.729 3.67,17.341c-0.56,0.989 -1.75,2.561 -2.06,3.607c-1.44,4.864 1.09,26.062 2.54,31.552c0.23,0.862 0.5,1.704 0.79,2.547c-0.98,1.62 -2.99,7.53 -4.1,7.989z" transform="scale(0.29299 0.292969)" fill="#88BAD6"/>
  <path id="svg_131" d="m2796.66,644.159c-1.54,-3.403 -2.44,-7.1 -4.09,-10.406c-7.48,-14.986 -17.51,-29.512 -20.36,-46.245c7.45,6.518 12.76,14.647 19.01,22.269l0.56,-0.901c-0.11,-0.311 -0.22,-0.622 -0.33,-0.935c-2.76,-8.232 -3.1,-18.437 -3.05,-27.098c7.99,10.88 15.77,21.53 25.71,30.749c0.65,-10.545 -0.25,-18.167 -3.92,-28.127c5.53,5.385 11.38,9.456 17.64,13.906c-0.02,-3.729 -0.86,-9.719 1.22,-12.844c1.41,-0.123 2.15,-0.039 3.46,0.492c-0.21,-1.917 -0.45,-3.735 -0.92,-5.609l1.29,-0.431c9.74,13.188 20.94,33.22 26.95,48.441c-15.16,-8.597 -28.45,-18.552 -41.78,-29.719c2.89,10.294 6.86,20.244 9.5,30.608l-13.18,-9.932c6.46,12.114 23.07,29.466 32.24,42.481l0.25,2.583c-3.37,2.29 -6.4,2.499 -8.34,6.46c-2.88,-3.471 -5.75,-6.961 -8.59,-10.469c-4.56,-6.129 -8.91,-12.217 -12.8,-18.8c1.71,7.924 4.29,15.571 6.12,23.429c1.2,6.046 3.02,12.569 3.03,18.722l-1.3,-0.235c-9.6,-12.529 -19.57,-25.275 -28.32,-38.389z" transform="scale(0.29299 0.292969)" fill="#ECEAE5"/>
  <path id="svg_132" d="m2873.02,581.163l0.68,-2.171c10.36,3.22 26.5,17.061 35.65,23.569l68.3,48.555c10.94,7.791 21.83,16.614 33.21,23.667c3.72,3.207 8.24,5.792 12.34,8.505c-3.51,-5.59 -8.05,-10.817 -12.09,-16.046c-7.08,-10.53 -13.95,-21.084 -20.38,-32.026c22.5,19.985 46.7,37.473 70.99,55.195c4.82,3.511 9.79,6.816 14.71,10.179c-4.25,-4.939 -8.97,-9.588 -13.44,-14.327c-20.44,-22.651 -33.74,-47.778 -49.23,-73.797c12.65,5.183 26.67,8.456 39.78,12.394l75.02,22.446c5.51,2.495 12.28,4.464 18.39,3.978c32.94,14.599 65.19,30.85 97.71,46.352c73.63,35.053 147.06,70.545 220.27,106.475c0.35,7.356 -3.06,13.914 -2.92,21.073l-0.64,0.029c-4.12,-6.632 -25.43,-18.146 -33.21,-21.44c-25.63,-10.902 -52.79,-18.904 -79.25,-27.551c14.91,11.722 30.7,22.351 46.2,33.285c7.91,5.583 16.43,10.911 23.51,17.535c-30.94,-16.259 -64.84,-28.686 -96.97,-42.556l-221.26,-93.386c23.21,28.968 50.41,56.211 76.49,82.645c-22.2,-10.513 -43.26,-23.269 -64.43,-35.686c14.88,17.628 30.32,35.118 43.47,54.094c-36.11,-21.127 -70.13,-45.837 -106.05,-67.377c-23.18,-13.899 -47.61,-25.34 -71.74,-37.43c10.38,17.261 18.88,35.781 27.55,53.933c-15.89,-13.292 -31.07,-27.411 -45.48,-42.299c-22.04,-23.002 -42.61,-47.52 -66.68,-68.468c17.89,30.508 36.64,60.572 54,91.383l21.24,38.492c3.49,6.347 6.76,13.743 11.27,19.399c-3.56,2.949 -9.17,6.899 -11.78,10.699c-7.94,-9.576 -14.6,-22.022 -21.38,-32.51c-16.26,-25.155 -35.31,-51.272 -47.15,-78.875c-0.19,6.868 3.37,21.334 0.72,27.064c-7.61,-11.569 -13.02,-24.421 -19.75,-36.51c-2.61,-8.55 3.45,-25.535 3,-35.447c-0.79,-17.04 -6.01,-36.634 -10.67,-53.044z" transform="scale(0.29299 0.292969)" fill="#413E4B"/>
  <path id="svg_133" d="m2603.17,583.128c9.1,-0.123 16.56,-1.669 25.12,-4.709c-1.89,4.442 -12.12,25.935 -11.35,28.919l2.31,2.035c-4.5,1.59 -13.22,3.664 -15.64,7.758c-0.21,11.261 0.3,23.087 1.72,34.263c0.69,5.483 2.26,11.196 2.61,16.655c-4.9,-2.531 -9.6,-5.888 -14.02,-9.174c-0.84,-20.656 -0.21,-47.394 8.54,-66.465c-17.35,10.985 -57.74,31.369 -77.38,34.587c2.54,-3.554 69.33,-26.998 73.48,-35.665l-0.84,-1.72c-11.32,-1.18 -48.1,28.739 -57.03,26.211c16.47,-7.822 32.4,-17.075 48.6,-25.473c4.68,-1.991 9.36,-4.849 13.88,-7.222z" transform="scale(0.29299 0.292969)" fill="#B7DCEF"/>
  <path id="svg_134" d="m2661.76,642.523c10.92,20.592 14.64,44.139 19.64,66.608l1.38,0.082c6.57,-6.743 42.69,-87.422 49.82,-102.713c4.21,-9.038 7.66,-18.651 13.59,-26.769c3.6,3.921 6.21,10.027 9.3,14.547c6.45,9.467 13.27,18.68 19.61,28.222c5.52,8.282 10.63,17.235 16.76,25.028l0.44,0.553c9.09,16.245 26.49,51.083 37.33,63.876l0.95,-0.06c-0.11,-2.754 -0.19,-5.504 -0.47,-8.248c1.28,1.816 1.82,3.951 2.51,6.04c0.76,-2.142 1.17,-4.202 1.52,-6.439c6.76,19.49 13.56,44.9 22.72,62.906c-9.46,-6.606 -18.81,-13.358 -28.06,-20.253c4.44,13.368 8.94,26.654 12.39,40.32l-19.34,-6.737c-31.03,-29.463 -51.85,-69.707 -68.82,-108.529c-4.1,-9.381 -8.6,-18.78 -11.65,-28.562c-12.69,27.59 -32.7,52.687 -49.52,77.977c-19.85,-13.65 -40.83,-26.285 -61.45,-38.768c10.9,-12.541 20.96,-26.096 31.35,-39.081z" transform="scale(0.29299 0.292969)" fill="#857B8A"/>
  <path id="svg_135" d="m2616.94,607.338c6.53,-2.129 13.13,-7.655 19.05,-11.296c10.43,-6.414 20.87,-12.681 31.71,-18.381c-3.39,4.012 -11.52,11.62 -11.25,17.029c1.55,0.225 2.82,0.159 4.37,-0.034c-0.78,4.749 -2.02,9.379 -2.83,14.114c-2.09,4.31 -2.64,8.798 -5.57,12.667c-0.57,0.757 -1.11,1.531 -1.69,2.285l-0.89,0.094c-2.12,-2.504 1.17,-6.566 0.17,-10.045c-9.07,-1.949 -6.97,-7.292 -12.56,-9.903c-5.01,-0.842 -13.53,3.599 -18.2,5.505l-2.31,-2.035z" transform="scale(0.29299 0.292969)" fill="#A9D1E3"/>
  <path id="svg_136" d="m994.695,582.63c18.485,17.706 37.815,34.556 56.415,52.167c8.17,7.742 16.83,15.378 24.06,24.025c-17.96,11.968 -36.65,23.02 -54.98,34.415c-3.51,-21.217 -8.57,-42.149 -13.33,-63.108c-3.59,-15.757 -6.55,-32.326 -12.165,-47.499z" transform="scale(0.29299 0.292969)" fill="#585363"/>
  <path id="svg_137" d="m2017.05,591.965c6.22,16.018 11.75,52.682 15.37,71.336c-0.56,-0.219 -1.07,-0.455 -1.56,-0.8c-7.07,-4.985 -10.79,-24.83 -12.54,-32.83c-0.29,-0.843 -0.56,-1.685 -0.79,-2.547c-1.45,-5.49 -3.98,-26.688 -2.54,-31.552c0.31,-1.046 1.5,-2.618 2.06,-3.607z" transform="scale(0.29299 0.292969)" fill="#6899B0"/>
  <path id="svg_138" d="m2525.08,626.997c19.64,-3.218 60.03,-23.602 77.38,-34.587c-8.75,19.071 -9.38,45.809 -8.54,66.465c-21,-12.436 -45.16,-25.291 -69.04,-30.971l0.2,-0.907z" transform="scale(0.29299 0.292969)" fill="#857B8A"/>
  <path id="svg_139" d="m2418.46,747.272c-25.23,-15.76 -53.04,-30.539 -80.69,-41.555c13.72,21.271 28.79,40.923 40.97,63.236c-4.75,-0.695 -9.86,-1.084 -14.45,-2.543c0.57,-0.611 0.81,-1.289 1.15,-2.039c-12.18,-10.326 -27.08,-18.124 -39.94,-27.757c-21.89,-16.397 -92.2,-77.608 -106.01,-98.401c34.51,11.586 69.14,22.845 103.87,33.776c-16.9,-23.397 -34.48,-48.42 -46.34,-74.865c15.14,14.091 34.16,23.989 52,34.257c67.1,38.619 137.51,68.234 207.83,100.132c13.01,5.901 25.26,13.376 38.17,19.454c-3.92,16.357 -9.54,34.424 -15.96,49.945c-7.17,-4.615 -14.49,-9.87 -22.15,-13.621c-7.69,-13.443 -15.26,-28.808 -20.23,-43.471c-5.54,18.363 -11.55,37.825 -20.18,54.971c-2.58,-3.022 -20.7,-13.197 -25.67,-16.52c-12.49,-8.365 -23.71,-18.67 -36.36,-26.662c-3.65,-2.307 -7.71,-4.888 -12.06,-5.414l-3.95,-2.923z" transform="scale(0.29299 0.292969)" fill="#39555F"/>
  <path id="svg_140" d="m2619.25,609.373c4.67,-1.906 13.19,-6.347 18.2,-5.505c5.59,2.611 3.49,7.954 12.56,9.903c1,3.479 -2.29,7.541 -0.17,10.045l0.89,-0.094c-3.24,10.365 -29.33,41.614 -38.65,47.099l-4.14,-2.772c-0.35,-5.459 -1.92,-11.172 -2.61,-16.655c-1.42,-11.176 -1.93,-23.002 -1.72,-34.263c2.42,-4.094 11.14,-6.168 15.64,-7.758z" transform="scale(0.29299 0.292969)" fill="#ECEAE5"/>
  <path id="svg_141" d="m823.275,620.987l3.563,-9.009c4.022,10.122 22.184,43.019 22.82,49.18c-1.933,5.792 2.896,11.818 4.918,17.323c8.476,22.14 17.263,44.16 26.358,66.053c3.113,7.644 6.015,18.697 10.81,25.207c-47.735,24.314 -94.046,51.417 -141.241,76.727l-0.964,-1.139c15.325,-48.195 31.294,-96.183 47.903,-143.951c6.118,-18.127 14.787,-36.514 19.044,-55.135l0.941,-0.86c2.093,-5.856 7.912,-18.381 5.848,-24.396z" transform="scale(0.29299 0.292969)" fill="#677183"/>
  <path id="svg_142" d="m987.375,616.737c1.691,16.998 12.046,70.975 18.025,85.871l-65.208,38.973c0.921,-7.661 5.797,-17.331 8.455,-24.672c12.194,-33.67 26.054,-66.686 38.728,-100.172z" transform="scale(0.29299 0.292969)" fill="#585363"/>
  <path id="svg_143" d="m2014.22,637.66c1.11,-0.459 3.12,-6.369 4.1,-7.989c1.75,8 5.47,27.845 12.54,32.83c0.49,0.345 1,0.581 1.56,0.8c0.55,2.588 1.1,4.809 2.34,7.183c3.31,9.3 4.24,19.591 5.87,29.308l7.94,47.498c3.75,22.421 10.68,50.479 11.62,72.563c-13.61,-8.761 -27.46,-17.396 -40.26,-27.337c1.05,14.367 3.11,28.541 4.56,42.858c-18.52,-15.866 -38.6,-29.881 -56.71,-46.236c-14.41,17.092 -28.48,35.116 -44.03,51.171c-3.49,-2.341 -6.98,-4.998 -10.67,-6.988c6.6,-5.425 12.36,-15.934 17.66,-22.797c8.49,-10.993 18.81,-22.33 25.26,-34.678c6.68,-12.778 9.71,-28.474 13.5,-42.353c5.93,-21.271 11.52,-42.636 16.77,-64.087c4.25,-17.505 7.87,-35.571 13.31,-52.728c1.9,23.45 5.6,48.39 11.07,71.287c1.56,7.817 3.07,15.644 4.52,23.481c1.48,-20.247 -0.04,-51.236 -1.48,-71.722l0.53,-2.064z" transform="scale(0.29299 0.292969)" fill="#88BAD6"/>
  <path id="svg_144" d="m2010.65,687.965c0.07,-0.82 0.09,-1.52 0.53,-2.245c4.9,-8.123 -3.59,-46.911 1.12,-58.374c0.15,3.925 0.25,7.78 1.2,11.615l0.19,0.763c1.44,20.486 2.96,51.475 1.48,71.722c-1.45,-7.837 -2.96,-15.664 -4.52,-23.481z" transform="scale(0.29299 0.292969)" fill="#7A637B"/>
  <path id="svg_145" d="m730.025,811.407c20.46,-33.997 39.264,-68.963 56.347,-104.776c5.7,-12.114 11.64,-24.169 17.021,-36.427c3.361,-7.658 5.99,-16.482 10.459,-23.53l2.634,-0.431c-4.257,18.621 -12.926,37.008 -19.044,55.135c-16.609,47.768 -32.578,95.756 -47.903,143.951c-3.518,5.065 -23.662,12.923 -30.45,16.068c-4.639,-5.423 -9.247,-10.874 -13.822,-16.351c-15.504,22.117 -39.224,46.174 -57.627,66.638c-11.417,-15.986 -23.264,-33.623 -32.104,-51.177c-11.319,25.66 -15.714,28.035 -21.034,57.497c-19.031,-18.405 -39.861,-36.823 -60.909,-52.881c-5.258,-4.011 -12.539,-5.607 -17.405,-9.951c-9.581,-8.553 -17.264,-20.318 -25.078,-30.464c-1.863,21.227 -3.682,41.056 -7.8,62.026l-40.263,-12.347c-7.695,-9.025 -14.838,-18.421 -21.997,-27.87c-0.701,24.608 -2.772,34.859 -15.524,55.922c-18.874,-17.587 -38.4,-33.911 -58.412,-50.178c10.109,-8.127 21.807,-15.153 32.5,-22.542c26.636,-18.409 53.721,-36.497 79.72,-55.786c-5.41,10.88 -10.418,23.151 -13.963,34.774c5.961,-4.28 11.412,-10.166 16.918,-15.063c12.295,-10.772 24.519,-21.625 36.671,-32.558l86.61,-77.515c20.21,-18.315 39.808,-37.508 60.858,-54.854c-23.149,47.996 -48.961,95.514 -68.85,144.939c13.906,-12.979 28.617,-25.001 43.262,-37.125c-4.162,18.514 -12.62,39.192 -14.912,57.518c-2.714,21.702 1.037,45.018 0.205,67.036c34.629,-32.197 71.016,-62.487 106.726,-93.47c5.474,14.702 12.263,28.867 17.166,43.792z" transform="scale(0.29299 0.292969)" fill="#88BAD6"/>
  <path id="svg_146" d="m762.883,640.299c4.527,-3.854 9.077,-7.663 13.333,-11.82c-2.118,5.307 -4.454,10.623 -6.265,16.039c-1.591,0.91 -2.925,0.881 -4.728,0.928c-1.942,-1.665 -1.835,-2.784 -2.34,-5.147z" transform="scale(0.29299 0.292969)" fill="#A9D1E3"/>
  <path id="svg_147" d="m2980.03,779.786c-4.51,-5.656 -7.78,-13.052 -11.27,-19.399l-21.24,-38.492c-17.36,-30.811 -36.11,-60.875 -54,-91.383c24.07,20.948 44.64,45.466 66.68,68.468c14.41,14.888 29.59,29.007 45.48,42.299c-8.67,-18.152 -17.17,-36.672 -27.55,-53.933c24.13,12.09 48.56,23.531 71.74,37.43c35.92,21.54 69.94,46.25 106.05,67.377c-13.15,-18.976 -28.59,-36.466 -43.47,-54.094c21.17,12.417 42.23,25.173 64.43,35.686c-26.08,-26.434 -53.28,-53.677 -76.49,-82.645l221.26,93.386c32.13,13.87 66.03,26.297 96.97,42.556c-7.08,-6.624 -15.6,-11.952 -23.51,-17.535c-15.5,-10.934 -31.29,-21.563 -46.2,-33.285c26.46,8.647 53.62,16.649 79.25,27.551l-1.72,1.094l-1.97,-0.414c-2.33,7.943 2.42,35.352 2.54,45.804c-20.75,-13.009 -42.52,-24.713 -63.93,-36.614c-13.72,-7.63 -28.02,-15.083 -40.63,-24.485c5.3,12.58 11.33,24.96 17.48,37.148c-15.61,-0.062 -31.21,0.84 -46.71,2.702c-13.09,-12.178 -25.21,-25.583 -37.39,-38.662c3.91,18.075 8.46,36.59 11.17,54.881c-5.36,6.164 -10.75,12.195 -16.55,17.947c-14.88,-9.605 -29.88,-19.027 -44.99,-28.263c-20.33,-12.46 -41.36,-24.234 -58.32,-41.286c-10.7,16.686 -25.38,30.675 -35.96,47.476c-9.15,-13.988 -17.83,-27.884 -24.75,-43.151c-1.71,3.708 -3.51,7.399 -5.09,11.168c-12.85,-5.286 -26.19,-8.847 -38.84,-14.731c9.09,15.324 17.11,31.136 20.54,48.756c-9.32,-16.896 -25.12,-31.897 -37.7,-46.442c-9.66,-11.165 -18.68,-22.889 -27.79,-34.503c-5.3,6.271 -11.63,11.87 -17.52,17.588z" transform="scale(0.29299 0.292969)" fill="#585363"/>
  <path id="svg_148" d="m1600.18,825.195l-10.87,-9.622c0.6,11.294 1.57,24.752 -1.62,35.777l-1.28,-3.826c-8.13,7.231 -17.06,17.215 -23.44,26.031c-8.1,-4.197 -16.16,-8.743 -24.47,-12.491c-3.66,8.876 -7.75,17.929 -12.74,26.137c-3.51,-2.169 -7,-4.427 -10.56,-6.51c14.39,-21.077 31.91,-39.775 46.07,-60.977c-27.14,12.138 -53.16,27.123 -80.05,39.888c-4.09,-2.715 -8.31,-5.333 -12.16,-8.379c-0.06,4.046 0.77,10.91 -0.65,14.562l-1.96,-1.108c-12.97,4.827 -25.42,10.915 -37.98,16.684c-5.69,2.613 -12.3,4.892 -17.62,8.098c-2.57,-0.915 -5.11,-1.902 -7.66,-2.857c21.58,-18.258 45.34,-34.412 68.29,-50.877c25.49,-18.49 51.09,-36.818 76.81,-54.983c29.08,-20.368 58.72,-40.411 86.93,-61.954c-25.39,3.049 -52.04,3.605 -77.64,4.433c39.39,-30.771 82.15,-57.928 122.48,-87.543c-7.95,13.934 -14.86,29.017 -21,43.832c43.44,-13.796 86.79,-27.887 130.03,-42.272c-62,63.618 -124.98,126.278 -188.91,187.957z" transform="scale(0.29299 0.292969)" fill="#857B8A"/>
  <path id="svg_149" d="m694.652,702.891c3.111,-7.397 58.103,-54.984 68.231,-62.592c0.505,2.363 0.398,3.482 2.34,5.147c1.803,-0.047 3.137,-0.018 4.728,-0.928c-0.766,1.907 -3.376,12.026 -4.655,12.638c-5.42,2.294 -13.234,15.426 -17.338,20.769c-21.581,28.096 -44.218,55.094 -67.348,81.922c-10.475,12.149 -21.075,26.004 -32.903,36.773c5.255,-10.205 47.186,-90.501 46.945,-93.729z" transform="scale(0.29299 0.292969)" fill="#B7DCEF"/>
  <path id="svg_150" d="m2691.86,720.372c16.82,-25.29 36.83,-50.387 49.52,-77.977c3.05,9.782 7.55,19.181 11.65,28.562c16.97,38.822 37.79,79.066 68.82,108.529c-10.27,-3.686 -20.65,-7.15 -30.97,-10.708c-4.14,-9.573 -15.84,-35.522 -21.94,-41.98l-0.74,1.663c-0.61,9.977 0.07,20.149 0.35,30.139c-32.42,-12.408 -48.05,-17.53 -76.69,-38.228z" transform="scale(0.29299 0.292969)" fill="#88BAD6"/>
  <path id="svg_151" d="m2792.3,648.081c1.33,-1.732 2.48,-2.809 4.36,-3.922c8.75,13.114 18.72,25.86 28.32,38.389l1.3,0.235c2.71,5.924 2.38,13.546 3.61,19.927l0.22,0.939c0.28,2.744 0.36,5.494 0.47,8.248l-0.95,0.06c-10.84,-12.793 -28.24,-47.631 -37.33,-63.876z" transform="scale(0.29299 0.292969)" fill="#A9D1E3"/>
  <path id="svg_152" d="m2817.13,640.632c3.89,6.583 8.24,12.671 12.8,18.8l-3.34,-0.142c-1.2,1.543 -2.27,3.138 -3.34,4.771c-1.83,-7.858 -4.41,-15.505 -6.12,-23.429z" transform="scale(0.29299 0.292969)" fill="#677183"/>
  <path id="svg_153" d="m2846.61,660.858c3.19,3.568 6.34,7.352 9.96,10.484c-0.83,-4.929 -1.98,-9.992 -2.37,-14.969c1.65,3.999 3.28,9.124 5.97,12.539c-0.88,2.848 -1.59,5.537 -2,8.493l-1.07,1.127l-1.67,-0.414c-0.72,-2.065 -1.05,-4.01 -1.31,-6.179c-3.02,1.962 -4,6.971 -6.22,9.885c-3.31,-3.861 -6.36,-7.84 -9.38,-11.923c1.94,-3.961 4.97,-4.17 8.34,-6.46l-0.25,-2.583z" transform="scale(0.29299 0.292969)" fill="#C9EAFE"/>
  <path id="svg_154" d="m92.3896,800.926l87.6724,-66.114c12.999,-9.741 26.973,-22.48 41.279,-29.884c12.185,-6.307 40.368,-11.532 54.94,-15.263c26.518,-6.805 53.09,-13.394 79.715,-19.767c15.865,-3.889 31.862,-8.475 47.946,-11.314c-40.887,28.015 -80.976,57.264 -122.016,85.034c23.156,-8.661 46.598,-17.863 69.131,-28.022c-17.583,22.443 -37.493,44.667 -57.584,64.936c29.038,-18.621 59.414,-29.865 91.404,-42.178l77.38,-29.774c34.525,-13.304 71.019,-29.706 106.035,-40.7l-171.945,127.409c-14.396,10.798 -50.828,35.391 -61.475,47.449c-9.346,-7.72 -13.527,-14.894 -19.172,-25.592c-13.122,17.473 -29.675,33.434 -45.285,48.701c-6.239,-11.409 -12.165,-22.987 -17.772,-34.72c-5.826,12.656 -10.948,25.624 -16.861,38.25c-22.269,-27.298 -41.973,-57.324 -62.365,-86.064c-18.128,25.847 -39.272,52.194 -63.764,72.182c-4.323,-18.612 -10.0954,-36.857 -17.2634,-54.569z" transform="scale(0.29299 0.292969)" fill="#88BAD6"/>
  <path id="svg_155" d="m2829.93,659.432c2.84,3.508 5.71,6.998 8.59,10.469c3.02,4.083 6.07,8.062 9.38,11.923c7.24,10.041 17.11,18.922 25.79,27.726c19.87,20.149 41.01,39.915 59.76,61.061c3.51,4.17 6.77,7.989 11.2,11.246c1.42,2.21 3.08,4.411 3.94,6.909c-19.45,-6.143 -76.11,-60.773 -93.04,-76.49c-7.06,-6.549 -14.83,-15.489 -22.81,-20.677l-1.26,1.555l-1.04,-0.187c-0.28,3.254 -0.47,6.478 -0.55,9.743c-1.23,-6.381 -0.9,-14.003 -3.61,-19.927c-0.01,-6.153 -1.83,-12.676 -3.03,-18.722c1.07,-1.633 2.14,-3.228 3.34,-4.771l3.34,0.142z" transform="scale(0.29299 0.292969)" fill="#857B8A"/>
  <path id="svg_157" d="m854.576,678.481c-2.022,-5.505 -6.851,-11.531 -4.918,-17.323c2.633,4.528 4.772,9.204 6.917,13.973l-1.999,3.35z" transform="scale(0.29299 0.292969)" fill="#585363"/>
  <path id="svg_158" d="m3010.86,674.783c-0.42,-2.67 -1.13,-5.06 0.25,-7.541c4.04,5.229 8.58,10.456 12.09,16.046c-4.1,-2.713 -8.62,-5.298 -12.34,-8.505z" transform="scale(0.29299 0.292969)" fill="#B7DCEF"/>
  <path id="svg_159" d="m759.651,675.067c0.147,1.514 0.415,3.032 0.634,4.538c2.36,-0.738 5.696,-7.339 7.438,-9.688c-1.067,6.532 -6.018,10.37 -7.748,16.323c-1.652,5.679 -13.272,71.9 -12.577,74.65c0.185,0.733 0.973,1.797 1.352,2.496c-1.283,3.855 -3.502,7.577 -5.339,11.205c2.775,-33.195 9.746,-66.879 16.24,-99.524z" transform="scale(0.29299 0.292969)" fill="#B7DCEF"/>
  <path id="svg_160" d="m2034.76,670.484c30.47,36.315 61.73,72.72 97.69,103.788c-5.89,-15.727 -13.37,-31.613 -18.01,-47.684c16.09,22.008 34.6,43.051 47.98,66.894c-12.47,-5.407 -25.58,-10.598 -37.38,-17.372c8.36,19.065 18.91,37.087 26.97,56.259c-20.88,-5.558 -50.04,-11.464 -69.54,-19.066c3.11,7.84 6.08,15.739 8.9,23.692c-10.74,-5.07 -21.15,-10.795 -31.18,-17.142c-0.94,-22.084 -7.87,-50.142 -11.62,-72.563l-7.94,-47.498c-1.63,-9.717 -2.56,-20.008 -5.87,-29.308z" transform="scale(0.29299 0.292969)" fill="#3980A0"/>
  <path id="svg_161" d="m2183.45,802.086c-11.03,-19.831 -24.47,-38.278 -36.61,-57.433c-15.07,-24.082 -29.05,-48.824 -41.91,-74.151c18.68,20.077 35.07,42.618 52.94,63.465c19.42,22.67 40.71,42.78 63.35,62.229c4.83,4.148 28.29,22.712 28.44,28.339c-21.22,-6.368 -46.54,-12.567 -66.21,-22.449z" transform="scale(0.29299 0.292969)" fill="#3980A0"/>
  <path id="svg_162" d="m2900.44,706.164c2.65,-5.73 -0.91,-20.196 -0.72,-27.064c11.84,27.603 30.89,53.72 47.15,78.875c6.78,10.488 13.44,22.934 21.38,32.51l-11.35,11.187c-2.87,-4.247 -5.35,-8.697 -8.31,-12.906c-0.86,-2.498 -2.52,-4.699 -3.94,-6.909l-7.15,-12.057c-6.36,-9.353 -11.46,-19.676 -17.03,-29.523c-6.48,-11.479 -13.39,-22.718 -20.03,-34.113z" transform="scale(0.29299 0.292969)" fill="#585363"/>
  <path id="svg_164" d="m3062.99,686.263c4.47,4.739 9.19,9.388 13.44,14.327c-4.92,-3.363 -9.89,-6.668 -14.71,-10.179l1.27,-4.148z" transform="scale(0.29299 0.292969)" fill="#A9D1E3"/>
  <path id="svg_165" d="m2831.48,693.154l1.26,-1.555c7.98,5.188 15.75,14.128 22.81,20.677c16.93,15.717 73.59,70.347 93.04,76.49c2.96,4.209 5.44,8.659 8.31,12.906c-4.97,4.764 -9.9,9.586 -14.93,14.287c-9.75,-3.532 -19.5,-7.365 -29.57,-9.882c-5.31,-8.667 -8.61,-19.095 -12.21,-28.577c-3.66,7.544 -7.19,15.148 -10.6,22.809c-16.16,-4.585 -32.3,-9.28 -48.4,-14.086c-3.45,-13.666 -7.95,-26.952 -12.39,-40.32c9.25,6.895 18.6,13.647 28.06,20.253c-9.16,-18.006 -15.96,-43.416 -22.72,-62.906c-1.33,-3.083 -1.88,-6.817 -2.66,-10.096z" transform="scale(0.29299 0.292969)" fill="#88BAD6"/>
  <path id="svg_166" d="m2829.89,702.71c0.08,-3.265 0.27,-6.489 0.55,-9.743l1.04,0.187c0.78,3.279 1.33,7.013 2.66,10.096c-0.35,2.237 -0.76,4.297 -1.52,6.439c-0.69,-2.089 -1.23,-4.224 -2.51,-6.04l-0.22,-0.939z" transform="scale(0.29299 0.292969)" fill="#677183"/>
  <path id="svg_167" d="m2337.77,705.717c27.65,11.016 55.46,25.795 80.69,41.555c-1.33,9.061 -2.98,18.185 -3.95,27.287c-11.91,-1.931 -23.83,-3.8 -35.77,-5.606c-12.18,-22.313 -27.25,-41.965 -40.97,-63.236z" transform="scale(0.29299 0.292969)" fill="#3980A0"/>
  <path id="svg_168" d="m2768.2,728.461l0.74,-1.663c6.1,6.458 17.8,32.407 21.94,41.98c8.32,8.765 23.05,15.758 33.41,22.167c18.51,11.241 36.85,22.774 54.99,34.595c3.13,-8.491 6.07,-17.22 10.31,-25.231c3.41,-7.661 6.94,-15.265 10.6,-22.809c3.6,9.482 6.9,19.91 12.21,28.577c1.87,3.681 3.75,7.306 5.91,10.826c2.4,5.079 4.67,10.318 7.57,15.135l14.06,-14.629l2.03,-1.45c5.03,-4.701 9.96,-9.523 14.93,-14.287l11.35,-11.187c2.61,-3.8 8.22,-7.75 11.78,-10.699c5.89,-5.718 12.22,-11.317 17.52,-17.588c9.11,11.614 18.13,23.338 27.79,34.503c12.58,14.545 28.38,29.546 37.7,46.442l1.86,1.218c4.25,-2.977 13.81,-29.163 16.44,-35.243c1.58,-3.769 3.38,-7.46 5.09,-11.168c6.92,15.267 15.6,29.163 24.75,43.151c10.58,-16.801 25.26,-30.79 35.96,-47.476c16.96,17.052 37.99,28.826 58.32,41.286c15.11,9.236 30.11,18.658 44.99,28.263c5.8,-5.752 11.19,-11.783 16.55,-17.947c-2.71,-18.291 -7.26,-36.806 -11.17,-54.881c12.18,13.079 24.3,26.484 37.39,38.662c15.5,-1.862 31.1,-2.764 46.71,-2.702c-6.15,-12.188 -12.18,-24.568 -17.48,-37.148c12.61,9.402 26.91,16.855 40.63,24.485c21.41,11.901 43.18,23.605 63.93,36.614c-0.12,-10.452 -4.87,-37.861 -2.54,-45.804l1.97,0.414c10.78,6.985 23,15.666 34.93,20.346l0.64,-0.029c6.65,3.737 24.73,0.913 32.99,0.927l0,83.256c-8.87,-13.219 -17.19,-27.178 -24.79,-41.17c-15.06,15.497 -30.2,30.912 -45.43,46.243c-23.23,-8.812 -46.57,-19.416 -70.24,-26.801c-12.77,17.239 -27.82,32.865 -41.88,49.04l-4.53,-15.579c-20.25,9.342 -40.58,18.507 -60.98,27.496c-33.35,-26.702 -68.49,-51.238 -102.97,-76.46c-44.06,15.126 -88.84,28.317 -132.75,43.803c-0.12,-17.752 -0.41,-36.345 1.33,-54.005c-32.15,16.073 -64,32.941 -96.04,49.259c-5.85,-14.292 -10.98,-29.071 -15.72,-43.764c-16.79,9.042 -34.18,16.98 -50.78,26.326c-19.82,-12.721 -40.13,-26.073 -61.26,-36.532c-29.23,17.318 -60.41,33.38 -86.86,54.782c-2.86,-7.767 -5.15,-15.732 -6.86,-23.832c-9.75,7.634 -19.91,14.668 -30.06,21.752c-13.33,-15.711 -27.8,-30.957 -40.5,-47.154c-26.64,16.967 -54.4,32.659 -80.4,50.549c-8.36,-16.722 -17.85,-33.214 -25.59,-50.186c-16.04,12.862 -33.7,23.232 -50.15,35.441c-28.76,-21.153 -62.43,-37.268 -93.33,-55.205c-18.13,23.42 -35.02,48.179 -53.95,70.923c-17.47,-14.258 -36.78,-26.927 -53.56,-41.856c-22.77,25.784 -47.64,50.061 -69.27,76.816c-35.41,-19.09 -72.79,-33.329 -110.2,-47.896c-13.7,-5.337 -27.33,-11.862 -41.24,-16.521c-32.36,22.135 -65.6,42.312 -96.05,67.206c-15.01,-16.572 -28.02,-36.43 -41.3,-54.483c-17.99,21.699 -42.26,38.894 -58.94,61.429c-15.15,-11.936 -31.53,-22.303 -46.6,-34.226c-9.97,7.775 -20.11,15.398 -29.91,23.387c-20.96,-8.857 -42.15,-18.186 -62.46,-28.45c-22.24,20.523 -46.88,39.022 -67.77,60.906c-8.92,-5.076 -17.71,-10.375 -26.36,-15.892c-3.02,6.903 -6.31,13.806 -8.32,21.089c-23.48,-8.467 -47.08,-16.61 -70.79,-24.427c-1.87,-4.603 -3.69,-9.224 -5.47,-13.862c-41,17.276 -83.61,31.136 -125.05,47.378c-15.3,-13.475 -31.93,-25.433 -48.22,-37.664c-22.27,13.993 -44.44,28.136 -66.52,42.429c-18.52,-10.547 -38.32,-18.587 -56.86,-29.128c-15.28,10.734 -30.18,22.827 -44.41,34.922c-19.14,-6.99 -38.32,-13.847 -57.55,-20.57c-11.48,-4.051 -23.13,-8.677 -34.88,-11.877c-22.62,15.33 -52.25,33.637 -72.68,50.997l-18.8,0c-11.577,-8.98 -25.659,-16.25 -38.217,-23.82c-24.605,-14.832 -49.285,-29.832 -74.58,-43.47c-46.218,15.233 -93.473,27.61 -139.284,44.06c-1.225,-17.377 -1.888,-34.791 -1.988,-52.212c-12.809,7.484 -26.319,13.843 -39.486,20.68c-19.606,10.28 -39.076,20.819 -58.405,31.612c-9.425,-16.759 -19.801,-33.199 -28.189,-50.495c-21.465,12.889 -43.484,25.001 -65.208,37.459c-22.125,-17.822 -45.914,-33.691 -69.417,-49.615c-30.913,16.412 -61.513,33.416 -92.559,49.574l3.458,-12.668l-36.04,8.063c-5.034,-9.518 -9.582,-20.122 -15.795,-28.908c-11.392,-16.112 -38.717,-39.364 -53.611,-54.919c-39.39,17.646 -80.875,31.399 -120.841,47.889l15.294,-59.529c-35.924,15.461 -69.282,40.481 -101.0553,63.017c0.2683,-17.923 0.7613,-35.842 1.4789,-53.753c-24.0998,12.376 -48.3901,24.378 -72.8622,36.001c-3.2701,-6.887 -5.12,-13.47 -7.5341,-20.665c-1.1019,-3.284 -2.4856,-6.786 -5.76534,-8.398c-3.34343,0.505 -4.79309,2.143 -7.44396,4.186l0,-67.591c4.40412,-4.309 8.55089,-8.848 12.7236,-13.379c4.7228,4.356 8.6853,9.25 14.4706,12.213l0.946,-0.68c-2.6229,-5.791 -7.74,-10.467 -11.9859,-15.114c-6.24579,-7.409 -9.69298,-17.148 -16.1543,-24.689l0,-4.884c6.75959,4.573 13.4765,9.209 20.1499,13.908c16.6468,6.893 15.1766,21.023 23.0834,24.832c2.3606,1.137 5.1254,-1.212 8.3073,0.231c4.2812,9.241 8.4288,18.544 12.4416,27.905c3.9313,-19.737 12.2023,-36.456 22.4239,-53.517c1.3212,-2.201 2.6763,-4.316 4.1735,-6.404l1.81,0.006c7.168,17.712 12.9404,35.957 17.2634,54.569c24.492,-19.988 45.636,-46.335 63.764,-72.182c20.392,28.74 40.096,58.766 62.365,86.064c5.913,-12.626 11.035,-25.594 16.861,-38.25c5.607,11.733 11.533,23.311 17.772,34.72c15.61,-15.267 32.163,-31.228 45.285,-48.701c5.645,10.698 9.826,17.872 19.172,25.592l12.242,9.523c20.012,16.267 39.538,32.591 58.412,50.178c12.752,-21.063 14.823,-31.314 15.524,-55.922c7.159,9.449 14.302,18.845 21.997,27.87l40.263,12.347c4.118,-20.97 5.937,-40.799 7.8,-62.026c7.814,10.146 15.497,21.911 25.078,30.464c4.866,4.344 12.147,5.94 17.405,9.951c21.048,16.058 41.878,34.476 60.909,52.881c5.32,-29.462 9.715,-31.837 21.034,-57.497c8.84,17.554 20.687,35.191 32.104,51.177c18.403,-20.464 42.123,-44.521 57.627,-66.638c4.575,5.477 9.183,10.928 13.822,16.351c4.164,4.677 8.241,9.648 12.732,14.005c12.729,13.327 26.018,26.279 38.355,39.954c4.498,5.049 8.999,10.067 13.722,14.908l8.916,-26.024c4.317,-4.7 11.325,-33.665 13.56,-41.53c4.487,9.59 8.055,19.729 11.919,29.589c4.407,11.376 8.706,22.989 13.913,34.023c10.862,-19.307 22.898,-31.388 23.938,-54.529l1.339,-31.19c7.086,10.772 14.19,22.318 22.429,32.228c4.926,6.949 9.887,13.874 14.882,20.773c25.322,6.288 49.991,11.652 74.07,22.171c2.525,-11.975 4.427,-24.531 7.773,-36.273c12.447,15.052 26.603,33.351 43.303,43.732c3.22,2.368 6.56,4.599 9.84,6.885c5.39,-3.578 15.47,-8.608 18.63,-14.385c1.48,-2.708 0.1,-5.052 -0.69,-7.792c-0.81,-7.168 -4.07,-15.437 -5.81,-22.609c-3.07,-12.666 -5.22,-25.335 -6.92,-38.249c12.99,14.105 32.58,31.38 50.57,38.516c28.05,10.555 58.43,7.923 86.71,16.058l-0.13,-32.066c14.19,10.937 29.91,19.403 45.41,28.3c18.68,10.56 37.19,21.42 55.53,32.576c-0.68,-12.871 -2.38,-25.733 -1.13,-38.619c1.3,-13.403 5.15,-26.402 6.79,-39.708c10.62,13.373 35.85,37.692 54.05,38.891c2.23,0.147 3.82,-0.663 5.32,-2.213c9.65,-9.996 9.12,-44.963 10.19,-58.579c14.86,21.026 32.02,43.629 54.89,56.362c2.55,0.955 5.09,1.942 7.66,2.857c18.89,7.898 37.92,15.492 57.06,22.781c-3.06,-16.062 -1.64,-30.416 0.5,-46.455c1.42,-3.652 0.59,-10.516 0.65,-14.562c3.85,3.046 8.07,5.664 12.16,8.379c11.06,7.305 22.19,14.988 33.98,21.089c3.56,2.083 7.05,4.341 10.56,6.51c4.99,-8.208 9.08,-17.261 12.74,-26.137c8.31,3.748 16.37,8.294 24.47,12.491l13.74,7.805c5.06,-9.825 8.22,-19.305 10.98,-30.01c3.19,-11.025 2.22,-24.483 1.62,-35.777l10.87,9.622l35.02,30.132c21.69,2.659 43.21,6.648 64.72,10.443c0.12,-12.725 0.14,-25.451 0.06,-38.176c17.71,14.663 34.65,29.502 51.01,45.666l55.33,-54.215c11.24,-10.858 23.78,-21.545 33.88,-33.447c23.74,16.223 47.84,31.898 72.3,47.013l0.58,0.71c3.69,1.99 7.18,4.647 10.67,6.988c15.55,-16.055 29.62,-34.079 44.03,-51.171c18.11,16.355 38.19,30.37 56.71,46.236c-1.45,-14.317 -3.51,-28.491 -4.56,-42.858c12.8,9.941 26.65,18.576 40.26,27.337c10.03,6.347 20.44,12.072 31.18,17.142c-2.82,-7.953 -5.79,-15.852 -8.9,-23.692c19.5,7.602 48.66,13.508 69.54,19.066c-8.06,-19.172 -18.61,-37.194 -26.97,-56.259c11.8,6.774 24.91,11.965 37.38,17.372c6.88,3.241 13.9,5.944 21.03,8.604c19.67,9.882 44.99,16.081 66.21,22.449l1.32,0.91c0.59,0.038 1.83,0.291 2.35,0.152c5.95,-1.578 42.25,-33.584 50.51,-39.663c-1.75,-7.139 -0.75,-14.611 -2.62,-21.592c-0.54,-10.508 -0.6,-21.334 -2.67,-31.671c15.81,10.426 36.35,26.622 54.07,32.194c3.69,1.16 7.84,1.173 11.67,1.545c4.59,1.459 9.7,1.848 14.45,2.543c11.94,1.806 23.86,3.675 35.77,5.606c0.97,-9.102 2.62,-18.226 3.95,-27.287l3.95,2.923c22.15,20.824 45.67,39.702 68.19,60.047c1.91,-3.84 3.75,-7.736 5.9,-11.451c8.63,-17.146 14.64,-36.608 20.18,-54.971c4.97,14.663 12.54,30.028 20.23,43.471c7.66,3.751 14.98,9.006 22.15,13.621c6.42,-15.521 12.04,-33.588 15.96,-49.945c2.6,-8.017 4.64,-16.163 6.71,-24.33c11.14,15.198 21.92,32.597 34.98,46.131c15.94,16.528 54.46,36.014 75.9,45.925c0.87,-20.17 2.3,-39.916 1.64,-60.14c12.24,16.134 25.38,32.197 38.97,47.216c13.21,-3.83 26.68,-8.014 40.17,-10.679c-1.14,-5.013 -2.12,-9.81 -2.47,-14.957c-3.67,-16.67 -0.11,-34.739 -2.72,-51.672z" transform="scale(0.29299 0.292969)" fill="#253C34"/>
  <path id="svg_169" d="m2422.41,750.195c4.35,0.526 8.41,3.107 12.06,5.414c12.65,7.992 23.87,18.297 36.36,26.662c4.97,3.323 23.09,13.498 25.67,16.52c-2.15,3.715 -3.99,7.611 -5.9,11.451c-22.52,-20.345 -46.04,-39.223 -68.19,-60.047z" transform="scale(0.29299 0.292969)" fill="#3980A0"/>
  <path id="svg_170" d="m856.144,871.793c-10.79,7.515 -25.697,15.449 -37.851,20.506c-3.864,-9.86 -7.432,-19.999 -11.919,-29.589c-2.235,7.865 -9.243,36.83 -13.56,41.53c-7.64,3.511 -15.188,7.218 -22.638,11.116c-12.337,-13.675 -25.626,-26.627 -38.355,-39.954c16.129,-6.889 32.017,-14.635 48.063,-21.764c74.048,-33.195 147.822,-66.995 221.316,-101.398c-22.432,21.677 -46.544,41.768 -68.348,64.055c-12.382,12.653 -24.576,25.489 -36.576,38.505c-5.258,5.732 -10.366,13.277 -16.364,18.031c-8.239,-9.91 -15.343,-21.456 -22.429,-32.228l-1.339,31.19z" transform="scale(0.29299 0.292969)" fill="#88BAD6"/>
  <path id="svg_171" d="m2790.88,768.778c10.32,3.558 20.7,7.022 30.97,10.708l19.34,6.737c16.1,4.806 32.24,9.501 48.4,14.086c-4.24,8.011 -7.18,16.74 -10.31,25.231c-18.14,-11.821 -36.48,-23.354 -54.99,-34.595c-10.36,-6.409 -25.09,-13.402 -33.41,-22.167z" transform="scale(0.29299 0.292969)" fill="#3980A0"/>
  <path id="svg_172" d="m2933.45,770.611l4.05,-0.811l7.15,12.057c-4.43,-3.257 -7.69,-7.076 -11.2,-11.246z" transform="scale(0.29299 0.292969)" fill="#A9D1E3"/>
  <path id="svg_173" d="m3042.5,794.387c12.65,5.884 25.99,9.445 38.84,14.731c-2.63,6.08 -12.19,32.266 -16.44,35.243l-1.86,-1.218c-3.43,-17.62 -11.45,-33.432 -20.54,-48.756z" transform="scale(0.29299 0.292969)" fill="#88BAD6"/>
  <path id="svg_174" d="m0,798.849c6.46132,7.541 9.90851,17.28 16.1543,24.689l-3.4307,3.581c-4.17271,4.531 -8.31948,9.07 -12.7236,13.379l0,-41.649z" transform="scale(0.29299 0.292969)" fill="#585363"/>
  <path id="svg_175" d="m3426.44,804.867l1.72,-1.094c7.78,3.294 29.09,14.808 33.21,21.44c-11.93,-4.68 -24.15,-13.361 -34.93,-20.346z" transform="scale(0.29299 0.292969)" fill="#677183"/>
  <path id="svg_176" d="m3462.01,825.184c-0.14,-7.159 3.27,-13.717 2.92,-21.073c10,5.149 20.23,10.069 30.07,15.518l0,6.482c-8.26,-0.014 -26.34,2.81 -32.99,-0.927z" transform="scale(0.29299 0.292969)" fill="#27322D"/>
  <path id="svg_177" d="m2912.4,806.077c10.07,2.517 19.82,6.35 29.57,9.882l-2.03,1.45l-1.39,-0.859c-6.39,0.366 -13.16,-1.144 -19.55,-1.694l-0.69,2.047c-2.16,-3.52 -4.04,-7.145 -5.91,-10.826z" transform="scale(0.29299 0.292969)" fill="#39555F"/>
  <path id="svg_178" d="m51.5406,832.936c0.5528,-0.759 0.3961,-0.704 0.9916,-1.121c5.7265,-4.013 28.8455,-24.034 33.8739,-24.491c-10.2216,17.061 -18.4926,33.78 -22.4239,53.517c-4.0128,-9.361 -8.1604,-18.664 -12.4416,-27.905z" transform="scale(0.29299 0.292969)" fill="#88BAD6"/>
  <path id="svg_179" d="m2918.31,816.903l0.69,-2.047c6.39,0.55 13.16,2.06 19.55,1.694l1.39,0.859l-14.06,14.629c-2.9,-4.817 -5.17,-10.056 -7.57,-15.135z" transform="scale(0.29299 0.292969)" fill="#3980A0"/>
  <path id="svg_180" d="m1481.22,859.602c26.89,-12.765 52.91,-27.75 80.05,-39.888c-14.16,21.202 -31.68,39.9 -46.07,60.977c-11.79,-6.101 -22.92,-13.784 -33.98,-21.089z" transform="scale(0.29299 0.292969)" fill="#88BAD6"/>
  <path id="svg_181" d="m16.1543,823.538c4.2459,4.647 9.363,9.323 11.9859,15.114l-0.946,0.68c-5.7853,-2.963 -9.7478,-7.857 -14.4706,-12.213l3.4307,-3.581z" transform="scale(0.29299 0.292969)" fill="#413E4B"/>
  <path id="svg_182" d="m3470.21,868.197c7.6,13.992 15.92,27.951 24.79,41.17l0,104.613c-4.05,1.1 -8.09,2.22 -12.12,3.38c-20.34,-16.58 -45.75,-29.251 -68.35,-42.568c-26.11,15.122 -52.58,29.598 -79.4,43.428c-23.17,-14.28 -46.81,-27.786 -69.94,-42.136c-33.34,5.711 -67.08,10.56 -100.16,17.577c-10.87,-11.211 -21.87,-22.327 -32.56,-33.704c-25.88,7.283 -52.04,12.718 -78.33,18.249c-13.49,2.838 -27.14,6.372 -40.74,8.483c-12.46,-18.472 -24.96,-37.068 -36.64,-56.039c-28.27,11.806 -57.73,20.644 -86.13,32.096c-17.04,-10.227 -34.2,-21.621 -51.76,-30.869c-29.2,15.132 -60.05,28.582 -90.2,41.705c-27.09,-10.55 -54.12,-21.252 -81.09,-32.104c-15.19,-6.054 -30.83,-11.641 -45.76,-18.291c-33.24,17.145 -68.73,29.895 -102.02,46.819c-4.44,-13.345 -8.88,-26.623 -14.15,-39.666c-26.18,15.188 -52.58,32.86 -76.29,51.711c-9.48,-10.094 -19.31,-19.851 -29.47,-29.251c-17.56,17.193 -36.09,34.735 -54.88,50.55l-70.3,-19.215c-14.15,-3.969 -29.49,-9.756 -44.05,-11.553c-13.42,-1.657 -27.93,1.607 -41.5,1.3c-24.05,-0.544 -49.03,-4.056 -72.97,-6.489c-32.34,15.32 -65.52,28.609 -98.03,43.457c-14.41,-17.39 -28.4,-37.039 -44.11,-53.163c-15.99,11.06 -33.42,19.674 -50.45,28.996c-11.92,6.527 -23.49,13.657 -35.33,20.327c-16.69,-11.811 -33.71,-23.331 -49.92,-35.798c-34.22,18.633 -70.78,33.328 -104.52,52.788l-706.98,0c20.43,-17.36 50.06,-35.667 72.68,-50.997c11.75,3.2 23.4,7.826 34.88,11.877c19.23,6.723 38.41,13.58 57.55,20.57c14.23,-12.095 29.13,-24.188 44.41,-34.922c18.54,10.541 38.34,18.581 56.86,29.128c22.08,-14.293 44.25,-28.436 66.52,-42.429c16.29,12.231 32.92,24.189 48.22,37.664c41.44,-16.242 84.05,-30.102 125.05,-47.378c1.78,4.638 3.6,9.259 5.47,13.862c23.71,7.817 47.31,15.96 70.79,24.427c2.01,-7.283 5.3,-14.186 8.32,-21.089c8.65,5.517 17.44,10.816 26.36,15.892c20.89,-21.884 45.53,-40.383 67.77,-60.906c20.31,10.264 41.5,19.593 62.46,28.45c9.8,-7.989 19.94,-15.612 29.91,-23.387c15.07,11.923 31.45,22.29 46.6,34.226c16.68,-22.535 40.95,-39.73 58.94,-61.429c13.28,18.053 26.29,37.911 41.3,54.483c30.45,-24.894 63.69,-45.071 96.05,-67.206c13.91,4.659 27.54,11.184 41.24,16.521c37.41,14.567 74.79,28.806 110.2,47.896c21.63,-26.755 46.5,-51.032 69.27,-76.816c16.78,14.929 36.09,27.598 53.56,41.856c18.93,-22.744 35.82,-47.503 53.95,-70.923c30.9,17.937 64.57,34.052 93.33,55.205c16.45,-12.209 34.11,-22.579 50.15,-35.441c7.74,16.972 17.23,33.464 25.59,50.186c26,-17.89 53.76,-33.582 80.4,-50.549c12.7,16.197 27.17,31.443 40.5,47.154c10.15,-7.084 20.31,-14.118 30.06,-21.752c1.71,8.1 4,16.065 6.86,23.832c26.45,-21.402 57.63,-37.464 86.86,-54.782c21.13,10.459 41.44,23.811 61.26,36.532c16.6,-9.346 33.99,-17.284 50.78,-26.326c4.74,14.693 9.87,29.472 15.72,43.764c32.04,-16.318 63.89,-33.186 96.04,-49.259c-1.74,17.66 -1.45,36.253 -1.33,54.005c43.91,-15.486 88.69,-28.677 132.75,-43.803c34.48,25.222 69.62,49.758 102.97,76.46c20.4,-8.989 40.73,-18.154 60.98,-27.496l4.53,15.579c14.06,-16.175 29.11,-31.801 41.88,-49.04c23.67,7.385 47.01,17.989 70.24,26.801c15.23,-15.331 30.37,-30.746 45.43,-46.243z" transform="scale(0.29299 0.292969)" fill="#27322D"/>
  <path id="svg_183" d="m1562.97,873.555c6.38,-8.816 15.31,-18.8 23.44,-26.031l1.28,3.826c-2.76,10.705 -5.92,20.185 -10.98,30.01l-13.74,-7.805z" transform="scale(0.29299 0.292969)" fill="#88BAD6"/>
  <path id="svg_184" d="m1410.85,889.459c5.32,-3.206 11.93,-5.485 17.62,-8.098c12.56,-5.769 25.01,-11.857 37.98,-16.684l1.96,1.108c-2.14,16.039 -3.56,30.393 -0.5,46.455c-19.14,-7.289 -38.17,-14.883 -57.06,-22.781z" transform="scale(0.29299 0.292969)" fill="#88BAD6"/>
  <path id="svg_185" d="m818.293,892.299c12.154,-5.057 27.061,-12.991 37.851,-20.506c-1.04,23.141 -13.076,35.222 -23.938,54.529c-5.207,-11.034 -9.506,-22.647 -13.913,-34.023z" transform="scale(0.29299 0.292969)" fill="#857B8A"/>
  <path id="svg_186" d="m0,908.089c2.65087,-2.043 4.10053,-3.681 7.44396,-4.186c3.27974,1.612 4.66344,5.114 5.76534,8.398c2.4141,7.195 4.264,13.778 7.5341,20.665c24.4721,-11.623 48.7624,-23.625 72.8622,-36.001c-0.7176,17.911 -1.2106,35.83 -1.4789,53.753c31.7733,-22.536 65.1313,-47.556 101.0553,-63.017l-15.294,59.529c39.966,-16.49 81.451,-30.243 120.841,-47.889c14.894,15.555 42.219,38.807 53.611,54.919c6.213,8.786 10.761,19.39 15.795,28.908l36.04,-8.063l-3.458,12.668c31.046,-16.158 61.646,-33.162 92.559,-49.574c23.503,15.924 47.292,31.793 69.417,49.615c21.724,-12.458 43.743,-24.57 65.208,-37.459c8.388,17.296 18.764,33.736 28.189,50.495c19.329,-10.793 38.799,-21.332 58.405,-31.612c13.167,-6.837 26.677,-13.196 39.486,-20.68c0.1,17.421 0.763,34.835 1.988,52.212c45.811,-16.45 93.066,-28.827 139.284,-44.06c25.295,13.638 49.975,28.638 74.58,43.47c12.558,7.57 26.64,14.84 38.217,23.82l-472.087,0c-18.144,-12.9 -38.651,-23.5 -57.883,-34.728c-22.268,12.568 -46.193,23.218 -69.081,34.728l-128.034,0c-6.819,-10.19 -13.007,-20.65 -18.239,-31.748c-29.992,13.008 -62.163,22.058 -93.505,31.258l-7.736,-58.613c-9.126,3.449 -18.085,8.598 -26.955,12.793c-17.661,8.202 -35.2782,16.496 -52.8521,24.88c-7.4076,-11.503 -17.1505,-22.024 -25.2386,-33.163c-18.9942,9.387 -37.8106,19.13 -56.4393,29.223l0,-90.541z" transform="scale(0.29299 0.292969)" fill="#27322D"/>
  <path id="svg_187" d="m770.176,915.356c7.45,-3.898 14.998,-7.605 22.638,-11.116l-8.916,26.024c-4.723,-4.841 -9.224,-9.859 -13.722,-14.908z" transform="scale(0.29299 0.292969)" fill="#857B8A"/>
  <path id="svg_188" d="m1019.94,923.234c7.33,-5.658 16.77,-12.091 25.32,-15.665c1.17,-0.486 1.34,-0.088 2.46,0.373c0.79,2.74 2.17,5.084 0.69,7.792c-3.16,5.777 -13.24,10.807 -18.63,14.385c-3.28,-2.286 -6.62,-4.517 -9.84,-6.885z" transform="scale(0.29299 0.292969)" fill="#88BAD6"/>
  <path id="svg_189" d="m3482.88,1017.36c4.03,-1.16 8.07,-2.28 12.12,-3.38l0,10.02l-1761.17,0c33.74,-19.46 70.3,-34.155 104.52,-52.788c16.21,12.467 33.23,23.987 49.92,35.798c11.84,-6.67 23.41,-13.8 35.33,-20.327c17.03,-9.322 34.46,-17.936 50.45,-28.996c15.71,16.124 29.7,35.773 44.11,53.163c32.51,-14.848 65.69,-28.137 98.03,-43.457c23.94,2.433 48.92,5.945 72.97,6.489c13.57,0.307 28.08,-2.957 41.5,-1.3c14.56,1.797 29.9,7.584 44.05,11.553l70.3,19.215c18.79,-15.815 37.32,-33.357 54.88,-50.55c10.16,9.4 19.99,19.157 29.47,29.251c23.71,-18.851 50.11,-36.523 76.29,-51.711c5.27,13.043 9.71,26.321 14.15,39.666c33.29,-16.924 68.78,-29.674 102.02,-46.819c14.93,6.65 30.57,12.237 45.76,18.291c26.97,10.852 54,21.554 81.09,32.104c30.15,-13.123 61,-26.573 90.2,-41.705c17.56,9.248 34.72,20.642 51.76,30.869c28.4,-11.452 57.86,-20.29 86.13,-32.096c11.68,18.971 24.18,37.567 36.64,56.039c13.6,-2.111 27.25,-5.645 40.74,-8.483c26.29,-5.531 52.45,-10.966 78.33,-18.249c10.69,11.377 21.69,22.493 32.56,33.704c33.08,-7.017 66.82,-11.866 100.16,-17.577c23.13,14.35 46.77,27.856 69.94,42.136c26.82,-13.83 53.29,-28.306 79.4,-43.428c22.6,13.317 48.01,25.988 68.35,42.568z" transform="scale(0.29299 0.292969)" fill="#253C34"/>
  <path id="svg_190" d="m0,998.63c18.6287,-10.093 37.4451,-19.836 56.4393,-29.223c8.0881,11.139 17.831,21.66 25.2386,33.163c17.5739,-8.384 35.1911,-16.678 52.8521,-24.88c8.87,-4.195 17.829,-9.344 26.955,-12.793l7.736,58.613c31.342,-9.2 63.513,-18.25 93.505,-31.258c5.232,11.098 11.42,21.558 18.239,31.748l-280.965,0l0,-25.37l0,0z" transform="scale(0.29299 0.292969)" fill="#253C34"/>
  <path id="svg_191" d="m408.999,1024c22.888,-11.51 46.813,-22.16 69.081,-34.728c19.232,11.228 39.739,21.828 57.883,34.728l-126.964,0z" transform="scale(0.29299 0.292969)" fill="#253C34"/>
 </g>
</svg>