<?xml version="1.0" encoding="UTF-8"?>
<svg width="1024px" height="300px" viewBox="0 0 1024 300" xmlns="http://www.w3.org/2000/svg" xmlns:xlink="http://www.w3.org/1999/xlink" version="1.1">
 <!-- Generated by Pixelmator Pro 2.0.1 -->
 <path id="Путь" d="M547.406 135.169 C550.263 135.009 577.164 150.161 582.376 152.478 L582.741 152.633 C587.33 155.179 592.937 157.685 597.891 159.909 L598.582 160.159 C603.14 162.384 607.74 164.564 612.381 166.7 613.843 167.472 614.879 168.011 616.447 168.663 620.01 170.223 624.179 172.458 627.493 173.828 628.612 174.454 633.24 177.018 634.418 177.242 L642.284 181.356 C643.652 182.215 648.475 184.868 650.027 185.429 652.693 186.841 654.837 187.954 657.66 189.191 660.415 190.756 663.556 192.216 666.483 193.632 667.805 194.339 671.188 196.221 672.43 196.685 677.933 199.724 684.3 202.557 690.091 205.343 699.205 209.728 708.425 214.452 717.04 219.336 L717.373 219.302 C719.289 220.608 721.269 221.699 723.339 222.876 L725.207 223.992 725.267 224.636 727.449 225.863 C725.415 227.354 699.783 216.28 695.318 215.854 693.921 215.72 692.362 216.011 691.117 216.222 684.937 213.821 681.275 210.586 676.226 207.388 670.01 203.453 658.757 195.904 652.008 193.028 660.028 199.191 667.654 205.892 677.341 210.748 680.15 212.157 687.993 216.778 691.071 217.265 692.738 219.482 699.319 240.631 700.355 244.185 L679.184 221.438 C676.474 218.554 671.665 213.178 668.297 210.319 667.589 209.718 663.638 210.394 662.45 211.207 662.404 212.586 665.402 221.689 666.002 223.857 657.389 217.361 648.299 211.196 638.771 205.388 638.418 206.905 637.82 208.734 637.375 210.267 636.16 212.881 629.57 235.547 629.574 235.543 628.62 234.394 628.492 233.794 628.048 232.484 627.443 231.88 624.829 226.499 624.233 225.293 619.652 216.012 614.358 207.187 608.644 198.24 612.409 199.094 617.004 201.522 620.297 203.187 616.37 199.978 612.747 196.479 608.76 193.343 599.556 186.103 589.879 179.646 582.871 171.141 581.448 169.414 578.835 167.465 577.75 165.622 577.687 164.72 574.397 160.986 572.942 160.012 568.22 156.848 565.505 146.925 558.036 147.725 556.197 147.922 555.859 148.405 553.892 148.403 553.076 147.679 552.615 147.067 551.407 146.875 L550.698 147.886 549.834 146.757 C551.556 145.808 551.397 146.196 551.806 144.932 551.112 143.741 551.566 144.043 550.104 143.499 545.937 144.191 546.928 146.039 546.564 147.916 542.796 147.566 538.283 157.581 534.541 159.379 533.445 159.442 533.25 159.376 532.2 159.129 536.028 152.26 538.12 149.446 543.094 142.949 543.84 142.214 543.902 142.041 544.293 141.172 L543.801 141.136 542.553 142.491 C541.138 143.624 535.26 146.193 533.191 147.147 533.197 146.773 533.192 146.406 533.246 146.034 532.886 146.099 522.051 153.929 522.139 153.689 520.768 157.415 520.076 157.134 515.339 159.649 L515.437 159.586 C516.032 157.704 522.015 154.14 522.938 148.572 L523.262 148.184 C525.181 147.281 529.287 144.801 531.26 143.681 L537.638 140.396 C540.68 139.358 544.795 136.787 547.406 135.169 Z M566.418 148.116 C575.255 157.276 580.995 166.186 592.616 174.055 594.115 175.07 596.447 177.354 597.866 178.602 595.289 173.644 592.581 168.081 589.759 163.236 591.105 164.161 592.466 165.157 593.849 166.046 606.862 174.418 617.839 184.567 627.759 194.922 L620.745 191.611 C619.639 191.007 618.698 190.337 617.34 190.282 618.782 191.986 628.626 198.219 631.298 199.795 L628.062 195.169 C631.767 195.727 633.768 195.77 637.587 195.872 630.671 189.398 618.772 180.546 610.685 174.353 610.918 173.703 611.042 173.46 611.426 172.848 608.115 169.076 572.544 149.938 566.418 148.116 Z M652.808 207.007 C653.695 208.158 655.04 210.437 656.981 210.641 656.252 209.232 654.988 207.466 652.808 207.007 Z M683.355 209.184 C684.183 209.916 686.492 211.902 688.003 211.336 687.398 209.993 685.17 209.489 683.355 209.184 Z" fill="#e2e2e0" fill-opacity="1" stroke="none"/>
 <path id="Путь-1" d="M542.553 142.491 L543.801 141.136 544.293 141.172 C543.902 142.041 543.84 142.214 543.094 142.949 Z" fill="#f3f3f3" fill-opacity="1" stroke="none"/>
 <path id="Путь-2" d="M542.553 142.491 L543.094 142.949 C538.12 149.447 536.028 152.26 532.2 159.129 533.25 159.376 533.445 159.442 534.541 159.379 538.283 157.581 542.796 147.566 546.564 147.916 L546.046 148.984 546.673 149.166 C548.526 148.333 548.733 148.125 549.834 146.757 L550.698 147.886 C552.349 153.501 552.974 159.356 554.58 165.088 556.517 171.044 558.175 177.274 559.826 183.282 560.758 186.676 564.781 195.392 565.057 198.209 L564.591 198.679 563.64 198.737 C560.45 198.523 559.139 198.434 556.081 197.797 557.829 192.344 558.415 188.625 558.026 182.993 L553.803 193.715 C552.344 188.997 551.502 184.08 550.576 179.285 548.368 187.282 545.85 195.207 543.599 203.204 539.893 208.944 523.244 222.352 517.372 227.854 505.973 238.536 493.77 249.491 484.062 261.057 485.772 246.307 486.061 233.476 486.96 218.837 475.299 231.294 459.829 242.805 446.521 254.417 442.45 257.969 435.29 263.579 431.921 267.208 L431.533 267.01 C432.298 264.033 439.11 252.842 440.905 248.748 443.818 242.105 446.036 236.185 448.423 229.392 438.092 239.684 433.534 242.159 432.381 255.026 432.075 254.195 432.224 253.359 431.733 252.084 L430.496 252.103 C430.454 251.384 429.434 247.827 429.193 246.917 432.968 243.994 435.882 240.604 439.118 237.449 450.478 226.368 455.545 220.232 460.546 206.929 455.551 209.799 445.475 218.405 441.348 221.982 L421.012 239.672 C423.439 235.635 425.571 230.842 427.85 226.679 432.41 218.578 437.171 210.535 442.132 202.555 436.971 204.156 427.631 206.832 423.083 208.693 420.162 209.551 411.173 211.873 408.966 212.909 L387.168 219.122 C387.328 218.571 388.097 218.023 388.627 217.566 392.222 215.231 396.222 213.099 400.073 210.972 400.738 210.73 401.98 209.952 402.612 209.58 406.798 207.314 410.924 204.992 414.988 202.614 L417.688 201.067 C421.867 199.111 427.222 196.162 431.379 194.015 L433.575 192.759 C437.916 190.602 442.207 188.394 446.447 186.135 447.124 185.844 447.98 185.339 448.629 184.982 453.026 183.007 459.128 179.703 463.516 177.482 L464.098 177.149 C472.997 173.129 485.182 166.8 493.948 162.435 L497.706 160.547 C500.233 159.738 505.779 156.944 507.942 155.755 509.161 155.33 513.964 152.904 515.352 152.231 517.641 151.266 520.683 149.679 522.938 148.572 522.015 154.14 516.032 157.704 515.437 159.587 L515.339 159.649 C520.076 157.134 520.768 157.415 522.139 153.689 522.051 153.929 532.886 146.099 533.246 146.034 533.192 146.406 533.197 146.773 533.191 147.147 535.26 146.193 541.138 143.624 542.553 142.491 Z M504.442 165.011 C502.59 166.367 496.143 171.295 495.456 172.899 L495.798 173.152 C497.535 171.774 504.438 166.545 504.715 165.179 Z M542.604 168.427 C542.05 169.656 540.631 171.889 541.557 173.029 542.13 171.734 543.433 169.59 542.604 168.427 Z M484.92 171.804 C481.281 173.357 447 191.208 446.232 192.572 L446.818 192.904 C453.669 188.772 483.42 175.412 485.255 172.051 Z M514.503 197.785 C498.539 208.867 490.46 210.737 491.049 227.158 492.587 226.257 494.14 225.323 495.732 224.474 512.78 215.771 517.226 211.802 521.871 197.884 519.773 197.839 516.5 197.705 514.503 197.785 Z" fill="#fdfcfc" fill-opacity="1" stroke="none"/>
 <path id="Путь-3" d="M549.834 146.757 C548.733 148.125 548.526 148.333 546.673 149.166 L546.046 148.984 546.564 147.916 C546.928 146.039 545.937 144.191 550.104 143.499 551.566 144.043 551.112 143.741 551.806 144.932 551.397 146.196 551.556 145.808 549.834 146.757 Z" fill="#d8dada" fill-opacity="1" stroke="none"/>
 <path id="Путь-4" d="M551.407 146.875 C552.615 147.067 553.076 147.679 553.892 148.403 558.309 154.593 562.506 161.65 566.512 168.033 566.646 163.734 567.11 159.014 567.073 154.811 570.371 158.679 573.852 162.049 577.75 165.622 578.835 167.465 581.448 169.414 582.871 171.142 589.879 179.646 599.556 186.103 608.76 193.343 612.747 196.479 616.37 199.978 620.297 203.187 617.004 201.522 612.409 199.094 608.644 198.24 L608.366 198.037 C605.942 197.653 596.627 197.857 593.898 198.029 585.811 194.439 572.43 179.422 566.583 173.227 564.967 175.499 563.386 177.501 561.596 179.707 560.055 175.542 558.113 169.106 556.261 165.292 555.178 162.762 551.6 149.196 551.407 146.875 Z" fill="#fdfcfc" fill-opacity="1" stroke="none"/>
 <path id="Путь-5" d="M550.698 147.886 L551.407 146.875 C551.6 149.196 555.178 162.762 556.261 165.292 L554.58 165.088 C552.974 159.356 552.349 153.501 550.698 147.886 Z" fill="#b3b7bc" fill-opacity="1" stroke="none"/>
 <path id="Путь-6" d="M553.892 148.403 C555.859 148.405 556.197 147.922 558.036 147.725 565.505 146.925 568.22 156.848 572.942 160.012 574.397 160.987 577.687 164.72 577.75 165.622 573.852 162.049 570.371 158.679 567.073 154.812 567.11 159.014 566.646 163.734 566.512 168.033 562.506 161.65 558.309 154.593 553.892 148.403 Z" fill="#c3c5c7" fill-opacity="1" stroke="none"/>
 <path id="Путь-7" d="M597.866 178.602 C596.447 177.354 594.115 175.07 592.616 174.055 580.995 166.186 575.255 157.276 566.418 148.116 572.544 149.938 608.115 169.076 611.426 172.848 611.042 173.46 610.918 173.703 610.685 174.353 618.772 180.546 630.671 189.398 637.587 195.872 633.768 195.77 631.767 195.727 628.062 195.169 L631.298 199.795 C628.626 198.219 618.782 191.986 617.34 190.282 618.698 190.337 619.639 191.007 620.745 191.612 L627.759 194.922 C617.839 184.567 606.862 174.418 593.849 166.047 592.466 165.157 591.105 164.161 589.759 163.237 592.581 168.081 595.289 173.644 597.866 178.602 Z" fill="#fdfcfc" fill-opacity="1" stroke="none"/>
 <path id="Путь-8" d="M495.798 173.152 L495.456 172.899 C496.143 171.295 502.59 166.367 504.442 165.012 L504.715 165.179 C504.438 166.545 497.535 171.774 495.798 173.152 Z" fill="#e2e2e0" fill-opacity="1" stroke="none"/>
 <path id="Путь-9" d="M554.58 165.088 L556.261 165.292 C558.113 169.106 560.055 175.542 561.596 179.707 563.386 177.501 564.967 175.499 566.583 173.227 572.43 179.422 585.811 194.439 593.898 198.029 592.777 206.235 587.477 219.392 585.085 227.862 581.783 219.029 576.795 206.695 574.576 197.953 572.096 201.814 568.809 207.902 566.361 211.278 L565.733 209.124 C565.926 207.412 566.9 200.432 566.381 199.052 565.483 198.969 564.537 198.844 563.64 198.737 L564.591 198.679 565.057 198.209 C564.781 195.392 560.758 186.676 559.826 183.282 558.175 177.274 556.517 171.044 554.58 165.088 Z" fill="#e2e2e0" fill-opacity="1" stroke="none"/>
 <path id="Путь-10" d="M541.557 173.029 C540.631 171.889 542.05 169.656 542.604 168.427 543.433 169.59 542.13 171.734 541.557 173.029 Z" fill="#c3c5c7" fill-opacity="1" stroke="none"/>
 <path id="Путь-11" d="M799.841 170.588 L806.836 174.337 C809.123 175.532 810.529 176.2 812.991 177.196 L822.001 182.332 C823.949 183.616 825.505 184.517 827.601 185.676 830.641 187.746 833.727 189.779 836.858 191.779 837.871 192.457 838.856 193.209 840.093 193.639 843.616 195.904 848.223 199.009 851.858 201.014 L853.565 201.852 C857.782 204.362 862.062 206.819 866.402 209.22 866.81 209.435 867.684 209.928 868.097 210.074 872.645 212.661 877.224 215.219 881.836 217.747 L882.441 218.057 C888.41 221.482 893.808 224.82 899.597 228.382 L905.05 232.382 905.962 233.279 905.86 233.629 C902.602 233.716 893.555 230.533 890.214 229.464 892.512 237.863 894.351 245.622 896.876 254.136 891.774 248.055 881.251 234.128 879.661 227.294 881.636 228.015 886.124 230.786 888.156 230.526 888.519 227.594 864.05 213.727 859.999 211.212 853.859 207.401 846.881 201.624 840.711 198.184 L840.331 198.482 C841.734 201.173 875.662 221.422 878.309 226.738 875.749 225.702 873.216 224.635 870.708 223.537 872.008 227.732 873.134 231.952 874.422 236.125 L855.325 221.44 C854.27 224.849 853.198 228.266 852.281 231.695 850.806 237.21 850.462 242.933 848.553 248.382 847.232 244.515 844.638 239.683 843.646 236.377 841.325 229.879 837.833 223.553 834.57 217.26 L827.25 218.884 C826.816 220.609 825.807 226.164 825.111 227.422 L824.509 226.782 C825.026 224.044 825.476 221.181 826.788 218.594 827.862 217.746 832.995 216.784 834.655 216.623 L834.96 216.595 835.081 216.235 C832.551 214.689 825.123 215.394 822.431 213.477 816.364 209.157 815.675 204.929 808.817 200.538 807.505 202.674 804.988 205.903 803.43 208.177 800.953 211.789 798.096 216.983 795.312 220.292 796.725 216.441 805.77 203.759 808.712 199.674 814.906 203.842 816.942 208.352 822.502 212.683 824.059 213.895 830.201 216.162 832.052 214.688 L831.787 213.403 C834.013 214.369 838.511 217.975 841.356 219.565 835.448 212.358 829.086 204.377 822.706 197.429 819.266 193.683 812.018 188.194 807.65 184.78 809.387 188.375 810.619 191.239 811.495 194.994 809.497 193.465 807.881 191.941 805.724 190.373 L804.969 189.484 C805.946 185.641 805.647 184.695 803.505 181.346 L803.111 181.193 C802.396 181.544 801.491 186.152 801.186 187.244 799.67 184.559 798.679 181.739 798.24 178.861 798.07 177.634 798.602 175.923 798.006 175.289 L797.036 176.084 C795.647 177.557 791.857 181.734 790.08 182.704 789.744 182.082 790.129 181.411 790.371 180.719 787.923 180.091 771.487 191.07 768.002 192.755 769.076 190.784 774.114 187.478 776.395 185.854 L777.351 185.306 C780.383 183.005 785.442 179.899 788.866 177.544 789.603 177.168 791.854 175.464 792.612 174.914 794.755 173.473 797.525 171.937 799.841 170.588 Z M852.206 212.716 C847.647 209.343 843.307 206.165 838.554 202.936 842.439 207.461 844.381 212.822 848.016 217.512 848.542 216.438 849.648 213.772 850.626 213.077 L851.141 212.928 C853.465 214.972 854.492 215.367 857.67 216.488 855.977 215.183 854.244 213.713 852.206 212.716 Z M810.114 178.782 C814.878 186.215 818.446 190.644 825.029 197.329 L824.998 192 C827.879 193.89 831.125 195.931 833.807 197.933 L836.712 200.202 837.056 199.799 C831.614 192.624 820.95 181.848 810.114 178.782 Z" fill="#d8dada" fill-opacity="1" stroke="none"/>
 <path id="Путь-12" d="M446.818 192.904 L446.232 192.572 C447 191.208 481.281 173.357 484.92 171.804 L485.255 172.052 C483.42 175.412 453.669 188.772 446.818 192.904 Z" fill="#e2e2e0" fill-opacity="1" stroke="none"/>
 <path id="Путь-13" d="M797.036 176.084 L798.006 175.289 C798.602 175.923 798.07 177.634 798.24 178.861 798.679 181.739 799.67 184.559 801.186 187.244 801.491 186.152 802.396 181.544 803.111 181.193 L803.505 181.346 C803.209 183.012 803.2 185.287 800.849 186.024 798.103 184.992 797.727 178.348 797.109 176.319 Z" fill="#fdfcfc" fill-opacity="1" stroke="none"/>
 <path id="Путь-14" d="M768.002 192.755 C771.487 191.07 787.923 180.091 790.371 180.719 790.129 181.411 789.744 182.082 790.08 182.704 791.857 181.734 795.647 177.557 797.036 176.084 L797.109 176.319 C797.727 178.348 798.103 184.992 800.849 186.024 803.2 185.287 803.209 183.012 803.505 181.346 805.647 184.695 805.946 185.641 804.969 189.484 804.053 192.668 802.146 198.729 802.503 201.826 803.833 199.651 805.12 193.044 805.724 190.373 807.881 191.941 809.497 193.465 811.495 194.994 810.619 191.239 809.387 188.375 807.65 184.78 812.018 188.194 819.266 193.683 822.706 197.429 829.086 204.377 835.448 212.358 841.356 219.565 838.511 217.975 834.013 214.369 831.787 213.403 L832.052 214.688 C830.201 216.162 824.059 213.895 822.502 212.683 816.942 208.352 814.906 203.842 808.712 199.674 805.77 203.759 796.725 216.441 795.312 220.292 798.096 216.983 800.953 211.789 803.43 208.177 804.988 205.903 807.505 202.674 808.817 200.538 815.675 204.929 816.364 209.157 822.431 213.477 825.123 215.394 832.551 214.689 835.081 216.235 L834.96 216.595 834.655 216.623 C832.995 216.784 827.862 217.746 826.788 218.594 825.476 221.181 825.026 224.044 824.509 226.782 L825.111 227.422 C824.998 229.869 823.384 236.897 822.653 239.372 820.533 234.689 818.596 229.967 816.847 225.207 816.024 223.026 814.91 219.394 813.868 217.399 L813.16 217.237 C811.438 218.714 810.398 224.767 809.894 226.942 L808.575 227.172 C808.544 224.284 807.966 220.246 807.313 217.444 804.8 218.756 802.897 220.228 801.011 221.976 799.203 223.2 791.076 230.242 790.291 231.668 784.486 237.804 778.273 244.876 773.756 251.506 L766.14 246.922 C765.809 242.566 764.576 237.524 763.605 233.174 762.475 235.934 761.476 240.047 760.649 242.951 760.425 243.174 760.439 243.079 759.844 243.162 755.319 240.804 751.101 238.16 747.241 235.261 748.638 231.087 749.664 226.039 750.242 221.77 747.435 224.757 744.488 228.874 741.735 232.111 739.888 231.303 739.048 230.937 737.42 229.921 739.15 225.837 740.234 222.566 741.506 218.387 739.679 219.724 737.241 221.624 735.201 222.822 734.348 223.323 733.535 223.007 732.362 222.819 730.654 223.1 729.07 224.751 727.852 225.775 L727.449 225.863 725.267 224.636 725.207 223.992 C726.671 223.171 740.35 211.041 740.581 210.312 742.165 208.889 745.211 207.026 747.187 205.744 L752.365 202.326 C757.471 199.048 762.685 195.857 768.002 192.755 Z M794.271 183.124 C791.222 185.744 791.494 187.8 792.258 190.955 793.639 189.265 794.892 184.938 794.271 183.124 Z M771.728 195.58 C771.575 197.868 770.757 198.065 768.869 200.196 L769.281 200.403 C770.885 199.229 772.929 197.958 773.197 196.33 772.68 195.834 772.552 195.834 771.728 195.58 Z M745.964 217.803 C745.175 219.4 743.798 221.836 743.69 223.44 L744.221 223.996 C744.752 222.632 746.496 218.989 746.116 217.92 Z M741.902 225.832 L741.291 226.142 741.816 226.305 742.208 225.972 Z" fill="#f3f3f3" fill-opacity="1" stroke="none"/>
 <path id="Путь-15" d="M825.029 197.329 C818.446 190.644 814.878 186.215 810.114 178.782 820.95 181.848 831.614 192.624 837.056 199.799 L836.712 200.202 833.807 197.933 C831.125 195.931 827.879 193.89 824.998 192 Z" fill="#fdfcfc" fill-opacity="1" stroke="none"/>
 <path id="Путь-16" d="M556.081 197.797 C553.481 200.965 551.081 207.796 548.629 211.225 547.953 210.024 546.9 207.977 546.036 206.919 545.411 205.714 544.411 204.37 543.599 203.204 545.85 195.207 548.368 187.282 550.576 179.285 551.502 184.08 552.344 188.997 553.803 193.715 L558.026 182.993 C558.415 188.625 557.829 192.344 556.081 197.797 Z" fill="#e2e2e0" fill-opacity="1" stroke="none"/>
 <path id="Путь-17" d="M792.258 190.955 C791.494 187.8 791.222 185.744 794.271 183.124 794.892 184.938 793.639 189.265 792.258 190.955 Z" fill="#d0d2d3" fill-opacity="1" stroke="none"/>
 <path id="Путь-18" d="M652.008 193.028 C658.757 195.904 670.01 203.453 676.226 207.388 681.275 210.586 684.937 213.821 691.117 216.222 L691.071 217.265 C687.993 216.778 680.15 212.157 677.341 210.748 667.654 205.892 660.028 199.191 652.008 193.028 Z" fill="#fdfcfc" fill-opacity="1" stroke="none"/>
 <path id="Путь-19" d="M769.281 200.403 L768.869 200.196 C770.757 198.065 771.575 197.868 771.728 195.58 772.552 195.834 772.68 195.834 773.197 196.33 772.929 197.958 770.885 199.229 769.281 200.403 Z" fill="#d8dada" fill-opacity="1" stroke="none"/>
 <path id="Путь-20" d="M491.049 227.158 C490.46 210.737 498.539 208.867 514.503 197.785 516.5 197.705 519.773 197.839 521.871 197.884 517.226 211.802 512.78 215.771 495.732 224.474 494.14 225.323 492.587 226.257 491.049 227.158 Z" fill="#e2e2e0" fill-opacity="1" stroke="none"/>
 <path id="Путь-21" d="M548.629 211.225 C551.081 207.796 553.481 200.965 556.081 197.797 559.139 198.434 560.45 198.523 563.64 198.737 564.537 198.844 565.483 198.969 566.381 199.052 562.448 200.942 552.588 236.946 548.109 243.334 546.821 245.172 531.599 266.242 531.653 266.871 530.515 262.469 529.493 258.052 528.587 253.622 527.981 250.637 526.846 244.257 525.514 241.523 526.407 237.919 543.386 209.199 546.036 206.919 546.9 207.977 547.953 210.024 548.629 211.225 Z" fill="#a4aab1" fill-opacity="1" stroke="none"/>
 <path id="Путь-22" d="M593.898 198.029 C596.627 197.857 605.942 197.653 608.366 198.036 L608.644 198.24 C614.358 207.187 619.652 216.012 624.233 225.293 624.829 226.499 627.443 231.88 628.048 232.484 624.067 235.082 615.227 248.016 613.725 251.448 611.864 248.942 603.054 237.622 600.374 236.58 599.637 236.877 599.819 236.667 599.634 237.129 593.2 247.324 584.261 258.092 578.637 267.426 578.614 255.312 578.936 239.139 579.916 227.1 574.66 232.057 568.684 238.431 564.106 243.77 555.129 254.241 542.391 264.684 534.171 275.22 533.356 272.494 532.562 269.564 531.653 266.871 531.599 266.242 546.821 245.172 548.109 243.334 552.588 236.946 562.448 200.942 566.381 199.052 566.9 200.432 565.926 207.412 565.733 209.124 565.395 210.529 564.407 213.741 564.835 214.932 565.107 214.318 566.3 211.754 566.361 211.278 568.809 207.902 572.096 201.814 574.576 197.953 576.795 206.695 581.783 219.029 585.085 227.862 587.477 219.392 592.777 206.235 593.898 198.029 Z" fill="#9fa9af" fill-opacity="1" stroke="none"/>
 <path id="Путь-23" d="M878.309 226.738 C875.662 221.422 841.734 201.173 840.331 198.482 L840.711 198.184 C846.881 201.624 853.859 207.401 859.999 211.212 864.05 213.727 888.519 227.594 888.156 230.526 886.124 230.786 881.636 228.015 879.661 227.294 Z" fill="#f3f3f3" fill-opacity="1" stroke="none"/>
 <path id="Путь-24" d="M185.231 199.723 C187.149 200.02 190.729 201.852 192.554 202.702 L192.847 202.77 C194.304 203.462 198.834 205.502 199.958 206.178 L207.328 209.692 209.475 210.767 C213.374 212.65 219.17 215.304 222.77 217.359 223.91 217.924 225.847 218.947 227 219.385 230.436 221.096 233.977 222.917 237.463 224.557 239.784 225.949 241.386 226.734 243.922 227.929 L251.072 231.576 C254.53 233.578 256.736 234.767 260.46 236.554 262.837 237.749 265.619 239.075 267.899 240.319 269.74 241.295 279.829 246.78 281.061 247.238 287.501 250.694 293.046 253.519 298.272 257.984 292.918 256.56 287.622 255.027 282.392 253.384 284.719 259.56 286.088 262.912 286.947 269.263 279.11 262.166 276.495 258.796 269.657 251.691 267.273 250.836 264.798 249.913 262.403 249.095 L262.678 255.33 C256.765 252.511 250.662 249.514 244.634 246.854 243.502 247.506 243.838 247.378 243.485 248.648 242.916 250.744 239.727 264.039 238.188 265.057 L237.22 264.331 C236.957 261.235 228.119 247.035 225.303 244.245 226.06 243.874 226.484 243.16 226.95 242.56 225.493 239.507 206.819 219.824 202.941 218.53 199.097 216.664 196.074 214.056 194.225 211.01 193.213 214.138 191.635 216.43 190.522 219.437 190.182 218.618 189.778 218.292 189.094 217.617 189.274 214.907 192.193 209.598 191.057 207.286 L190.117 207.568 C189.069 207.307 188.002 205.535 187.313 204.662 184.078 207.561 181.095 212.921 178.596 216.472 179.538 214.012 180.202 212.013 180.896 209.512 179.069 210.799 176.62 213.39 174.762 214.016 L173.976 213.162 173.324 211.392 172.479 211.04 C170.736 211.405 169.686 212.194 168.128 212.84 L172.587 207.796 C158.045 215.418 152.751 214.889 139.944 225.597 140.869 224.358 142.821 222.097 142.894 220.815 143.084 220.623 145.917 219.069 146.383 218.807 L147.132 218.402 C152.331 216.012 157.477 213.283 162.504 210.689 L163.103 210.265 C167.659 208.297 176.478 203.103 180.02 201.879 178.998 203.548 176.399 207.289 176.582 208.916 180.293 205.994 183.386 203.459 185.231 199.723 Z M198.416 206.938 C197.522 209.405 202.911 216.121 203.312 218.153 L203.852 218.075 204.208 217.564 C206.997 218.913 209.056 220.039 211.683 221.55 214.428 223.417 218.395 226.437 220.917 228.036 219.757 226.638 217.653 223.925 216.405 222.699 211.92 217.084 206.282 210.217 198.416 206.938 Z M226.521 227.553 C231.936 231.392 232.924 242.092 241.855 241.804 241.352 240.488 241.035 240.503 241.534 239.415 242.91 239.049 243.974 238.849 245.395 238.586 L247.56 239.311 C247.298 238.176 237.663 234.167 235.77 233.067 233.15 231.545 229.583 227.757 226.521 227.553 Z" fill="#d8dada" fill-opacity="1" stroke="none"/>
 <path id="Путь-25" d="M180.02 201.879 L185.231 199.723 C183.386 203.459 180.293 205.994 176.582 208.916 176.399 207.289 178.998 203.548 180.02 201.879 Z" fill="#fdfcfc" fill-opacity="1" stroke="none"/>
 <path id="Путь-26" d="M543.599 203.204 C544.411 204.37 545.411 205.714 546.036 206.919 543.386 209.199 526.407 237.919 525.514 241.523 515.073 252.872 504.977 254.38 494.238 262.155 477.662 274.157 460.383 288.737 442.804 300 L418.769 300 C422.668 297.099 429.195 291.14 432.91 287.911 441.659 280.286 450.481 272.704 459.375 265.165 462 262.965 472.442 255.743 473.803 254.031 469.195 256.193 465.006 259.064 460.681 261.559 435.453 276.111 407.808 287.444 380.827 300 L372.828 300 C375.588 298.049 385.958 287.728 388.584 285.095 396.833 276.826 406.613 268.176 414.418 259.804 394.754 270.017 375.228 280.362 355.841 290.841 366.186 277.903 377.461 265.382 387.83 252.451 391.834 247.458 396.241 242.449 400.564 237.604 400.913 237.432 405.621 233.233 406.21 232.732 401.624 234.822 388.687 239.456 386.014 241.599 388.599 241.451 394.817 236.769 399.485 236.322 L398.884 237.41 C394.022 239.192 376.372 252.913 371.008 255.417 370.068 253.027 370.315 249.144 369.27 247.4 368.5 247.49 297.897 293.596 288.04 298.929 282.443 298.925 229.699 299.187 227.917 298.677 228.056 298.574 243.07 291.33 244.324 290.758 256.733 285.102 269.508 278.463 282.065 273.077 293.844 268.025 311.694 261.922 322.666 255.957 L322.348 255.764 C315.944 258.504 289.149 270.5 284.428 271.206 289.674 267.874 300.947 263.114 307.257 259.816 L312.937 256.959 C314.731 256.139 317.746 254.43 319.56 253.47 322.321 252.204 325.4 250.571 328.114 249.202 330.873 248.114 335.047 245.899 337.585 244.548 339.652 243.703 341.144 242.808 342.998 241.758 345.551 240.804 351.113 237.689 353.603 236.345 354.937 235.717 356.748 234.688 358.078 233.982 360.542 232.952 366.885 229.288 369.392 227.89 L372.78 226.176 C377.141 223.891 381.557 221.658 386.023 219.479 L387.168 219.122 408.966 212.909 C408.89 216.246 395.075 227.457 394.005 231.069 394.089 231.047 422.444 209.579 423.083 208.693 427.631 206.832 436.971 204.156 442.132 202.555 437.171 210.535 432.41 218.578 427.85 226.679 425.571 230.842 423.439 235.635 421.012 239.672 L441.348 221.982 C445.475 218.405 455.551 209.799 460.546 206.929 455.545 220.232 450.478 226.368 439.118 237.449 435.882 240.604 432.968 243.994 429.193 246.917 429.434 247.827 430.454 251.384 430.496 252.103 430.687 253.89 431.202 261.101 431.704 262.384 431.949 260.793 432.616 256.572 432.381 255.026 433.534 242.159 438.092 239.684 448.423 229.392 446.036 236.185 443.818 242.105 440.905 248.748 439.11 252.842 432.298 264.033 431.533 267.01 430.237 268.162 429.866 268.078 429.83 269.261 430.974 268.853 431.563 268.107 431.921 267.208 435.29 263.579 442.45 257.969 446.521 254.417 459.829 242.805 475.299 231.294 486.96 218.837 486.061 233.476 485.772 246.307 484.062 261.057 493.77 249.491 505.973 238.536 517.372 227.854 523.244 222.352 539.893 208.944 543.599 203.204 Z" fill="#9fa9af" fill-opacity="1" stroke="none"/>
 <path id="Путь-27" d="M838.554 202.936 C843.307 206.165 847.647 209.343 852.206 212.716 L851.141 212.928 850.626 213.077 C849.648 213.772 848.542 216.438 848.016 217.512 844.381 212.822 842.439 207.461 838.554 202.936 Z" fill="#fdfcfc" fill-opacity="1" stroke="none"/>
 <path id="Путь-28" d="M168.128 212.84 C169.686 212.194 170.736 211.405 172.479 211.04 L173.324 211.392 173.976 213.162 174.762 214.016 C176.62 213.39 179.069 210.799 180.896 209.512 180.202 212.013 179.538 214.012 178.596 216.472 181.095 212.921 184.078 207.561 187.313 204.662 188.002 205.535 189.069 207.307 190.117 207.568 L191.057 207.286 C192.193 209.598 189.274 214.907 189.094 217.617 L187.047 217.767 186.361 218.379 C187.736 219.872 188.077 220.102 188.764 221.841 L189.271 221.797 C189.521 221.315 190.248 219.812 190.522 219.437 191.635 216.43 193.213 214.138 194.225 211.01 196.074 214.056 199.097 216.664 202.941 218.53 206.819 219.824 225.493 239.507 226.95 242.56 224.408 241.183 223.328 239.595 220.932 239.602 L220.891 238.962 220.549 239.076 C220.739 239.819 220.748 240.218 220.536 240.959 218.594 240.491 217.915 240.057 216.176 240.412 215.389 241.374 215.26 242.229 214.966 243.321 209.408 236.852 199.593 227.469 195.43 220.747 192.455 229.757 192.873 229.649 197.463 238.915 196.968 239.422 196.97 239.636 196.993 240.245 L197.067 242.495 C195.764 241.977 195.563 241.881 194.513 241.112 194.342 239.556 194.826 240.109 195.755 238.506 L194.952 237.774 C191.751 235.338 188.754 232.769 185.977 230.081 185.997 233.719 185.752 239.053 187.304 242.425 L183.807 245.479 C183.422 244.22 183.109 242.359 181.901 241.508 180.145 242.332 179.135 247.887 178.815 249.596 171.346 256.232 163.663 262.838 156.816 269.812 153.831 272.852 151.687 276.568 149.076 279.392 L147.761 278.987 C148.41 276.012 148.218 257.658 147.062 255.002 L146.638 254.138 C145.712 254.622 145.567 254.933 145.014 255.641 137.29 264.948 124.349 275.954 114.009 284.202 115.08 280.284 118.766 270.392 121.156 267.168 121.83 263.637 124.158 259.21 125.909 255.811 128.981 251.469 130.38 248.685 132.432 244.147 127.939 247.116 112.115 261.419 108.814 265.177 111.007 256.547 115.764 249.141 120.473 241.117 112.024 243.652 99.555 247.909 91.087 249.415 91.785 248.227 97.695 244.994 99.437 243.967 100.041 243.714 102.548 242.192 103.241 241.788 106.873 239.851 110.44 237.852 113.938 235.792 114.72 235.495 117.328 234.02 118.176 233.562 122.161 231.602 126.142 229.471 130.057 227.428 130.738 227.143 132.776 226.014 133.52 225.623 L142.894 220.815 C142.821 222.097 140.869 224.358 139.944 225.597 152.751 214.889 158.045 215.418 172.587 207.796 Z M129.887 252.072 C129.479 253.807 128.58 256.627 129.105 258.224 L129.917 258.92 C133.032 259.082 137.233 254.655 139.622 253.056 L137.902 256.969 138.313 257.545 139.355 257.247 139.758 256.564 139.121 256.108 C139.534 255.112 140.144 254.235 139.834 253.329 136.529 253.045 134.892 256.732 132.362 257.098 131.508 255.902 132.671 254.599 132.197 253.772 132.157 253.702 130.498 253.053 129.887 252.072 Z" fill="#fdfcfc" fill-opacity="1" stroke="none"/>
 <path id="Путь-29" d="M637.375 210.267 C637.82 208.734 638.418 206.905 638.771 205.388 648.299 211.196 657.389 217.361 666.002 223.857 665.402 221.689 662.404 212.586 662.45 211.207 663.638 210.394 667.589 209.718 668.297 210.319 671.665 213.178 676.474 218.554 679.184 221.438 L700.355 244.185 C699.319 240.631 692.738 219.482 691.071 217.265 L691.117 216.222 C692.362 216.011 693.921 215.72 695.318 215.854 699.783 216.28 725.415 227.354 727.449 225.863 L727.852 225.775 C729.206 227.365 735.002 229.749 737.42 229.921 739.048 230.937 739.888 231.303 741.735 232.111 742.52 232.573 746.785 235.194 747.241 235.261 751.101 238.16 755.319 240.804 759.844 243.162 760.439 243.079 760.425 243.174 760.649 242.951 761.1 244.438 764.339 245.717 766.14 246.922 L773.756 251.506 C777.494 253.471 780.523 255.074 784.034 257.266 786.775 258.843 790.159 260.688 792.724 262.349 793.644 264.609 819.765 280.394 823.765 285.834 817.292 281.969 803.232 273.407 796.343 270.389 L795.895 270.424 C804.205 277.714 810.886 282.497 820.479 288.834 824.747 291.654 828.237 294.803 832.97 297.54 817.625 291.851 816.218 291.892 804.59 282.718 795.822 275.801 783.172 264.044 773.209 258.704 L773.062 258.627 C777.9 267.813 782.579 277.307 789.893 285.604 790.661 286.474 791.348 287.143 791.913 288.106 786.394 286.292 774.057 281.894 770.11 278.918 767.025 276.592 763.519 273.47 760.029 270.933 755.855 265.853 733.726 248.988 726.739 243.529 724.848 244.862 723 246.225 721.198 247.619 718.872 248.89 715.906 250.604 713.518 251.724 710.608 252.244 706.876 252.137 703.812 252.144 714.757 267.777 729.899 284.185 741.814 300 731.048 291.207 718.379 283.083 709.871 273.071 706.472 269.07 703.02 265.057 699.535 261.095 701.078 267.409 703.422 273.61 705.647 279.818 694.785 272.72 683.304 255.714 676.351 245.825 675.24 248.549 674.476 251.953 673.736 254.787 664.221 241.862 653.725 229.173 643.817 216.393 642.123 214.208 640.603 211.569 638.665 209.564 Z" fill="#9fa9af" fill-opacity="1" stroke="none"/>
 <path id="Путь-30" d="M203.312 218.153 C202.911 216.121 197.522 209.405 198.416 206.938 206.282 210.217 211.92 217.084 216.405 222.699 214.392 221.936 213.931 221.767 211.683 221.55 209.056 220.039 206.997 218.913 204.208 217.564 L203.852 218.075 Z" fill="#fdfcfc" fill-opacity="1" stroke="none"/>
 <path id="Путь-31" d="M656.981 210.641 C655.04 210.437 653.695 208.158 652.808 207.007 654.988 207.466 656.252 209.232 656.981 210.641 Z" fill="#f3f3f3" fill-opacity="1" stroke="none"/>
 <path id="Путь-32" d="M408.966 212.909 C411.173 211.873 420.162 209.551 423.083 208.693 422.444 209.579 394.089 231.047 394.005 231.069 395.075 227.457 408.89 216.246 408.966 212.909 Z" fill="#a4aab1" fill-opacity="1" stroke="none"/>
 <path id="Путь-33" d="M566.361 211.278 C566.3 211.754 565.107 214.318 564.835 214.932 564.407 213.741 565.395 210.529 565.733 209.124 Z" fill="#d8dada" fill-opacity="1" stroke="none"/>
 <path id="Путь-34" d="M628.048 232.484 C628.492 233.794 628.62 234.394 629.574 235.543 629.57 235.547 636.16 212.881 637.375 210.267 L638.665 209.564 C640.603 211.569 642.123 214.208 643.817 216.393 653.725 229.173 664.221 241.862 673.736 254.787 674.476 251.953 675.24 248.549 676.351 245.825 683.304 255.714 694.785 272.72 705.647 279.818 703.422 273.61 701.078 267.409 699.535 261.095 703.02 265.057 706.472 269.07 709.871 273.071 718.379 283.083 731.048 291.207 741.814 300 729.899 284.185 714.757 267.777 703.812 252.144 706.876 252.137 710.608 252.244 713.518 251.724 726.51 267.747 739.333 283.839 751.986 300 L700.289 300 C686.651 286.308 674.163 274.415 659.435 261.43 655.892 263.077 645.909 269.155 642.264 271.284 639.112 284.168 638.969 288.194 630.224 300 L629.388 300 C623.692 295.504 618.144 290.912 612.748 286.231 612.108 287.943 611.208 290.806 610.022 292.234 609.612 291.205 608.257 282.547 607.936 280.772 L602.943 254.137 C602.257 250.229 600.831 240.261 599.634 237.129 599.819 236.667 599.637 236.877 600.374 236.58 603.054 237.622 611.864 248.942 613.725 251.448 615.227 248.016 624.067 235.082 628.048 232.484 Z" fill="#a4aab1" fill-opacity="1" stroke="none"/>
 <path id="Путь-35" d="M688.003 211.336 C686.492 211.902 684.183 209.916 683.355 209.184 685.17 209.489 687.398 209.993 688.003 211.336 Z" fill="#f3f3f3" fill-opacity="1" stroke="none"/>
 <path id="Путь-36" d="M739.913 210.362 L740.581 210.312 C740.35 211.041 726.671 223.171 725.207 223.992 L723.339 222.876 C725.07 221.338 726.815 220.029 728.704 218.592 L732.155 216.065 C734.706 214.139 737.292 212.239 739.913 210.362 Z" fill="#d8dada" fill-opacity="1" stroke="none"/>
 <path id="Путь-37" d="M852.206 212.716 C854.244 213.713 855.977 215.183 857.67 216.488 854.492 215.367 853.465 214.972 851.141 212.928 Z" fill="#e2e2e0" fill-opacity="1" stroke="none"/>
 <path id="Путь-38" d="M801.011 221.976 C802.897 220.228 804.8 218.756 807.313 217.444 807.966 220.246 808.544 224.284 808.575 227.172 808.589 228.043 808.374 229.045 808.991 229.617 809.689 228.591 809.705 228.066 809.894 226.942 810.398 224.767 811.438 218.714 813.16 217.237 L813.868 217.399 C814.91 219.394 816.024 223.026 816.847 225.207 818.596 229.967 820.533 234.689 822.653 239.372 823.384 236.897 824.998 229.869 825.111 227.422 825.807 226.164 826.816 220.609 827.25 218.884 L834.57 217.26 C837.833 223.553 841.325 229.879 843.646 236.377 841.796 239.904 840.595 260.757 840.485 265.047 837.578 260.168 834.01 253.233 830.92 248.748 L830.542 248.364 C829.311 250.144 827.959 253.734 826.99 255.768 824.283 261.454 822.026 267.53 819.277 273.184 L818.6 274.709 818.151 274.713 C817.9 273.003 818.143 268.449 818.174 266.533 817.59 258.442 816.635 248.464 816.76 240.473 814.45 244.639 804.349 263.317 803.821 266.795 L803.445 267.198 C802.214 267.267 800.114 266.106 798.93 265.564 799.559 263.637 801.041 254.405 801.341 252.007 802.546 242.367 805.175 230.198 804.698 220.701 L803.959 220.587 C803.032 221.429 802.787 221.522 801.371 221.885 Z" fill="#90888d" fill-opacity="1" stroke="none"/>
 <path id="Путь-39" d="M190.522 219.437 C190.248 219.812 189.521 221.315 189.271 221.797 L188.764 221.841 C188.077 220.102 187.736 219.872 186.361 218.379 L187.047 217.767 189.094 217.617 C189.778 218.292 190.182 218.618 190.522 219.437 Z" fill="#e2e2e0" fill-opacity="1" stroke="none"/>
 <path id="Путь-40" d="M744.221 223.996 L743.69 223.44 C743.798 221.836 745.175 219.4 745.964 217.803 L746.116 217.92 C746.496 218.989 744.752 222.632 744.221 223.996 Z" fill="#e2e2e0" fill-opacity="1" stroke="none"/>
 <path id="Путь-41" d="M727.852 225.775 C729.07 224.751 730.654 223.1 732.362 222.819 733.535 223.007 734.348 223.323 735.201 222.822 737.241 221.624 739.679 219.724 741.506 218.387 740.234 222.566 739.15 225.837 737.42 229.921 735.002 229.749 729.206 227.365 727.852 225.775 Z" fill="#90888d" fill-opacity="1" stroke="none"/>
 <path id="Путь-42" d="M790.291 231.668 C791.076 230.242 799.203 223.2 801.011 221.976 L801.371 221.885 C802.787 221.522 803.032 221.429 803.959 220.587 L804.698 220.701 C805.175 230.198 802.546 242.367 801.341 252.007 801.041 254.405 799.559 263.637 798.93 265.564 L792.724 262.349 C790.159 260.688 786.775 258.843 784.034 257.266 785.205 252.683 790.44 235.402 790.291 231.668 Z" fill="#9d979b" fill-opacity="1" stroke="none"/>
 <path id="Путь-43" d="M196.993 240.245 C196.97 239.636 196.968 239.422 197.463 238.915 192.873 229.649 192.455 229.757 195.43 220.747 199.593 227.469 209.408 236.852 214.966 243.321 214.054 246.139 210.949 253.689 209.605 256.237 206.857 251.834 202.503 242.822 197.795 239.913 Z" fill="#f3f3f3" fill-opacity="1" stroke="none"/>
 <path id="Путь-44" d="M211.683 221.55 C213.931 221.767 214.392 221.936 216.405 222.699 217.653 223.925 219.757 226.638 220.917 228.036 218.395 226.437 214.428 223.417 211.683 221.55 Z" fill="#f3f3f3" fill-opacity="1" stroke="none"/>
 <defs>
  <linearGradient id="linear-gradient" gradientUnits="userSpaceOnUse" x1="930.972" y1="245.162" x2="870.062" y2="301.671">
   <stop offset="0" stop-color="#81777d" stop-opacity="1"/>
   <stop offset="1" stop-color="#a4a2a2" stop-opacity="1"/>
  </linearGradient>
 </defs>
 <path id="Путь-45" d="M870.708 223.537 C873.216 224.635 875.749 225.702 878.309 226.738 L879.661 227.294 C881.251 234.128 891.774 248.055 896.876 254.136 894.351 245.622 892.512 237.863 890.214 229.464 893.555 230.533 902.602 233.716 905.86 233.629 L905.962 233.279 905.05 232.382 905.568 231.112 C907.157 231.93 910.295 233.649 911.845 234.31 L913.603 235.243 925.961 242.429 C926.268 242.6 928.093 243.641 928.29 243.712 932.35 246.241 936.371 248.507 940.594 250.892 L941.217 251.469 C942.127 253.299 945.819 256.602 947.535 258.437 957.565 269.164 968.697 279.392 979.554 289.696 980.22 290.328 981.26 290.982 981.827 291.623 L980.822 291.936 C978.398 289.314 972.92 286.667 969.945 284.046 960.038 275.317 948.287 266.697 938.924 257.736 L938.29 257.707 C938.936 262.114 955.729 283.304 954.887 285.912 940.534 281.172 941.492 279.433 931.266 270.729 929.922 268.373 915.365 255.389 912.578 252.942 911.661 253.864 910.202 254.986 909.133 255.859 L904.914 259.122 C907.354 263.231 913.24 270.138 916.598 274.299 923.526 282.809 930.314 291.377 936.96 300 L869.527 300 867.809 298.989 C881.873 298.464 896.168 298.539 910.27 298.482 906.017 295.392 899.377 292.747 895.261 289.272 890.563 285.307 886.8 280.337 882.463 276.264 878.884 272.904 871.319 268.802 866.49 265.999 L859.736 269.974 C857.791 276.57 856.623 287.595 854.583 292.879 847.856 289.647 841.161 286.382 834.497 283.084 834.036 272.073 831.379 260.454 830.92 248.748 834.01 253.233 837.578 260.168 840.485 265.047 840.595 260.757 841.796 239.904 843.646 236.377 844.638 239.683 847.232 244.515 848.553 248.382 850.462 242.933 850.806 237.21 852.281 231.695 853.198 228.266 854.27 224.849 855.325 221.44 L874.422 236.125 C873.134 231.952 872.008 227.732 870.708 223.537 Z M893.648 264.119 C895.34 266.497 897.686 270.141 899.632 272.272 900.533 272.394 900.293 272.467 900.883 272.192 898.616 269.408 896.972 265.164 893.648 264.119 Z" fill-opacity="1" fill="url(#linear-gradient)" stroke="none"/>
 <path id="Путь-46" d="M741.735 232.111 C744.488 228.874 747.435 224.757 750.242 221.77 749.664 226.039 748.638 231.087 747.241 235.261 746.785 235.194 742.52 232.573 741.735 232.111 Z" fill="#90888d" fill-opacity="1" stroke="none"/>
 <path id="Путь-47" d="M741.816 226.305 L741.291 226.142 741.902 225.832 742.208 225.972 Z" fill="#d0d2d3" fill-opacity="1" stroke="none"/>
 <path id="Путь-48" d="M808.575 227.172 L809.894 226.942 C809.705 228.066 809.689 228.591 808.991 229.617 808.374 229.045 808.589 228.043 808.575 227.172 Z" fill="#d8dada" fill-opacity="1" stroke="none"/>
 <path id="Путь-49" d="M245.395 238.586 C243.974 238.849 242.91 239.049 241.534 239.415 241.035 240.503 241.352 240.488 241.855 241.804 232.924 242.092 231.936 231.392 226.521 227.553 229.583 227.757 233.15 231.545 235.77 233.067 237.663 234.167 247.298 238.176 247.56 239.311 Z" fill="#fdfcfc" fill-opacity="1" stroke="none"/>
 <path id="Путь-50" d="M599.634 237.129 C600.831 240.261 602.257 250.229 602.943 254.137 L607.936 280.772 C608.257 282.547 609.612 291.205 610.022 292.234 L609.996 296.361 C604.536 292.161 597.863 286.514 592.97 281.899 590.694 286.329 586.086 296.067 583.268 300 L581.011 300 C577.717 289.707 572.565 277.292 569.932 267.281 569.1 262.564 567.156 258.398 566.047 253.874 557.412 263.312 549.039 272.856 540.381 282.286 534.949 288.201 528.783 294.045 523.559 300 L442.804 300 C460.383 288.737 477.662 274.157 494.238 262.155 504.977 254.38 515.073 252.872 525.514 241.523 526.846 244.257 527.981 250.637 528.587 253.622 529.493 258.052 530.515 262.469 531.653 266.871 532.562 269.564 533.356 272.494 534.171 275.22 542.391 264.684 555.129 254.241 564.106 243.77 568.684 238.431 574.66 232.057 579.916 227.1 578.936 239.139 578.614 255.312 578.637 267.426 584.261 258.092 593.2 247.324 599.634 237.129 Z" fill="#c3c5c7" fill-opacity="1" stroke="none"/>
 <path id="Путь-51" d="M899.597 228.382 C902.002 229.143 903.471 230.004 905.568 231.112 L905.05 232.382 Z" fill="#857c7d" fill-opacity="1" stroke="none"/>
 <path id="Путь-52" d="M185.977 230.081 C188.754 232.769 191.751 235.338 194.952 237.774 L194.574 238.685 C192.761 239.239 192.208 239.111 191.852 240.698 L191.444 240.582 191.098 239.812 C189.78 240.061 188.259 241.609 187.304 242.425 185.752 239.053 185.997 233.719 185.977 230.081 Z" fill="#e2e2e0" fill-opacity="1" stroke="none"/>
 <path id="Путь-53" d="M773.756 251.506 C778.273 244.876 784.486 237.804 790.291 231.668 790.44 235.402 785.205 252.683 784.034 257.266 780.523 255.074 777.494 253.471 773.756 251.506 Z" fill="#857c7d" fill-opacity="1" stroke="none"/>
 <path id="Путь-54" d="M398.884 237.41 L399.485 236.322 C394.817 236.769 388.599 241.451 386.014 241.599 388.687 239.456 401.624 234.822 406.21 232.732 405.621 233.233 400.913 237.432 400.564 237.604 L398.917 237.743 Z" fill="#b3b7bc" fill-opacity="1" stroke="none"/>
 <path id="Путь-55" d="M760.649 242.951 C761.476 240.047 762.475 235.934 763.605 233.174 764.576 237.524 765.809 242.566 766.14 246.922 764.339 245.717 761.1 244.438 760.649 242.951 Z" fill="#90888d" fill-opacity="1" stroke="none"/>
 <path id="Путь-56" d="M288.04 298.929 C297.897 293.596 368.5 247.49 369.27 247.4 370.315 249.144 370.068 253.027 371.008 255.417 376.372 252.913 394.022 239.192 398.884 237.41 L398.917 237.743 C389.509 244.143 379.218 250.633 370.153 257.127 369.784 254.003 369.354 250.884 368.863 247.769 350.58 260.238 331.917 272.42 312.888 284.307 306.52 288.304 293.771 296.724 287.525 300 L207.694 300 C206.844 298.844 204.874 294.797 204.093 293.324 201.49 288.467 198.937 283.596 196.433 278.713 191.554 285.649 185.619 293.09 180.419 300 L129.911 300 C137.621 293.804 145.12 287.436 153.549 281.736 158.651 278.286 164.446 274.717 169.063 270.957 170.176 270.508 171.663 269.737 172.779 269.74 173.609 272.387 176.937 290.001 177.984 290.563 178.43 290.179 178.97 289.815 179.131 289.365 187.716 279.044 196.954 268.97 205.886 258.782 206.559 267.274 206.745 275.783 206.443 284.287 210.839 278.785 216.924 271.947 220.68 266.426 L224.056 287.136 C224.552 290.299 225.576 295.662 225.667 298.701 238.374 293.372 256.862 284.367 269.462 278.249 273.72 276.006 279.899 273.106 284.428 271.206 289.149 270.5 315.944 258.504 322.348 255.764 L322.666 255.957 C311.694 261.922 293.844 268.025 282.065 273.077 269.508 278.463 256.733 285.102 244.324 290.758 243.07 291.33 228.056 298.574 227.917 298.677 229.699 299.187 282.443 298.925 288.04 298.929 Z" fill="#b3b7bc" fill-opacity="1" stroke="none"/>
 <path id="Путь-57" d="M194.952 237.774 L195.755 238.506 C194.826 240.109 194.342 239.556 194.513 241.112 195.563 241.881 195.764 241.977 197.067 242.495 196.826 244.068 196.519 245.693 196.527 247.271 L194.835 246.912 C194.566 246.194 193.341 244.242 192.885 243.466 L191.852 240.698 C192.208 239.111 192.761 239.239 194.574 238.685 Z" fill="#f3f3f3" fill-opacity="1" stroke="none"/>
 <path id="Путь-58" d="M370.153 257.127 C379.218 250.633 389.509 244.143 398.917 237.743 L400.564 237.604 C396.241 242.449 391.834 247.458 387.83 252.451 377.461 265.382 366.186 277.903 355.841 290.841 375.228 280.362 394.754 270.017 414.418 259.804 406.613 268.176 396.833 276.826 388.584 285.095 385.958 287.728 375.588 298.049 372.828 300 L287.525 300 C293.771 296.724 306.52 288.304 312.888 284.307 331.917 272.42 350.58 260.238 368.863 247.769 369.354 250.884 369.784 254.003 370.153 257.127 Z" fill="#c3c5c7" fill-opacity="1" stroke="none"/>
 <path id="Путь-59" d="M220.536 240.959 C220.748 240.218 220.739 239.819 220.549 239.076 L220.891 238.962 220.932 239.602 C223.328 239.595 224.408 241.183 226.95 242.56 226.484 243.16 226.06 243.874 225.303 244.245 223.67 242.813 222.803 241.879 220.536 240.959 Z" fill="#e2e2e0" fill-opacity="1" stroke="none"/>
 <path id="Путь-60" d="M191.444 240.582 C187.527 244.651 182.361 252.828 178.838 257.454 176.712 260.246 170.359 268.378 169.063 270.957 164.446 274.717 158.651 278.286 153.549 281.736 145.12 287.436 137.621 293.804 129.911 300 L115.571 300 C120.803 293.941 127.892 286.977 133.651 281.059 L97.942 300 84.971 300 C91.806 292.332 100.511 285.238 107.002 277.126 96.892 282.364 81.231 292.278 71.9 296.412 74.923 293.331 79.559 286.816 82.159 283.365 89.107 274.338 95.718 265.181 101.987 255.903 98.077 259.052 91.362 264.035 86.56 266.211 84.082 266.482 81.383 267.416 79.038 268.124 81.076 264.609 82.812 262.121 85.337 258.789 81.734 261.394 76.157 264.664 72.188 267.113 62.298 273.244 52.248 279.242 42.043 285.104 39.132 286.81 29.489 292.826 27.091 293.859 38.073 284.027 49.821 274.537 61.639 265.224 61.639 265.224 61.93 264.198 61.954 264.113 63.025 263.64 66.429 261.612 67.588 260.952 69.511 260.064 72.113 258.581 74.004 257.564 77.359 255.935 80.429 254.206 83.625 252.431 85.682 251.458 86.639 251.012 88.463 249.779 L91.087 249.415 C99.555 247.909 112.024 243.652 120.473 241.117 115.764 249.141 111.007 256.547 108.814 265.177 112.115 261.419 127.939 247.116 132.432 244.147 130.38 248.685 128.981 251.469 125.909 255.811 122.46 256.871 120.767 260.899 118.822 263.207 116.019 267.149 114.205 270.027 112.529 274.344 114.405 272.047 117.005 267.383 118.044 266.216 L119.86 264.77 120.512 264.928 C120.782 265.732 120.984 266.345 121.156 267.168 118.766 270.392 115.08 280.284 114.009 284.202 124.349 275.954 137.29 264.948 145.014 255.641 145.768 256.059 145.811 256.12 146.725 256.222 L147.062 255.002 C148.218 257.658 148.41 276.012 147.761 278.987 L148.12 280.397 148.519 280.489 149.076 279.392 C151.687 276.568 153.831 272.852 156.816 269.812 163.663 262.838 171.346 256.232 178.815 249.596 180.547 248.397 182.258 246.822 183.807 245.479 L187.304 242.425 C188.259 241.609 189.78 240.061 191.098 239.812 Z" fill="#857c7d" fill-opacity="1" stroke="none"/>
 <path id="Путь-61" d="M196.993 240.245 L197.795 239.913 C202.503 242.822 206.857 251.834 209.605 256.237 210.949 253.689 214.054 246.139 214.966 243.321 215.26 242.229 215.389 241.374 216.176 240.412 217.915 240.057 218.594 240.491 220.536 240.959 222.803 241.879 223.67 242.813 225.303 244.245 228.119 247.035 236.957 261.235 237.22 264.331 235.437 266.163 234.549 272.544 233.648 275.117 230.994 272.996 224.262 267.127 220.68 266.426 216.924 271.947 210.839 278.785 206.443 284.287 206.745 275.783 206.559 267.274 205.886 258.782 196.954 268.97 187.716 279.044 179.131 289.365 179.146 289.483 192.345 244.509 192.885 243.466 193.341 244.242 194.566 246.194 194.835 246.912 195.255 247.554 195.429 248.051 196.273 248.367 L196.527 247.271 C196.519 245.693 196.826 244.068 197.067 242.495 Z" fill="#90888d" fill-opacity="1" stroke="none"/>
 <path id="Путь-62" d="M178.815 249.596 C179.135 247.887 180.145 242.332 181.901 241.508 183.109 242.359 183.422 244.22 183.807 245.479 182.258 246.822 180.547 248.397 178.815 249.596 Z" fill="#e2e2e0" fill-opacity="1" stroke="none"/>
 <path id="Путь-63" d="M169.063 270.957 C170.359 268.378 176.712 260.246 178.838 257.454 182.361 252.828 187.527 244.651 191.444 240.582 L191.852 240.698 192.885 243.466 C192.345 244.509 179.146 289.483 179.131 289.365 178.97 289.815 178.43 290.179 177.984 290.563 176.937 290.001 173.609 272.387 172.779 269.74 171.663 269.737 170.176 270.508 169.063 270.957 Z" fill="#9d979b" fill-opacity="1" stroke="none"/>
 <path id="Путь-64" d="M816.76 240.473 C816.635 248.464 817.59 258.442 818.174 266.533 818.143 268.449 817.9 273.003 818.151 274.713 815.771 274.51 812.391 272.395 810.357 271.279 L810.543 270.822 C810.734 268.68 810.499 266.188 810.371 264.013 809.194 265.567 808.051 267.627 807.06 269.289 806.566 269.464 806.19 269.279 805.481 269.144 804.241 268.352 804.208 267.972 803.821 266.795 804.349 263.317 814.45 244.639 816.76 240.473 Z" fill="#b3b7bc" fill-opacity="1" stroke="none"/>
 <path id="Путь-65" d="M721.198 247.619 C723 246.225 724.848 244.862 726.739 243.529 733.726 248.988 755.855 265.853 760.029 270.933 753.031 268.433 728.267 252.315 721.198 247.619 Z" fill="#b3b7bc" fill-opacity="1" stroke="none"/>
 <path id="Путь-66" d="M194.835 246.912 L196.527 247.271 196.273 248.367 C195.429 248.051 195.255 247.554 194.835 246.912 Z" fill="#e2e2e0" fill-opacity="1" stroke="none"/>
 <path id="Путь-67" d="M281.061 247.238 C283.422 247.314 288.318 250.33 290.624 251.49 296.012 254.201 302.293 256.77 307.257 259.816 300.947 263.114 289.674 267.874 284.428 271.206 279.899 273.106 273.72 276.006 269.462 278.249 269.462 278.104 269.466 278.032 269.445 277.879 269.195 276.049 246.086 250.251 243.485 248.648 243.838 247.378 243.502 247.506 244.634 246.854 250.662 249.514 256.765 252.511 262.678 255.33 L262.403 249.095 C264.798 249.913 267.273 250.836 269.657 251.691 276.495 258.796 279.11 262.166 286.947 269.263 286.088 262.912 284.719 259.56 282.392 253.384 287.622 255.027 292.918 256.56 298.272 257.984 293.046 253.519 287.501 250.694 281.061 247.238 Z" fill="#90888d" fill-opacity="1" stroke="none"/>
 <path id="Путь-68" d="M713.518 251.724 C715.906 250.604 718.872 248.89 721.198 247.619 728.267 252.315 753.031 268.433 760.029 270.933 763.519 273.47 767.025 276.592 770.11 278.918 774.057 281.894 786.394 286.292 791.913 288.106 801.449 292.55 813.726 295.949 822.547 300 L751.986 300 C739.333 283.839 726.51 267.747 713.518 251.724 Z" fill="#c3c5c7" fill-opacity="1" stroke="none"/>
 <path id="Путь-69" d="M819.277 273.184 C822.026 267.53 824.283 261.454 826.99 255.768 827.959 253.734 829.311 250.144 830.542 248.364 L830.92 248.748 C831.379 260.454 834.036 272.073 834.497 283.084 832.751 282.732 829.475 281.106 828.152 280.213 826.377 279.555 821.983 277.224 820.436 276.246 819.243 275.908 819.089 275.844 818.126 275.238 L818.6 274.709 Z" fill="#b3b7bc" fill-opacity="1" stroke="none"/>
 <path id="Путь-70" d="M237.22 264.331 L238.188 265.057 C239.727 264.039 242.916 250.744 243.485 248.648 246.086 250.251 269.195 276.049 269.445 277.879 269.466 278.032 269.462 278.104 269.462 278.249 256.862 284.367 238.374 293.372 225.667 298.701 225.576 295.662 224.552 290.299 224.056 287.136 L220.68 266.426 C224.262 267.127 230.994 272.996 233.648 275.117 234.549 272.544 235.437 266.163 237.22 264.331 Z" fill="#9d979b" fill-opacity="1" stroke="none"/>
 <path id="Путь-71" d="M430.496 252.103 L431.733 252.084 C432.224 253.359 432.075 254.195 432.381 255.026 432.616 256.572 431.949 260.793 431.704 262.384 431.202 261.101 430.687 253.89 430.496 252.103 Z" fill="#e2e2e0" fill-opacity="1" stroke="none"/>
 <path id="Путь-72" d="M941.217 251.469 L943.111 252.304 C945.84 253.887 952.944 258.213 955.526 259.41 L957.596 260.637 C960.385 262.263 968.181 266.646 970.259 268.262 L971.24 268.597 C973.647 270.049 984.279 276.037 985.353 276.954 L986.188 277.16 C996.943 283.922 1012.48 292.224 1024 298.789 L1024 300 980.257 300 C977.006 297.744 970.791 292.384 967.694 290.878 965.092 289.613 958.324 287.393 954.887 285.912 955.729 283.304 938.936 262.114 938.29 257.707 L938.924 257.736 C948.287 266.697 960.038 275.317 969.945 284.046 972.92 286.667 978.398 289.314 980.822 291.936 981.474 292.652 983.548 294.084 984.467 294.697 L985.079 294.671 C984.653 293.409 983.142 292.552 981.827 291.623 981.26 290.982 980.22 290.328 979.554 289.696 968.697 279.392 957.565 269.164 947.535 258.437 945.819 256.602 942.127 253.299 941.217 251.469 Z" fill="#9d979b" fill-opacity="1" stroke="none"/>
 <path id="Путь-73" d="M139.622 253.056 C137.233 254.655 133.032 259.082 129.917 258.92 L129.105 258.224 C128.58 256.627 129.479 253.807 129.887 252.072 130.498 253.053 132.157 253.702 132.197 253.772 132.671 254.599 131.508 255.902 132.362 257.098 134.892 256.732 136.529 253.045 139.834 253.329 140.144 254.235 139.534 255.112 139.121 256.108 L139.758 256.564 139.355 257.247 138.313 257.545 137.902 256.969 Z" fill="#f3f3f3" fill-opacity="1" stroke="none"/>
 <path id="Путь-74" d="M909.133 255.859 C910.202 254.986 911.661 253.864 912.578 252.942 915.365 255.389 929.922 268.373 931.266 270.729 925.433 268.491 914.056 259.587 909.133 255.859 Z" fill="#9d979b" fill-opacity="1" stroke="none"/>
 <path id="Путь-75" d="M380.827 300 C407.808 287.444 435.453 276.111 460.681 261.559 465.006 259.064 469.195 256.193 473.803 254.031 472.442 255.743 462 262.965 459.375 265.165 450.481 272.704 441.659 280.286 432.91 287.911 429.195 291.14 422.668 297.099 418.769 300 Z" fill="#a4aab1" fill-opacity="1" stroke="none"/>
 <path id="Путь-76" d="M145.014 255.641 C145.567 254.933 145.712 254.622 146.638 254.138 L147.062 255.002 146.725 256.222 C145.811 256.12 145.768 256.059 145.014 255.641 Z" fill="#90888d" fill-opacity="1" stroke="none"/>
 <path id="Путь-77" d="M569.932 267.281 C566.979 266.48 564.529 265.662 561.671 264.699 556.466 275.669 552.926 288.614 547.872 300 L523.559 300 C528.783 294.045 534.949 288.201 540.381 282.286 549.039 272.856 557.412 263.312 566.047 253.874 567.156 258.398 569.1 262.564 569.932 267.281 Z" fill="#b3b7bc" fill-opacity="1" stroke="none"/>
 <path id="Путь-78" d="M118.822 263.207 C120.767 260.899 122.46 256.871 125.909 255.811 124.158 259.21 121.83 263.637 121.156 267.168 120.984 266.345 120.782 265.732 120.512 264.928 L119.86 264.77 118.044 266.216 C118.539 264.98 118.64 264.491 118.822 263.207 Z" fill="#90888d" fill-opacity="1" stroke="none"/>
 <path id="Путь-79" d="M904.914 259.122 L909.133 255.859 C914.056 259.587 925.433 268.491 931.266 270.729 941.492 279.433 940.534 281.172 954.887 285.912 958.324 287.393 965.092 289.613 967.694 290.878 970.791 292.384 977.006 297.744 980.257 300 L936.96 300 C930.314 291.377 923.526 282.809 916.598 274.299 913.24 270.138 907.354 263.231 904.914 259.122 Z" fill="#b3b7bc" fill-opacity="1" stroke="none"/>
 <path id="Путь-80" d="M86.56 266.211 C91.362 264.035 98.077 259.052 101.987 255.903 95.718 265.181 89.107 274.338 82.159 283.365 79.559 286.816 74.923 293.331 71.9 296.412 81.231 292.278 96.892 282.364 107.002 277.126 100.511 285.238 91.806 292.332 84.971 300 L34.445 300 C37.793 298.509 45.526 293.301 48.716 291.191 56.998 285.706 65.234 280.186 73.424 274.632 77.573 271.833 82.821 268.966 86.56 266.211 Z" fill="#b3b7bc" fill-opacity="1" stroke="none"/>
 <path id="Путь-81" d="M823.765 285.834 C819.765 280.394 793.644 264.609 792.724 262.349 L798.93 265.564 C800.114 266.106 802.214 267.267 803.445 267.198 L803.821 266.795 C804.208 267.972 804.241 268.352 805.481 269.144 806.19 269.279 806.566 269.464 807.06 269.289 808.184 269.776 809.464 270.303 810.543 270.822 L810.357 271.279 C812.391 272.395 815.771 274.51 818.151 274.713 L818.6 274.709 818.126 275.238 C819.089 275.844 819.243 275.908 820.436 276.246 821.983 277.224 826.377 279.555 828.152 280.213 829.475 281.106 832.751 282.732 834.497 283.084 841.161 286.382 847.856 289.647 854.583 292.879 856.91 294.029 865.588 298.42 867.809 298.989 L869.527 300 822.547 300 C813.726 295.949 801.449 292.55 791.913 288.106 791.348 287.143 790.661 286.474 789.893 285.604 782.579 277.307 777.9 267.813 773.062 258.627 L773.209 258.704 C783.172 264.044 795.822 275.801 804.59 282.718 816.218 291.892 817.625 291.851 832.97 297.54 828.237 294.803 824.747 291.654 820.479 288.834 810.886 282.497 804.205 277.714 795.895 270.424 L796.343 270.389 C803.232 273.407 817.292 281.969 823.765 285.834 Z" fill="#a4aab1" fill-opacity="1" stroke="none"/>
 <path id="Путь-82" d="M58.823 265.766 L61.954 264.113 C61.93 264.198 61.639 265.224 61.639 265.224 49.821 274.537 38.073 284.027 27.091 293.859 29.489 292.826 39.132 286.81 42.043 285.104 52.248 279.242 62.298 273.244 72.188 267.113 76.157 264.664 81.734 261.394 85.337 258.789 82.812 262.121 81.076 264.609 79.038 268.124 81.383 267.416 84.082 266.482 86.56 266.211 82.821 268.966 77.573 271.833 73.424 274.632 65.234 280.186 56.998 285.706 48.716 291.191 45.526 293.301 37.793 298.509 34.445 300 L-0 300 -0 297.927 C1.756 297.153 5.376 295.009 7.144 294.017 9.529 292.863 12.812 290.928 15.167 289.624 16.218 289.219 21.691 285.991 22.959 285.264 L29.944 281.471 37.224 277.399 C39.239 276.542 42.526 274.612 44.492 273.519 L53.002 268.797 Z" fill="#9d979b" fill-opacity="1" stroke="none"/>
 <path id="Путь-83" d="M630.224 300 C638.969 288.194 639.112 284.168 642.264 271.284 645.909 269.155 655.892 263.077 659.435 261.43 674.163 274.415 686.651 286.308 700.289 300 Z" fill="#9fa9af" fill-opacity="1" stroke="none"/>
 <path id="Путь-84" d="M118.822 263.207 C118.64 264.491 118.539 264.98 118.044 266.216 117.005 267.383 114.405 272.047 112.529 274.344 114.205 270.027 116.019 267.149 118.822 263.207 Z" fill="#e2e2e0" fill-opacity="1" stroke="none"/>
 <path id="Путь-85" d="M900.883 272.192 C900.293 272.467 900.533 272.394 899.632 272.272 897.686 270.141 895.34 266.497 893.648 264.119 896.972 265.164 898.616 269.408 900.883 272.192 Z" fill="#9d979b" fill-opacity="1" stroke="none"/>
 <path id="Путь-86" d="M561.671 264.699 C564.529 265.662 566.979 266.48 569.932 267.281 572.565 277.292 577.717 289.707 581.011 300 L547.872 300 C552.926 288.614 556.466 275.669 561.671 264.699 Z" fill="#9fa9af" fill-opacity="1" stroke="none"/>
 <path id="Путь-87" d="M807.06 269.289 C808.051 267.627 809.194 265.567 810.371 264.013 810.499 266.188 810.734 268.68 810.543 270.822 809.464 270.303 808.184 269.776 807.06 269.289 Z" fill="#9d979b" fill-opacity="1" stroke="none"/>
 <path id="Путь-88" d="M854.583 292.879 C856.623 287.595 857.791 276.57 859.736 269.974 L866.49 265.999 C871.319 268.802 878.884 272.904 882.463 276.264 886.8 280.337 890.563 285.307 895.261 289.272 899.377 292.747 906.017 295.392 910.27 298.482 896.168 298.539 881.873 298.464 867.809 298.989 865.588 298.42 856.91 294.029 854.583 292.879 Z" fill="#857c7d" fill-opacity="1" stroke="none"/>
 <path id="Путь-89" d="M431.921 267.208 C431.563 268.107 430.974 268.853 429.83 269.261 429.866 268.078 430.237 268.162 431.533 267.01 Z" fill="#a4aab1" fill-opacity="1" stroke="none"/>
 <path id="Путь-90" d="M147.761 278.987 L149.076 279.392 148.519 280.489 148.12 280.397 Z" fill="#f3f3f3" fill-opacity="1" stroke="none"/>
 <path id="Путь-91" d="M180.419 300 C185.619 293.09 191.554 285.649 196.433 278.713 198.937 283.596 201.49 288.467 204.093 293.324 204.874 294.797 206.844 298.844 207.694 300 L203.493 300 C200.634 295.126 197.904 289.984 195.177 285.055 192.506 289.719 190.262 295.15 188.105 300 Z" fill="#9d979b" fill-opacity="1" stroke="none"/>
 <path id="Путь-92" d="M97.942 300 L133.651 281.059 C127.892 286.977 120.803 293.941 115.571 300 Z" fill="#9d979b" fill-opacity="1" stroke="none"/>
 <path id="Путь-93" d="M610.022 292.234 C611.208 290.806 612.108 287.943 612.748 286.231 618.144 290.912 623.692 295.504 629.388 300 L583.268 300 C586.086 296.067 590.694 286.329 592.97 281.899 597.863 286.514 604.536 292.161 609.996 296.361 Z" fill="#9fa9af" fill-opacity="1" stroke="none"/>
 <path id="Путь-94" d="M188.105 300 C190.262 295.15 192.506 289.719 195.177 285.055 197.904 289.984 200.634 295.126 203.493 300 Z" fill="#90888d" fill-opacity="1" stroke="none"/>
 <path id="Путь-95" d="M981.827 291.623 C983.142 292.552 984.653 293.409 985.079 294.671 L984.467 294.697 C983.548 294.084 981.474 292.652 980.822 291.936 Z" fill="#90888d" fill-opacity="1" stroke="none"/>
</svg>
